<svg width="143" height="60" viewBox="0 0 143 60" fill="none" xmlns="http://www.w3.org/2000/svg">
<g clip-path="url(#clip0_7726_1336)">
<mask id="mask0_7726_1336" style="mask-type:luminance" maskUnits="userSpaceOnUse" x="0" y="0" width="143" height="60">
<path d="M142.979 0H0V60H142.979V0Z" fill="white"/>
</mask>
<g mask="url(#mask0_7726_1336)">
<path d="M34.6439 33.3096C37.1036 33.3096 42.5636 34.1649 42.5636 37.3596V40.0979H39.1605V38.5277C39.1605 37.0149 36.4736 36.5011 34.8134 36.5011C30.8951 36.5011 28.0387 39.2394 28.0387 43.5191C28.0387 48.083 31.0135 51.0511 35.0151 51.0511C36.2464 51.0511 39.4194 50.6521 39.4194 49.0532V47.483H42.8228V50.25C42.8228 53.2755 37.59 54.2457 34.7879 54.2457C28.64 54.2457 24.1812 49.5957 24.1812 43.6915C24.178 37.7011 28.752 33.3096 34.6439 33.3096Z" fill="#6B7A83"/>
<path d="M44.3771 51.1979H46.4946V36.3638H44.2363V33.6543H50.1249V40.7298C50.1249 41.4415 50.0388 41.9553 50.0388 41.9553H50.0962C50.8095 40.5575 52.6105 39.016 55.1276 39.016C58.3583 39.016 60.2168 40.7011 60.2168 44.55V51.1979H62.3343V53.9075H56.5861V45.2904C56.5861 43.5224 56.1288 42.3255 54.2991 42.3255C51.7242 42.3255 50.1249 44.55 50.1249 47.2309V51.1979H52.2138V53.9075H44.3803V51.1979H44.3771Z" fill="#6B7A83"/>
<path d="M70.6605 39.0128C74.8637 39.0128 77.1507 42.067 77.1507 45.9159C77.1507 46.3436 77.0642 47.1447 77.0642 47.1447H66.9724C67.1996 49.8255 69.1445 51.1947 71.3483 51.1947C73.7218 51.1947 75.5802 49.6532 75.5802 49.6532L76.9812 52.2223C76.9812 52.2223 74.7517 54.2489 71.0923 54.2489C66.2591 54.2489 63.2588 50.767 63.2588 46.6308C63.2588 42.1532 66.2882 39.0128 70.6605 39.0128ZM73.4084 45.0032C73.3506 43.0053 72.1225 41.8085 70.5775 41.8085C68.7191 41.8085 67.4042 43.0915 67.0589 45.0032H73.4084Z" fill="#6B7A83"/>
<path d="M78.8207 51.1979H80.9347V42.667C80.9347 42.2681 80.7078 42.0702 80.3047 42.0702H78.6768V39.3607H82.4797C83.7656 39.3607 84.3959 39.9607 84.3959 40.9851V41.6426C84.3959 41.9553 84.3381 42.2713 84.3381 42.2713H84.3959C85.1379 40.7872 86.9676 39.0192 89.3698 39.0192C91.4009 39.0192 92.8594 39.9607 93.4288 42.1851H93.4862C94.286 40.4745 96.2309 39.0192 98.5466 39.0192C101.493 39.0192 103.236 40.7298 103.236 44.5532V51.2011H105.353V53.9107H99.6053V45.2394C99.6053 43.583 99.2919 42.3287 97.6029 42.3287C95.1177 42.3287 93.8861 44.8117 93.8861 47.4926V51.2011H96.0037V53.9107H90.2845V45.2394C90.2845 43.6692 90.0286 42.3287 88.3141 42.3287C85.7392 42.3287 84.5686 45.0383 84.5686 47.6649V51.2043H86.6571V53.9138H78.8239V51.1979H78.8207Z" fill="#6B7A83"/>
<path d="M106.626 51.1979H108.744V42.0702H106.485V39.3606H112.374V51.2011H114.463V53.9106H106.629V51.1979H106.626ZM108.712 33.6511H112.371V36.8745H108.712V33.6511Z" fill="#6B7A83"/>
<path d="M115.925 51.1979H118.039V42.0702H115.781V39.3606H118.039V38.7032C118.039 33.9957 121.813 33.3989 123.758 33.3989C124.615 33.3989 125.245 33.5138 125.245 33.5138V36.4245C125.245 36.4245 124.875 36.3383 124.129 36.3383C123.301 36.3383 121.669 36.5074 121.669 38.6202V39.3638H124.958V42.0734H121.669V51.201H124.129V53.9106H115.925V51.1979Z" fill="#6B7A83"/>
<path d="M130.11 56.9298C131.281 56.9298 132.225 56.3011 132.685 55.2447L133.085 54.3319L128.083 42.067H126.339V39.3575H133.517V42.067H131.803L134.461 49.4266C134.717 50.1383 134.777 50.9394 134.777 50.9394H134.864C134.864 50.9394 134.979 50.1415 135.263 49.4266L137.893 42.067H136.207V39.3575H143.097V42.067H141.44L136.063 55.7872C134.947 58.6692 132.775 59.8947 130.286 59.8947C128.172 59.8947 126.739 58.8957 126.739 58.8957L127.913 56.2436C127.91 56.2468 128.767 56.9298 130.11 56.9298Z" fill="#6B7A83"/>
<path d="M7.15448 7.03723C7.66627 6.5266 7.66627 5.69681 7.15448 5.18617C6.64269 4.67553 5.81105 4.67553 5.29927 5.18617C4.78748 5.69681 4.78748 6.5266 5.29927 7.03723C5.81105 7.54787 6.64269 7.54787 7.15448 7.03723ZM8.56509 17.6681C9.00969 17.6202 9.4671 17.5883 9.95329 17.5883C10.27 17.5883 10.577 17.6011 10.8777 17.6234C11.0153 17.6457 11.124 17.7479 11.1432 17.8883V17.8723C11.3095 18.284 11.7094 18.5777 12.1828 18.5777C12.8033 18.5777 13.3087 18.0766 13.3087 17.4543C13.3087 16.8351 12.8065 16.3309 12.1828 16.3309C11.7094 16.3309 11.3095 16.6245 11.1432 17.0362V17.0202C11.124 17.1606 11.0153 17.266 10.8745 17.2851C10.577 17.3074 10.27 17.3202 9.95329 17.3202C9.47032 17.3202 9.01288 17.2851 8.5715 17.2404C8.44033 17.2149 8.33798 17.116 8.3188 16.9819V16.9915C8.11087 16.1553 7.35921 15.533 6.45398 15.533C5.38882 15.533 4.5284 16.3947 4.5284 17.4543C4.5284 18.5138 5.39204 19.3755 6.45398 19.3755C7.35599 19.3755 8.10768 18.7532 8.3188 17.917V17.9234C8.33479 17.7926 8.43714 17.6968 8.56509 17.6681ZM10.7082 11.234L10.7018 11.2404C10.8073 11.1606 10.9481 11.1638 11.0568 11.234C11.4023 11.5149 11.751 11.8149 12.0964 12.1564C12.3203 12.3798 12.5282 12.6064 12.7233 12.833C12.8065 12.9447 12.8097 13.0947 12.7233 13.2096L12.7361 13.1968C12.5602 13.6053 12.637 14.0968 12.9728 14.4287C13.411 14.866 14.1243 14.866 14.5626 14.4287C15.0008 13.9915 15.0008 13.2798 14.5626 12.8426C14.2267 12.5074 13.7373 12.434 13.3279 12.6064L13.3407 12.5936C13.2287 12.6798 13.0784 12.6766 12.9632 12.5936C12.7361 12.3989 12.509 12.1915 12.2851 11.9681C11.9429 11.6266 11.6454 11.2819 11.3639 10.9372C11.2903 10.8255 11.2871 10.6851 11.3671 10.5766L11.3607 10.583C11.8053 9.84575 11.7158 8.87234 11.076 8.23724C10.3244 7.48724 9.10566 7.48724 8.35078 8.23724C7.59909 8.98724 7.59909 10.2032 8.35078 10.9564C8.9937 11.5883 9.96612 11.6777 10.7082 11.234ZM7.20567 21.8585C8.06929 21.4979 8.89773 21.1883 9.69101 20.9138C9.7422 20.9043 9.79336 20.9202 9.82537 20.9553C9.98849 21.0798 10.2092 21.1213 10.4107 21.0351C10.7082 20.9106 10.8521 20.566 10.7242 20.2691C10.5994 19.9723 10.254 19.8287 9.95651 19.9564C9.755 20.0426 9.62705 20.2277 9.60146 20.4319V20.4287C9.60465 20.4957 9.55668 20.5596 9.48309 20.5819H9.48631C8.74742 20.9457 7.96055 21.3096 7.11612 21.6638C6.30366 22.0053 5.51999 22.2989 4.76511 22.5606C4.67875 22.583 4.59238 22.5638 4.52201 22.5128C4.49642 22.4872 4.47401 22.4617 4.44522 22.4362C4.44203 22.4298 4.43565 22.4266 4.43243 22.4202L4.43565 22.4266C4.16377 22.1936 3.77351 22.1138 3.42168 22.2638C2.92269 22.4713 2.68918 23.0426 2.89709 23.5404C3.105 24.0383 3.67758 24.2713 4.17656 24.0638C4.53159 23.917 4.74593 23.5851 4.77149 23.2277L4.77468 23.2309C4.77468 23.2277 4.77468 23.2245 4.77468 23.2181C4.77791 23.1798 4.77468 23.1383 4.77468 23.1C4.78748 23.0234 4.83229 22.9564 4.89944 22.9085C5.62234 22.5574 6.38683 22.2032 7.20567 21.8585ZM1.51848 16.1457C0.792387 16.1457 0.207031 16.733 0.207031 17.4543C0.207031 18.1755 0.795585 18.7628 1.51848 18.7628C2.24137 18.7628 2.82992 18.1755 2.82992 17.4543C2.82992 16.733 2.24457 16.1457 1.51848 16.1457ZM3.43767 12.6702C3.79272 12.8138 4.17976 12.734 4.45164 12.4979L4.44845 12.5011C4.45164 12.4979 4.45483 12.4947 4.45483 12.4915C4.48362 12.466 4.51241 12.4372 4.538 12.4053C4.60196 12.3606 4.68194 12.3415 4.76192 12.3574C5.52318 12.616 6.31324 12.9064 7.1353 13.2415C8.00214 13.5957 8.80818 13.9628 9.56306 14.3266C9.60465 14.3553 9.63025 14.4032 9.63025 14.4511C9.65584 14.6553 9.78379 14.8372 9.98849 14.9202C10.2892 15.0415 10.6314 14.8979 10.753 14.6011C10.8745 14.3011 10.7306 13.9596 10.4331 13.8383C10.2284 13.7553 10.0077 13.7968 9.84775 13.9245L9.85094 13.9213C9.80616 13.9723 9.72621 13.9819 9.65903 13.9468H9.66222C8.88175 13.6819 8.06929 13.3851 7.22166 13.0404C6.40601 12.7053 5.64471 12.3606 4.92503 12.016C4.84828 11.9681 4.80028 11.8947 4.78748 11.8117C4.7907 11.7766 4.7907 11.7415 4.78748 11.7064C4.78748 11.7 4.78751 11.6936 4.7907 11.6872L4.78748 11.6936C4.76192 11.3362 4.54119 11.0074 4.18614 10.8606C3.68715 10.6564 3.1146 10.8957 2.90989 11.3936C2.69878 11.8947 2.93868 12.466 3.43767 12.6702ZM17.5981 2.72234C18.3241 2.72234 18.9095 2.1351 18.9095 1.41383C18.9095 0.692551 18.321 0.105316 17.5981 0.105316C16.872 0.105316 16.2866 0.692551 16.2866 1.41383C16.2866 2.1351 16.872 2.72234 17.5981 2.72234ZM30.2743 12.0191C29.5546 12.3638 28.7933 12.7085 27.9777 13.0436C27.13 13.3883 26.3176 13.6851 25.5371 13.95H25.5403C25.4731 13.9851 25.3964 13.9755 25.3484 13.9245L25.3516 13.9277C25.1917 13.8 24.9677 13.7585 24.7662 13.8415C24.4656 13.9628 24.3216 14.3074 24.4464 14.6043C24.5711 14.9011 24.9134 15.0479 25.2108 14.9234C25.4155 14.8404 25.5435 14.6553 25.5691 14.4543C25.5659 14.4032 25.5915 14.3585 25.6363 14.3298C26.3943 13.9628 27.2004 13.5989 28.064 13.2447C28.8861 12.9096 29.6761 12.6192 30.4374 12.3606C30.5174 12.3479 30.5973 12.3638 30.6613 12.4085C30.6869 12.4372 30.7157 12.466 30.7445 12.4947C30.7477 12.4979 30.7509 12.5011 30.7509 12.5043L30.7477 12.5011C31.0164 12.7372 31.4066 12.8202 31.7617 12.6734C32.2608 12.4691 32.5005 11.9011 32.2959 11.4C32.091 10.9021 31.5218 10.6628 31.0196 10.867C30.6645 11.0106 30.447 11.3426 30.4182 11.7L30.415 11.6936C30.4182 11.7 30.415 11.7064 30.4182 11.7128C30.415 11.7479 30.415 11.783 30.4182 11.8181C30.3991 11.8979 30.3511 11.9745 30.2743 12.0191ZM24.3184 17.6234C24.6191 17.6011 24.9262 17.5883 25.2428 17.5883C25.729 17.5883 26.1864 17.6234 26.6311 17.6681C26.759 17.6968 26.8582 17.7926 26.8773 17.9234V17.917C27.0852 18.7532 27.8369 19.3755 28.7421 19.3755C29.8073 19.3755 30.6677 18.5138 30.6677 17.4543C30.6677 16.3947 29.8041 15.533 28.7421 15.533C27.8401 15.533 27.0885 16.1553 26.8773 16.9915V16.9819C26.8582 17.116 26.7558 17.2149 26.6246 17.2404C26.1832 17.2851 25.7258 17.3202 25.2428 17.3202C24.9262 17.3202 24.6191 17.3074 24.3216 17.2851C24.1809 17.2628 24.0753 17.1606 24.0529 17.0202V17.0362C23.8866 16.6245 23.4868 16.3309 23.0134 16.3309C22.3929 16.3309 21.8874 16.8319 21.8874 17.4543C21.8874 18.0734 22.3896 18.5777 23.0134 18.5777C23.4868 18.5777 23.8866 18.284 24.0529 17.8723V17.8883C24.0721 17.7479 24.1777 17.6457 24.3184 17.6234ZM29.8936 7.03723C30.4054 6.5266 30.4054 5.69681 29.8936 5.18617C29.3819 4.67553 28.5502 4.67553 28.0384 5.18617C27.5266 5.69681 27.5266 6.5266 28.0384 7.03723C28.5502 7.54787 29.3819 7.54787 29.8936 7.03723ZM23.829 10.5798L23.8226 10.5734C23.9058 10.6819 23.9026 10.8255 23.8258 10.934C23.5475 11.2787 23.2469 11.6234 22.9046 11.9649C22.6807 12.1883 22.4536 12.3957 22.2265 12.5904C22.1146 12.6734 21.961 12.6766 21.8491 12.5904L21.8619 12.6032C21.4524 12.4277 20.9598 12.5043 20.6272 12.8394C20.189 13.2766 20.189 13.9883 20.6272 14.4255C21.0654 14.8628 21.7787 14.8628 22.2169 14.4255C22.5528 14.0904 22.6263 13.6021 22.4536 13.1936L22.4664 13.2064C22.3832 13.0947 22.3832 12.9447 22.4664 12.8298C22.6615 12.6032 22.8694 12.3766 23.0933 12.1532C23.4356 11.8117 23.7842 11.5117 24.1329 11.2309C24.2448 11.1606 24.3824 11.1574 24.4879 11.2372L24.4816 11.2309C25.2204 11.6745 26.196 11.5851 26.8326 10.9468C27.5843 10.1968 27.5843 8.98085 26.8326 8.22766C26.0809 7.47766 24.8622 7.47766 24.1073 8.22766C23.4772 8.87234 23.3844 9.84256 23.829 10.5798ZM5.29927 27.8713C4.78748 28.3819 4.78748 29.2117 5.29927 29.7223C5.81105 30.233 6.64269 30.233 7.15448 29.7223C7.66627 29.2117 7.66627 28.3819 7.15448 27.8713C6.64269 27.3606 5.81105 27.3606 5.29927 27.8713ZM23.378 30.2553L23.3844 30.2521C23.378 30.2553 23.3716 30.2521 23.3652 30.2553C23.33 30.2521 23.2949 30.2521 23.2597 30.2553C23.1765 30.2394 23.1029 30.1915 23.055 30.1181C22.7095 29.4 22.364 28.6404 22.0282 27.8266C21.6827 26.9809 21.3853 26.1702 21.1198 25.3915V25.3947C21.0846 25.3277 21.0942 25.2511 21.1454 25.2032L21.1422 25.2064C21.2701 25.0468 21.3117 24.8234 21.2285 24.6223C21.107 24.3223 20.7615 24.1787 20.464 24.3032C20.1634 24.4245 20.0194 24.7691 20.1442 25.066C20.2274 25.2702 20.4129 25.3979 20.6144 25.4234C20.6656 25.4202 20.7104 25.4457 20.7391 25.4904C21.107 26.2468 21.4716 27.0511 21.8267 27.9128C22.1625 28.733 22.4536 29.5213 22.7127 30.2809C22.7255 30.3606 22.7095 30.4404 22.6647 30.5043C22.6359 30.5298 22.6072 30.5585 22.5783 30.5872C22.5751 30.5904 22.572 30.5936 22.5688 30.5936L22.572 30.5904C22.3353 30.8585 22.2553 31.2479 22.3992 31.6021C22.6039 32.1 23.1733 32.3394 23.6755 32.1351C24.1745 31.9309 24.4144 31.3628 24.2097 30.8617C24.0689 30.5011 23.7363 30.2809 23.378 30.2553ZM24.4879 23.6745L24.4944 23.6681C24.3856 23.7511 24.2416 23.7479 24.1329 23.6713C23.7874 23.3936 23.442 23.0936 23.0997 22.7521C22.8758 22.5287 22.6679 22.3021 22.4728 22.0755C22.3896 21.9638 22.3864 21.8106 22.4728 21.6989L22.46 21.7117C22.6359 21.3032 22.5592 20.8117 22.2233 20.4798C21.7851 20.0426 21.0718 20.0426 20.6336 20.4798C20.1954 20.917 20.1954 21.6287 20.6336 22.066C20.9694 22.4011 21.4588 22.4745 21.8683 22.3021L21.8555 22.3149C21.9674 22.2319 22.1177 22.2319 22.2329 22.3149C22.46 22.5096 22.6871 22.717 22.911 22.9404C23.2533 23.2819 23.5539 23.6298 23.8354 23.9777C23.9058 24.0894 23.909 24.2266 23.829 24.3319L23.8354 24.3255C23.3908 25.0628 23.4804 26.0362 24.1201 26.6713C24.8718 27.4213 26.0905 27.4213 26.8454 26.6713C27.597 25.9213 27.597 24.7053 26.8454 23.9521C26.1992 23.3202 25.2268 23.2309 24.4879 23.6745ZM28.0384 27.8713C27.5266 28.3819 27.5266 29.2117 28.0384 29.7223C28.5502 30.233 29.3819 30.233 29.8936 29.7223C30.4054 29.2117 30.4054 28.3819 29.8936 27.8713C29.3819 27.3606 28.5502 27.3606 28.0384 27.8713ZM20.4065 10.6149C20.7039 10.7394 21.0494 10.5989 21.1741 10.3021C21.2605 10.1011 21.2189 9.87766 21.0942 9.71809C21.0558 9.68298 21.043 9.63511 21.0526 9.58404C21.3277 8.79255 21.638 7.96277 21.9994 7.10426C22.3417 6.28724 22.6967 5.52447 23.0518 4.80638C23.0997 4.73936 23.1669 4.69787 23.2437 4.68192C23.2853 4.68511 23.3236 4.68511 23.362 4.68192C23.3652 4.68192 23.3684 4.68192 23.3748 4.68192L23.3716 4.67872C23.7299 4.65638 24.0625 4.43936 24.2097 4.08511C24.4176 3.58724 24.1841 3.01596 23.6851 2.80851C23.1861 2.60106 22.6135 2.83404 22.4056 3.33192C22.2585 3.68617 22.3352 4.07234 22.5688 4.34362L22.5624 4.34043C22.5688 4.34362 22.572 4.35 22.5783 4.35319C22.6007 4.37872 22.6263 4.40426 22.6551 4.42979C22.7031 4.5 22.7223 4.58617 22.7031 4.67234C22.4376 5.42234 22.1433 6.20426 21.8043 7.01809C21.4493 7.86064 21.0846 8.64255 20.7199 9.38298V9.37979C20.6976 9.45319 20.6336 9.50107 20.5664 9.49787H20.5696C20.3649 9.52021 20.1794 9.64787 20.093 9.85213C19.9683 10.1457 20.109 10.4904 20.4065 10.6149ZM33.6746 16.1457C32.9482 16.1457 32.3629 16.733 32.3629 17.4543C32.3629 18.1755 32.9514 18.7628 33.6746 18.7628C34.3975 18.7628 34.986 18.1755 34.986 17.4543C34.986 16.733 34.4007 16.1457 33.6746 16.1457ZM31.7617 22.2638C31.4098 22.117 31.0196 22.1936 30.7477 22.4266L30.7509 22.4202C30.7477 22.4266 30.7413 22.4298 30.7381 22.4362C30.7125 22.4585 30.6869 22.484 30.6613 22.5128C30.591 22.5606 30.5046 22.5798 30.4182 22.5606C29.6665 22.2957 28.8829 22.0021 28.0672 21.6638C27.2228 21.3096 26.4391 20.9457 25.697 20.5819H25.7002C25.6267 20.5596 25.5787 20.4957 25.5819 20.4287V20.4319C25.5595 20.2277 25.4315 20.0426 25.2268 19.9564C24.9293 19.8319 24.5839 19.9723 24.4591 20.2691C24.3344 20.566 24.4752 20.9106 24.7726 21.0351C24.9742 21.1213 25.198 21.0798 25.358 20.9553C25.3932 20.917 25.4411 20.9043 25.4923 20.9138C26.2856 21.1883 27.1172 21.4979 27.9777 21.8585C28.7965 22.2 29.561 22.5543 30.2807 22.9085C30.3479 22.9564 30.3894 23.0234 30.4054 23.1C30.4022 23.1415 30.4022 23.1798 30.4054 23.2181C30.4054 23.2213 30.4054 23.2245 30.4054 23.2309L30.4086 23.2277C30.431 23.5851 30.6485 23.917 31.0036 24.0638C31.5026 24.2713 32.075 24.0383 32.2831 23.5404C32.4941 23.0457 32.2608 22.4745 31.7617 22.2638ZM18.0619 26.7128H18.0683C17.9371 26.6936 17.8411 26.5947 17.8124 26.467C17.7644 26.0234 17.7324 25.567 17.7324 25.0819C17.7324 24.766 17.7452 24.4596 17.7676 24.1596C17.79 24.0223 17.8923 23.9138 18.0331 23.8947H18.0171C18.4297 23.7287 18.724 23.3298 18.724 22.8574C18.724 22.2383 18.2218 21.734 17.5981 21.734C16.9775 21.734 16.4721 22.2351 16.4721 22.8574C16.4721 23.3298 16.7664 23.7287 17.179 23.8947H17.1631C17.3038 23.9138 17.4093 24.0223 17.4285 24.1628C17.4509 24.4596 17.4637 24.766 17.4637 25.0819C17.4637 25.5638 17.4286 26.0202 17.3837 26.4606C17.3582 26.5915 17.259 26.6936 17.1247 26.7128H17.1343C16.2962 26.9202 15.6725 27.6702 15.6725 28.5734C15.6725 29.6362 16.5361 30.4947 17.5981 30.4947C18.66 30.4947 19.5236 29.633 19.5236 28.5734C19.5236 27.6734 18.8999 26.9234 18.0619 26.7128ZM14.7289 24.2936C14.4282 24.1723 14.0859 24.316 13.9644 24.6128C13.8812 24.817 13.9228 25.0372 14.0508 25.1968L14.0476 25.1936C14.0987 25.2383 14.1084 25.3181 14.0731 25.3851V25.3819C13.8077 26.1606 13.5102 26.9713 13.1648 27.817C12.8289 28.6309 12.4834 29.3904 12.138 30.1085C12.09 30.1851 12.0164 30.233 11.9333 30.2457C11.8981 30.2426 11.8629 30.2426 11.8277 30.2457C11.8213 30.2457 11.8149 30.2457 11.8085 30.2426L11.8149 30.2457C11.4567 30.2713 11.1272 30.4915 10.9801 30.8457C10.7754 31.3436 11.0153 31.9149 11.5142 32.1191C12.0132 32.3234 12.5858 32.084 12.7905 31.5862C12.9344 31.2319 12.8545 30.8457 12.6178 30.5745L12.621 30.5777C12.6178 30.5745 12.6146 30.5713 12.6114 30.5713C12.5858 30.5426 12.557 30.5138 12.525 30.4883C12.4802 30.4245 12.461 30.3447 12.4771 30.2649C12.7361 29.5053 13.0272 28.717 13.3631 27.8968C13.7181 27.0319 14.0859 26.2277 14.4506 25.4745C14.4794 25.433 14.5274 25.4074 14.5754 25.4074C14.7801 25.3819 14.9624 25.2543 15.0456 25.05C15.1735 24.7564 15.0295 24.4149 14.7289 24.2936ZM14.6233 9.49468C14.5593 9.49787 14.4954 9.45 14.473 9.3766V9.37979C14.1084 8.64255 13.7437 7.85745 13.3886 7.01489C13.0464 6.20426 12.7521 5.42234 12.4898 4.66915C12.4674 4.58298 12.4866 4.49681 12.5378 4.4266C12.5634 4.40106 12.589 4.37872 12.6146 4.35C12.621 4.34681 12.6242 4.34043 12.6306 4.33724L12.6242 4.34043C12.8577 4.06915 12.9376 3.67979 12.7873 3.32872C12.5794 2.83085 12.0069 2.59788 11.5079 2.80532C11.0089 3.01277 10.7754 3.58404 10.9833 4.08192C11.1304 4.43617 11.4631 4.65 11.8213 4.67553L11.8181 4.67872C11.8213 4.67872 11.8245 4.67872 11.8309 4.67872C11.8693 4.68192 11.9109 4.67872 11.9492 4.67872C12.026 4.69149 12.0932 4.73617 12.1412 4.80319C12.4962 5.52128 12.8481 6.28404 13.1935 7.10107C13.555 7.96277 13.8653 8.78936 14.1403 9.58085C14.1499 9.63192 14.1339 9.68298 14.0987 9.7149C13.974 9.87766 13.9324 10.0979 14.0188 10.2989C14.1435 10.5957 14.489 10.7394 14.7864 10.6117C15.0839 10.4872 15.2279 10.1426 15.0999 9.84575C15.0167 9.64468 14.828 9.51702 14.6233 9.49468ZM17.5981 4.41383C16.5329 4.41383 15.6725 5.27553 15.6725 6.33511C15.6725 7.23511 16.2962 7.98511 17.1343 8.19575H17.1247C17.259 8.2149 17.3582 8.31702 17.3837 8.44787C17.4286 8.8883 17.4637 9.34468 17.4637 9.8266C17.4637 10.1426 17.4509 10.4489 17.4285 10.7457C17.4061 10.8862 17.3038 10.9915 17.1631 11.0138H17.179C16.7664 11.1798 16.4721 11.5787 16.4721 12.0511C16.4721 12.6702 16.9743 13.1745 17.5981 13.1745C18.2186 13.1745 18.724 12.6734 18.724 12.0511C18.724 11.5787 18.4297 11.1798 18.0171 11.0138H18.0331C17.8923 10.9947 17.79 10.8862 17.7676 10.7489C17.7452 10.4489 17.7324 10.1426 17.7324 9.8266C17.7324 9.34149 17.7676 8.88511 17.8124 8.44149C17.8411 8.31383 17.9371 8.2117 18.0683 8.19575H18.0619C18.8999 7.9883 19.5236 7.2383 19.5236 6.33511C19.5236 5.27553 18.66 4.41383 17.5981 4.41383ZM11.3639 24.3287L11.3703 24.3351C11.2903 24.2298 11.2935 24.0894 11.3639 23.9809C11.6454 23.6362 11.9461 23.2883 12.2883 22.9436C12.5122 22.7202 12.7393 22.5128 12.9664 22.3181C13.0784 22.2351 13.2287 22.2319 13.3439 22.3181L13.3311 22.3053C13.7405 22.4809 14.2331 22.4043 14.5658 22.0692C15.004 21.6319 15.004 20.9202 14.5658 20.483C14.1275 20.0457 13.4142 20.0457 12.976 20.483C12.6402 20.8181 12.5666 21.3064 12.7393 21.7149L12.7265 21.7021C12.8129 21.8138 12.8097 21.9638 12.7265 22.0787C12.5314 22.3053 12.3235 22.5319 12.0996 22.7553C11.7573 23.0968 11.4119 23.3936 11.0664 23.6745C10.9545 23.7479 10.8137 23.7511 10.705 23.6713L10.7114 23.6777C9.9725 23.234 8.99693 23.3234 8.36038 23.9617C7.60869 24.7117 7.60869 25.9277 8.36038 26.6809C9.11207 27.4309 10.3307 27.4309 11.0856 26.6809C11.7189 26.0394 11.8085 25.0692 11.3639 24.3287ZM17.5981 32.1862C16.872 32.1862 16.2866 32.7734 16.2866 33.4947C16.2866 34.216 16.8752 34.8032 17.5981 34.8032C18.3241 34.8032 18.9095 34.216 18.9095 33.4947C18.9095 32.7734 18.321 32.1862 17.5981 32.1862Z" fill="url(#paint0_linear_7726_1336)"/>
<path d="M8.29334 13.6085C8.48208 13.1521 8.26455 12.6319 7.81037 12.4404C7.35296 12.2521 6.83157 12.4691 6.63967 12.9223C6.45092 13.3787 6.66842 13.8989 7.12263 14.0904C7.58004 14.2819 8.10462 14.0649 8.29334 13.6085ZM11.9622 19.9436C12.2309 19.8 12.5092 19.6564 12.8162 19.5319C13.0145 19.4489 13.2129 19.3787 13.408 19.3149C13.5008 19.2925 13.5967 19.3308 13.6447 19.4138L13.6415 19.4042C13.8558 19.6213 14.1852 19.7011 14.4827 19.5766C14.873 19.4138 15.0617 18.967 14.8985 18.5777C14.7354 18.1883 14.2876 18 13.8974 18.1628C13.5999 18.2872 13.424 18.5745 13.4272 18.8777L13.424 18.8681C13.4464 18.9606 13.408 19.0564 13.3248 19.1042C13.1425 19.1968 12.9538 19.283 12.7523 19.366C12.4484 19.4904 12.1509 19.5894 11.8598 19.6755C11.7703 19.6947 11.6807 19.6596 11.6327 19.5798L11.6359 19.5862C11.2873 19.1138 10.6507 18.9159 10.0814 19.1521C9.40965 19.4298 9.09299 20.1957 9.37129 20.8659C9.64956 21.5362 10.4172 21.8521 11.089 21.5745C11.6583 21.3383 11.9686 20.7511 11.8822 20.1702L11.8854 20.1766C11.8503 20.0808 11.8886 19.9947 11.9622 19.9436ZM11.6295 15.3287L11.6263 15.3351C11.6743 15.2553 11.7607 15.2234 11.8502 15.2394C12.1413 15.3255 12.4388 15.4245 12.7459 15.5489C12.9442 15.6319 13.1361 15.7213 13.3184 15.8106C13.4016 15.8617 13.44 15.9542 13.4176 16.0468L13.4208 16.0372C13.4176 16.3404 13.5935 16.6308 13.891 16.7521C14.2812 16.9149 14.7322 16.7298 14.8922 16.3372C15.0553 15.9479 14.8698 15.4979 14.4763 15.3383C14.1789 15.2138 13.8494 15.2936 13.6351 15.5106L13.6383 15.5011C13.5903 15.584 13.4943 15.6223 13.4016 15.6C13.2065 15.5362 13.0113 15.4628 12.8098 15.383C12.506 15.2585 12.2277 15.1181 11.959 14.9713C11.8822 14.9202 11.8438 14.8308 11.8662 14.7415L11.863 14.7479C11.9494 14.167 11.6391 13.5798 11.0698 13.3436C10.3981 13.066 9.63038 13.3851 9.35208 14.0521C9.07381 14.7223 9.39367 15.4883 10.0622 15.766C10.6412 15.9989 11.2777 15.8011 11.6295 15.3287ZM12.2021 22.9372C12.6499 22.484 13.0945 22.0755 13.5199 21.6925C13.5487 21.6734 13.5871 21.6702 13.6159 21.683C13.7502 21.7213 13.9006 21.6862 14.0061 21.5808C14.1629 21.4245 14.1597 21.1723 14.0029 21.016C13.8462 20.8596 13.5935 20.8628 13.4368 21.0191C13.3312 21.1245 13.2992 21.2745 13.3376 21.4117V21.4085C13.3568 21.45 13.344 21.5011 13.3024 21.5362C12.9314 21.9574 12.5315 22.3915 12.0933 22.8351C11.6711 23.2628 11.2521 23.6489 10.8491 24.0128C10.8011 24.0479 10.7403 24.0606 10.6827 24.0479C10.6603 24.0383 10.638 24.0287 10.6156 24.0191C10.6124 24.016 10.606 24.0159 10.6028 24.0128L10.606 24.016C10.3725 23.9394 10.107 23.9904 9.92467 24.1755C9.66558 24.4372 9.66877 24.8585 9.92786 25.117C10.1901 25.3755 10.6124 25.3755 10.8715 25.1138C11.057 24.9287 11.105 24.6638 11.0282 24.4308L11.0314 24.434C11.0282 24.4308 11.0282 24.4308 11.0282 24.4277C11.0186 24.4021 11.009 24.3766 10.9962 24.3542C10.9834 24.3032 10.993 24.2489 11.025 24.2011C11.3864 23.7862 11.7767 23.3649 12.2021 22.9372ZM7.12263 20.8181C6.66523 21.0064 6.44773 21.5298 6.63967 21.9862C6.82838 22.4425 7.35296 22.6596 7.81037 22.4681C8.26777 22.2798 8.48527 21.7564 8.29334 21.3C8.10462 20.8436 7.58004 20.6266 7.12263 20.8181ZM7.4233 18.1277C7.68561 18.1277 7.90949 17.9745 8.01507 17.7542V17.7574C8.01507 17.7542 8.01826 17.7511 8.01826 17.7511C8.03106 17.7255 8.04067 17.7032 8.05024 17.6745C8.07903 17.6298 8.12384 17.5979 8.17819 17.5851C8.72518 17.55 9.29773 17.5277 9.90545 17.5245C10.542 17.5213 11.1465 17.5436 11.7191 17.5755C11.7543 17.5819 11.7831 17.6042 11.7927 17.6362C11.863 17.7574 11.991 17.8404 12.1413 17.8404C12.362 17.8404 12.5411 17.6585 12.5411 17.4383C12.5411 17.2181 12.3588 17.0394 12.1381 17.0394C11.9878 17.0394 11.8598 17.1255 11.7895 17.2468V17.2436C11.7735 17.2883 11.7287 17.3138 11.6743 17.3106C11.1145 17.3457 10.5228 17.3713 9.89907 17.3745C9.29773 17.3777 8.72837 17.3585 8.1846 17.3298C8.1238 17.3202 8.07584 17.2851 8.04386 17.2372C8.03425 17.2149 8.02787 17.1925 8.01507 17.1702C8.01507 17.167 8.01188 17.1606 8.01188 17.1574V17.1638C7.90311 16.9468 7.67601 16.7936 7.41692 16.7968C7.04907 16.7968 6.75159 17.0968 6.75159 17.4638C6.75478 17.8308 7.05548 18.1277 7.4233 18.1277ZM13.7438 8.17021C14.2012 7.98191 14.4188 7.4585 14.2268 7.00212C14.0381 6.54574 13.5135 6.32872 13.0561 6.52021C12.5987 6.7085 12.3812 7.23191 12.5731 7.68829C12.7619 8.14467 13.2864 8.36169 13.7438 8.17021ZM24.1618 10.7298C23.7972 11.1351 23.4101 11.55 22.9815 11.9713C22.5401 12.4085 22.1019 12.8074 21.6797 13.1777C21.6445 13.216 21.5933 13.2319 21.5517 13.2128H21.5549C21.4206 13.1745 21.2702 13.2064 21.1615 13.3117C21.0047 13.4681 21.0047 13.7202 21.1583 13.8766C21.3118 14.033 21.5677 14.033 21.7245 13.8798C21.83 13.7745 21.8652 13.6245 21.8268 13.4904C21.814 13.4585 21.8172 13.4234 21.8364 13.3947C22.217 12.967 22.6297 12.5266 23.0839 12.0798C23.5125 11.6553 23.9379 11.2659 24.3474 10.9053C24.3953 10.8766 24.4497 10.867 24.5009 10.8766C24.5265 10.8894 24.5489 10.8989 24.5744 10.9085C24.5777 10.9085 24.5777 10.9117 24.5808 10.9117L24.5777 10.9085C24.808 10.9883 25.0766 10.9372 25.2622 10.7521C25.5244 10.4936 25.5244 10.0723 25.2654 9.81063C25.0063 9.54893 24.584 9.54893 24.3218 9.80744C24.1362 9.99255 24.085 10.2574 24.1618 10.4872L24.1586 10.484C24.1618 10.4872 24.1618 10.4936 24.165 10.4968C24.1714 10.5191 24.181 10.5415 24.1938 10.5638C24.2098 10.6213 24.2002 10.6787 24.1618 10.7298ZM21.8748 15.8106C22.0571 15.7181 22.249 15.6319 22.4473 15.5489C22.7544 15.4213 23.0519 15.3255 23.343 15.2394C23.4325 15.2234 23.5189 15.2585 23.5669 15.3351L23.5637 15.3287C23.9123 15.8011 24.5521 15.9989 25.1182 15.7628C25.7899 15.4851 26.1066 14.7191 25.8283 14.0489C25.55 13.3787 24.7824 13.0628 24.1106 13.3404C23.5413 13.5766 23.231 14.1638 23.3174 14.7447L23.3142 14.7383C23.3366 14.8277 23.2982 14.917 23.2214 14.9681C22.9559 15.1117 22.6777 15.2521 22.3706 15.3798C22.1723 15.4628 21.9739 15.533 21.7788 15.5968C21.6861 15.6191 21.5901 15.5808 21.5421 15.4979L21.5453 15.5074C21.331 15.2904 21.0016 15.2106 20.7041 15.3351C20.3139 15.4979 20.1251 15.9447 20.2883 16.334C20.4514 16.7234 20.8992 16.9117 21.2894 16.7489C21.5869 16.6245 21.7628 16.3372 21.7596 16.034L21.7629 16.0436C21.7532 15.9542 21.7948 15.8617 21.8748 15.8106ZM22.6201 7.68829C22.8088 7.23191 22.5913 6.71169 22.1371 6.52021C21.6797 6.33191 21.1583 6.54893 20.9664 7.00212C20.7776 7.4585 20.9952 7.97872 21.4494 8.17021C21.9068 8.3585 22.4313 8.14467 22.6201 7.68829ZM19.7253 11.4989L19.7189 11.4957C19.7989 11.5436 19.834 11.633 19.8149 11.7223C19.7285 12.0128 19.6293 12.3096 19.5046 12.6128C19.4214 12.8106 19.3351 13.0021 19.2423 13.184C19.1943 13.267 19.0984 13.3053 19.0056 13.283L19.0152 13.2862C18.7113 13.283 18.4202 13.4585 18.2987 13.7553C18.1356 14.1447 18.3211 14.5947 18.7145 14.7542C19.1048 14.917 19.5558 14.7319 19.7157 14.3394C19.8405 14.0425 19.7605 13.7138 19.543 13.5L19.5526 13.5032C19.4694 13.4553 19.431 13.3596 19.4534 13.267C19.5174 13.0723 19.591 12.8777 19.6709 12.6766C19.7989 12.3702 19.9396 12.0925 20.0836 11.8245C20.1347 11.7511 20.2211 11.7128 20.3107 11.7351L20.3042 11.7319C20.8864 11.8181 21.475 11.5085 21.7117 10.9404C21.9899 10.2702 21.6701 9.50425 21.0016 9.22659C20.3298 8.94893 19.5622 9.26808 19.2839 9.9351C19.0568 10.5159 19.2519 11.1511 19.7253 11.4989ZM12.5731 27.2202C12.3844 27.6766 12.6019 28.1968 13.0561 28.3883C13.5135 28.5766 14.0349 28.3596 14.2268 27.9064C14.4156 27.45 14.198 26.9298 13.7438 26.7383C13.2864 26.55 12.7619 26.767 12.5731 27.2202ZM24.5872 24.0128L24.5905 24.0096C24.5873 24.0128 24.5808 24.0128 24.5777 24.016C24.5552 24.0223 24.5329 24.0319 24.5105 24.0447C24.4529 24.0574 24.3953 24.0479 24.3441 24.0096C23.9379 23.6457 23.5221 23.2596 23.0999 22.8319C22.6617 22.3915 22.2618 21.9542 21.8908 21.533C21.8524 21.4979 21.8364 21.4468 21.8556 21.4053V21.4085C21.894 21.2745 21.862 21.1245 21.7564 21.016C21.5997 20.8596 21.347 20.8596 21.1903 21.0128C21.0335 21.1659 21.0335 21.4213 21.1871 21.5777C21.2926 21.683 21.443 21.7181 21.5773 21.6798C21.6093 21.667 21.6445 21.6702 21.6733 21.6894C22.1019 22.0691 22.5433 22.4808 22.9911 22.934C23.4165 23.3617 23.8068 23.7862 24.1682 24.1947C24.197 24.2425 24.2066 24.2968 24.197 24.3479C24.1842 24.3734 24.1746 24.3957 24.165 24.4213C24.165 24.4245 24.1618 24.4245 24.1618 24.4277L24.165 24.4245C24.085 24.6542 24.1362 24.9223 24.3218 25.1074C24.5808 25.3691 25.0031 25.3691 25.2654 25.1106C25.5276 24.8521 25.5276 24.4308 25.2685 24.1691C25.0862 23.9904 24.8207 23.9362 24.5872 24.0128ZM23.5669 19.5798L23.5701 19.5734C23.5221 19.6532 23.4325 19.6883 23.343 19.6691C23.0519 19.583 22.7544 19.484 22.4506 19.3596C22.2522 19.2766 22.0603 19.1904 21.878 19.0979C21.7948 19.05 21.7564 18.9542 21.7788 18.8617L21.7756 18.8713C21.7788 18.5681 21.6029 18.2777 21.3054 18.1564C20.9152 17.9936 20.4642 18.1787 20.3042 18.5713C20.1411 18.9606 20.3267 19.4106 20.7201 19.5702C21.0175 19.6947 21.347 19.6149 21.5613 19.3979L21.5581 19.4074C21.6061 19.3245 21.7021 19.2862 21.7948 19.3085C21.99 19.3723 22.1851 19.4457 22.3866 19.5255C22.6937 19.6532 22.9719 19.7936 23.2406 19.9372C23.3142 19.9883 23.3526 20.0745 23.3302 20.1638L23.3334 20.1574C23.247 20.7383 23.5573 21.3255 24.1266 21.5617C24.7983 21.8394 25.566 21.5202 25.8443 20.8532C26.1226 20.183 25.8027 19.417 25.1342 19.1394C24.5521 18.9096 23.9155 19.1074 23.5669 19.5798ZM26.8999 21.3C26.7111 21.7564 26.9286 22.2766 27.3828 22.4681C27.8402 22.6564 28.3616 22.4394 28.5535 21.9862C28.7423 21.5298 28.5248 21.0096 28.0706 20.8181C27.6132 20.6266 27.0918 20.8436 26.8999 21.3ZM17.579 12.4117C17.7997 12.4117 17.9788 12.233 17.982 12.0128C17.982 11.8628 17.8989 11.7351 17.7773 11.6649C17.7453 11.6521 17.7229 11.6266 17.7166 11.5915C17.6846 11.0202 17.6622 10.417 17.6654 9.78191C17.6686 9.17872 17.691 8.60425 17.7262 8.0585C17.739 8.00425 17.7709 7.95957 17.8157 7.93084C17.8413 7.92127 17.8669 7.91169 17.8925 7.89893C17.8957 7.89893 17.8957 7.89574 17.8989 7.89574H17.8957C18.1164 7.78723 18.2667 7.56382 18.2699 7.30531C18.2699 6.93829 17.9756 6.63829 17.6046 6.63829C17.2367 6.63829 16.9361 6.93191 16.9361 7.30212C16.9361 7.56382 17.0864 7.78723 17.3039 7.89574H17.2975C17.3007 7.89574 17.3071 7.89893 17.3103 7.89893C17.3327 7.9085 17.3551 7.91808 17.3775 7.92765C17.4255 7.95957 17.4607 8.00744 17.4703 8.06808C17.4991 8.61063 17.5182 9.17872 17.515 9.77872C17.5119 10.4011 17.4863 10.9915 17.4511 11.55C17.4542 11.6011 17.4287 11.6489 17.3839 11.6649H17.3871C17.2655 11.7319 17.1792 11.8628 17.1792 12.0128C17.1792 12.233 17.3583 12.4117 17.579 12.4117ZM27.3861 12.4436C26.9287 12.6319 26.7111 13.1553 26.9031 13.6117C27.0918 14.0681 27.6164 14.2851 28.0738 14.0936C28.5312 13.9053 28.7487 13.3819 28.5568 12.9255C28.3648 12.4691 27.8435 12.2553 27.3861 12.4436ZM27.7827 16.7968C27.5204 16.7968 27.2965 16.9468 27.1877 17.1638V17.1574C27.1877 17.1606 27.1845 17.167 27.1845 17.1702C27.1749 17.1925 27.1653 17.2149 27.1557 17.2372C27.1238 17.2851 27.0758 17.3202 27.015 17.3298C26.4712 17.3585 25.9019 17.3777 25.3006 17.3745C24.6768 17.3713 24.085 17.3457 23.5253 17.3106C23.4741 17.3138 23.4261 17.2883 23.4101 17.2436V17.2468C23.343 17.1255 23.2118 17.0394 23.0615 17.0394C22.8408 17.0394 22.6616 17.2181 22.6584 17.4383C22.6584 17.6585 22.8376 17.8372 23.0583 17.8404C23.2086 17.8404 23.3366 17.7574 23.4069 17.6362C23.4197 17.6042 23.4453 17.5819 23.4805 17.5755C24.0531 17.5436 24.6576 17.5213 25.2941 17.5245C25.8987 17.5277 26.4744 17.55 27.0214 17.5851C27.0758 17.5979 27.1206 17.6298 27.1494 17.6745C27.159 17.7 27.1686 17.7255 27.1813 17.7511C27.1813 17.7542 27.1845 17.7542 27.1845 17.7574V17.7542C27.2933 17.9745 27.5172 18.1245 27.7763 18.1277C28.1441 18.1277 28.4448 17.834 28.4448 17.4638C28.448 17.0968 28.1505 16.7968 27.7827 16.7968ZM20.3107 23.167L20.317 23.1638C20.2275 23.1862 20.1411 23.1479 20.0899 23.0745C19.946 22.8064 19.8021 22.5287 19.6773 22.2223C19.5941 22.0245 19.5238 21.8266 19.4598 21.6319C19.4374 21.5394 19.4758 21.4436 19.559 21.3957L19.5494 21.3989C19.7669 21.1851 19.8468 20.8596 19.7221 20.5596C19.559 20.1702 19.1112 19.9819 18.7209 20.1447C18.3307 20.3074 18.142 20.7542 18.3051 21.1436C18.4299 21.4404 18.7177 21.616 19.0216 21.6128L19.012 21.616C19.1048 21.5936 19.2007 21.6319 19.2487 21.7149C19.3415 21.8968 19.4278 22.0851 19.511 22.2862C19.6357 22.5894 19.7349 22.8862 19.8212 23.1766C19.8405 23.266 19.8053 23.3553 19.7253 23.4032L19.7317 23.4C19.2583 23.7479 19.06 24.383 19.2967 24.9511C19.575 25.6213 20.3426 25.9372 21.0144 25.6596C21.6861 25.3819 22.0027 24.6159 21.7245 23.9457C21.4846 23.3904 20.8928 23.0808 20.3107 23.167ZM17.579 22.5096C17.3583 22.5096 17.1792 22.6915 17.1792 22.9117C17.1792 23.0617 17.2655 23.1894 17.3871 23.2596H17.3839C17.4287 23.2755 17.4542 23.3202 17.4511 23.3745C17.4863 23.933 17.5119 24.5234 17.515 25.1457C17.5182 25.7457 17.4991 26.3138 17.4703 26.8564C17.4607 26.917 17.4255 26.9649 17.3775 26.9968C17.3551 27.0064 17.3327 27.0128 17.3103 27.0255C17.3071 27.0255 17.3007 27.0287 17.2975 27.0287H17.3039C17.0864 27.1372 16.9329 27.3638 16.9361 27.6223C16.9361 27.9894 17.2367 28.2862 17.6046 28.2862C17.9725 28.2862 18.2699 27.9862 18.2699 27.6191C18.2699 27.3574 18.1164 27.134 17.8957 27.0287H17.8989C17.8957 27.0287 17.8925 27.0255 17.8925 27.0255C17.8669 27.0128 17.8445 27.0032 17.8157 26.9936C17.7709 26.9649 17.739 26.9202 17.7262 26.866C17.691 26.3202 17.6686 25.7489 17.6654 25.1425C17.6622 24.5074 17.6846 23.9042 17.7166 23.333C17.7229 23.2979 17.7453 23.2691 17.7773 23.2596C17.8989 23.1894 17.982 23.0617 17.982 22.9117C17.9788 22.6883 17.7997 22.5096 17.579 22.5096ZM13.6415 13.2128C13.5999 13.2319 13.5487 13.2191 13.5168 13.1777C13.0945 12.8074 12.6595 12.4085 12.2149 11.9713C11.7863 11.55 11.3992 11.1319 11.0346 10.7298C10.9994 10.6819 10.9866 10.6213 10.9994 10.5638C11.009 10.5415 11.0186 10.5191 11.0282 10.4968C11.0314 10.4936 11.0314 10.4872 11.0346 10.484L11.0314 10.4872C11.1082 10.2542 11.057 9.98935 10.8715 9.80744C10.6092 9.54893 10.1869 9.55212 9.92786 9.81063C9.66877 10.0723 9.66877 10.4936 9.93105 10.7521C10.1166 10.9372 10.3821 10.9851 10.6156 10.9085L10.6124 10.9117C10.6156 10.9085 10.6156 10.9085 10.6187 10.9085C10.6443 10.8989 10.6699 10.8894 10.6923 10.8766C10.7435 10.8638 10.7979 10.8734 10.8459 10.9053C11.2585 11.2659 11.6807 11.6553 12.1093 12.0798C12.5635 12.5266 12.973 12.9702 13.3568 13.3947C13.376 13.4234 13.3792 13.4617 13.3664 13.4904C13.328 13.6245 13.3632 13.7745 13.4688 13.8798C13.6255 14.0362 13.8782 14.033 14.0349 13.8766C14.1917 13.7202 14.1885 13.4681 14.0317 13.3117C13.9262 13.2064 13.7758 13.1745 13.6415 13.2128ZM14.1852 9.23935C13.5135 9.51701 13.1969 10.283 13.4752 10.9532C13.7118 11.5213 14.3004 11.8308 14.8825 11.7447L14.8762 11.7479C14.9657 11.7255 15.0553 11.7638 15.1065 11.8404C15.2504 12.1053 15.3911 12.383 15.5191 12.6894C15.6023 12.8872 15.6726 13.0851 15.7366 13.2798C15.759 13.3723 15.7206 13.4681 15.6374 13.5159L15.647 13.5128C15.4295 13.7266 15.3496 14.0521 15.4743 14.3521C15.6374 14.7415 16.0853 14.9298 16.4755 14.767C16.8657 14.6042 17.0544 14.1574 16.8913 13.7681C16.7665 13.4713 16.4787 13.2957 16.1748 13.2989L16.1844 13.2957C16.0916 13.3181 15.9957 13.2798 15.9477 13.1968C15.8549 13.0149 15.7686 12.8234 15.6854 12.6255C15.5575 12.3191 15.4615 12.0223 15.3752 11.7319C15.3592 11.6425 15.3943 11.5564 15.4711 11.5085L15.4647 11.5117C15.9381 11.1638 16.1364 10.5255 15.8997 9.96063C15.6246 9.27765 14.857 8.96169 14.1852 9.23935ZM15.4679 23.4096L15.4711 23.4128C15.3911 23.3649 15.3592 23.2787 15.3752 23.1894C15.4615 22.8989 15.5607 22.6021 15.6854 22.2957C15.7686 22.0979 15.8581 21.9064 15.9477 21.7245C15.9989 21.6415 16.0916 21.6032 16.1844 21.6255L16.1748 21.6223C16.4787 21.6255 16.7697 21.45 16.8913 21.1532C17.0544 20.7638 16.8689 20.3138 16.4755 20.1542C16.0853 19.9915 15.6342 20.1766 15.4743 20.5691C15.3496 20.8659 15.4295 21.1947 15.647 21.4085L15.6374 21.4053C15.7206 21.4532 15.759 21.5489 15.7366 21.6415C15.6726 21.8362 15.599 22.0308 15.5191 22.2319C15.3943 22.5351 15.2536 22.8128 15.1065 23.0808C15.0553 23.1574 14.9657 23.1957 14.8762 23.1734L14.8825 23.1766C14.3004 23.0904 13.7118 23.4 13.4752 23.9681C13.1969 24.6383 13.5168 25.4042 14.1852 25.6819C14.857 25.9596 15.6246 25.6404 15.9029 24.9734C16.1364 24.3957 15.9413 23.7606 15.4679 23.4096ZM21.4494 26.7383C20.992 26.9266 20.7745 27.45 20.9664 27.9064C21.1551 28.3628 21.6797 28.5798 22.1371 28.3883C22.5945 28.2 22.812 27.6766 22.6201 27.2202C22.4313 26.767 21.9068 26.55 21.4494 26.7383Z" fill="url(#paint1_linear_7726_1336)"/>
</g>
</g>
<defs>
<linearGradient id="paint0_linear_7726_1336" x1="17.5968" y1="34.8061" x2="17.5968" y2="0.103113" gradientUnits="userSpaceOnUse">
<stop stop-color="#EA5151"/>
<stop offset="1" stop-color="#AE3189"/>
</linearGradient>
<linearGradient id="paint1_linear_7726_1336" x1="22.1533" y1="28.3811" x2="13.1097" y2="6.49956" gradientUnits="userSpaceOnUse">
<stop stop-color="#68BEA4"/>
<stop offset="1" stop-color="#6DB4E4"/>
</linearGradient>
<clipPath id="clip0_7726_1336">
<rect width="142.979" height="60" fill="white"/>
</clipPath>
</defs>
</svg>
