<svg width="58" height="9" viewBox="0 0 58 9" fill="none" xmlns="http://www.w3.org/2000/svg">
<path fill-rule="evenodd" clip-rule="evenodd" d="M2.11315 2.58007C2.11315 1.30807 2.08697 1.12467 1.36492 1.04237L1.16664 1.01617C1.09556 0.967574 1.12175 0.746873 1.19283 0.709473C1.71659 0.735673 2.13186 0.746872 2.63318 0.746872H4.93025C5.47923 0.762672 6.02866 0.750173 6.57636 0.709473C6.67418 1.24747 6.73915 1.79097 6.7709 2.33687C6.73079 2.37507 6.67866 2.39818 6.6234 2.40228C6.56814 2.40638 6.51317 2.39117 6.46786 2.35927C6.28455 1.78687 6.17231 1.35667 5.54006 1.19957C5.14826 1.13477 4.75093 1.10977 4.35411 1.12467H3.4899C3.11579 1.12467 3.11579 1.15087 3.11579 1.61477V4.05777C3.11579 4.39827 3.14946 4.39827 3.51609 4.39827H4.23813C4.58654 4.41357 4.93556 4.38847 5.27818 4.32337C5.42408 4.27477 5.51013 4.20367 5.56999 3.89687L5.66726 3.39557C5.73085 3.32447 5.93662 3.32447 5.98525 3.39557C5.98525 3.68737 5.93662 4.16257 5.93662 4.62647C5.93662 5.09037 5.98525 5.53177 5.98525 5.80117C5.94074 5.83867 5.88443 5.85917 5.82626 5.85917C5.76808 5.85917 5.71177 5.83867 5.66726 5.80117L5.55876 5.32607C5.55147 5.21967 5.51167 5.11817 5.44475 5.03517C5.37783 4.95217 5.28703 4.89177 5.18465 4.86217C4.87392 4.80437 4.55753 4.78307 4.24187 4.79857H3.51609C3.14197 4.79857 3.11579 4.79857 3.11579 5.12777V6.85247C3.11579 7.49587 3.14946 7.91117 3.344 8.12067C3.49364 8.26657 3.74804 8.40127 4.84046 8.40127C5.78323 8.40127 6.1349 8.35267 6.40426 8.21797C6.78529 7.89867 7.08313 7.49177 7.27221 7.03197C7.32391 7.00367 7.38466 6.99687 7.44136 7.01297C7.49806 7.02907 7.54615 7.06677 7.57525 7.11807C7.44097 7.69897 7.25697 8.26717 7.0253 8.81657C5.93038 8.79157 4.84046 8.77907 3.75552 8.77907H2.63692C2.11316 8.77907 1.69789 8.77917 0.975841 8.81657C0.936671 8.77617 0.912951 8.72327 0.908841 8.66727C0.904741 8.61117 0.920511 8.55537 0.953401 8.50977L1.35744 8.47237C2.04956 8.41247 2.10567 8.22917 2.10567 6.94967V2.58007H2.11315Z" fill="#3A3636"/>
<path fill-rule="evenodd" clip-rule="evenodd" d="M9.5468 2.58007C9.5468 1.29677 9.5244 1.10227 8.75368 1.04237L8.45064 1.01617C8.37582 0.967574 8.39827 0.746873 8.47309 0.709473C9.1577 0.735673 9.573 0.746872 10.0593 0.746872C10.5457 0.746872 10.9535 0.746873 11.5558 0.709473C11.6269 0.746873 11.6531 0.967574 11.5783 1.01617L11.2864 1.04237C10.5644 1.10227 10.5382 1.29677 10.5382 2.58007V6.82627C10.5382 7.59687 10.5719 7.91487 10.7926 8.14687C10.9273 8.28157 11.1667 8.42747 12.1245 8.42747C13.1608 8.42747 13.4189 8.37877 13.6209 8.26657C13.9988 7.94877 14.2779 7.52947 14.4253 7.05817C14.5001 6.99837 14.732 7.05817 14.732 7.13297C14.6143 7.71747 14.4427 8.28987 14.2195 8.84267C13.5985 8.81657 12.4387 8.80527 11.1817 8.80527H10.0593C9.5468 8.80527 9.1577 8.80527 8.47309 8.84267C8.43323 8.80277 8.40905 8.74977 8.40493 8.69347C8.40081 8.63717 8.41703 8.58127 8.45064 8.53597L8.82476 8.49857C9.5356 8.42747 9.573 8.25537 9.573 6.97587V2.58007H9.5468Z" fill="#3A3636"/>
<path fill-rule="evenodd" clip-rule="evenodd" d="M17.7763 9.00006C17.1127 9.01976 16.4557 8.86356 15.872 8.54736C15.6739 7.99926 15.5616 7.42386 15.5391 6.84146C15.6027 6.75536 15.786 6.72916 15.8346 6.80406C16.0179 7.42506 16.5192 8.62226 17.9334 8.62226C18.9585 8.62226 19.4598 7.95256 19.4598 7.21926C19.4598 6.68056 19.3513 6.09696 18.4572 5.50956L17.3011 4.76136C16.6876 4.35726 15.9805 3.66146 15.9805 2.65876C15.9805 1.49906 16.8821 0.560059 18.4721 0.560059C18.8516 0.561359 19.2292 0.614159 19.5945 0.717159C19.734 0.755259 19.8768 0.780258 20.021 0.791958C20.1666 1.27746 20.2409 1.78156 20.2417 2.28846C20.1931 2.36326 19.9985 2.40066 19.9387 2.32586C19.7778 1.73846 19.4486 0.945358 18.2776 0.945358C17.1066 0.945358 16.8223 1.73846 16.8223 2.29966C16.8223 3.01046 17.4096 3.51176 17.8623 3.79616L18.8388 4.40596C19.587 4.88106 20.3652 5.59186 20.3652 6.74786C20.3652 8.09096 19.3513 8.99256 17.7463 8.99256L17.7763 9.00006Z" fill="#3A3636"/>
<path fill-rule="evenodd" clip-rule="evenodd" d="M22.8807 2.58007C22.8807 1.30807 22.8545 1.12467 22.1325 1.04237L21.938 1.01617C21.8631 0.967574 21.8893 0.746873 21.9604 0.709473C22.4842 0.735673 22.8994 0.746872 23.4008 0.746872H25.6978C26.2468 0.762672 26.7962 0.750173 27.3439 0.709473C27.4415 1.24757 27.5077 1.79097 27.5422 2.33687C27.5015 2.37537 27.4487 2.39867 27.3928 2.40277C27.3369 2.40687 27.2813 2.39147 27.2354 2.35927C27.0521 1.78687 26.9436 1.35667 26.3076 1.19957C25.9158 1.13477 25.5185 1.10977 25.1217 1.12467H24.2463C23.8721 1.12467 23.8721 1.15087 23.8721 1.61477V4.05777C23.8721 4.39827 23.9096 4.39827 24.2762 4.39827H24.9833C25.3317 4.41337 25.6807 4.38827 26.0233 4.32337C26.1692 4.27477 26.2553 4.20367 26.3151 3.89687L26.4124 3.39557C26.476 3.32447 26.6818 3.32447 26.7304 3.39557C26.7304 3.68737 26.6817 4.16257 26.6817 4.62647C26.6817 5.09037 26.7304 5.53177 26.7304 5.80117C26.6859 5.83867 26.6296 5.85917 26.5714 5.85917C26.5132 5.85917 26.4569 5.83867 26.4124 5.80117L26.3114 5.35227C26.3041 5.24587 26.2643 5.14437 26.1974 5.06137C26.1304 4.97837 26.0396 4.91798 25.9373 4.88828C25.6265 4.83058 25.3101 4.80927 24.9945 4.82467H24.2837C23.9096 4.82467 23.8796 4.82467 23.8796 5.15397V6.87857C23.8796 7.52207 23.917 7.93737 24.1116 8.14687C24.2612 8.29277 24.5156 8.42747 25.5893 8.42747C26.5321 8.42747 26.8838 8.37877 27.1531 8.24417C27.5342 7.92487 27.832 7.51787 28.0211 7.05817C28.0728 7.02987 28.1335 7.02307 28.1902 7.03917C28.2469 7.05527 28.295 7.09297 28.3241 7.14427C28.1898 7.72507 28.0058 8.29337 27.7742 8.84267C26.6793 8.81777 25.5893 8.80527 24.5044 8.80527H23.4045C22.8807 8.80527 22.4655 8.80527 21.7434 8.84267C21.7042 8.80237 21.6805 8.74947 21.6764 8.69337C21.6723 8.63737 21.6881 8.58157 21.721 8.53597L22.125 8.49857C22.8209 8.43867 22.8733 8.25537 22.8733 6.97587V2.58007H22.8807Z" fill="#3A3636"/>
<path fill-rule="evenodd" clip-rule="evenodd" d="M29.8272 2.04128C29.5466 1.35668 29.3632 1.10227 28.8357 1.04237L28.6188 1.01617C28.5985 0.995374 28.5829 0.970472 28.573 0.943172C28.563 0.915872 28.559 0.886773 28.5611 0.857773C28.5632 0.828773 28.5715 0.800574 28.5853 0.775074C28.5991 0.749474 28.6181 0.727073 28.6412 0.709473C29.0153 0.735673 29.3894 0.746872 29.9132 0.746872C30.437 0.746872 30.8747 0.746873 31.3872 0.709473C31.4096 0.727473 31.4281 0.749872 31.4416 0.775272C31.4551 0.800672 31.4633 0.828573 31.4658 0.857273C31.4682 0.885873 31.4648 0.914774 31.4558 0.942074C31.4468 0.969374 31.4324 0.994574 31.4134 1.01617L31.2301 1.04237C30.7662 1.10227 30.6689 1.17707 30.6577 1.27437C30.825 1.85767 31.0286 2.42997 31.2675 2.98777C31.8287 4.40197 32.3898 5.80488 32.9997 7.19658C33.3738 6.39228 33.905 5.13527 34.1706 4.48797C34.5448 3.65747 35.0984 2.27697 35.293 1.75327C35.3586 1.60307 35.3954 1.44187 35.4015 1.27807C35.4015 1.19207 35.2818 1.09477 34.8553 1.04617L34.6345 1.01997C34.6158 0.998374 34.6015 0.973275 34.5925 0.946175C34.5835 0.919075 34.5799 0.890374 34.582 0.861874C34.5841 0.833374 34.5918 0.805575 34.6047 0.780075C34.6175 0.754575 34.6353 0.731773 34.657 0.713173C35.0012 0.739373 35.4651 0.750572 35.929 0.750572C36.3293 0.750572 36.7109 0.750573 37.1112 0.713173C37.1972 0.761773 37.1972 0.960074 37.1374 1.01997L36.7633 1.04617C36.6293 1.05567 36.5001 1.09997 36.3885 1.17477C36.277 1.24957 36.1869 1.35227 36.1273 1.47267C35.624 2.38377 35.1682 3.32027 34.7617 4.27847L34.1033 5.77497C33.6132 6.89727 33.0408 8.31517 32.8313 8.96247C32.7902 8.98537 32.7437 8.99707 32.6966 8.99607C32.634 8.99547 32.572 8.98407 32.5133 8.96247C32.3649 8.40737 32.1774 7.86357 31.9521 7.33507L29.8272 2.04128Z" fill="#3A3636"/>
<path fill-rule="evenodd" clip-rule="evenodd" d="M38.7267 2.6137C38.7267 1.3193 38.7005 1.1173 37.9785 1.0537L37.6717 1.0275C37.5969 0.978804 37.6231 0.758103 37.6979 0.720703C38.3077 0.746903 38.723 0.758102 39.2355 0.758102C39.7481 0.758102 40.1372 0.758103 40.732 0.720703C40.8068 0.758103 40.833 0.978804 40.7582 1.0275L40.4514 1.0537C39.7331 1.1135 39.7032 1.3193 39.7032 2.6137V6.961C39.7032 8.2554 39.7294 8.4275 40.4514 8.5098L40.7582 8.5472C40.833 8.5958 40.8068 8.8166 40.732 8.854C40.1222 8.8278 39.7069 8.8166 39.2355 8.8166C38.7641 8.8166 38.3077 8.8166 37.6979 8.854C37.6575 8.8145 37.6326 8.76181 37.6278 8.70551C37.623 8.64911 37.6386 8.593 37.6717 8.5472L37.9785 8.5098C38.6968 8.4275 38.7267 8.2554 38.7267 6.961V2.6137Z" fill="#3A3636"/>
<path fill-rule="evenodd" clip-rule="evenodd" d="M43.1453 2.58007C43.1453 1.30807 43.1191 1.12467 42.3971 1.04237L42.2025 1.01617C42.1314 0.967574 42.1539 0.746873 42.2287 0.709473C42.7525 0.735673 43.1677 0.746872 43.669 0.746872H45.9624C46.5126 0.762572 47.0633 0.750073 47.6122 0.709473C47.7082 1.24777 47.7731 1.79107 47.8068 2.33687C47.7661 2.37537 47.7133 2.39867 47.6574 2.40277C47.6015 2.40687 47.5459 2.39147 47.5 2.35927C47.3204 1.78687 47.2082 1.35667 46.5722 1.19957C46.1819 1.13227 45.7858 1.10467 45.39 1.11727H44.5108C44.1367 1.11727 44.1367 1.14337 44.1367 1.60727V4.05027C44.1367 4.39077 44.1741 4.39077 44.5407 4.39077H45.2478C45.595 4.40597 45.9427 4.38087 46.2841 4.31587C46.43 4.26727 46.5198 4.19617 46.5797 3.88947L46.6769 3.38807C46.7368 3.31707 46.9463 3.31707 46.9912 3.38807C46.9912 3.67997 46.9463 4.15507 46.9463 4.61897C46.9463 5.08287 46.9912 5.52427 46.9912 5.79367C46.9463 5.87597 46.7368 5.87597 46.6769 5.79367L46.5647 5.31857C46.5579 5.21207 46.5183 5.11027 46.4513 5.02717C46.3843 4.94407 46.2932 4.88387 46.1906 4.85467C45.8811 4.79687 45.566 4.77547 45.2516 4.79107H44.5445C44.1704 4.79107 44.1404 4.79107 44.1404 5.12027V6.84497C44.1404 7.48837 44.1778 7.90367 44.3724 8.11317C44.5183 8.25907 44.7764 8.39377 45.8688 8.39377C46.8079 8.39377 47.1633 8.34517 47.4289 8.21047C47.8099 7.89117 48.1078 7.48428 48.2969 7.02448C48.3491 6.99598 48.4104 6.98907 48.4677 7.00517C48.5251 7.02117 48.5738 7.05907 48.6036 7.11057C48.4676 7.69097 48.2837 8.25907 48.0537 8.80907C46.9538 8.78287 45.8688 8.77168 44.7802 8.77168H43.684C43.1602 8.77168 42.7412 8.77167 42.0229 8.80907C41.9832 8.76917 41.9588 8.71657 41.954 8.66047C41.9492 8.60437 41.9643 8.54837 41.9967 8.50227L42.4008 8.46487C43.0966 8.40497 43.149 8.22167 43.149 6.94217V2.58007H43.1453Z" fill="#3A3636"/>
<path fill-rule="evenodd" clip-rule="evenodd" d="M50.5938 2.5913C50.5938 1.4315 50.5563 1.2258 50.055 1.1622L49.6809 1.11349C49.6594 1.09459 49.6422 1.0713 49.6304 1.0451C49.6186 1.019 49.6125 0.990697 49.6125 0.961997C49.6125 0.933397 49.6186 0.904994 49.6304 0.878894C49.6422 0.852794 49.6594 0.829497 49.6809 0.810497C50.3655 0.746897 51.2073 0.709495 52.4045 0.709495C53.1043 0.668095 53.8038 0.796495 54.4434 1.08359C54.7592 1.24059 55.0229 1.48539 55.2028 1.78879C55.3827 2.09209 55.471 2.4409 55.4573 2.7933C55.4391 3.2483 55.283 3.6869 55.0097 4.0511C54.7364 4.4152 54.3589 4.68769 53.9271 4.83219C53.8673 4.90709 53.9271 5.0268 53.9907 5.1241C54.9672 6.6991 55.6144 7.67929 56.4449 8.37509C56.6827 8.57439 56.9773 8.69349 57.2867 8.71559C57.3014 8.72459 57.3135 8.7373 57.322 8.7523C57.3304 8.7674 57.3348 8.7844 57.3348 8.8016C57.3348 8.8189 57.3304 8.83579 57.322 8.85089C57.3135 8.86599 57.3014 8.87859 57.2867 8.88769C57.1119 8.93159 56.9319 8.95169 56.7517 8.94749C55.7154 8.94749 55.0906 8.6407 54.2227 7.4099C53.9084 6.9572 53.4071 6.11549 53.0293 5.56549C52.9355 5.42659 52.804 5.3176 52.6501 5.2513C52.4963 5.1849 52.3266 5.16419 52.1613 5.19139C51.6114 5.19139 51.5852 5.1914 51.5852 5.457V6.9984C51.5852 8.2779 51.6114 8.4238 52.3334 8.521L52.5915 8.55839C52.6232 8.60469 52.6379 8.66059 52.6332 8.71649C52.6284 8.77239 52.6044 8.825 52.5653 8.8652C52.0154 8.839 51.6001 8.8278 51.1138 8.8278C50.6274 8.8278 50.1598 8.8278 49.5874 8.8652C49.5476 8.8253 49.5232 8.77269 49.5184 8.71659C49.5137 8.66049 49.5288 8.60449 49.5612 8.55839L49.868 8.521C50.5751 8.4387 50.6162 8.2779 50.6162 6.9984V2.5913H50.5938ZM51.5926 4.3384C51.576 4.473 51.5887 4.6096 51.6301 4.7387C51.6675 4.7761 51.8508 4.8023 52.4718 4.8023C52.9143 4.8365 53.3558 4.72479 53.7288 4.48429C54.0618 4.22619 54.3424 3.7997 54.3424 2.9691C54.3424 2.0039 53.7438 1.09859 52.3858 1.09859C51.6375 1.09859 51.5926 1.14719 51.5926 1.47269V4.33089V4.3384Z" fill="#3A3636"/>
</svg>
