<svg width="180" height="39" viewBox="0 0 180 39" fill="none" xmlns="http://www.w3.org/2000/svg">
<g clip-path="url(#clip0_7743_1496)">
<path d="M179.675 25.041L157.08 38.3529L157.01 31.8721C156.993 30.7562 157.273 29.6558 157.821 28.6833C158.369 27.7109 159.165 26.9013 160.128 26.3372L176.382 16.7737C176.756 16.5521 177.184 16.4366 177.619 16.4398C178.054 16.4429 178.48 16.5644 178.85 16.7913C179.221 17.0182 179.524 17.342 179.724 17.7277C179.925 18.1134 180.017 18.5466 179.99 18.9806L179.675 25.041Z" fill="#D7176F"/>
<path d="M179.99 19.0857C180.065 17.7012 179.755 16.3231 179.093 15.1047C178.431 13.8863 177.444 12.8754 176.242 12.1846L169.481 8.2961L161.564 3.74204C161.334 3.60698 161.061 3.56441 160.801 3.62296C160.541 3.6815 160.313 3.83678 160.163 4.05732C160.086 4.17289 160.033 4.30325 160.009 4.44013C159.985 4.577 159.989 4.71741 160.022 4.85245C160.055 4.98749 160.116 5.11421 160.2 5.22458C160.285 5.33495 160.391 5.42656 160.513 5.4936L161.599 6.12416C161.692 6.17533 161.767 6.25218 161.817 6.34543C161.867 6.43868 161.888 6.54434 161.879 6.64963C161.878 6.75119 161.849 6.85052 161.797 6.93771C161.745 7.0249 161.671 7.09691 161.582 7.14654C161.494 7.19617 161.394 7.22169 161.292 7.22055C161.19 7.21942 161.091 7.19167 161.004 7.14007L156.029 4.26751C155.799 4.13245 155.526 4.08988 155.266 4.14842C155.006 4.20697 154.778 4.36225 154.628 4.58279C154.551 4.69836 154.498 4.82872 154.474 4.96559C154.45 5.10247 154.454 5.24288 154.487 5.37792C154.52 5.51296 154.581 5.63968 154.665 5.75005C154.75 5.86042 154.856 5.95203 154.978 6.01907L161.424 9.73238C161.529 9.80168 161.615 9.89515 161.676 10.0049C161.737 10.1146 161.771 10.2374 161.774 10.3629C161.767 10.4829 161.731 10.5993 161.667 10.7014C161.604 10.8034 161.516 10.888 161.411 10.9472C161.307 11.0065 161.189 11.0386 161.069 11.0405C160.948 11.0425 160.83 11.0143 160.723 10.9585L156.484 8.50629C156.254 8.37123 155.982 8.32866 155.722 8.3872C155.461 8.44575 155.233 8.60103 155.083 8.82157C155.006 8.93714 154.954 9.0675 154.929 9.20437C154.905 9.34125 154.91 9.48166 154.943 9.6167C154.976 9.75174 155.036 9.87846 155.121 9.98883C155.205 10.0992 155.312 10.1908 155.434 10.2579L179.71 25.041L179.99 19.0857Z" fill="url(#paint0_linear_7743_1496)"/>
<path d="M157.605 3.81209L154.348 1.92041C154.111 1.78505 153.938 1.56175 153.866 1.29922C153.794 1.0367 153.828 0.756273 153.962 0.519156C154.098 0.282912 154.321 0.109801 154.583 0.0376072C154.846 -0.0345871 155.126 -1.86451e-06 155.363 0.133813L158.621 2.0255C158.858 2.16085 159.031 2.38416 159.103 2.64668C159.175 2.90921 159.141 3.18963 159.007 3.42675C158.946 3.54957 158.859 3.65812 158.753 3.74531C158.648 3.8325 158.525 3.89636 158.392 3.93273C158.26 3.9691 158.122 3.97715 157.986 3.95637C157.85 3.93558 157.721 3.88642 157.605 3.81209Z" fill="url(#paint1_linear_7743_1496)"/>
<path d="M152.596 8.43622L151.44 7.77062C151.204 7.63527 151.031 7.41197 150.959 7.14944C150.886 6.88692 150.921 6.60649 151.055 6.36937C151.19 6.13313 151.413 5.96002 151.676 5.88783C151.938 5.81563 152.219 5.85022 152.456 5.98403L153.612 6.64962C153.848 6.78498 154.021 7.00829 154.094 7.27081C154.166 7.53333 154.131 7.81376 153.997 8.05087C153.862 8.28712 153.639 8.46023 153.376 8.53242C153.114 8.60462 152.833 8.57003 152.596 8.43622Z" fill="url(#paint2_linear_7743_1496)"/>
<path d="M152.141 4.2675L149.373 2.6911C149.137 2.55575 148.964 2.33244 148.892 2.06991C148.819 1.80739 148.854 1.52696 148.988 1.28985C149.123 1.0536 149.347 0.880493 149.609 0.808298C149.872 0.736104 150.152 0.770688 150.389 0.904503L153.157 2.48091C153.393 2.61626 153.566 2.83957 153.638 3.10209C153.71 3.36462 153.676 3.64504 153.542 3.88216C153.478 4.00209 153.39 4.10772 153.284 4.19261C153.178 4.2775 153.055 4.33987 152.924 4.37593C152.793 4.41198 152.656 4.42096 152.521 4.40232C152.387 4.38368 152.257 4.33781 152.141 4.2675Z" fill="url(#paint3_linear_7743_1496)"/>
<path d="M8.72275 30.576C8.54647 30.5919 8.36879 30.5722 8.20028 30.518C8.03177 30.4638 7.87588 30.3763 7.74188 30.2607C7.5137 29.9869 7.40067 29.6353 7.4266 29.2798V11.9744H1.29613C1.11985 11.9903 0.942163 11.9706 0.773653 11.9164C0.605143 11.8622 0.449252 11.7747 0.315256 11.6591C0.0870718 11.3853 -0.0259579 11.0337 -2.53622e-05 10.6782C-0.0159412 10.5019 0.0037703 10.3242 0.0579342 10.1557C0.112098 9.98722 0.199608 9.83133 0.315256 9.69733C0.58903 9.46915 0.940676 9.35612 1.29613 9.38206H16.1143C16.2906 9.36614 16.4683 9.38585 16.6368 9.44001C16.8053 9.49418 16.9612 9.58169 17.0952 9.69733C17.3234 9.97111 17.4364 10.3228 17.4105 10.6782C17.4264 10.8545 17.4067 11.0322 17.3525 11.2007C17.2984 11.3692 17.2109 11.5251 17.0952 11.6591C16.8214 11.8873 16.4698 12.0003 16.1143 11.9744H10.0189V29.2798C10.0314 29.4586 10.0068 29.6381 9.94646 29.8069C9.88617 29.9757 9.79156 30.1302 9.6686 30.2607C9.53991 30.3736 9.38994 30.4597 9.22751 30.5138C9.06508 30.568 8.89347 30.5891 8.72275 30.576Z" fill="#D7176F"/>
<path d="M18.7766 23.7098V24.4805C18.7766 25.8468 19.0219 26.7576 19.5123 27.248C20.0027 27.7384 20.9135 27.9837 22.2798 27.9837H24.837C25.6435 28.0201 26.45 27.9134 27.2192 27.6684C27.4568 27.5812 27.6717 27.4414 27.8476 27.2594C28.0235 27.0774 28.156 26.8579 28.2351 26.6174C28.3181 26.277 28.487 25.9634 28.7255 25.7066C28.8542 25.5937 29.0042 25.5076 29.1666 25.4535C29.329 25.3993 29.5006 25.3782 29.6714 25.3913C29.8557 25.3759 30.0413 25.3991 30.2162 25.4594C30.3911 25.5197 30.5516 25.6159 30.6873 25.7417C30.8124 25.8753 30.8982 26.0408 30.9353 26.22C30.9723 26.3993 30.9593 26.5853 30.8974 26.7576C30.8164 27.3476 30.6085 27.913 30.288 28.4149C29.9674 28.9169 29.5419 29.3434 29.0408 29.6652C28.0249 30.2957 26.6587 30.611 24.8721 30.611H22.3148C20.248 30.611 18.6715 30.1206 17.6907 29.1047C16.6748 28.0888 16.1843 26.5474 16.1843 24.4805V20.8373C16.1843 18.7004 16.6748 17.159 17.6907 16.1431C18.7066 15.1272 20.248 14.6718 22.3148 14.6718H24.8721C26.974 14.6718 28.5153 15.1622 29.5312 16.1781C30.5471 17.194 31.0376 18.7354 31.0376 20.8373V22.4137C31.0376 23.2895 30.5822 23.7449 29.7064 23.7449H18.7766V23.7098ZM22.3148 17.2991C20.9486 17.2641 20.0378 17.5093 19.5473 17.9998C19.0569 18.4902 18.8117 19.436 18.8117 20.8023V21.0475H28.4102V20.8023C28.4102 19.436 28.165 18.4902 27.6746 17.9998C27.1841 17.5093 26.2733 17.2641 24.8721 17.2641H22.3148V17.2991Z" fill="#D7176F"/>
<path d="M40.2859 30.576C38.6744 30.576 37.4834 30.1906 36.7127 29.3849C35.942 28.5792 35.5566 27.3881 35.5566 25.8117V9.80244C35.5566 8.92666 36.012 8.47125 36.8878 8.47125C37.7636 8.47125 38.219 8.92666 38.219 9.80244V25.8117C38.219 26.6525 38.3591 27.213 38.6394 27.5283C38.9196 27.8085 39.4801 27.9486 40.3209 27.9486C41.2317 27.9486 41.6871 28.404 41.6871 29.2798C41.6871 30.1556 41.2317 30.576 40.2859 30.576Z" fill="#D7176F"/>
<path d="M46.3113 23.7098V24.4805C46.3113 25.8468 46.5565 26.7576 47.047 27.248C47.5374 27.7384 48.4482 27.9837 49.8144 27.9837H52.3717C53.1781 28.0201 53.9847 27.9134 54.7538 27.6684C54.9915 27.5812 55.2063 27.4414 55.3823 27.2594C55.5582 27.0774 55.6907 26.8579 55.7697 26.6174C55.8528 26.277 56.0216 25.9634 56.2602 25.7066C56.3889 25.5937 56.5388 25.5076 56.7013 25.4535C56.8637 25.3993 57.0353 25.3782 57.206 25.3913C57.3904 25.3759 57.576 25.3991 57.7509 25.4594C57.9258 25.5197 58.0862 25.6159 58.2219 25.7417C58.347 25.8753 58.4328 26.0408 58.4699 26.22C58.507 26.3993 58.4939 26.5853 58.4321 26.7576C58.3511 27.3476 58.1431 27.913 57.8226 28.4149C57.5021 28.9169 57.0766 29.3434 56.5755 29.6652C55.5596 30.2957 54.1933 30.611 52.4067 30.611H49.8495C47.7826 30.611 46.2062 30.1206 45.2253 29.1047C44.2094 28.0888 43.719 26.5474 43.719 24.4805V20.8373C43.719 18.7004 44.2094 17.159 45.2253 16.1431C46.2412 15.1272 47.7826 14.6718 49.8495 14.6718H52.4067C54.5086 14.6718 56.05 15.1622 57.0659 16.1781C58.0818 17.194 58.5722 18.7354 58.5722 20.8373V22.4137C58.5722 23.2895 58.1168 23.7449 57.2411 23.7449H46.3113V23.7098ZM49.8495 17.2991C48.4832 17.2641 47.5724 17.5093 47.082 17.9998C46.5916 18.4902 46.3463 19.436 46.3463 20.8023V21.0475H55.9449V20.8023C55.9449 19.436 55.6997 18.4902 55.2092 17.9998C54.7188 17.5093 53.808 17.2641 52.4067 17.2641H49.8495V17.2991Z" fill="#D7176F"/>
<path d="M66.8045 30.576C65.4733 30.576 64.4224 30.2957 63.6517 29.7352C62.8507 29.1287 62.3118 28.2389 62.1453 27.248C62.0997 27.0659 62.0981 26.8756 62.1407 26.6928C62.1834 26.5101 62.269 26.3401 62.3906 26.1971C62.5257 26.0684 62.6852 25.9681 62.8597 25.9019C63.0341 25.8357 63.22 25.8051 63.4065 25.8117C63.5772 25.7986 63.7488 25.8197 63.9112 25.8738C64.0737 25.928 64.2236 26.0141 64.3523 26.127C64.5918 26.4101 64.76 26.7464 64.8428 27.1079C64.8988 27.2507 64.9837 27.3805 65.0922 27.489C65.2007 27.5975 65.3305 27.6824 65.4733 27.7384C65.8957 27.8511 66.3328 27.8983 66.7695 27.8786H71.9191C72.7248 27.8786 73.2853 27.7384 73.5655 27.4932C73.8458 27.248 73.9859 26.6525 73.9859 25.8117C73.9859 24.971 73.8458 24.4105 73.5655 24.1302C73.2853 23.85 72.7248 23.7098 71.9191 23.7098H66.8746C65.3682 23.7098 64.2472 23.3245 63.4765 22.5538C62.7058 21.7831 62.3205 20.6621 62.3205 19.1558C62.3205 17.6144 62.7058 16.4584 63.4415 15.7227C64.1772 14.952 65.3332 14.6017 66.8746 14.6017H71.7789C74.2311 14.6017 75.7024 15.6527 76.1579 17.7195C76.2061 17.8958 76.2089 18.0814 76.166 18.259C76.1231 18.4367 76.036 18.6005 75.9126 18.7354C75.77 18.8615 75.6034 18.9575 75.4229 19.0177C75.2423 19.0779 75.0514 19.101 74.8617 19.0857C74.6963 19.0991 74.53 19.078 74.3732 19.0238C74.2164 18.9695 74.0726 18.8832 73.9509 18.7704C73.724 18.5106 73.5672 18.1971 73.4955 17.8596C73.4396 17.7445 73.3612 17.6418 73.2649 17.5576C73.1686 17.4734 73.0565 17.4093 72.935 17.3692C72.5694 17.2719 72.1923 17.2247 71.814 17.2291H66.9096C66.1039 17.2291 65.6134 17.3342 65.3682 17.5794C65.123 17.8246 65.0179 18.3501 65.0179 19.1558C65.0179 19.9265 65.158 20.4169 65.4033 20.6621C65.6485 20.9073 66.1739 21.0475 66.9446 21.0475H71.9891C73.5655 21.0475 74.7216 21.4328 75.5273 22.2385C76.333 23.0442 76.7183 24.2003 76.7183 25.7767C76.7183 27.3531 76.333 28.5442 75.5273 29.3148C74.7566 30.0855 73.5655 30.4709 71.9891 30.4709H66.8045V30.576Z" fill="#D7176F"/>
<path d="M82.3234 30.576C81.4476 30.576 80.9922 30.1206 80.9922 29.2448V16.003C80.9922 15.1272 81.4476 14.6718 82.3234 14.6718C83.1992 14.6718 83.6546 15.1272 83.6546 16.003V29.2798C83.6546 30.1556 83.1992 30.576 82.3234 30.576Z" fill="#D7176F"/>
<path d="M92.6575 30.576C91.3263 30.576 90.2754 30.2957 89.5047 29.7352C88.7037 29.1287 88.1648 28.2389 87.9984 27.248C87.9527 27.0659 87.9511 26.8756 87.9937 26.6928C88.0364 26.5101 88.1221 26.3401 88.2436 26.1971C88.3787 26.0684 88.5382 25.9681 88.7127 25.9019C88.8871 25.8357 89.073 25.8051 89.2595 25.8117C89.4302 25.7986 89.6018 25.8197 89.7643 25.8738C89.9267 25.928 90.0766 26.0141 90.2053 26.127C90.4448 26.4101 90.613 26.7464 90.6958 27.1079C90.7518 27.2507 90.8368 27.3805 90.9453 27.489C91.0538 27.5975 91.1835 27.6824 91.3263 27.7384C91.7487 27.8511 92.1858 27.8983 92.6225 27.8786H97.8071C98.6128 27.8786 99.1733 27.7384 99.4536 27.4932C99.7338 27.248 99.874 26.6525 99.874 25.8117C99.874 24.971 99.7338 24.4105 99.4536 24.1302C99.1733 23.85 98.6128 23.7098 97.8071 23.7098H92.7626C91.2563 23.7098 90.1353 23.3245 89.3646 22.5538C88.5939 21.7831 88.2086 20.6621 88.2086 19.1558C88.2086 17.6144 88.5939 16.4584 89.3296 15.7227C90.0652 14.952 91.2213 14.6017 92.7626 14.6017H97.667C100.119 14.6017 101.59 15.6527 102.046 17.7195C102.094 17.8958 102.097 18.0814 102.054 18.259C102.011 18.4367 101.924 18.6005 101.801 18.7354C101.658 18.8615 101.491 18.9575 101.311 19.0177C101.13 19.0779 100.939 19.101 100.75 19.0857C100.584 19.0991 100.418 19.078 100.261 19.0238C100.104 18.9695 99.9606 18.8832 99.8389 18.7704C99.612 18.5106 99.4553 18.1971 99.3835 17.8596C99.3277 17.7445 99.2493 17.6418 99.153 17.5576C99.0567 17.4734 98.9445 17.4093 98.823 17.3692C98.4574 17.2719 98.0803 17.2247 97.702 17.2291H92.7977C91.9919 17.2291 91.5015 17.3342 91.2563 17.5794C91.0111 17.8246 90.906 18.3501 90.906 19.1558C90.906 19.9265 91.0461 20.4169 91.2913 20.6621C91.5365 20.9073 92.062 21.0475 92.8327 21.0475H97.8071C99.3835 21.0475 100.54 21.4328 101.345 22.2385C102.151 23.0442 102.536 24.2003 102.536 25.7767C102.536 27.3531 102.151 28.5442 101.345 29.3148C100.575 30.0855 99.3835 30.4709 97.8071 30.4709H92.6575V30.576Z" fill="#D7176F"/>
<path d="M108.176 30.576C107.301 30.576 106.845 30.1206 106.845 29.2448V10.6082C106.845 9.73237 107.301 9.27696 108.176 9.27696H116.374C118.055 9.27696 119.316 9.73237 120.227 10.6082C121.138 11.4839 121.558 12.7451 121.558 14.3915V15.2323C121.558 16.6335 121.103 17.7545 120.227 18.5252C121.874 19.4711 122.714 21.1526 122.714 23.6398V24.6907C122.714 26.6174 122.189 28.0887 121.173 29.0696C120.157 30.0855 118.686 30.576 116.759 30.576H108.176ZM109.473 17.7545H116.899C117.67 17.7545 118.195 17.5093 118.476 17.0539C118.778 16.4959 118.923 15.8663 118.896 15.2323V14.3915C118.896 13.4807 118.721 12.8501 118.335 12.4998C117.95 12.1495 117.285 11.9744 116.374 11.9744H109.508V17.7545H109.473ZM109.473 27.9486H116.759C117.95 27.9486 118.791 27.7034 119.281 27.1779C119.772 26.6875 120.052 25.8467 120.052 24.6907V23.6398C120.052 22.4837 119.807 21.643 119.316 21.1526C118.826 20.6621 117.985 20.4169 116.759 20.4169H109.473V27.9486Z" fill="#222222"/>
<path d="M128.039 30.576C127.163 30.576 126.708 30.1206 126.708 29.2448V16.003C126.708 15.1272 127.163 14.6718 128.039 14.6718C128.915 14.6718 129.37 15.1272 129.37 16.003V29.2798C129.335 30.1556 128.915 30.576 128.039 30.576Z" fill="#222222"/>
<path d="M140.02 30.576C137.953 30.576 136.377 30.0855 135.396 29.0696C134.38 28.0537 133.889 26.5123 133.889 24.4455V20.8022C133.889 18.7004 134.38 17.159 135.396 16.1431C136.412 15.1272 137.953 14.6367 140.02 14.6367H142.577C144.679 14.6367 146.22 15.1272 147.236 16.1431C148.252 17.159 148.743 18.7004 148.743 20.8022V24.4105C148.743 26.4773 148.252 28.0537 147.236 29.0346C146.22 30.0505 144.679 30.5409 142.577 30.5409H140.02V30.576ZM136.517 24.4805C136.517 25.8467 136.762 26.7576 137.252 27.248C137.743 27.7384 138.654 27.9837 140.02 27.9837H142.577C143.943 27.9837 144.889 27.7384 145.38 27.248C145.87 26.7576 146.115 25.8467 146.115 24.4805V20.8723C146.115 19.5061 145.87 18.5602 145.38 18.0698C144.889 17.5794 143.978 17.3342 142.577 17.3342H140.02C139.294 17.3057 138.57 17.4126 137.883 17.6494C137.639 17.7404 137.417 17.8807 137.23 18.0615C137.043 18.2424 136.896 18.4599 136.797 18.7004C136.557 19.3862 136.45 20.1114 136.482 20.8373V24.4805H136.517Z" fill="#222222"/>
</g>
<defs>
<linearGradient id="paint0_linear_7743_1496" x1="180.282" y1="19.7873" x2="152.968" y2="-1.88471" gradientUnits="userSpaceOnUse">
<stop stop-color="#E16A2C"/>
<stop offset="0.306" stop-color="#DD4848"/>
<stop offset="0.672" stop-color="#D92464"/>
<stop offset="0.868" stop-color="#D7176F"/>
</linearGradient>
<linearGradient id="paint1_linear_7743_1496" x1="182.194" y1="16.3801" x2="158.205" y2="-7.67158" gradientUnits="userSpaceOnUse">
<stop stop-color="#E16A2C"/>
<stop offset="0.306" stop-color="#DD4848"/>
<stop offset="0.672" stop-color="#D92464"/>
<stop offset="0.868" stop-color="#D7176F"/>
</linearGradient>
<linearGradient id="paint2_linear_7743_1496" x1="178.591" y1="21.7944" x2="151.073" y2="0.333731" gradientUnits="userSpaceOnUse">
<stop stop-color="#E16A2C"/>
<stop offset="0.306" stop-color="#DD4848"/>
<stop offset="0.672" stop-color="#D92464"/>
<stop offset="0.868" stop-color="#D7176F"/>
</linearGradient>
<linearGradient id="paint3_linear_7743_1496" x1="180.384" y1="18.8969" x2="156.067" y2="-4.981" gradientUnits="userSpaceOnUse">
<stop stop-color="#E16A2C"/>
<stop offset="0.306" stop-color="#DD4848"/>
<stop offset="0.672" stop-color="#D92464"/>
<stop offset="0.868" stop-color="#D7176F"/>
</linearGradient>
<clipPath id="clip0_7743_1496">
<rect width="180" height="38.3529" fill="white"/>
</clipPath>
</defs>
</svg>
