<svg width="336" height="182" viewBox="0 0 336 182" fill="none" xmlns="http://www.w3.org/2000/svg">
<rect width="336" height="182" rx="10" fill="white"/>
<path d="M75.1959 94.7756C75.3117 99.2533 73.8154 103.623 70.9814 107.081C68.1717 110.473 64.4148 112.168 59.7103 112.168C57.7507 112.177 55.812 111.763 54.0257 110.954C52.3624 110.243 50.9186 109.098 49.844 107.639H49.7133V127H38.9976V78.5649H49.1906V82.5684H49.3866C50.5097 81.0595 51.9775 79.8439 53.6664 79.0243C55.565 78.0844 57.6592 77.6119 59.7756 77.646C61.8898 77.5813 63.991 77.9996 65.9209 78.8693C67.8505 79.739 69.5586 81.0376 70.9161 82.6667C73.7775 86.0365 75.3014 90.3478 75.1959 94.7756ZM64.8067 94.7756C64.8537 92.6371 64.135 90.5529 62.7813 88.9016C62.0971 88.0838 61.2338 87.436 60.259 87.0092C59.2842 86.5821 58.2242 86.3875 57.162 86.4407C56.0886 86.4105 55.0224 86.6252 54.0435 87.0685C53.0646 87.5119 52.1984 88.1723 51.5101 89.0002C50.0989 90.6223 49.3212 92.7034 49.3212 94.8577C49.3212 97.012 50.0989 99.0931 51.5101 100.715C52.2035 101.535 53.0714 102.188 54.0497 102.625C55.028 103.062 56.0916 103.273 57.162 103.242C58.2273 103.294 59.29 103.096 60.2655 102.663C61.241 102.23 62.1025 101.574 62.7813 100.748C64.1399 99.0613 64.8578 96.9447 64.8067 94.7756Z" fill="#434242"/>
<path d="M99.5593 77.9095L99.1018 87.3604C98.2049 87.133 97.2826 87.0229 96.3576 87.0321C93.7863 87.0321 91.8697 87.8306 90.6076 89.4278C89.4165 90.8303 88.7467 92.605 88.7129 94.4484V111.25H77.9971V78.5658H88.3207V83.2912H88.4515C89.2501 81.6174 90.4938 80.1979 92.0451 79.1893C93.5969 78.1661 95.4163 77.6293 97.2723 77.647C98.0436 77.612 98.8156 77.7006 99.5593 77.9095Z" fill="#434242"/>
<path d="M131.066 95.3025C131.066 96.4837 131.044 97.3368 131.001 97.862H107.413C107.503 98.7345 107.777 99.5779 108.216 100.336C108.656 101.094 109.25 101.75 109.961 102.259C111.453 103.429 113.296 104.055 115.189 104.031C118.325 104.031 120.721 102.894 122.376 100.618L129.825 105.344C126.645 109.982 121.723 112.3 115.058 112.3C109.961 112.3 105.703 110.758 102.284 107.674C98.864 104.589 97.1543 100.378 97.1548 95.0398C97.1548 89.7895 98.8212 85.5562 102.153 82.3405C105.486 79.1244 109.678 77.5165 114.731 77.5165C119.609 77.5165 123.551 79.1026 126.558 82.2746C129.563 85.4475 131.066 89.79 131.066 95.3025ZM107.413 91.1676H121.2C121.254 89.5172 120.655 87.9126 119.534 86.7048C118.423 85.5234 116.844 84.9327 114.797 84.9327C112.929 84.8837 111.11 85.5392 109.7 86.7704C109.044 87.311 108.503 87.9792 108.11 88.7348C107.717 89.4904 107.48 90.318 107.413 91.1676Z" fill="#434242"/>
<path d="M170 94.7756C170.116 99.2533 168.619 103.623 165.785 107.081C162.976 110.473 159.218 112.168 154.514 112.168C152.555 112.177 150.616 111.763 148.83 110.954C147.166 110.243 145.722 109.098 144.648 107.639H144.517V127H133.801V78.5649H143.994V82.5684H144.19C145.313 81.0595 146.781 79.8439 148.47 79.0243C150.369 78.0844 152.463 77.6119 154.579 77.646C156.694 77.5813 158.795 77.9996 160.725 78.8693C162.654 79.739 164.362 81.0376 165.72 82.6667C168.581 86.0365 170.105 90.3478 170 94.7756ZM159.611 94.7756C159.658 92.6371 158.939 90.5529 157.585 88.9016C156.901 88.0838 156.038 87.436 155.063 87.0092C154.088 86.5821 153.028 86.3875 151.966 86.4407C150.893 86.4105 149.826 86.6252 148.847 87.0685C147.868 87.5119 147.002 88.1723 146.314 89.0002C144.903 90.6223 144.125 92.7034 144.125 94.8577C144.125 97.012 144.903 99.0931 146.314 100.715C147.007 101.535 147.875 102.188 148.854 102.625C149.832 103.062 150.895 103.273 151.966 103.242C153.031 103.294 154.094 103.096 155.069 102.663C156.045 102.23 156.906 101.574 157.585 100.748C158.944 99.0613 159.662 96.9447 159.611 94.7756Z" fill="#434242"/>
<path d="M177.779 88.8705L172.355 83.0295C176.232 79.3542 181.067 77.5165 186.861 77.5165C192.219 77.5165 196.052 78.8838 198.361 81.6184C200.669 84.3536 201.823 88.7399 201.824 94.7774V111.251H192.023V107.772H191.827C190.938 109.175 189.636 110.265 188.102 110.89C186.375 111.661 184.504 112.053 182.614 112.038C180.78 112.052 178.957 111.752 177.223 111.152C175.451 110.492 173.899 109.344 172.747 107.838C171.407 106.12 170.713 103.981 170.787 101.8C170.787 94.4491 177.757 90.774 191.696 90.774V90.2488C191.733 89.5737 191.603 88.8999 191.318 88.2873C191.033 87.6746 190.602 87.1423 190.062 86.7376C188.815 85.8811 187.325 85.455 185.815 85.5234C182.804 85.5428 179.92 86.7441 177.779 88.8705ZM192.023 98.1245V97.0088H190.65C183.986 97.0088 180.654 98.4963 180.654 101.472C180.626 101.979 180.74 102.485 180.982 102.931C181.225 103.378 181.586 103.747 182.026 103.999C183.02 104.567 184.15 104.85 185.293 104.819C187.426 104.819 189.081 104.217 190.259 103.014C190.863 102.359 191.331 101.589 191.634 100.749C191.937 99.909 192.069 99.0166 192.023 98.1245Z" fill="#434242"/>
<path d="M216.718 78.5624H206.002V111.246H216.718V78.5624Z" fill="#434242"/>
<path d="M242.856 77.9095L242.398 87.3604C241.501 87.1331 240.579 87.0229 239.654 87.0321C237.083 87.0321 235.167 87.8306 233.904 89.4278C232.713 90.8303 232.043 92.6051 232.009 94.4484V111.25H221.293V78.5658H231.617V83.2912H231.748C232.547 81.6174 233.79 80.1977 235.341 79.1893C236.893 78.166 238.713 77.6292 240.569 77.6469C241.34 77.612 242.112 77.7006 242.856 77.9095Z" fill="#434242"/>
<path d="M274.345 95.3025C274.345 96.4837 274.324 97.3368 274.28 97.862H250.692C250.782 98.7345 251.056 99.5781 251.495 100.336C251.935 101.095 252.53 101.75 253.241 102.259C254.732 103.429 256.576 104.055 258.468 104.031C261.604 104.031 264 102.894 265.655 100.618L273.104 105.344C269.924 109.982 265.001 112.3 258.337 112.3C253.241 112.3 248.983 110.758 245.563 107.674C242.143 104.589 240.434 100.378 240.434 95.0398C240.434 89.7895 242.1 85.5562 245.433 82.3405C248.765 79.1244 252.958 77.5165 258.011 77.5165C262.889 77.5165 266.831 79.1026 269.837 82.2746C272.843 85.4475 274.345 89.79 274.345 95.3025ZM250.692 91.1676H264.479C264.533 89.5172 263.934 87.9126 262.813 86.7048C261.702 85.5234 260.123 84.9327 258.076 84.9327C256.208 84.8837 254.39 85.5392 252.979 86.7704C252.323 87.311 251.783 87.9792 251.39 88.7348C250.997 89.4904 250.759 90.3177 250.692 91.1676Z" fill="#434242"/>
<path d="M211.368 56.1678C209.591 56.1678 207.853 56.6973 206.375 57.6891C204.897 58.681 203.746 60.0907 203.065 61.7402C202.385 63.3896 202.207 65.2045 202.554 66.9555C202.901 68.7065 203.757 70.3149 205.013 71.5773C206.27 72.8397 207.872 73.6994 209.615 74.0477C211.358 74.396 213.165 74.2172 214.807 73.534C216.449 72.8508 217.853 71.6939 218.84 70.2094C219.827 68.725 220.355 66.9798 220.355 65.1945C220.355 64.0091 220.122 62.8353 219.671 61.7401C219.219 60.6449 218.557 59.6498 217.722 58.8116C216.888 57.9734 215.897 57.3085 214.807 56.8549C213.717 56.4013 212.548 56.1678 211.368 56.1678Z" fill="#5498EE"/>
<path d="M294.779 63.5746C294.665 61.1887 293.613 58.9459 291.853 57.3397C290.093 55.7334 287.769 54.8951 285.394 55.0092C278.991 55.3173 279.382 60.5805 272.979 60.8886C266.576 61.1967 266.465 55.9201 260.062 56.2282C258.886 56.2848 257.732 56.5734 256.667 57.0778C255.602 57.5821 254.647 58.2922 253.855 59.1675C253.063 60.0429 252.45 61.0663 252.052 62.1794C251.654 63.2924 251.478 64.4734 251.535 65.6547C251.591 66.8361 251.878 67.9948 252.38 69.0646C252.883 70.1344 253.589 71.0944 254.461 71.8897C255.332 72.6851 256.351 73.3003 257.459 73.7001C258.568 74.1 259.743 74.2767 260.919 74.2201C267.323 73.9127 266.932 68.6494 273.335 68.3413C275.71 68.2271 278.033 69.0654 279.793 70.6717C281.553 72.278 282.606 74.5208 282.72 76.9067C283.027 83.338 277.773 83.4497 278.08 89.8815C278.136 91.0629 278.424 92.2216 278.926 93.2913C279.428 94.3612 280.135 95.3212 281.007 96.1166C281.878 96.9119 282.897 97.5269 284.005 97.9269C285.113 98.3266 286.289 98.5032 287.465 98.4466C288.641 98.3901 289.795 98.1014 290.86 97.5971C291.925 97.0926 292.881 96.3826 293.673 95.507C294.464 94.6317 295.077 93.6084 295.475 92.4952C295.873 91.3821 296.049 90.2012 295.992 89.0198C295.686 82.5881 290.446 82.9814 290.14 76.5494C289.833 70.1182 295.086 70.0064 294.779 63.5746Z" fill="#5498EE"/>
</svg>
