<svg width="544" height="362" viewBox="0 0 544 362" fill="none" xmlns="http://www.w3.org/2000/svg">
<g filter="url(#filter0_d_7726_2591)">
<rect x="4" width="536" height="354" rx="8" fill="#F5F5F5"/>
<g clip-path="url(#clip0_7726_2591)">
<mask id="mask0_7726_2591" style="mask-type:luminance" maskUnits="userSpaceOnUse" x="111" y="38" width="293" height="124">
<path d="M403.002 38.9992H111.002V161.999H403.002V38.9992Z" fill="white"/>
</mask>
<g mask="url(#mask0_7726_2591)">
<path d="M181.753 107.283C186.777 107.283 197.928 109.036 197.928 115.586V121.199H190.978V117.98C190.978 114.879 185.49 113.826 182.1 113.826C174.097 113.826 168.264 119.439 168.264 128.213C168.264 137.568 174.339 143.653 182.512 143.653C185.026 143.653 191.506 142.835 191.506 139.557V136.338H198.457V142.011C198.457 148.213 187.77 150.202 182.047 150.202C169.492 150.202 160.386 140.67 160.386 128.566C160.379 116.286 169.721 107.283 181.753 107.283Z" fill="#6B7A83"/>
<path d="M201.633 143.954H205.957V113.544H201.345V107.989H213.371V122.494C213.371 123.953 213.195 125.007 213.195 125.007H213.313C214.769 122.141 218.447 118.981 223.588 118.981C230.186 118.981 233.981 122.435 233.981 130.326V143.954H238.306V149.508H226.567V131.843C226.567 128.219 225.633 125.765 221.896 125.765C216.637 125.765 213.371 130.326 213.371 135.821V143.954H217.637V149.508H201.639V143.954H201.633Z" fill="#6B7A83"/>
<path d="M255.31 118.978C263.894 118.978 268.565 125.239 268.565 133.129C268.565 134.006 268.388 135.648 268.388 135.648H247.778C248.242 141.144 252.214 143.951 256.715 143.951C261.562 143.951 265.357 140.791 265.357 140.791L268.219 146.057C268.219 146.057 263.665 150.212 256.192 150.212C246.321 150.212 240.194 143.074 240.194 134.595C240.194 125.416 246.381 118.978 255.31 118.978ZM260.922 131.258C260.804 127.162 258.296 124.709 255.141 124.709C251.345 124.709 248.66 127.339 247.955 131.258H260.922Z" fill="#6B7A83"/>
<path d="M271.975 143.954H276.292V126.465C276.292 125.648 275.829 125.242 275.005 125.242H271.681V119.687H279.447C282.073 119.687 283.361 120.917 283.361 123.017V124.365C283.361 125.006 283.243 125.654 283.243 125.654H283.361C284.876 122.612 288.613 118.987 293.519 118.987C297.667 118.987 300.645 120.917 301.808 125.477H301.925C303.559 121.971 307.531 118.987 312.26 118.987C318.277 118.987 321.837 122.494 321.837 130.332V143.96H326.161V149.515H314.422V131.739C314.422 128.343 313.782 125.772 310.333 125.772C305.257 125.772 302.742 130.862 302.742 136.358V143.96H307.067V149.515H295.387V131.739C295.387 128.52 294.864 125.772 291.363 125.772C286.104 125.772 283.713 131.327 283.713 136.711V143.967H287.979V149.521H271.981V143.954H271.975Z" fill="#6B7A83"/>
<path d="M328.76 143.955H333.084V125.244H328.472V119.689H340.499V143.962H344.764V149.517H328.766V143.955H328.76ZM333.019 107.985H340.492V114.593H333.019V107.985Z" fill="#6B7A83"/>
<path d="M347.752 143.953H352.07V125.242H347.458V119.687H352.07V118.339C352.07 108.689 359.778 107.466 363.75 107.466C365.501 107.466 366.787 107.701 366.787 107.701V113.668C366.787 113.668 366.03 113.491 364.507 113.491C362.816 113.491 359.484 113.838 359.484 118.169V119.694H366.199V125.248H359.484V143.96H364.507V149.515H347.752V143.953Z" fill="#6B7A83"/>
<path d="M376.721 155.707C379.112 155.707 381.039 154.418 381.98 152.253L382.796 150.382L372.58 125.239H369.02V119.684H383.678V125.239H380.177L385.606 140.326C386.128 141.785 386.252 143.427 386.252 143.427H386.429C386.429 143.427 386.663 141.791 387.245 140.326L392.615 125.239H389.172V119.684H403.243V125.239H399.859L388.878 153.365C386.598 159.273 382.163 161.785 377.08 161.785C372.763 161.785 369.836 159.737 369.836 159.737L372.233 154.301C372.227 154.307 373.978 155.707 376.721 155.707Z" fill="#6B7A83"/>
<path d="M125.614 53.4255C126.659 52.3787 126.659 50.6776 125.614 49.6308C124.569 48.584 122.87 48.584 121.825 49.6308C120.78 50.6776 120.78 52.3787 121.825 53.4255C122.87 54.4723 124.569 54.4723 125.614 53.4255ZM128.495 75.2187C129.403 75.1206 130.337 75.0551 131.33 75.0551C131.976 75.0551 132.604 75.0813 133.218 75.1271C133.499 75.1729 133.721 75.3823 133.76 75.6701V75.6374C134.1 76.4814 134.916 77.0833 135.883 77.0833C137.15 77.0833 138.182 76.0561 138.182 74.7803C138.182 73.5111 137.157 72.4774 135.883 72.4774C134.916 72.4774 134.1 73.0793 133.76 73.9233V73.8906C133.721 74.1784 133.499 74.3943 133.211 74.4336C132.604 74.4794 131.976 74.5056 131.33 74.5056C130.343 74.5056 129.409 74.4336 128.508 74.342C128.24 74.2897 128.031 74.0868 127.992 73.8121V73.8317C127.567 72.1175 126.032 70.8417 124.183 70.8417C122.008 70.8417 120.251 72.6082 120.251 74.7803C120.251 76.9525 122.014 78.719 124.183 78.719C126.025 78.719 127.56 77.4432 127.992 75.729V75.7421C128.024 75.4739 128.233 75.2776 128.495 75.2187ZM132.871 62.0289L132.858 62.042C133.074 61.8784 133.361 61.885 133.583 62.0289C134.289 62.6047 135.001 63.2197 135.707 63.9197C136.164 64.3777 136.588 64.8422 136.987 65.3067C137.157 65.5357 137.163 65.8432 136.987 66.0788L137.013 66.0526C136.654 66.89 136.811 67.8976 137.496 68.578C138.391 69.4743 139.848 69.4743 140.743 68.578C141.638 67.6817 141.638 66.2227 140.743 65.3264C140.057 64.6394 139.058 64.4889 138.221 64.8422L138.248 64.816C138.019 64.9927 137.712 64.9862 137.477 64.816C137.013 64.4169 136.549 63.9917 136.092 63.5337C135.393 62.8337 134.785 62.1271 134.211 61.4205C134.06 61.1915 134.054 60.9036 134.217 60.6812L134.204 60.6942C135.112 59.1829 134.929 57.1874 133.623 55.8855C132.088 54.348 129.599 54.348 128.057 55.8855C126.522 57.423 126.522 59.9157 128.057 61.4597C129.37 62.7551 131.356 62.9383 132.871 62.0289ZM125.718 83.8091C127.482 83.0698 129.174 82.4351 130.794 81.8725C130.899 81.8529 131.003 81.8856 131.068 81.9575C131.402 82.2127 131.852 82.2977 132.264 82.1211C132.871 81.8659 133.165 81.1593 132.904 80.5509C132.649 79.9424 131.944 79.648 131.336 79.9097C130.925 80.0864 130.663 80.4658 130.611 80.8846V80.878C130.618 81.0154 130.52 81.1463 130.369 81.1921H130.376C128.867 81.9379 127.26 82.6838 125.535 83.41C123.876 84.11 122.276 84.7119 120.734 85.2484C120.558 85.2942 120.381 85.255 120.238 85.1503C120.185 85.098 120.14 85.0456 120.081 84.9933C120.074 84.9802 120.061 84.9736 120.055 84.9606L120.061 84.9736C119.506 84.496 118.709 84.3325 117.99 84.64C116.971 85.0652 116.494 86.2364 116.919 87.257C117.344 88.2776 118.513 88.7552 119.532 88.33C120.257 88.029 120.695 87.3486 120.747 86.6158L120.754 86.6224C120.754 86.6158 120.754 86.6093 120.754 86.5962C120.76 86.5177 120.754 86.4326 120.754 86.3541C120.78 86.1971 120.871 86.0597 121.008 85.9616C122.485 85.2419 124.046 84.5157 125.718 83.8091ZM114.104 72.0979C112.621 72.0979 111.425 73.3017 111.425 74.7803C111.425 76.259 112.627 77.4628 114.104 77.4628C115.58 77.4628 116.782 76.259 116.782 74.7803C116.782 73.3017 115.586 72.0979 114.104 72.0979ZM118.023 64.9731C118.748 65.2675 119.539 65.1039 120.094 64.6198L120.087 64.6263C120.094 64.6198 120.1 64.6132 120.1 64.6067C120.159 64.5543 120.218 64.4955 120.27 64.43C120.401 64.3384 120.564 64.2992 120.728 64.3319C122.282 64.8618 123.896 65.4572 125.575 66.1442C127.345 66.8704 128.991 67.6228 130.533 68.3687C130.618 68.4275 130.67 68.5257 130.67 68.6238C130.722 69.0425 130.984 69.4155 131.402 69.5856C132.016 69.8342 132.715 69.5398 132.963 68.9313C133.211 68.3163 132.917 67.6163 132.31 67.3676C131.892 67.1975 131.441 67.2826 131.114 67.5443L131.121 67.5377C131.029 67.6424 130.866 67.6621 130.729 67.5901H130.735C129.141 67.0471 127.482 66.4386 125.751 65.732C124.085 65.045 122.53 64.3384 121.061 63.6318C120.904 63.5337 120.806 63.3832 120.78 63.2131C120.786 63.1411 120.786 63.0692 120.78 62.9972C120.78 62.9841 120.78 62.971 120.786 62.958L120.78 62.971C120.728 62.2383 120.277 61.5644 119.552 61.2634C118.533 60.8447 117.363 61.3354 116.945 62.356C116.514 63.3832 117.004 64.5543 118.023 64.9731ZM146.942 44.5799C148.425 44.5799 149.621 43.3761 149.621 41.8975C149.621 40.4189 148.419 39.215 146.942 39.215C145.459 39.215 144.264 40.4189 144.264 41.8975C144.264 43.3761 145.459 44.5799 146.942 44.5799ZM172.831 63.6384C171.361 64.345 169.806 65.0516 168.14 65.7385C166.409 66.4451 164.75 67.0536 163.156 67.5966H163.162C163.025 67.6686 162.869 67.649 162.771 67.5443L162.777 67.5508C162.45 67.2891 161.993 67.2041 161.582 67.3742C160.968 67.6228 160.674 68.3294 160.928 68.9379C161.183 69.5463 161.882 69.8473 162.49 69.5921C162.908 69.422 163.169 69.0425 163.221 68.6304C163.215 68.5257 163.267 68.4341 163.358 68.3752C164.907 67.6228 166.553 66.8769 168.317 66.1507C169.995 65.4638 171.609 64.8684 173.164 64.3384C173.327 64.3123 173.49 64.345 173.621 64.4366C173.673 64.4955 173.732 64.5543 173.791 64.6132C173.797 64.6198 173.804 64.6263 173.804 64.6329L173.797 64.6263C174.346 65.1105 175.143 65.2806 175.868 64.9796C176.887 64.5609 177.377 63.3963 176.959 62.3691C176.541 61.3485 175.378 60.8578 174.353 61.2765C173.627 61.5709 173.183 62.2514 173.124 62.9841L173.118 62.971C173.124 62.9841 173.118 62.9972 173.124 63.0103C173.118 63.0823 173.118 63.1542 173.124 63.2262C173.085 63.3898 172.987 63.5468 172.831 63.6384ZM160.667 75.1271C161.281 75.0813 161.908 75.0551 162.555 75.0551C163.548 75.0551 164.482 75.1271 165.39 75.2187C165.651 75.2776 165.854 75.4739 165.893 75.7421V75.729C166.318 77.4432 167.853 78.719 169.701 78.719C171.877 78.719 173.634 76.9525 173.634 74.7803C173.634 72.6082 171.87 70.8417 169.701 70.8417C167.859 70.8417 166.324 72.1175 165.893 73.8317V73.8121C165.854 74.0868 165.645 74.2897 165.377 74.342C164.475 74.4336 163.541 74.5056 162.555 74.5056C161.908 74.5056 161.281 74.4794 160.674 74.4336C160.386 74.3878 160.171 74.1784 160.125 73.8906V73.9233C159.785 73.0793 158.969 72.4774 158.002 72.4774C156.735 72.4774 155.702 73.5046 155.702 74.7803C155.702 76.0496 156.728 77.0833 158.002 77.0833C158.969 77.0833 159.785 76.4814 160.125 75.6374V75.6701C160.164 75.3823 160.38 75.1729 160.667 75.1271ZM172.053 53.4255C173.098 52.3787 173.098 50.6776 172.053 49.6308C171.008 48.584 169.31 48.584 168.264 49.6308C167.219 50.6776 167.219 52.3787 168.264 53.4255C169.31 54.4723 171.008 54.4723 172.053 53.4255ZM159.668 60.6877L159.655 60.6746C159.824 60.8971 159.818 61.1915 159.661 61.4139C159.093 62.1205 158.479 62.8271 157.78 63.5272C157.322 63.9851 156.859 64.4104 156.395 64.8095C156.166 64.9796 155.853 64.9862 155.624 64.8095L155.65 64.8357C154.814 64.4758 153.808 64.6329 153.129 65.3198C152.234 66.2162 152.234 67.6751 153.129 68.5715C154.024 69.4678 155.48 69.4678 156.375 68.5715C157.061 67.8845 157.211 66.8835 156.859 66.046L156.885 66.0722C156.715 65.8432 156.715 65.5357 156.885 65.3002C157.283 64.8357 157.708 64.3712 158.165 63.9132C158.864 63.2131 159.576 62.5981 160.288 62.0224C160.517 61.8784 160.798 61.8719 161.013 62.0355L161 62.0224C162.509 62.9318 164.502 62.7486 165.802 61.4401C167.337 59.9026 167.337 57.4099 165.802 55.8658C164.266 54.3283 161.778 54.3283 160.236 55.8658C158.949 57.1874 158.76 59.1764 159.668 60.6877ZM121.825 96.1352C120.78 97.1821 120.78 98.8831 121.825 99.9299C122.87 100.977 124.569 100.977 125.614 99.9299C126.659 98.8831 126.659 97.1821 125.614 96.1352C124.569 95.0884 122.87 95.0884 121.825 96.1352ZM158.747 101.023L158.76 101.016C158.746 101.023 158.733 101.016 158.72 101.023C158.649 101.016 158.577 101.016 158.505 101.023C158.335 100.99 158.185 100.892 158.087 100.741C157.381 99.2691 156.676 97.712 155.99 96.0437C155.284 94.3099 154.677 92.6481 154.135 91.0517V91.0582C154.063 90.9208 154.082 90.7638 154.187 90.6657L154.18 90.6722C154.442 90.3451 154.527 89.8871 154.357 89.4749C154.108 88.8599 153.403 88.5655 152.795 88.8207C152.181 89.0693 151.887 89.7759 152.142 90.3843C152.312 90.8031 152.691 91.0648 153.102 91.1171C153.207 91.1106 153.298 91.1629 153.357 91.2545C154.108 92.8051 154.853 94.4538 155.578 96.2203C156.264 97.9017 156.859 99.5177 157.388 101.075C157.414 101.238 157.381 101.402 157.29 101.533C157.231 101.585 157.172 101.644 157.113 101.703C157.107 101.709 157.1 101.716 157.094 101.716L157.1 101.709C156.617 102.259 156.454 103.057 156.748 103.783C157.166 104.804 158.328 105.295 159.354 104.876C160.373 104.457 160.863 103.293 160.445 102.266C160.158 101.526 159.478 101.075 158.747 101.023ZM161.013 87.5318L161.026 87.5187C160.804 87.6888 160.51 87.6823 160.288 87.5252C159.583 86.956 158.877 86.341 158.178 85.641C157.721 85.183 157.296 84.7185 156.898 84.254C156.728 84.025 156.721 83.7109 156.898 83.4819L156.872 83.5081C157.231 82.6707 157.074 81.6631 156.388 80.9827C155.493 80.0864 154.037 80.0864 153.142 80.9827C152.247 81.879 152.247 83.338 153.142 84.2343C153.828 84.9213 154.827 85.0718 155.663 84.7185L155.637 84.7447C155.866 84.5746 156.173 84.5746 156.408 84.7447C156.872 85.1438 157.335 85.569 157.793 86.027C158.492 86.7271 159.106 87.4402 159.681 88.1533C159.824 88.3823 159.831 88.6636 159.668 88.8796L159.681 88.8665C158.773 90.3778 158.956 92.3733 160.262 93.6752C161.797 95.2127 164.286 95.2127 165.828 93.6752C167.363 92.1377 167.363 89.645 165.828 88.101C164.508 86.8056 162.522 86.6224 161.013 87.5318ZM168.264 96.1352C167.219 97.1821 167.219 98.8831 168.264 99.9299C169.31 100.977 171.008 100.977 172.053 99.9299C173.098 98.8831 173.098 97.1821 172.053 96.1352C171.008 95.0884 169.31 95.0884 168.264 96.1352ZM152.678 60.7597C153.285 61.0148 153.991 60.7269 154.246 60.1185C154.422 59.7063 154.337 59.2483 154.082 58.9212C154.004 58.8492 153.978 58.7511 153.997 58.6464C154.559 57.0239 155.193 55.3228 155.931 53.5629C156.63 51.888 157.355 50.3243 158.08 48.8522C158.178 48.7148 158.315 48.6298 158.472 48.5971C158.557 48.6036 158.635 48.6036 158.714 48.5971C158.72 48.5971 158.727 48.5971 158.74 48.5971L158.733 48.5905C159.465 48.5447 160.144 48.0998 160.445 47.3736C160.87 46.353 160.393 45.1818 159.374 44.7566C158.355 44.3313 157.185 44.8089 156.761 45.8296C156.46 46.5558 156.617 47.3474 157.094 47.9035L157.081 47.897C157.094 47.9035 157.1 47.9166 157.113 47.9232C157.159 47.9755 157.211 48.0279 157.27 48.0802C157.368 48.2241 157.407 48.4008 157.368 48.5774C156.826 50.1149 156.225 51.7179 155.533 53.3862C154.807 55.1134 154.063 56.7164 153.318 58.2342V58.2277C153.272 58.3782 153.142 58.4763 153.004 58.4698H153.011C152.593 58.5156 152.214 58.7773 152.038 59.196C151.783 59.7979 152.07 60.5045 152.678 60.7597ZM179.775 72.0979C178.291 72.0979 177.096 73.3017 177.096 74.7803C177.096 76.259 178.298 77.4628 179.775 77.4628C181.251 77.4628 182.453 76.259 182.453 74.7803C182.453 73.3017 181.258 72.0979 179.775 72.0979ZM175.868 84.64C175.15 84.339 174.353 84.496 173.797 84.9736L173.804 84.9606C173.797 84.9736 173.784 84.9802 173.778 84.9933C173.725 85.0391 173.673 85.0914 173.621 85.1503C173.477 85.2484 173.301 85.2877 173.124 85.2484C171.589 84.7054 169.989 84.1035 168.323 83.41C166.599 82.6838 164.998 81.9379 163.483 81.1921H163.489C163.339 81.1463 163.241 81.0154 163.247 80.878V80.8846C163.202 80.4658 162.94 80.0864 162.522 79.9097C161.915 79.6546 161.209 79.9424 160.954 80.5509C160.7 81.1593 160.987 81.8659 161.595 82.1211C162.006 82.2977 162.463 82.2127 162.79 81.9575C162.862 81.879 162.96 81.8529 163.064 81.8725C164.685 82.4351 166.383 83.0698 168.14 83.8091C169.812 84.5091 171.374 85.2354 172.844 85.9616C172.981 86.0597 173.066 86.1971 173.098 86.3541C173.092 86.4392 173.092 86.5177 173.098 86.5962C173.098 86.6027 173.098 86.6093 173.098 86.6224L173.105 86.6158C173.151 87.3486 173.595 88.029 174.32 88.33C175.339 88.7552 176.508 88.2776 176.933 87.257C177.364 86.2429 176.887 85.0718 175.868 84.64ZM147.89 93.7603H147.903C147.635 93.721 147.439 93.5182 147.38 93.2565C147.282 92.3471 147.217 91.4115 147.217 90.417C147.217 89.7693 147.243 89.1413 147.289 88.5263C147.334 88.2449 147.543 88.0225 147.831 87.9832H147.798C148.641 87.643 149.242 86.8252 149.242 85.8569C149.242 84.5876 148.216 83.5539 146.942 83.5539C145.675 83.5539 144.643 84.5811 144.643 85.8569C144.643 86.8252 145.244 87.643 146.087 87.9832H146.054C146.341 88.0225 146.557 88.2449 146.596 88.5328C146.642 89.1413 146.668 89.7693 146.668 90.417C146.668 91.405 146.596 92.3406 146.505 93.2434C146.452 93.5117 146.25 93.721 145.976 93.7603H145.995C144.284 94.1856 143.01 95.7231 143.01 97.5746C143.01 99.7533 144.774 101.513 146.942 101.513C149.111 101.513 150.875 99.7467 150.875 97.5746C150.875 95.7296 149.601 94.1921 147.89 93.7603ZM141.083 88.801C140.469 88.5524 139.77 88.8468 139.521 89.4553C139.352 89.874 139.437 90.3255 139.698 90.6526L139.691 90.646C139.796 90.7376 139.815 90.9012 139.744 91.0386V91.0321C139.201 92.6284 138.594 94.2902 137.888 96.024C137.202 97.6924 136.497 99.2495 135.791 100.722C135.693 100.879 135.543 100.977 135.373 101.003C135.301 100.996 135.23 100.996 135.158 101.003C135.145 101.003 135.132 101.003 135.119 100.996L135.132 101.003C134.4 101.055 133.727 101.507 133.427 102.233C133.009 103.254 133.499 104.425 134.518 104.843C135.537 105.262 136.706 104.771 137.124 103.751C137.418 103.025 137.255 102.233 136.771 101.677L136.778 101.683C136.771 101.677 136.765 101.67 136.758 101.67C136.706 101.611 136.647 101.552 136.582 101.5C136.49 101.369 136.451 101.206 136.484 101.042C137.013 99.485 137.607 97.869 138.293 96.1876C139.018 94.4146 139.77 92.7658 140.514 91.2218C140.573 91.1367 140.671 91.0844 140.769 91.0844C141.187 91.0321 141.56 90.7704 141.729 90.3516C141.991 89.7497 141.697 89.0497 141.083 88.801ZM140.867 58.4632C140.736 58.4698 140.606 58.3716 140.56 58.2212V58.2277C139.815 56.7164 139.071 55.1069 138.346 53.3797C137.647 51.7179 137.046 50.1149 136.51 48.5709C136.464 48.3942 136.503 48.2176 136.608 48.0737C136.66 48.0213 136.712 47.9755 136.765 47.9166C136.778 47.9101 136.784 47.897 136.797 47.8905L136.784 47.897C137.261 47.3409 137.425 46.5427 137.117 45.823C136.693 44.8024 135.524 44.3248 134.505 44.75C133.485 45.1753 133.009 46.3464 133.433 47.3671C133.734 48.0933 134.413 48.5316 135.145 48.584L135.138 48.5905C135.145 48.5905 135.151 48.5905 135.164 48.5905C135.243 48.5971 135.328 48.5905 135.406 48.5905C135.563 48.6167 135.7 48.7083 135.798 48.8457C136.523 50.3177 137.242 51.8814 137.947 53.5563C138.685 55.3228 139.319 57.0173 139.881 58.6399C139.9 58.7446 139.868 58.8492 139.796 58.9147C139.541 59.2483 139.456 59.6998 139.632 60.1119C139.887 60.7204 140.593 61.0148 141.2 60.7531C141.808 60.498 142.102 59.7914 141.84 59.1829C141.671 58.7707 141.285 58.509 140.867 58.4632ZM146.942 48.0475C144.767 48.0475 143.01 49.814 143.01 51.9861C143.01 53.8311 144.284 55.3686 145.995 55.8004H145.976C146.25 55.8397 146.452 56.049 146.505 56.3173C146.596 57.2201 146.668 58.1557 146.668 59.1437C146.668 59.7914 146.642 60.4194 146.596 61.0279C146.55 61.3158 146.341 61.5317 146.054 61.5775H146.087C145.244 61.9177 144.643 62.7355 144.643 63.7038C144.643 64.9731 145.669 66.0068 146.942 66.0068C148.21 66.0068 149.242 64.9796 149.242 63.7038C149.242 62.7355 148.641 61.9177 147.798 61.5775H147.831C147.543 61.5382 147.334 61.3158 147.289 61.0344C147.243 60.4194 147.217 59.7914 147.217 59.1437C147.217 58.1492 147.289 57.2136 147.38 56.3042C147.439 56.0425 147.635 55.8331 147.903 55.8004H147.89C149.601 55.3751 150.875 53.8376 150.875 51.9861C150.875 49.814 149.111 48.0475 146.942 48.0475ZM134.211 88.873L134.224 88.8861C134.06 88.6702 134.067 88.3823 134.211 88.1599C134.785 87.4533 135.399 86.7401 136.098 86.0335C136.556 85.5756 137.02 85.1503 137.483 84.7512C137.712 84.5811 138.019 84.5746 138.254 84.7512L138.228 84.725C139.064 85.0849 140.07 84.9279 140.75 84.2409C141.645 83.3446 141.645 81.8856 140.75 80.9892C139.855 80.0929 138.398 80.0929 137.503 80.9892C136.817 81.6762 136.667 82.6772 137.02 83.5147L136.993 83.4885C137.17 83.7175 137.163 84.025 136.993 84.2605C136.595 84.725 136.17 85.1896 135.713 85.6475C135.014 86.3476 134.309 86.956 133.603 87.5318C133.374 87.6823 133.087 87.6888 132.865 87.5252L132.878 87.5383C131.369 86.6289 129.377 86.8121 128.077 88.1206C126.541 89.6581 126.541 92.1508 128.077 93.6949C129.612 95.2324 132.101 95.2324 133.642 93.6949C134.936 92.3798 135.119 90.3909 134.211 88.873ZM146.942 104.981C145.459 104.981 144.264 106.185 144.264 107.663C144.264 109.142 145.466 110.346 146.942 110.346C148.425 110.346 149.621 109.142 149.621 107.663C149.621 106.185 148.419 104.981 146.942 104.981Z" fill="url(#paint0_linear_7726_2591)"/>
<path d="M127.94 66.8952C128.326 65.9596 127.881 64.8931 126.954 64.5006C126.02 64.1146 124.955 64.5595 124.563 65.4885C124.178 66.4241 124.622 67.4905 125.549 67.8831C126.484 68.2756 127.555 67.8307 127.94 66.8952ZM135.433 79.8821C135.982 79.5877 136.55 79.2933 137.177 79.0381C137.582 78.868 137.987 78.7241 138.386 78.5932C138.575 78.5474 138.771 78.626 138.869 78.7961L138.863 78.7764C139.3 79.2213 139.973 79.3849 140.581 79.1297C141.378 78.7961 141.763 77.8801 141.43 77.0819C141.097 76.2837 140.182 75.8977 139.385 76.2314C138.778 76.4865 138.418 77.0754 138.425 77.6969L138.418 77.6773C138.464 77.867 138.386 78.0633 138.216 78.1614C137.844 78.3512 137.458 78.5278 137.047 78.6979C136.426 78.9531 135.818 79.1559 135.224 79.3326C135.041 79.3718 134.858 79.2998 134.76 79.1363L134.767 79.1494C134.055 78.1811 132.755 77.7754 131.592 78.2596C130.22 78.8288 129.573 80.399 130.142 81.7729C130.71 83.1469 132.278 83.7946 133.65 83.2254C134.812 82.7412 135.446 81.5374 135.27 80.3466L135.276 80.3597C135.204 80.1635 135.283 79.9868 135.433 79.8821ZM134.754 70.4216L134.747 70.4347C134.845 70.2711 135.021 70.2057 135.204 70.2384C135.799 70.4151 136.406 70.6179 137.034 70.873C137.438 71.0431 137.83 71.2263 138.203 71.4095C138.373 71.5142 138.451 71.7039 138.405 71.8937L138.412 71.874C138.405 72.4956 138.765 73.091 139.372 73.3396C140.169 73.6732 141.09 73.2938 141.417 72.489C141.75 71.6908 141.371 70.7684 140.568 70.4412C139.96 70.1861 139.287 70.3496 138.85 70.7945L138.856 70.7749C138.758 70.945 138.562 71.0235 138.373 70.9777C137.974 70.8469 137.576 70.6964 137.164 70.5328C136.544 70.2777 135.975 69.9898 135.426 69.6888C135.27 69.5841 135.191 69.401 135.237 69.2178L135.231 69.2308C135.407 68.0401 134.773 66.8363 133.61 66.3521C132.239 65.7829 130.671 66.4372 130.103 67.8046C129.534 69.1785 130.187 70.7487 131.553 71.3179C132.735 71.7955 134.035 71.3899 134.754 70.4216ZM135.923 86.019C136.838 85.09 137.746 84.2526 138.614 83.4674C138.673 83.4282 138.752 83.4216 138.81 83.4478C139.085 83.5263 139.392 83.4544 139.607 83.2385C139.927 82.9179 139.921 82.401 139.601 82.0804C139.281 81.7598 138.765 81.7664 138.445 82.087C138.229 82.3029 138.164 82.6104 138.242 82.8917V82.8852C138.281 82.9702 138.255 83.0749 138.17 83.1469C137.412 84.0105 136.596 84.9003 135.701 85.8097C134.839 86.6864 133.983 87.478 133.16 88.2239C133.062 88.2958 132.938 88.322 132.82 88.2958C132.774 88.2762 132.729 88.2566 132.683 88.237C132.676 88.2304 132.663 88.2304 132.657 88.2239L132.663 88.2304C132.186 88.0734 131.644 88.1781 131.272 88.5576C130.743 89.094 130.749 89.9577 131.278 90.4876C131.814 91.0176 132.676 91.0176 133.205 90.4811C133.584 90.1016 133.682 89.5586 133.526 89.081L133.532 89.0875C133.526 89.081 133.526 89.081 133.526 89.0744C133.506 89.0221 133.486 88.9697 133.46 88.9239C133.434 88.8193 133.454 88.708 133.519 88.6099C134.257 87.7594 135.054 86.8957 135.923 86.019ZM125.549 81.6748C124.615 82.0608 124.171 83.1338 124.563 84.0694C124.948 85.0049 126.02 85.4498 126.954 85.0573C127.888 84.6713 128.332 83.5983 127.94 82.6627C127.555 81.7271 126.484 81.2822 125.549 81.6748ZM126.163 76.1594C126.699 76.1594 127.156 75.8454 127.372 75.3939V75.4005C127.372 75.3939 127.378 75.3874 127.378 75.3874C127.405 75.3351 127.424 75.2893 127.444 75.2304C127.503 75.1388 127.594 75.0733 127.705 75.0472C128.822 74.9752 129.992 74.9294 131.233 74.9229C132.533 74.9163 133.767 74.9621 134.937 75.0276C135.008 75.0406 135.067 75.0864 135.087 75.1519C135.231 75.4005 135.492 75.5706 135.799 75.5706C136.25 75.5706 136.615 75.1977 136.615 74.7462C136.615 74.2948 136.243 73.9284 135.792 73.9284C135.485 73.9284 135.224 74.1051 135.08 74.3537V74.3471C135.048 74.4387 134.956 74.4911 134.845 74.4845C133.702 74.5565 132.493 74.6088 131.22 74.6154C129.992 74.6219 128.829 74.5827 127.718 74.5238C127.594 74.5041 127.496 74.4322 127.431 74.334C127.411 74.2882 127.398 74.2424 127.372 74.1966C127.372 74.1901 127.365 74.177 127.365 74.1705V74.1836C127.143 73.7387 126.68 73.4246 126.15 73.4312C125.399 73.4312 124.792 74.0462 124.792 74.7986C124.798 75.551 125.412 76.1594 126.163 76.1594ZM139.072 55.7466C140.006 55.3606 140.45 54.2877 140.058 53.3521C139.673 52.4165 138.601 51.9716 137.667 52.3641C136.733 52.7502 136.289 53.8231 136.681 54.7587C137.066 55.6943 138.137 56.1392 139.072 55.7466ZM160.348 60.9938C159.603 61.8247 158.813 62.6752 157.937 63.5388C157.036 64.4352 156.141 65.253 155.279 66.0119C155.207 66.0904 155.102 66.1231 155.017 66.0839H155.024C154.75 66.0054 154.443 66.0708 154.22 66.2867C153.9 66.6073 153.9 67.1241 154.214 67.4447C154.527 67.7653 155.05 67.7653 155.37 67.4513C155.586 67.2354 155.658 66.9279 155.579 66.6531C155.553 66.5877 155.56 66.5157 155.599 66.4568C156.376 65.5801 157.219 64.6772 158.146 63.7613C159.022 62.8911 159.891 62.0929 160.727 61.3536C160.825 61.2947 160.936 61.2751 161.04 61.2947C161.093 61.3209 161.138 61.3405 161.191 61.3602C161.197 61.3602 161.197 61.3667 161.204 61.3667L161.197 61.3602C161.667 61.5237 162.216 61.419 162.595 61.0396C163.131 60.5096 163.131 59.646 162.602 59.1095C162.072 58.573 161.21 58.573 160.675 59.103C160.296 59.4824 160.191 60.0255 160.348 60.4965L160.341 60.49C160.348 60.4965 160.348 60.5096 160.354 60.5162C160.367 60.562 160.387 60.6078 160.413 60.6536C160.446 60.7713 160.426 60.8891 160.348 60.9938ZM155.677 71.4095C156.05 71.2198 156.441 71.0431 156.846 70.873C157.474 70.6113 158.081 70.4151 158.676 70.2384C158.859 70.2057 159.035 70.2777 159.133 70.4347L159.126 70.4216C159.838 71.3899 161.145 71.7955 162.301 71.3114C163.673 70.7422 164.32 69.172 163.751 67.798C163.183 66.4241 161.615 65.7764 160.243 66.3456C159.081 66.8297 158.447 68.0336 158.623 69.2243L158.617 69.2112C158.663 69.3944 158.584 69.5776 158.427 69.6823C157.885 69.9767 157.317 70.2646 156.69 70.5263C156.285 70.6964 155.88 70.8403 155.481 70.9712C155.292 71.017 155.096 70.9385 154.998 70.7684L155.004 70.788C154.567 70.3431 153.894 70.1795 153.286 70.4347C152.489 70.7683 152.104 71.6843 152.437 72.4825C152.77 73.2807 153.685 73.6667 154.482 73.333C155.089 73.0779 155.448 72.489 155.442 71.8675L155.449 71.8871C155.429 71.7039 155.514 71.5142 155.677 71.4095ZM157.199 54.7587C157.585 53.8231 157.14 52.7567 156.213 52.3641C155.279 51.9781 154.214 52.423 153.822 53.3521C153.436 54.2877 153.881 55.3541 154.808 55.7466C155.743 56.1327 156.814 55.6943 157.199 54.7587ZM151.287 62.5705L151.274 62.564C151.438 62.6621 151.509 62.8453 151.47 63.0285C151.294 63.6239 151.091 64.2323 150.837 64.8539C150.667 65.2595 150.49 65.6521 150.301 66.025C150.203 66.1951 150.007 66.2736 149.818 66.2278L149.837 66.2344C149.217 66.2278 148.622 66.5877 148.374 67.1961C148.041 67.9943 148.42 68.9168 149.223 69.2439C150.02 69.5776 150.941 69.1981 151.268 68.3934C151.523 67.7849 151.359 67.1111 150.915 66.6727L150.935 66.6793C150.765 66.5811 150.686 66.3848 150.732 66.1951C150.863 65.796 151.013 65.3969 151.176 64.9847C151.438 64.3566 151.725 63.7874 152.019 63.2379C152.123 63.0874 152.3 63.0089 152.483 63.0547L152.47 63.0481C153.659 63.2248 154.861 62.5902 155.344 61.4256C155.912 60.0516 155.259 58.4814 153.894 57.9122C152.522 57.343 150.954 57.9973 150.386 59.3647C149.922 60.5554 150.321 61.8574 151.287 62.5705ZM136.681 94.7992C136.295 95.7347 136.74 96.8012 137.667 97.1937C138.601 97.5797 139.666 97.1348 140.058 96.2058C140.443 95.2702 139.999 94.2038 139.072 93.8112C138.137 93.4252 137.066 93.8701 136.681 94.7992ZM161.217 88.2239L161.223 88.2173C161.217 88.2239 161.204 88.2239 161.197 88.2304C161.151 88.2435 161.106 88.2631 161.06 88.2893C160.942 88.3155 160.825 88.2959 160.72 88.2173C159.891 87.4715 159.041 86.6798 158.179 85.8031C157.284 84.9003 156.468 84.0039 155.71 83.1403C155.631 83.0684 155.599 82.9637 155.638 82.8786V82.8852C155.716 82.6104 155.651 82.3029 155.435 82.0804C155.115 81.7598 154.599 81.7598 154.279 82.0739C153.959 82.3879 153.959 82.9113 154.273 83.2319C154.488 83.4478 154.795 83.5198 155.07 83.4413C155.135 83.4151 155.207 83.4216 155.266 83.4609C156.141 84.2395 157.042 85.0835 157.957 86.0125C158.826 86.8892 159.623 87.7594 160.361 88.5968C160.42 88.6949 160.439 88.8062 160.42 88.9109C160.394 88.9632 160.374 89.009 160.354 89.0613C160.354 89.0679 160.348 89.0679 160.348 89.0744L160.354 89.0679C160.191 89.5389 160.296 90.0885 160.675 90.468C161.204 91.0045 162.066 91.0045 162.602 90.4745C163.137 89.9446 163.137 89.081 162.608 88.5445C162.236 88.1781 161.694 88.0669 161.217 88.2239ZM159.133 79.1363L159.139 79.1232C159.041 79.2868 158.859 79.3587 158.676 79.3195C158.081 79.1428 157.474 78.94 156.853 78.6848C156.448 78.5147 156.056 78.3381 155.684 78.1483C155.514 78.0502 155.435 77.8539 155.481 77.6642L155.475 77.6838C155.481 77.0623 155.122 76.4669 154.514 76.2183C153.717 75.8846 152.796 76.2641 152.47 77.0688C152.137 77.867 152.515 78.7895 153.319 79.1166C153.926 79.3718 154.599 79.2082 155.037 78.7633L155.03 78.783C155.128 78.6129 155.324 78.5344 155.514 78.5802C155.912 78.711 156.311 78.8615 156.722 79.0251C157.349 79.2868 157.918 79.5746 158.467 79.869C158.617 79.9737 158.695 80.1504 158.649 80.3336L158.656 80.3205C158.48 81.5112 159.113 82.715 160.276 83.1992C161.648 83.7684 163.216 83.1141 163.784 81.7468C164.352 80.3728 163.699 78.8026 162.334 78.2334C161.145 77.7623 159.845 78.168 159.133 79.1363ZM165.94 82.6627C165.554 83.5983 165.998 84.6647 166.926 85.0573C167.86 85.4433 168.925 84.9984 169.317 84.0694C169.702 83.1338 169.258 82.0673 168.331 81.6748C167.396 81.2822 166.332 81.7271 165.94 82.6627ZM146.904 64.4417C147.355 64.4417 147.721 64.0753 147.727 63.6239C147.727 63.3164 147.557 63.0547 147.309 62.9107C147.244 62.8846 147.198 62.8322 147.185 62.7603C147.12 61.5891 147.074 60.3526 147.08 59.0506C147.087 57.8141 147.133 56.6364 147.205 55.5177C147.231 55.4064 147.296 55.3148 147.387 55.256C147.44 55.2363 147.492 55.2167 147.544 55.1905C147.551 55.1905 147.551 55.184 147.557 55.184H147.551C148.002 54.9615 148.309 54.5036 148.315 53.9736C148.315 53.2212 147.714 52.6062 146.956 52.6062C146.205 52.6062 145.591 53.2081 145.591 53.9671C145.591 54.5036 145.898 54.9615 146.342 55.184H146.329C146.336 55.184 146.349 55.1905 146.355 55.1905C146.401 55.2102 146.447 55.2298 146.493 55.2494C146.59 55.3148 146.662 55.413 146.682 55.5373C146.741 56.6495 146.78 57.8141 146.773 59.0441C146.767 60.3199 146.715 61.5303 146.643 62.6752C146.649 62.7799 146.597 62.878 146.506 62.9107H146.512C146.264 63.0481 146.087 63.3164 146.087 63.6239C146.087 64.0753 146.453 64.4417 146.904 64.4417ZM166.933 64.5071C165.998 64.8931 165.554 65.9661 165.946 66.9017C166.332 67.8373 167.403 68.2822 168.337 67.8896C169.271 67.5036 169.715 66.4306 169.324 65.4951C168.932 64.5595 167.867 64.1211 166.933 64.5071ZM167.743 73.4312C167.207 73.4312 166.75 73.7387 166.528 74.1836V74.1705C166.528 74.177 166.521 74.1901 166.521 74.1966C166.501 74.2424 166.482 74.2882 166.462 74.334C166.397 74.4322 166.299 74.5041 166.175 74.5238C165.064 74.5827 163.902 74.6219 162.673 74.6154C161.4 74.6088 160.191 74.5565 159.048 74.4845C158.943 74.4911 158.845 74.4387 158.813 74.3471V74.3537C158.676 74.1051 158.408 73.9284 158.101 73.9284C157.65 73.9284 157.284 74.2948 157.278 74.7462C157.278 75.1977 157.643 75.564 158.094 75.5706C158.401 75.5706 158.663 75.4005 158.806 75.1519C158.832 75.0864 158.885 75.0406 158.956 75.0276C160.126 74.9621 161.36 74.9163 162.66 74.9229C163.895 74.9294 165.071 74.9752 166.188 75.0472C166.299 75.0733 166.39 75.1388 166.449 75.2304C166.469 75.2827 166.488 75.3351 166.515 75.3874C166.515 75.3939 166.521 75.3939 166.521 75.4005V75.3939C166.743 75.8454 167.2 76.1529 167.73 76.1594C168.481 76.1594 169.095 75.5575 169.095 74.7986C169.101 74.0462 168.494 73.4312 167.743 73.4312ZM152.483 86.4901L152.496 86.4836C152.313 86.5294 152.137 86.4509 152.032 86.3004C151.738 85.7508 151.444 85.1816 151.189 84.5535C151.019 84.1479 150.876 83.7422 150.745 83.3431C150.699 83.1534 150.778 82.9571 150.948 82.859L150.928 82.8655C151.372 82.4272 151.536 81.7598 151.281 81.1448C150.948 80.3466 150.033 79.9606 149.236 80.2943C148.439 80.628 148.054 81.5439 148.387 82.3421C148.642 82.9506 149.23 83.3104 149.85 83.3039L149.831 83.3104C150.02 83.2646 150.216 83.3431 150.314 83.5132C150.503 83.8862 150.68 84.2722 150.85 84.6844C151.104 85.3059 151.307 85.9144 151.483 86.5097C151.523 86.6929 151.451 86.8761 151.287 86.9743L151.3 86.9677C150.334 87.6809 149.929 88.9828 150.412 90.1474C150.98 91.5213 152.548 92.169 153.92 91.5998C155.292 91.0306 155.938 89.4604 155.37 88.0865C154.88 86.9481 153.672 86.3135 152.483 86.4901ZM146.904 85.1423C146.453 85.1423 146.087 85.5153 146.087 85.9667C146.087 86.2742 146.264 86.5359 146.512 86.6798H146.506C146.597 86.7126 146.649 86.8041 146.643 86.9154C146.715 88.0603 146.767 89.2707 146.773 90.5465C146.78 91.7765 146.741 92.9411 146.682 94.0533C146.662 94.1776 146.59 94.2757 146.493 94.3412C146.447 94.3608 146.401 94.3739 146.355 94.4001C146.349 94.4001 146.336 94.4066 146.329 94.4066H146.342C145.898 94.629 145.584 95.0936 145.591 95.6235C145.591 96.3759 146.205 96.9844 146.956 96.9844C147.708 96.9844 148.315 96.3694 148.315 95.617C148.315 95.0805 148.002 94.6225 147.551 94.4066H147.557C147.551 94.4066 147.544 94.4001 147.544 94.4001C147.492 94.3739 147.446 94.3543 147.387 94.3346C147.296 94.2757 147.231 94.1842 147.205 94.0729C147.133 92.9541 147.087 91.783 147.08 90.5399C147.074 89.238 147.12 88.0014 147.185 86.8303C147.198 86.7584 147.244 86.6995 147.309 86.6798C147.557 86.5359 147.727 86.2742 147.727 85.9667C147.721 85.5087 147.355 85.1423 146.904 85.1423ZM138.863 66.0839C138.778 66.1231 138.673 66.097 138.608 66.0119C137.746 65.253 136.857 64.4352 135.949 63.5388C135.074 62.6752 134.283 61.8181 133.539 60.9938C133.467 60.8956 133.441 60.7713 133.467 60.6536C133.486 60.6078 133.506 60.562 133.526 60.5162C133.532 60.5096 133.532 60.4965 133.539 60.49L133.532 60.4965C133.689 60.0189 133.584 59.4759 133.205 59.103C132.67 58.573 131.808 58.5796 131.278 59.1095C130.749 59.646 130.749 60.5096 131.285 61.0396C131.664 61.419 132.206 61.5172 132.683 61.3602L132.676 61.3667C132.683 61.3602 132.683 61.3602 132.689 61.3602C132.742 61.3405 132.794 61.3209 132.84 61.2947C132.944 61.2686 133.055 61.2882 133.153 61.3536C133.996 62.0929 134.858 62.8911 135.734 63.7613C136.661 64.6772 137.497 65.5866 138.281 66.4568C138.32 66.5157 138.327 66.5942 138.301 66.6531C138.222 66.9279 138.294 67.2354 138.51 67.4513C138.83 67.7719 139.346 67.7653 139.666 67.4447C139.986 67.1241 139.98 66.6073 139.66 66.2867C139.444 66.0708 139.137 66.0054 138.863 66.0839ZM139.973 57.9384C138.601 58.5076 137.955 60.0778 138.523 61.4518C139.006 62.6163 140.208 63.251 141.397 63.0743L141.384 63.0808C141.567 63.0351 141.75 63.1136 141.854 63.2706C142.148 63.8136 142.436 64.3828 142.697 65.0109C142.867 65.4165 143.011 65.8222 143.141 66.2213C143.187 66.411 143.109 66.6073 142.939 66.7054L142.958 66.6989C142.514 67.1372 142.351 67.8046 142.606 68.4196C142.939 69.2178 143.853 69.6038 144.65 69.2701C145.447 68.9364 145.833 68.0205 145.5 67.2223C145.245 66.6138 144.657 66.254 144.036 66.2605L144.056 66.254C143.866 66.2998 143.67 66.2213 143.573 66.0512C143.383 65.6782 143.207 65.2857 143.037 64.8801C142.776 64.252 142.58 63.6435 142.403 63.0481C142.371 62.8649 142.442 62.6883 142.599 62.5902L142.586 62.5967C143.553 61.8836 143.958 60.575 143.474 59.417C142.913 58.0169 141.345 57.3692 139.973 57.9384ZM142.593 86.9873L142.599 86.9939C142.436 86.8957 142.371 86.7191 142.403 86.5359C142.58 85.9405 142.782 85.3321 143.037 84.704C143.207 84.2984 143.39 83.9058 143.573 83.5329C143.677 83.3628 143.866 83.2843 144.056 83.3301L144.036 83.3235C144.657 83.3301 145.251 82.9702 145.5 82.3618C145.833 81.5636 145.454 80.6411 144.65 80.3139C143.853 79.9803 142.932 80.3597 142.606 81.1645C142.351 81.7729 142.514 82.4468 142.958 82.8852L142.939 82.8786C143.109 82.9768 143.187 83.173 143.141 83.3628C143.011 83.7619 142.86 84.161 142.697 84.5731C142.442 85.1947 142.155 85.7639 141.854 86.3135C141.75 86.4705 141.567 86.549 141.384 86.5032L141.397 86.5097C140.208 86.3331 139.006 86.9677 138.523 88.1323C137.955 89.5062 138.608 91.0764 139.973 91.6456C141.345 92.2148 142.913 91.5606 143.481 90.1932C143.958 89.009 143.559 87.707 142.593 86.9873ZM154.808 93.8112C153.874 94.1972 153.43 95.2702 153.822 96.2058C154.207 97.1414 155.279 97.5863 156.213 97.1937C157.147 96.8077 157.591 95.7347 157.199 94.7992C156.814 93.8701 155.743 93.4252 154.808 93.8112Z" fill="url(#paint1_linear_7726_2591)"/>
</g>
</g>
<path d="M180.196 242.776C180.312 247.253 178.815 251.623 175.981 255.081C173.172 258.473 169.415 260.168 164.71 260.168C162.751 260.177 160.812 259.763 159.026 258.954C157.362 258.243 155.919 257.098 154.844 255.639H154.713V275H143.998V226.565H154.191V230.568H154.387C155.51 229.06 156.978 227.844 158.666 227.024C160.565 226.084 162.659 225.612 164.776 225.646C166.89 225.581 168.991 226 170.921 226.869C172.85 227.739 174.559 229.038 175.916 230.667C178.777 234.037 180.301 238.348 180.196 242.776ZM169.807 242.776C169.854 240.637 169.135 238.553 167.781 236.902C167.097 236.084 166.234 235.436 165.259 235.009C164.284 234.582 163.224 234.388 162.162 234.441C161.089 234.41 160.022 234.625 159.043 235.069C158.065 235.512 157.198 236.172 156.51 237C155.099 238.622 154.321 240.703 154.321 242.858C154.321 245.012 155.099 247.093 156.51 248.715C157.203 249.535 158.071 250.188 159.05 250.625C160.028 251.062 161.092 251.273 162.162 251.242C163.227 251.294 164.29 251.096 165.265 250.663C166.241 250.23 167.102 249.574 167.781 248.748C169.14 247.061 169.858 244.945 169.807 242.776Z" fill="#434242"/>
<path d="M204.559 225.909L204.102 235.36C203.205 235.133 202.283 235.023 201.358 235.032C198.786 235.032 196.87 235.831 195.608 237.428C194.417 238.83 193.747 240.605 193.713 242.448V259.25H182.997V226.566H193.321V231.291H193.451C194.25 229.617 195.494 228.198 197.045 227.189C198.597 226.166 200.416 225.629 202.272 225.647C203.044 225.612 203.816 225.701 204.559 225.909Z" fill="#434242"/>
<path d="M236.066 243.303C236.066 244.484 236.044 245.337 236.001 245.862H212.413C212.503 246.735 212.777 247.578 213.216 248.336C213.656 249.094 214.25 249.75 214.961 250.259C216.453 251.429 218.296 252.055 220.189 252.031C223.325 252.031 225.721 250.894 227.376 248.618L234.825 253.344C231.645 257.982 226.723 260.3 220.058 260.3C214.961 260.3 210.703 258.758 207.284 255.674C203.864 252.589 202.154 248.378 202.155 243.04C202.155 237.789 203.821 233.556 207.153 230.34C210.486 227.124 214.678 225.516 219.731 225.516C224.609 225.516 228.551 227.103 231.558 230.275C234.563 233.448 236.066 237.79 236.066 243.303ZM212.413 239.168H226.2C226.254 237.517 225.655 235.913 224.534 234.705C223.423 233.523 221.844 232.933 219.797 232.933C217.929 232.884 216.11 233.539 214.7 234.77C214.044 235.311 213.503 235.979 213.11 236.735C212.717 237.49 212.48 238.318 212.413 239.168Z" fill="#434242"/>
<path d="M275 242.776C275.116 247.253 273.619 251.623 270.785 255.081C267.976 258.473 264.218 260.168 259.514 260.168C257.555 260.177 255.616 259.763 253.83 258.954C252.166 258.243 250.722 257.098 249.648 255.639H249.517V275H238.801V226.565H248.994V230.568H249.19C250.313 229.06 251.781 227.844 253.47 227.024C255.369 226.084 257.463 225.612 259.579 225.646C261.694 225.581 263.795 226 265.725 226.869C267.654 227.739 269.362 229.038 270.72 230.667C273.581 234.037 275.105 238.348 275 242.776ZM264.611 242.776C264.658 240.637 263.939 238.553 262.585 236.902C261.901 236.084 261.038 235.436 260.063 235.009C259.088 234.582 258.028 234.388 256.966 234.441C255.893 234.41 254.826 234.625 253.847 235.069C252.868 235.512 252.002 236.172 251.314 237C249.903 238.622 249.125 240.703 249.125 242.858C249.125 245.012 249.903 247.093 251.314 248.715C252.007 249.535 252.875 250.188 253.854 250.625C254.832 251.062 255.895 251.273 256.966 251.242C258.031 251.294 259.094 251.096 260.069 250.663C261.045 250.23 261.906 249.574 262.585 248.748C263.944 247.061 264.662 244.945 264.611 242.776Z" fill="#434242"/>
<path d="M282.779 236.871L277.355 231.029C281.232 227.354 286.067 225.516 291.861 225.516C297.219 225.516 301.052 226.884 303.361 229.618C305.669 232.354 306.823 236.74 306.824 242.777V259.251H297.023V255.772H296.827C295.938 257.175 294.636 258.265 293.102 258.89C291.375 259.661 289.504 260.053 287.614 260.038C285.78 260.052 283.957 259.752 282.223 259.152C280.451 258.492 278.899 257.344 277.747 255.838C276.407 254.12 275.713 251.981 275.787 249.8C275.787 242.449 282.757 238.774 296.696 238.774V238.249C296.733 237.574 296.603 236.9 296.318 236.287C296.033 235.675 295.602 235.142 295.062 234.738C293.815 233.881 292.325 233.455 290.815 233.523C287.804 233.543 284.92 234.744 282.779 236.871ZM297.023 246.124V245.009H295.65C288.986 245.009 285.654 246.496 285.654 249.472C285.626 249.979 285.74 250.485 285.982 250.931C286.225 251.378 286.586 251.747 287.026 251.999C288.02 252.567 289.15 252.85 290.293 252.819C292.426 252.819 294.081 252.217 295.259 251.014C295.863 250.359 296.331 249.589 296.634 248.749C296.937 247.909 297.069 247.017 297.023 246.124Z" fill="#434242"/>
<path d="M321.718 226.562H311.002V259.246H321.718V226.562Z" fill="#434242"/>
<path d="M347.856 225.909L347.398 235.36C346.501 235.133 345.579 235.023 344.654 235.032C342.083 235.032 340.167 235.831 338.904 237.428C337.713 238.83 337.043 240.605 337.009 242.448V259.25H326.293V226.566H336.617V231.291H336.748C337.547 229.617 338.79 228.198 340.341 227.189C341.893 226.166 343.713 225.629 345.569 225.647C346.34 225.612 347.112 225.701 347.856 225.909Z" fill="#434242"/>
<path d="M379.345 243.303C379.345 244.484 379.324 245.337 379.28 245.862H355.692C355.782 246.735 356.056 247.578 356.495 248.336C356.935 249.095 357.53 249.75 358.241 250.259C359.732 251.429 361.576 252.055 363.468 252.031C366.604 252.031 369 250.894 370.655 248.618L378.104 253.344C374.924 257.982 370.001 260.3 363.337 260.3C358.241 260.3 353.983 258.758 350.563 255.674C347.143 252.589 345.434 248.378 345.434 243.04C345.434 237.789 347.1 233.556 350.433 230.34C353.765 227.124 357.958 225.516 363.011 225.516C367.889 225.516 371.831 227.103 374.837 230.275C377.843 233.448 379.345 237.79 379.345 243.303ZM355.692 239.168H369.479C369.533 237.517 368.934 235.913 367.813 234.705C366.702 233.523 365.123 232.933 363.076 232.933C361.208 232.884 359.39 233.539 357.979 234.77C357.323 235.311 356.783 235.979 356.39 236.735C355.997 237.49 355.759 238.318 355.692 239.168Z" fill="#434242"/>
<path d="M316.368 204.168C314.591 204.168 312.853 204.697 311.375 205.689C309.897 206.681 308.746 208.091 308.065 209.74C307.385 211.39 307.207 213.204 307.554 214.956C307.901 216.707 308.757 218.315 310.013 219.577C311.27 220.84 312.872 221.699 314.615 222.048C316.358 222.396 318.165 222.217 319.807 221.534C321.449 220.851 322.853 219.694 323.84 218.209C324.827 216.725 325.355 214.98 325.355 213.195C325.355 212.009 325.122 210.835 324.671 209.74C324.219 208.645 323.557 207.65 322.722 206.812C321.888 205.973 320.897 205.309 319.807 204.855C318.717 204.401 317.548 204.168 316.368 204.168Z" fill="#5498EE"/>
<path d="M399.779 211.575C399.665 209.189 398.613 206.946 396.853 205.34C395.093 203.733 392.769 202.895 390.394 203.009C383.991 203.317 384.382 208.581 377.979 208.889C371.576 209.197 371.465 203.92 365.062 204.228C363.886 204.285 362.732 204.573 361.667 205.078C360.602 205.582 359.647 206.292 358.855 207.168C358.063 208.043 357.45 209.066 357.052 210.179C356.654 211.292 356.478 212.473 356.535 213.655C356.591 214.836 356.878 215.995 357.38 217.065C357.883 218.134 358.589 219.094 359.461 219.89C360.332 220.685 361.351 221.3 362.459 221.7C363.568 222.1 364.743 222.277 365.919 222.22C372.323 221.913 371.932 216.649 378.335 216.341C380.71 216.227 383.033 217.065 384.793 218.672C386.553 220.278 387.606 222.521 387.72 224.907C388.027 231.338 382.773 231.45 383.08 237.881C383.136 239.063 383.424 240.222 383.926 241.291C384.428 242.361 385.135 243.321 386.007 244.117C386.878 244.912 387.897 245.527 389.005 245.927C390.113 246.327 391.289 246.503 392.465 246.447C393.641 246.39 394.795 246.101 395.86 245.597C396.925 245.093 397.881 244.383 398.673 243.507C399.464 242.632 400.077 241.608 400.475 240.495C400.873 239.382 401.049 238.201 400.992 237.02C400.686 230.588 395.446 230.981 395.14 224.549C394.833 218.118 400.086 218.006 399.779 211.575Z" fill="#5498EE"/>
</g>
<defs>
<filter id="filter0_d_7726_2591" x="0" y="0" width="544" height="362" filterUnits="userSpaceOnUse" color-interpolation-filters="sRGB">
<feFlood flood-opacity="0" result="BackgroundImageFix"/>
<feColorMatrix in="SourceAlpha" type="matrix" values="0 0 0 0 0 0 0 0 0 0 0 0 0 0 0 0 0 0 127 0" result="hardAlpha"/>
<feOffset dy="4"/>
<feGaussianBlur stdDeviation="2"/>
<feComposite in2="hardAlpha" operator="out"/>
<feColorMatrix type="matrix" values="0 0 0 0 0 0 0 0 0 0 0 0 0 0 0 0 0 0 0.25 0"/>
<feBlend mode="normal" in2="BackgroundImageFix" result="effect1_dropShadow_7726_2591"/>
<feBlend mode="normal" in="SourceGraphic" in2="effect1_dropShadow_7726_2591" result="shape"/>
</filter>
<linearGradient id="paint0_linear_7726_2591" x1="146.94" y1="110.352" x2="146.94" y2="39.2105" gradientUnits="userSpaceOnUse">
<stop stop-color="#EA5151"/>
<stop offset="1" stop-color="#AE3189"/>
</linearGradient>
<linearGradient id="paint1_linear_7726_2591" x1="156.246" y1="97.1789" x2="137.657" y2="52.3714" gradientUnits="userSpaceOnUse">
<stop stop-color="#68BEA4"/>
<stop offset="1" stop-color="#6DB4E4"/>
</linearGradient>
<clipPath id="clip0_7726_2591">
<rect width="292" height="123" fill="white" transform="translate(111 39)"/>
</clipPath>
</defs>
</svg>
