<svg width="257" height="72" viewBox="0 0 257 72" fill="none" xmlns="http://www.w3.org/2000/svg">
<path d="M36.1959 39.7756C36.3117 44.2533 34.8154 48.6229 31.9814 52.0814C29.1717 55.4729 25.4148 57.1684 20.7103 57.1676C18.7507 57.1772 16.812 56.763 15.0257 55.9537C13.3624 55.243 11.9186 54.0985 10.844 52.6386H10.7133V72.0004H-0.00244141V23.5649H10.1906V27.5684H10.3866C11.5097 26.0595 12.9775 24.8439 14.6664 24.0243C16.565 23.0844 18.6592 22.6119 20.7756 22.646C22.8898 22.5813 24.991 22.9996 26.9209 23.8693C28.8505 24.739 30.5586 26.0376 31.9161 27.6667C34.7775 31.0365 36.3014 35.3478 36.1959 39.7756ZM25.8067 39.7756C25.8537 37.6371 25.135 35.5529 23.7813 33.9016C23.0971 33.0838 22.2338 32.436 21.259 32.0092C20.2842 31.5821 19.2242 31.3875 18.162 31.4407C17.0886 31.4105 16.0224 31.6252 15.0435 32.0685C14.0646 32.5119 13.1984 33.1723 12.5101 34.0002C11.0989 35.6223 10.3212 37.7034 10.3212 39.8577C10.3212 42.012 11.0989 44.0931 12.5101 45.7153C13.2035 46.5349 14.0714 47.1875 15.0497 47.6249C16.028 48.0623 17.0916 48.2732 18.162 48.242C19.2273 48.2944 20.29 48.0959 21.2655 47.6631C22.241 47.2301 23.1025 46.5744 23.7813 45.748C25.1399 44.0613 25.8578 41.9447 25.8067 39.7756Z" fill="#434242"/>
<path d="M60.5593 22.9095L60.1018 32.3604C59.2049 32.133 58.2826 32.0229 57.3576 32.0321C54.7863 32.0321 52.8697 32.8306 51.6076 34.4278C50.4165 35.8303 49.7467 37.605 49.7129 39.4484V56.2499H38.9971V23.5658H49.3207V28.2912H49.4515C50.2501 26.6174 51.4938 25.1979 53.0451 24.1893C54.5969 23.1661 56.4163 22.6293 58.2723 22.647C59.0436 22.612 59.8156 22.7006 60.5593 22.9095Z" fill="#434242"/>
<path d="M92.0664 40.3025C92.0664 41.4837 92.0447 42.3368 92.0011 42.862H68.4134C68.5034 43.7345 68.7769 44.5779 69.2163 45.3361C69.6558 46.0943 70.2505 46.7497 70.9617 47.2592C72.4531 48.4295 74.2967 49.0545 76.1889 49.0313C79.3253 49.0313 81.7211 47.8937 83.3764 45.6184L90.825 50.3438C87.6453 54.9817 82.7228 57.3005 76.0583 57.3002C70.9617 57.3002 66.7036 55.758 63.2842 52.6739C59.8642 49.5892 58.1545 45.3779 58.155 40.0398C58.155 34.7895 59.8214 30.5562 63.1536 27.3405C66.4859 24.1244 70.6786 22.5165 75.7314 22.5165C80.6095 22.5165 84.5517 24.1026 87.558 27.2746C90.5636 30.4475 92.0664 34.79 92.0664 40.3025ZM68.4134 36.1676H82.2003C82.2542 34.5172 81.655 32.9126 80.5339 31.7048C79.4233 30.5234 77.8442 29.9327 75.7969 29.9327C73.929 29.8837 72.1107 30.5392 70.7003 31.7704C70.0444 32.311 69.5035 32.9792 69.1106 33.7348C68.7176 34.4904 68.4804 35.318 68.4134 36.1676Z" fill="#434242"/>
<path d="M131 39.7756C131.116 44.2533 129.619 48.6229 126.785 52.0814C123.976 55.4729 120.218 57.1684 115.514 57.1676C113.555 57.1772 111.616 56.763 109.83 55.9537C108.166 55.243 106.722 54.0985 105.648 52.6386H105.517V72.0004H94.8013V23.5649H104.994V27.5684H105.19C106.313 26.0595 107.781 24.8439 109.47 24.0243C111.369 23.0844 113.463 22.6119 115.579 22.646C117.694 22.5813 119.795 22.9996 121.725 23.8693C123.654 24.739 125.362 26.0376 126.72 27.6667C129.581 31.0365 131.105 35.3478 131 39.7756ZM120.611 39.7756C120.658 37.6371 119.939 35.5529 118.585 33.9016C117.901 33.0838 117.038 32.436 116.063 32.0092C115.088 31.5821 114.028 31.3875 112.966 31.4407C111.893 31.4105 110.826 31.6252 109.847 32.0685C108.868 32.5119 108.002 33.1723 107.314 34.0002C105.903 35.6223 105.125 37.7034 105.125 39.8577C105.125 42.012 105.903 44.0931 107.314 45.7153C108.007 46.5349 108.875 47.1875 109.854 47.6249C110.832 48.0623 111.895 48.2732 112.966 48.242C114.031 48.2944 115.094 48.0959 116.069 47.6631C117.045 47.2301 117.906 46.5744 118.585 45.748C119.944 44.0613 120.662 41.9447 120.611 39.7756Z" fill="#434242"/>
<path d="M138.779 33.8705L133.355 28.0295C137.232 24.3542 142.067 22.5165 147.861 22.5165C153.219 22.5165 157.052 23.8838 159.361 26.6184C161.669 29.3536 162.823 33.7399 162.824 39.7774V56.2506H153.023V52.7722H152.827C151.938 54.175 150.636 55.2646 149.102 55.8896C147.375 56.661 145.504 57.0527 143.614 57.0383C141.78 57.0519 139.957 56.7523 138.223 56.1523C136.451 55.4922 134.899 54.3436 133.747 52.8377C132.407 51.1196 131.713 48.9815 131.787 46.7998C131.787 39.4491 138.757 35.774 152.696 35.774V35.2488C152.733 34.5737 152.603 33.8999 152.318 33.2873C152.033 32.6746 151.602 32.1423 151.062 31.7376C149.815 30.8811 148.325 30.455 146.815 30.5234C143.804 30.5428 140.92 31.7441 138.779 33.8705ZM153.023 43.1245V42.0088H151.65C144.986 42.0088 141.654 43.4963 141.654 46.4716C141.626 46.9794 141.74 47.4847 141.982 47.9312C142.225 48.3776 142.586 48.7472 143.026 48.999C144.02 49.5665 145.15 49.8499 146.293 49.8189C148.426 49.8189 150.081 49.2174 151.259 48.014C151.863 47.359 152.331 46.5887 152.634 45.749C152.937 44.909 153.069 44.0166 153.023 43.1245Z" fill="#434242"/>
<path d="M177.718 23.5624H167.002V56.2464H177.718V23.5624Z" fill="#434242"/>
<path d="M203.856 22.9095L203.398 32.3604C202.501 32.1331 201.579 32.0229 200.654 32.0321C198.083 32.0321 196.167 32.8306 194.904 34.4278C193.713 35.8303 193.043 37.6051 193.009 39.4484V56.25H182.293V23.5658H192.617V28.2912H192.748C193.547 26.6174 194.79 25.1977 196.341 24.1893C197.893 23.166 199.713 22.6292 201.569 22.6469C202.34 22.612 203.112 22.7006 203.856 22.9095Z" fill="#434242"/>
<path d="M235.345 40.3025C235.345 41.4837 235.324 42.3368 235.28 42.862H211.692C211.782 43.7345 212.056 44.5781 212.495 45.3363C212.935 46.0945 213.53 46.75 214.241 47.2592C215.732 48.4295 217.576 49.0545 219.468 49.0313C222.604 49.0313 225 47.8937 226.655 45.6184L234.104 50.3438C230.924 54.9817 226.001 57.3005 219.337 57.3002C214.241 57.3002 209.983 55.758 206.563 52.6739C203.143 49.5892 201.434 45.3779 201.434 40.0398C201.434 34.7895 203.1 30.5562 206.433 27.3405C209.765 24.1244 213.958 22.5165 219.011 22.5165C223.889 22.5165 227.831 24.1026 230.837 27.2746C233.843 30.4475 235.345 34.79 235.345 40.3025ZM211.692 36.1676H225.479C225.533 34.5172 224.934 32.9126 223.813 31.7048C222.702 30.5234 221.123 29.9327 219.076 29.9327C217.208 29.8837 215.39 30.5392 213.979 31.7704C213.323 32.311 212.783 32.9792 212.39 33.7348C211.997 34.4904 211.759 35.3177 211.692 36.1676Z" fill="#434242"/>
<path d="M172.368 1.16785C170.591 1.16785 168.853 1.69725 167.375 2.68912C165.898 3.68096 164.746 5.09074 164.066 6.74016C163.386 8.38956 163.207 10.2045 163.554 11.9555C163.901 13.7065 164.757 15.3149 166.014 16.5773C167.27 17.8397 168.872 18.6994 170.615 19.0477C172.358 19.396 174.165 19.2172 175.807 18.534C177.449 17.8508 178.853 16.6939 179.84 15.2094C180.828 13.725 181.355 11.9798 181.355 10.1945C181.355 9.00909 181.122 7.83528 180.671 6.74011C180.219 5.64494 179.557 4.64981 178.723 3.81162C177.888 2.9734 176.898 2.3085 175.807 1.85488C174.717 1.40127 173.548 1.16781 172.368 1.16785Z" fill="#5498EE"/>
<path d="M255.78 8.57459C255.666 6.18871 254.613 3.94595 252.853 2.33965C251.093 0.733356 248.77 -0.104922 246.394 0.00919689C239.992 0.317296 240.382 5.5805 233.98 5.8886C227.576 6.19671 227.465 0.920125 221.062 1.22822C219.886 1.28476 218.733 1.57344 217.668 2.07776C216.603 2.5821 215.647 3.29219 214.855 4.16752C214.063 5.04285 213.451 6.06628 213.053 7.17937C212.655 8.29242 212.479 9.47338 212.535 10.6547C212.591 11.8361 212.879 12.9948 213.381 14.0646C213.883 15.1344 214.59 16.0944 215.461 16.8897C216.333 17.6851 217.352 18.3003 218.46 18.7001C219.568 19.1 220.743 19.2767 221.92 19.2201C228.323 18.9127 227.932 13.6494 234.335 13.3413C236.71 13.2271 239.034 14.0654 240.794 15.6717C242.554 17.278 243.606 19.5208 243.72 21.9067C244.027 28.338 238.774 28.4497 239.08 34.8815C239.137 36.0629 239.424 37.2216 239.926 38.2913C240.428 39.3612 241.135 40.3212 242.007 41.1166C242.878 41.9119 243.897 42.5269 245.005 42.9269C246.114 43.3266 247.289 43.5032 248.465 43.4466C249.641 43.3901 250.795 43.1014 251.86 42.5971C252.925 42.0926 253.881 41.3826 254.673 40.507C255.464 39.6317 256.077 38.6084 256.475 37.4952C256.873 36.3821 257.049 35.2012 256.993 34.0198C256.686 27.5881 251.447 27.9814 251.14 21.5494C250.833 15.1182 256.086 15.0064 255.78 8.57459Z" fill="#5498EE"/>
</svg>
