<svg width="465" height="136" viewBox="0 0 465 136" fill="none" xmlns="http://www.w3.org/2000/svg">
<g clip-path="url(#clip0_2288_10935)">
<path d="M455 0H10C4.47715 0 0 4.47715 0 10V126C0 131.523 4.47715 136 10 136H455C460.523 136 465 131.523 465 126V10C465 4.47715 460.523 0 455 0Z" fill="white"/>
<g filter="url(#filter0_d_2288_10935)">
<path d="M68 16H28C23.5817 16 20 19.5817 20 24V64C20 68.4183 23.5817 72 28 72H68C72.4183 72 76 68.4183 76 64V24C76 19.5817 72.4183 16 68 16Z" fill="white"/>
<path d="M68 15.5H28C23.3056 15.5 19.5 19.3056 19.5 24V64C19.5 68.6944 23.3056 72.5 28 72.5H68C72.6944 72.5 76.5 68.6944 76.5 64V24C76.5 19.3056 72.6944 15.5 68 15.5Z" stroke="black" stroke-opacity="0.06"/>
</g>
<path d="M106.098 29.5469H102.987C102.93 29.1444 102.814 28.7869 102.639 28.4744C102.464 28.1572 102.239 27.8873 101.964 27.6648C101.69 27.4422 101.373 27.2718 101.013 27.1534C100.658 27.035 100.272 26.9759 99.8551 26.9759C99.1023 26.9759 98.4465 27.1629 97.8878 27.5369C97.3291 27.9062 96.8958 28.446 96.5881 29.1562C96.2803 29.8617 96.1264 30.7187 96.1264 31.7273C96.1264 32.7642 96.2803 33.6354 96.5881 34.3409C96.9006 35.0464 97.3362 35.5791 97.8949 35.9389C98.4536 36.2988 99.0999 36.4787 99.8338 36.4787C100.246 36.4787 100.627 36.4242 100.977 36.3153C101.332 36.2064 101.647 36.0478 101.922 35.8395C102.196 35.6264 102.424 35.3684 102.604 35.0653C102.788 34.7623 102.916 34.4167 102.987 34.0284L106.098 34.0426C106.018 34.7102 105.816 35.3542 105.494 35.9744C105.177 36.59 104.749 37.1416 104.209 37.6293C103.674 38.1122 103.035 38.4957 102.291 38.7798C101.553 39.0592 100.717 39.1989 99.7841 39.1989C98.4867 39.1989 97.3267 38.9053 96.304 38.3182C95.286 37.7311 94.4811 36.8812 93.8892 35.7685C93.3021 34.6558 93.0085 33.3087 93.0085 31.7273C93.0085 30.1411 93.3068 28.7917 93.9034 27.679C94.5 26.5663 95.3097 25.7187 96.3324 25.1364C97.3551 24.5492 98.5057 24.2557 99.7841 24.2557C100.627 24.2557 101.408 24.3741 102.128 24.6108C102.852 24.8475 103.494 25.1932 104.053 25.6477C104.611 26.0975 105.066 26.6491 105.416 27.3026C105.771 27.956 105.999 28.7041 106.098 29.5469ZM107.303 39V24.4545H113.042C114.14 24.4545 115.078 24.651 115.854 25.044C116.636 25.4323 117.23 25.9839 117.637 26.6989C118.049 27.4091 118.255 28.2448 118.255 29.206C118.255 30.1719 118.047 31.0028 117.63 31.6989C117.213 32.3902 116.61 32.9205 115.819 33.2898C115.033 33.6591 114.081 33.8438 112.964 33.8438H109.121V31.3722H112.467C113.054 31.3722 113.541 31.2917 113.93 31.1307C114.318 30.9697 114.607 30.7282 114.796 30.4062C114.99 30.0843 115.087 29.6842 115.087 29.206C115.087 28.723 114.99 28.3158 114.796 27.9844C114.607 27.6529 114.316 27.402 113.923 27.2315C113.534 27.0563 113.044 26.9688 112.452 26.9688H110.379V39H107.303ZM115.158 32.3807L118.773 39H115.379L111.842 32.3807H115.158ZM122.504 24.4545V39H119.428V24.4545H122.504ZM131.924 28.6378C131.868 28.0649 131.624 27.6198 131.193 27.3026C130.762 26.9853 130.177 26.8267 129.439 26.8267C128.937 26.8267 128.513 26.8977 128.167 27.0398C127.822 27.1771 127.556 27.3688 127.372 27.6151C127.192 27.8613 127.102 28.1406 127.102 28.4531C127.092 28.7135 127.147 28.9408 127.265 29.1349C127.388 29.3291 127.556 29.4972 127.77 29.6392C127.983 29.7765 128.229 29.8973 128.508 30.0014C128.788 30.1009 129.086 30.1861 129.403 30.2571L130.71 30.5696C131.344 30.7116 131.927 30.901 132.457 31.1378C132.987 31.3745 133.447 31.6657 133.835 32.0114C134.223 32.357 134.524 32.7642 134.737 33.233C134.955 33.7017 135.066 34.2391 135.071 34.8452C135.066 35.7353 134.839 36.5071 134.389 37.1605C133.944 37.8092 133.3 38.3134 132.457 38.6733C131.619 39.0284 130.608 39.206 129.424 39.206C128.25 39.206 127.227 39.026 126.356 38.6662C125.49 38.3063 124.813 37.7737 124.325 37.0682C123.842 36.358 123.589 35.4796 123.565 34.4332H126.541C126.574 34.9209 126.714 35.3281 126.96 35.6548C127.211 35.9768 127.545 36.2206 127.961 36.3864C128.383 36.5473 128.859 36.6278 129.389 36.6278C129.91 36.6278 130.362 36.5521 130.745 36.4006C131.134 36.2491 131.434 36.0384 131.647 35.7685C131.86 35.4986 131.967 35.1884 131.967 34.8381C131.967 34.5114 131.87 34.2367 131.676 34.0142C131.486 33.7917 131.207 33.6023 130.838 33.446C130.473 33.2898 130.026 33.1477 129.495 33.0199L127.912 32.6222C126.685 32.3239 125.717 31.8575 125.007 31.223C124.297 30.5885 123.944 29.7339 123.949 28.6591C123.944 27.7784 124.178 27.009 124.652 26.3509C125.13 25.6927 125.786 25.179 126.619 24.8097C127.452 24.4403 128.399 24.2557 129.46 24.2557C130.539 24.2557 131.482 24.4403 132.287 24.8097C133.096 25.179 133.726 25.6927 134.176 26.3509C134.626 27.009 134.858 27.7713 134.872 28.6378H131.924ZM136.139 39V24.4545H141.878C142.981 24.4545 143.921 24.6652 144.697 25.0866C145.474 25.5033 146.066 26.0833 146.473 26.8267C146.885 27.5653 147.091 28.4176 147.091 29.3835C147.091 30.3494 146.883 31.2017 146.466 31.9403C146.049 32.679 145.446 33.2543 144.655 33.6662C143.869 34.0781 142.917 34.2841 141.8 34.2841H138.142V31.8196H141.303C141.894 31.8196 142.382 31.7178 142.766 31.5142C143.154 31.3059 143.443 31.0194 143.632 30.6548C143.826 30.2855 143.923 29.8617 143.923 29.3835C143.923 28.9006 143.826 28.4792 143.632 28.1193C143.443 27.7547 143.154 27.473 142.766 27.2741C142.377 27.0705 141.885 26.9688 141.288 26.9688H139.214V39H136.139ZM148.088 39V24.4545H153.827C154.926 24.4545 155.863 24.651 156.64 25.044C157.421 25.4323 158.015 25.9839 158.422 26.6989C158.834 27.4091 159.04 28.2448 159.04 29.206C159.04 30.1719 158.832 31.0028 158.415 31.6989C157.998 32.3902 157.395 32.9205 156.604 33.2898C155.818 33.6591 154.866 33.8438 153.749 33.8438H149.907V31.3722H153.252C153.839 31.3722 154.327 31.2917 154.715 31.1307C155.103 30.9697 155.392 30.7282 155.581 30.4062C155.775 30.0843 155.873 29.6842 155.873 29.206C155.873 28.723 155.775 28.3158 155.581 27.9844C155.392 27.6529 155.101 27.402 154.708 27.2315C154.319 27.0563 153.829 26.9688 153.238 26.9688H151.164V39H148.088ZM155.944 32.3807L159.559 39H156.164L152.627 32.3807H155.944ZM176.676 29.5469H173.565C173.509 29.1444 173.393 28.7869 173.217 28.4744C173.042 28.1572 172.817 27.8873 172.543 27.6648C172.268 27.4422 171.951 27.2718 171.591 27.1534C171.236 27.035 170.85 26.9759 170.433 26.9759C169.68 26.9759 169.025 27.1629 168.466 27.5369C167.907 27.9062 167.474 28.446 167.166 29.1562C166.858 29.8617 166.705 30.7187 166.705 31.7273C166.705 32.7642 166.858 33.6354 167.166 34.3409C167.479 35.0464 167.914 35.5791 168.473 35.9389C169.032 36.2988 169.678 36.4787 170.412 36.4787C170.824 36.4787 171.205 36.4242 171.555 36.3153C171.911 36.2064 172.225 36.0478 172.5 35.8395C172.775 35.6264 173.002 35.3684 173.182 35.0653C173.366 34.7623 173.494 34.4167 173.565 34.0284L176.676 34.0426C176.596 34.7102 176.394 35.3542 176.072 35.9744C175.755 36.59 175.327 37.1416 174.787 37.6293C174.252 38.1122 173.613 38.4957 172.869 38.7798C172.131 39.0592 171.295 39.1989 170.362 39.1989C169.065 39.1989 167.905 38.9053 166.882 38.3182C165.864 37.7311 165.059 36.8812 164.467 35.7685C163.88 34.6558 163.587 33.3087 163.587 31.7273C163.587 30.1411 163.885 28.7917 164.482 27.679C165.078 26.5663 165.888 25.7187 166.911 25.1364C167.933 24.5492 169.084 24.2557 170.362 24.2557C171.205 24.2557 171.986 24.3741 172.706 24.6108C173.43 24.8475 174.072 25.1932 174.631 25.6477C175.189 26.0975 175.644 26.6491 175.994 27.3026C176.349 27.956 176.577 28.7041 176.676 29.5469ZM180.935 39.206C180.239 39.206 179.619 39.0852 179.075 38.8438C178.53 38.5975 178.099 38.2353 177.782 37.7571C177.469 37.2741 177.313 36.6728 177.313 35.9531C177.313 35.3471 177.424 34.8381 177.647 34.4261C177.87 34.0142 178.173 33.6828 178.556 33.4318C178.94 33.1809 179.375 32.9915 179.863 32.8636C180.355 32.7358 180.871 32.6458 181.411 32.5938C182.046 32.5275 182.557 32.4659 182.945 32.4091C183.334 32.3475 183.615 32.2576 183.79 32.1392C183.966 32.0208 184.053 31.8456 184.053 31.6136V31.571C184.053 31.1212 183.911 30.7732 183.627 30.527C183.348 30.2808 182.95 30.1577 182.434 30.1577C181.889 30.1577 181.456 30.2784 181.134 30.5199C180.812 30.7566 180.599 31.0549 180.495 31.4148L177.697 31.1875C177.839 30.5246 178.118 29.9517 178.535 29.4688C178.951 28.9811 179.489 28.607 180.147 28.3466C180.81 28.0814 181.577 27.9489 182.448 27.9489C183.054 27.9489 183.634 28.0199 184.188 28.1619C184.747 28.304 185.242 28.5241 185.673 28.8224C186.108 29.1207 186.451 29.5043 186.702 29.973C186.953 30.437 187.079 30.9934 187.079 31.642V39H184.21V37.4872H184.124C183.949 37.8281 183.715 38.1288 183.421 38.3892C183.128 38.6449 182.775 38.8461 182.363 38.9929C181.951 39.1349 181.475 39.206 180.935 39.206ZM181.802 37.1179C182.247 37.1179 182.64 37.0303 182.981 36.8551C183.322 36.6752 183.589 36.4337 183.783 36.1307C183.978 35.8277 184.075 35.4844 184.075 35.1009V33.9432C183.98 34.0047 183.85 34.0616 183.684 34.1136C183.523 34.161 183.341 34.206 183.137 34.2486C182.933 34.2865 182.73 34.322 182.526 34.3551C182.323 34.3835 182.138 34.4096 181.972 34.4332C181.617 34.4853 181.307 34.5682 181.042 34.6818C180.777 34.7955 180.571 34.9493 180.424 35.1435C180.277 35.3329 180.204 35.5696 180.204 35.8537C180.204 36.2656 180.353 36.5805 180.651 36.7983C180.954 37.0114 181.338 37.1179 181.802 37.1179ZM200.002 28.6378C199.946 28.0649 199.702 27.6198 199.271 27.3026C198.84 26.9853 198.255 26.8267 197.517 26.8267C197.015 26.8267 196.591 26.8977 196.245 27.0398C195.9 27.1771 195.635 27.3688 195.45 27.6151C195.27 27.8613 195.18 28.1406 195.18 28.4531C195.171 28.7135 195.225 28.9408 195.343 29.1349C195.467 29.3291 195.635 29.4972 195.848 29.6392C196.061 29.7765 196.307 29.8973 196.586 30.0014C196.866 30.1009 197.164 30.1861 197.481 30.2571L198.788 30.5696C199.422 30.7116 200.005 30.901 200.535 31.1378C201.065 31.3745 201.525 31.6657 201.913 32.0114C202.301 32.357 202.602 32.7642 202.815 33.233C203.033 33.7017 203.144 34.2391 203.149 34.8452C203.144 35.7353 202.917 36.5071 202.467 37.1605C202.022 37.8092 201.378 38.3134 200.535 38.6733C199.697 39.0284 198.686 39.206 197.502 39.206C196.328 39.206 195.306 39.026 194.434 38.6662C193.568 38.3063 192.891 37.7737 192.403 37.0682C191.92 36.358 191.667 35.4796 191.643 34.4332H194.619C194.652 34.9209 194.792 35.3281 195.038 35.6548C195.289 35.9768 195.623 36.2206 196.039 36.3864C196.461 36.5473 196.937 36.6278 197.467 36.6278C197.988 36.6278 198.44 36.5521 198.824 36.4006C199.212 36.2491 199.512 36.0384 199.725 35.7685C199.939 35.4986 200.045 35.1884 200.045 34.8381C200.045 34.5114 199.948 34.2367 199.754 34.0142C199.565 33.7917 199.285 33.6023 198.916 33.446C198.551 33.2898 198.104 33.1477 197.574 33.0199L195.99 32.6222C194.763 32.3239 193.795 31.8575 193.085 31.223C192.375 30.5885 192.022 29.7339 192.027 28.6591C192.022 27.7784 192.256 27.009 192.73 26.3509C193.208 25.6927 193.864 25.179 194.697 24.8097C195.53 24.4403 196.477 24.2557 197.538 24.2557C198.618 24.2557 199.56 24.4403 200.365 24.8097C201.174 25.179 201.804 25.6927 202.254 26.3509C202.704 27.009 202.936 27.7713 202.95 28.6378H200.002ZM209.395 24.2557C210.143 24.2557 210.863 24.3812 211.554 24.6321C212.25 24.883 212.87 25.2831 213.415 25.8324C213.964 26.3816 214.397 27.1108 214.714 28.0199C215.036 28.9242 215.2 30.0346 215.205 31.3509C215.205 32.5866 215.065 33.6899 214.786 34.6605C214.511 35.6264 214.116 36.4479 213.599 37.125C213.083 37.8021 212.461 38.3182 211.732 38.6733C211.002 39.0237 210.188 39.1989 209.288 39.1989C208.318 39.1989 207.461 39.0118 206.717 38.6378C205.974 38.259 205.375 37.7453 204.92 37.0966C204.471 36.4432 204.198 35.7093 204.104 34.8949H207.136C207.255 35.4252 207.503 35.8371 207.882 36.1307C208.261 36.4195 208.73 36.5639 209.288 36.5639C210.235 36.5639 210.955 36.152 211.447 35.3281C211.94 34.4995 212.188 33.3655 212.193 31.9261H212.094C211.876 32.3523 211.582 32.7192 211.213 33.027C210.844 33.33 210.42 33.5644 209.942 33.7301C209.468 33.8958 208.964 33.9787 208.429 33.9787C207.572 33.9787 206.807 33.7775 206.135 33.375C205.463 32.9725 204.932 32.4186 204.544 31.7131C204.156 31.0076 203.962 30.2027 203.962 29.2983C203.957 28.3229 204.182 27.4541 204.636 26.6918C205.091 25.9295 205.725 25.3329 206.54 24.902C207.359 24.4664 208.311 24.2509 209.395 24.2557ZM209.416 26.6705C208.938 26.6705 208.512 26.7841 208.138 27.0114C207.768 27.2386 207.475 27.544 207.257 27.9276C207.044 28.3111 206.94 28.7396 206.945 29.2131C206.945 29.6913 207.049 30.1222 207.257 30.5057C207.47 30.8845 207.759 31.1875 208.124 31.4148C208.493 31.6373 208.914 31.7486 209.388 31.7486C209.743 31.7486 210.072 31.6823 210.375 31.5497C210.678 31.4171 210.941 31.2348 211.163 31.0028C211.391 30.7661 211.568 30.4938 211.696 30.1861C211.824 29.8783 211.888 29.5516 211.888 29.206C211.883 28.7467 211.774 28.3253 211.561 27.9418C211.348 27.5582 211.054 27.2505 210.68 27.0185C210.306 26.7865 209.885 26.6705 209.416 26.6705ZM219.495 26.9901V24.4545H231.441V26.9901H226.988V39H223.949V26.9901H219.495ZM235.699 39.2131C234.596 39.2131 233.642 38.9787 232.837 38.5099C232.036 38.0365 231.419 37.3783 230.983 36.5355C230.547 35.688 230.33 34.7055 230.33 33.5881C230.33 32.4612 230.547 31.4763 230.983 30.6335C231.419 29.786 232.036 29.1278 232.837 28.6591C233.642 28.1856 234.596 27.9489 235.699 27.9489C236.802 27.9489 237.754 28.1856 238.554 28.6591C239.359 29.1278 239.979 29.786 240.415 30.6335C240.85 31.4763 241.068 32.4612 241.068 33.5881C241.068 34.7055 240.85 35.688 240.415 36.5355C239.979 37.3783 239.359 38.0365 238.554 38.5099C237.754 38.9787 236.802 39.2131 235.699 39.2131ZM235.713 36.8693C236.215 36.8693 236.634 36.7273 236.97 36.4432C237.306 36.1544 237.56 35.7614 237.73 35.2642C237.905 34.767 237.993 34.2012 237.993 33.5668C237.993 32.9323 237.905 32.3665 237.73 31.8693C237.56 31.3722 237.306 30.9792 236.97 30.6903C236.634 30.4015 236.215 30.2571 235.713 30.2571C235.206 30.2571 234.78 30.4015 234.435 30.6903C234.094 30.9792 233.836 31.3722 233.661 31.8693C233.49 32.3665 233.405 32.9323 233.405 33.5668C233.405 34.2012 233.49 34.767 233.661 35.2642C233.836 35.7614 234.094 36.1544 234.435 36.4432C234.78 36.7273 235.206 36.8693 235.713 36.8693ZM246.964 39.2131C245.861 39.2131 244.907 38.9787 244.102 38.5099C243.302 38.0365 242.684 37.3783 242.249 36.5355C241.813 35.688 241.595 34.7055 241.595 33.5881C241.595 32.4612 241.813 31.4763 242.249 30.6335C242.684 29.786 243.302 29.1278 244.102 28.6591C244.907 28.1856 245.861 27.9489 246.964 27.9489C248.068 27.9489 249.019 28.1856 249.82 28.6591C250.625 29.1278 251.245 29.786 251.68 30.6335C252.116 31.4763 252.334 32.4612 252.334 33.5881C252.334 34.7055 252.116 35.688 251.68 36.5355C251.245 37.3783 250.625 38.0365 249.82 38.5099C249.019 38.9787 248.068 39.2131 246.964 39.2131ZM246.979 36.8693C247.481 36.8693 247.9 36.7273 248.236 36.4432C248.572 36.1544 248.825 35.7614 248.996 35.2642C249.171 34.767 249.259 34.2012 249.259 33.5668C249.259 32.9323 249.171 32.3665 248.996 31.8693C248.825 31.3722 248.572 30.9792 248.236 30.6903C247.9 30.4015 247.481 30.2571 246.979 30.2571C246.472 30.2571 246.046 30.4015 245.7 30.6903C245.359 30.9792 245.101 31.3722 244.926 31.8693C244.756 32.3665 244.67 32.9323 244.67 33.5668C244.67 34.2012 244.756 34.767 244.926 35.2642C245.101 35.7614 245.359 36.1544 245.7 36.4432C246.046 36.7273 246.472 36.8693 246.979 36.8693ZM256.327 24.4545V39H253.301V24.4545H256.327Z" fill="black"/>
<path d="M100 71.9999L104 75.9999M104 75.9999L108 71.9999M104 75.9999V66.7999C104 65.4092 104 64.7139 103.449 63.9353C103.084 63.4181 102.031 62.7796 101.403 62.6946C100.458 62.5665 100.099 62.7537 99.3814 63.1281C96.1833 64.7964 94 68.1432 94 71.9999C94 77.5228 98.4772 81.9999 104 81.9999C109.523 81.9999 114 77.5228 114 71.9999C114 68.2985 111.989 65.0668 109 63.3378" stroke="#5498EE" stroke-width="2" stroke-linecap="round" stroke-linejoin="round"/>
<path d="M125.17 78.1591C124.39 78.1591 123.693 78.0246 123.08 77.7557C122.47 77.4867 121.987 77.1136 121.631 76.6364C121.278 76.1553 121.089 75.5985 121.062 74.9659H122.847C122.869 75.3106 122.985 75.6098 123.193 75.8636C123.405 76.1136 123.682 76.3068 124.023 76.4432C124.364 76.5795 124.742 76.6477 125.159 76.6477C125.617 76.6477 126.023 76.5682 126.375 76.4091C126.731 76.25 127.009 76.0284 127.21 75.7443C127.411 75.4564 127.511 75.125 127.511 74.75C127.511 74.3598 127.411 74.017 127.21 73.7216C127.013 73.4223 126.723 73.1875 126.341 73.017C125.962 72.8466 125.504 72.7614 124.966 72.7614H123.983V71.3295H124.966C125.398 71.3295 125.777 71.2519 126.102 71.0966C126.432 70.9413 126.689 70.7254 126.875 70.4489C127.061 70.1686 127.153 69.8409 127.153 69.4659C127.153 69.1061 127.072 68.7936 126.909 68.5284C126.75 68.2595 126.523 68.0492 126.227 67.8977C125.936 67.7462 125.591 67.6705 125.193 67.6705C124.814 67.6705 124.46 67.7405 124.131 67.8807C123.805 68.017 123.54 68.214 123.335 68.4716C123.131 68.7254 123.021 69.0303 123.006 69.3864H121.307C121.326 68.7576 121.511 68.2045 121.864 67.7273C122.22 67.25 122.689 66.8769 123.273 66.608C123.856 66.339 124.504 66.2045 125.216 66.2045C125.962 66.2045 126.606 66.3504 127.148 66.642C127.693 66.9299 128.114 67.3144 128.409 67.7955C128.708 68.2765 128.856 68.803 128.852 69.375C128.856 70.0265 128.674 70.5795 128.307 71.0341C127.943 71.4886 127.458 71.7936 126.852 71.9489V72.0398C127.625 72.1572 128.223 72.464 128.648 72.9602C129.076 73.4564 129.288 74.072 129.284 74.8068C129.288 75.447 129.11 76.0208 128.75 76.5284C128.394 77.036 127.907 77.4356 127.29 77.7273C126.672 78.0152 125.966 78.1591 125.17 78.1591ZM132.697 75.0398L132.686 72.9659H132.981L136.458 69.2727H138.493L134.527 73.4773H134.26L132.697 75.0398ZM131.135 78V66.3636H132.833V78H131.135ZM136.646 78L133.521 73.8523L134.691 72.6648L138.731 78H136.646ZM146.902 78.1705C146.198 78.1705 145.569 77.9905 145.016 77.6307C144.467 77.267 144.035 76.75 143.72 76.0795C143.41 75.4053 143.254 74.5966 143.254 73.6534C143.254 72.7102 143.412 71.9034 143.726 71.233C144.044 70.5625 144.48 70.0492 145.033 69.6932C145.586 69.3371 146.213 69.1591 146.914 69.1591C147.455 69.1591 147.891 69.25 148.22 69.4318C148.554 69.6098 148.811 69.8182 148.993 70.0568C149.179 70.2955 149.323 70.5057 149.425 70.6875H149.527V66.3636H151.226V78H149.567V76.642H149.425C149.323 76.8277 149.175 77.0398 148.982 77.2784C148.792 77.517 148.531 77.7254 148.198 77.9034C147.864 78.0814 147.433 78.1705 146.902 78.1705ZM147.277 76.7216C147.766 76.7216 148.179 76.5928 148.516 76.3352C148.857 76.0739 149.114 75.7121 149.289 75.25C149.467 74.7879 149.556 74.25 149.556 73.6364C149.556 73.0303 149.469 72.5 149.294 72.0455C149.12 71.5909 148.864 71.2367 148.527 70.983C148.19 70.7292 147.773 70.6023 147.277 70.6023C146.766 70.6023 146.34 70.7348 145.999 71C145.658 71.2652 145.4 71.6269 145.226 72.0852C145.056 72.5436 144.97 73.0606 144.97 73.6364C144.97 74.2197 145.058 74.7443 145.232 75.2102C145.406 75.6761 145.664 76.0455 146.004 76.3182C146.349 76.5871 146.773 76.7216 147.277 76.7216ZM157.007 78.1761C156.189 78.1761 155.475 77.9886 154.865 77.6136C154.255 77.2386 153.782 76.714 153.444 76.0398C153.107 75.3655 152.939 74.5777 152.939 73.6761C152.939 72.7708 153.107 71.9792 153.444 71.3011C153.782 70.6231 154.255 70.0966 154.865 69.7216C155.475 69.3466 156.189 69.1591 157.007 69.1591C157.825 69.1591 158.539 69.3466 159.149 69.7216C159.759 70.0966 160.232 70.6231 160.569 71.3011C160.907 71.9792 161.075 72.7708 161.075 73.6761C161.075 74.5777 160.907 75.3655 160.569 76.0398C160.232 76.714 159.759 77.2386 159.149 77.6136C158.539 77.9886 157.825 78.1761 157.007 78.1761ZM157.013 76.75C157.543 76.75 157.982 76.6098 158.331 76.3295C158.679 76.0492 158.937 75.6761 159.104 75.2102C159.274 74.7443 159.359 74.2311 159.359 73.6705C159.359 73.1136 159.274 72.6023 159.104 72.1364C158.937 71.6667 158.679 71.2898 158.331 71.0057C157.982 70.7216 157.543 70.5795 157.013 70.5795C156.479 70.5795 156.035 70.7216 155.683 71.0057C155.335 71.2898 155.075 71.6667 154.905 72.1364C154.738 72.6023 154.655 73.1136 154.655 73.6705C154.655 74.2311 154.738 74.7443 154.905 75.2102C155.075 75.6761 155.335 76.0492 155.683 76.3295C156.035 76.6098 156.479 76.75 157.013 76.75ZM164.278 78L161.71 69.2727H163.465L165.176 75.6818H165.261L166.977 69.2727H168.732L170.437 75.6534H170.522L172.221 69.2727H173.977L171.414 78H169.681L167.909 71.6989H167.778L166.005 78H164.278ZM176.968 72.8182V78H175.269V69.2727H176.9V70.6932H177.008C177.208 70.2311 177.523 69.8598 177.951 69.5795C178.383 69.2992 178.926 69.1591 179.581 69.1591C180.176 69.1591 180.697 69.2841 181.144 69.5341C181.591 69.7803 181.937 70.1477 182.184 70.6364C182.43 71.125 182.553 71.7292 182.553 72.4489V78H180.854V72.6534C180.854 72.0208 180.689 71.5265 180.36 71.1705C180.03 70.8106 179.578 70.6307 179.002 70.6307C178.608 70.6307 178.258 70.7159 177.951 70.8864C177.648 71.0568 177.407 71.3068 177.229 71.6364C177.055 71.9621 176.968 72.3561 176.968 72.8182ZM186.21 66.3636V78H184.511V66.3636H186.21ZM191.852 78.1761C191.034 78.1761 190.32 77.9886 189.71 77.6136C189.1 77.2386 188.627 76.714 188.289 76.0398C187.952 75.3655 187.784 74.5777 187.784 73.6761C187.784 72.7708 187.952 71.9792 188.289 71.3011C188.627 70.6231 189.1 70.0966 189.71 69.7216C190.32 69.3466 191.034 69.1591 191.852 69.1591C192.67 69.1591 193.384 69.3466 193.994 69.7216C194.604 70.0966 195.077 70.6231 195.414 71.3011C195.752 71.9792 195.92 72.7708 195.92 73.6761C195.92 74.5777 195.752 75.3655 195.414 76.0398C195.077 76.714 194.604 77.2386 193.994 77.6136C193.384 77.9886 192.67 78.1761 191.852 78.1761ZM191.858 76.75C192.388 76.75 192.827 76.6098 193.176 76.3295C193.524 76.0492 193.782 75.6761 193.949 75.2102C194.119 74.7443 194.204 74.2311 194.204 73.6705C194.204 73.1136 194.119 72.6023 193.949 72.1364C193.782 71.6667 193.524 71.2898 193.176 71.0057C192.827 70.7216 192.388 70.5795 191.858 70.5795C191.324 70.5795 190.88 70.7216 190.528 71.0057C190.18 71.2898 189.92 71.6667 189.75 72.1364C189.583 72.6023 189.5 73.1136 189.5 73.6705C189.5 74.2311 189.583 74.7443 189.75 75.2102C189.92 75.6761 190.18 76.0492 190.528 76.3295C190.88 76.6098 191.324 76.75 191.858 76.75ZM200.036 78.1932C199.483 78.1932 198.983 78.0909 198.536 77.8864C198.089 77.678 197.735 77.3769 197.474 76.983C197.216 76.589 197.087 76.1061 197.087 75.5341C197.087 75.0417 197.182 74.6364 197.371 74.3182C197.561 74 197.816 73.7481 198.138 73.5625C198.46 73.3769 198.82 73.2367 199.218 73.142C199.616 73.0473 200.021 72.9754 200.434 72.9261C200.957 72.8655 201.381 72.8163 201.707 72.7784C202.032 72.7367 202.269 72.6705 202.417 72.5795C202.565 72.4886 202.638 72.3409 202.638 72.1364V72.0966C202.638 71.6004 202.498 71.2159 202.218 70.9432C201.941 70.6705 201.529 70.5341 200.979 70.5341C200.407 70.5341 199.957 70.661 199.627 70.9148C199.301 71.1648 199.076 71.4432 198.951 71.75L197.354 71.3864C197.544 70.8561 197.82 70.428 198.184 70.1023C198.551 69.7727 198.974 69.5341 199.451 69.3864C199.928 69.2348 200.43 69.1591 200.957 69.1591C201.305 69.1591 201.674 69.2008 202.065 69.2841C202.459 69.3636 202.826 69.5114 203.167 69.7273C203.512 69.9432 203.794 70.2519 204.013 70.6534C204.233 71.0511 204.343 71.5682 204.343 72.2045V78H202.684V76.8068H202.616C202.506 77.0265 202.341 77.2424 202.121 77.4545C201.902 77.6667 201.62 77.8428 201.275 77.983C200.93 78.1231 200.517 78.1932 200.036 78.1932ZM200.406 76.8295C200.875 76.8295 201.277 76.7367 201.61 76.5511C201.947 76.3655 202.203 76.1231 202.377 75.8239C202.555 75.5208 202.644 75.197 202.644 74.8523V73.7273C202.584 73.7879 202.466 73.8447 202.292 73.8977C202.121 73.947 201.926 73.9905 201.707 74.0284C201.487 74.0625 201.273 74.0947 201.065 74.125C200.856 74.1515 200.682 74.1742 200.542 74.1932C200.212 74.2348 199.911 74.3049 199.638 74.4034C199.37 74.5019 199.154 74.6439 198.991 74.8295C198.832 75.0114 198.752 75.2538 198.752 75.5568C198.752 75.9773 198.907 76.2955 199.218 76.5114C199.529 76.7235 199.924 76.8295 200.406 76.8295ZM209.553 78.1705C208.848 78.1705 208.22 77.9905 207.666 77.6307C207.117 77.267 206.685 76.75 206.371 76.0795C206.06 75.4053 205.905 74.5966 205.905 73.6534C205.905 72.7102 206.062 71.9034 206.377 71.233C206.695 70.5625 207.13 70.0492 207.684 69.6932C208.237 69.3371 208.863 69.1591 209.564 69.1591C210.106 69.1591 210.541 69.25 210.871 69.4318C211.204 69.6098 211.462 69.8182 211.644 70.0568C211.829 70.2955 211.973 70.5057 212.076 70.6875H212.178V66.3636H213.877V78H212.218V76.642H212.076C211.973 76.8277 211.826 77.0398 211.632 77.2784C211.443 77.517 211.182 77.7254 210.848 77.9034C210.515 78.0814 210.083 78.1705 209.553 78.1705ZM209.928 76.7216C210.416 76.7216 210.829 76.5928 211.166 76.3352C211.507 76.0739 211.765 75.7121 211.939 75.25C212.117 74.7879 212.206 74.25 212.206 73.6364C212.206 73.0303 212.119 72.5 211.945 72.0455C211.771 71.5909 211.515 71.2367 211.178 70.983C210.841 70.7292 210.424 70.6023 209.928 70.6023C209.416 70.6023 208.99 70.7348 208.649 71C208.309 71.2652 208.051 71.6269 207.877 72.0852C207.706 72.5436 207.621 73.0606 207.621 73.6364C207.621 74.2197 207.708 74.7443 207.882 75.2102C208.057 75.6761 208.314 76.0455 208.655 76.3182C209 76.5871 209.424 76.7216 209.928 76.7216ZM222.521 71.4034L220.981 71.6761C220.917 71.4792 220.815 71.2917 220.675 71.1136C220.538 70.9356 220.353 70.7898 220.118 70.6761C219.883 70.5625 219.589 70.5057 219.237 70.5057C218.756 70.5057 218.355 70.6136 218.033 70.8295C217.711 71.0417 217.55 71.3163 217.55 71.6534C217.55 71.9451 217.658 72.1799 217.873 72.358C218.089 72.536 218.438 72.6818 218.919 72.7955L220.305 73.1136C221.108 73.2992 221.707 73.5852 222.101 73.9716C222.495 74.358 222.692 74.8598 222.692 75.4773C222.692 76 222.54 76.4659 222.237 76.875C221.938 77.2803 221.519 77.5985 220.981 77.8295C220.447 78.0606 219.828 78.1761 219.123 78.1761C218.146 78.1761 217.349 77.9678 216.731 77.5511C216.114 77.1307 215.735 76.5341 215.595 75.7614L217.237 75.5114C217.339 75.9394 217.55 76.2633 217.868 76.483C218.186 76.6989 218.601 76.8068 219.112 76.8068C219.669 76.8068 220.114 76.6913 220.447 76.4602C220.781 76.2254 220.947 75.9394 220.947 75.6023C220.947 75.3295 220.845 75.1004 220.641 74.9148C220.44 74.7292 220.131 74.589 219.714 74.4943L218.237 74.1705C217.423 73.9848 216.82 73.6894 216.43 73.2841C216.044 72.8788 215.851 72.3655 215.851 71.7443C215.851 71.2292 215.995 70.7784 216.283 70.392C216.57 70.0057 216.968 69.7045 217.476 69.4886C217.983 69.2689 218.565 69.1591 219.22 69.1591C220.163 69.1591 220.906 69.3636 221.447 69.7727C221.989 70.178 222.347 70.7216 222.521 71.4034Z" fill="black" fill-opacity="0.7"/>
<path d="M248 62.5C248.379 62.5 248.725 62.714 248.894 63.0528L251.473 68.2106L257.144 69.0354C257.521 69.0902 257.833 69.354 257.951 69.716C258.069 70.078 257.971 70.4753 257.698 70.741L253.571 74.7649L254.499 80.4385C254.561 80.8135 254.404 81.1908 254.096 81.4124C253.787 81.6339 253.379 81.6614 253.044 81.4834L248 78.8071L242.956 81.4834C242.621 81.6614 242.213 81.6339 241.904 81.4124C241.596 81.1908 241.439 80.8135 241.501 80.4385L242.429 74.7649L238.302 70.741C238.029 70.4753 237.931 70.078 238.049 69.716C238.167 69.354 238.479 69.0902 238.856 69.0354L244.527 68.2106L247.106 63.0528C247.275 62.714 247.621 62.5 248 62.5ZM248 65.7361L246.082 69.5722C245.936 69.8649 245.655 70.0675 245.331 70.1146L241.148 70.723L244.198 73.6965C244.432 73.9243 244.54 74.2519 244.487 74.574L243.8 78.7715L247.531 76.7917C247.824 76.6361 248.176 76.6361 248.469 76.7917L252.2 78.7715L251.513 74.574C251.46 74.2519 251.568 73.9243 251.802 73.6965L254.852 70.723L250.669 70.1146C250.345 70.0675 250.064 69.8649 249.918 69.5722L248 65.7361Z" fill="#5498EE"/>
<path d="M264.875 75.7273V74.3068L269.903 66.3636H271.023V68.4545H270.312L266.716 74.1477V74.2386H273.608V75.7273H264.875ZM270.392 78V75.2955L270.403 74.6477V66.3636H272.068V78H270.392ZM275.973 78.108C275.662 78.108 275.395 77.9981 275.171 77.7784C274.948 77.5549 274.836 77.286 274.836 76.9716C274.836 76.661 274.948 76.3958 275.171 76.1761C275.395 75.9527 275.662 75.8409 275.973 75.8409C276.283 75.8409 276.55 75.9527 276.774 76.1761C276.997 76.3958 277.109 76.661 277.109 76.9716C277.109 77.1799 277.056 77.3712 276.95 77.5455C276.848 77.7159 276.711 77.8523 276.541 77.9545C276.37 78.0568 276.181 78.108 275.973 78.108ZM282.682 78.1591C282.164 78.1515 281.652 78.0568 281.148 77.875C280.648 77.6932 280.194 77.3902 279.785 76.9659C279.376 76.5417 279.048 75.9716 278.802 75.2557C278.559 74.5398 278.438 73.6458 278.438 72.5739C278.438 71.5587 278.539 70.6572 278.739 69.8693C278.944 69.0814 279.237 68.4167 279.62 67.875C280.003 67.3295 280.465 66.9148 281.006 66.6307C281.548 66.3466 282.156 66.2045 282.83 66.2045C283.523 66.2045 284.139 66.3409 284.677 66.6136C285.215 66.8864 285.65 67.2633 285.984 67.7443C286.321 68.2254 286.535 68.7727 286.626 69.3864H284.893C284.775 68.9015 284.542 68.5057 284.194 68.1989C283.845 67.892 283.391 67.7386 282.83 67.7386C281.978 67.7386 281.313 68.1098 280.836 68.8523C280.362 69.5947 280.124 70.6269 280.12 71.9489H280.205C280.406 71.6193 280.652 71.339 280.944 71.108C281.239 70.8731 281.569 70.6932 281.932 70.5682C282.3 70.4394 282.686 70.375 283.092 70.375C283.766 70.375 284.376 70.5398 284.921 70.8693C285.47 71.1951 285.908 71.6458 286.234 72.2216C286.559 72.7973 286.722 73.4564 286.722 74.1989C286.722 74.9413 286.554 75.6136 286.217 76.2159C285.883 76.8182 285.414 77.2955 284.807 77.6477C284.201 77.9962 283.493 78.1667 282.682 78.1591ZM282.677 76.6818C283.124 76.6818 283.523 76.572 283.876 76.3523C284.228 76.1326 284.506 75.8371 284.711 75.4659C284.915 75.0947 285.018 74.6799 285.018 74.2216C285.018 73.7746 284.917 73.3674 284.717 73C284.52 72.6326 284.247 72.3409 283.898 72.125C283.554 71.9091 283.16 71.8011 282.717 71.8011C282.379 71.8011 282.067 71.8655 281.779 71.9943C281.495 72.1231 281.245 72.3011 281.029 72.5284C280.813 72.7557 280.643 73.017 280.518 73.3125C280.396 73.6042 280.336 73.9129 280.336 74.2386C280.336 74.6742 280.436 75.0777 280.637 75.4489C280.842 75.8201 281.12 76.1193 281.472 76.3466C281.828 76.5701 282.23 76.6818 282.677 76.6818ZM292.903 73.1705C292.903 71.7462 293.091 70.4356 293.466 69.2386C293.841 68.0417 294.388 66.9375 295.108 65.9261H296.665C296.384 66.3011 296.123 66.7614 295.881 67.3068C295.638 67.8523 295.426 68.4508 295.244 69.1023C295.062 69.75 294.92 70.4223 294.818 71.1193C294.716 71.8125 294.665 72.4962 294.665 73.1705C294.665 74.072 294.754 74.9848 294.932 75.9091C295.11 76.8333 295.35 77.6913 295.653 78.483C295.956 79.2746 296.293 79.9205 296.665 80.4205H295.108C294.388 79.4091 293.841 78.3049 293.466 77.108C293.091 75.911 292.903 74.5985 292.903 73.1705ZM298.113 78V76.7273L302.051 72.6477C302.471 72.2045 302.818 71.8163 303.09 71.483C303.367 71.1458 303.573 70.8258 303.71 70.5227C303.846 70.2197 303.914 69.8977 303.914 69.5568C303.914 69.1705 303.823 68.8371 303.641 68.5568C303.46 68.2727 303.212 68.0549 302.897 67.9034C302.583 67.7481 302.229 67.6705 301.835 67.6705C301.418 67.6705 301.054 67.7557 300.744 67.9261C300.433 68.0966 300.195 68.3371 300.028 68.6477C299.861 68.9583 299.778 69.322 299.778 69.7386H298.102C298.102 69.0303 298.265 68.411 298.59 67.8807C298.916 67.3504 299.363 66.9394 299.931 66.6477C300.499 66.3523 301.145 66.2045 301.869 66.2045C302.6 66.2045 303.244 66.3504 303.801 66.642C304.361 66.9299 304.799 67.3239 305.113 67.8239C305.427 68.3201 305.585 68.8807 305.585 69.5057C305.585 69.9375 305.503 70.3598 305.34 70.7727C305.181 71.1856 304.903 71.6458 304.505 72.1534C304.107 72.6572 303.554 73.2689 302.846 73.9886L300.534 76.4091V76.4943H305.772V78H298.113ZM309.191 75.0398L309.179 72.9659H309.475L312.952 69.2727H314.986L311.02 73.4773H310.753L309.191 75.0398ZM307.628 78V66.3636H309.327V78H307.628ZM313.14 78L310.015 73.8523L311.185 72.6648L315.225 78H313.14ZM319.482 73.1705C319.482 74.5985 319.294 75.911 318.919 77.108C318.544 78.3049 317.997 79.4091 317.277 80.4205H315.72C316.001 80.0455 316.262 79.5852 316.504 79.0398C316.747 78.4943 316.959 77.8977 317.141 77.25C317.322 76.5985 317.465 75.9242 317.567 75.2273C317.669 74.5303 317.72 73.8447 317.72 73.1705C317.72 72.2727 317.631 71.3617 317.453 70.4375C317.275 69.5133 317.035 68.6553 316.732 67.8636C316.429 67.072 316.091 66.4261 315.72 65.9261H317.277C317.997 66.9375 318.544 68.0417 318.919 69.2386C319.294 70.4356 319.482 71.7462 319.482 73.1705Z" fill="black" fill-opacity="0.7"/>
<path d="M97.0454 114H93.2783V102.364H97.1647C98.3048 102.364 99.284 102.597 100.102 103.062C100.92 103.525 101.547 104.189 101.983 105.057C102.422 105.92 102.642 106.956 102.642 108.165C102.642 109.377 102.42 110.419 101.977 111.29C101.538 112.161 100.902 112.831 100.068 113.301C99.2347 113.767 98.2272 114 97.0454 114ZM95.034 112.466H96.9488C97.8351 112.466 98.5719 112.299 99.159 111.966C99.7461 111.629 100.186 111.142 100.477 110.506C100.769 109.866 100.915 109.085 100.915 108.165C100.915 107.252 100.769 106.477 100.477 105.841C100.189 105.205 99.7594 104.722 99.1874 104.392C98.6154 104.062 97.9052 103.898 97.0567 103.898H95.034V112.466ZM108.13 114.176C107.27 114.176 106.53 113.992 105.909 113.625C105.291 113.254 104.814 112.733 104.477 112.062C104.144 111.388 103.977 110.598 103.977 109.693C103.977 108.799 104.144 108.011 104.477 107.33C104.814 106.648 105.284 106.116 105.886 105.733C106.492 105.35 107.2 105.159 108.011 105.159C108.503 105.159 108.981 105.241 109.443 105.403C109.905 105.566 110.32 105.822 110.687 106.17C111.055 106.519 111.344 106.972 111.556 107.528C111.769 108.081 111.875 108.754 111.875 109.545V110.148H104.937V108.875H110.21C110.21 108.428 110.119 108.032 109.937 107.688C109.755 107.339 109.5 107.064 109.17 106.864C108.844 106.663 108.462 106.562 108.022 106.562C107.545 106.562 107.128 106.68 106.772 106.915C106.42 107.146 106.147 107.449 105.954 107.824C105.765 108.195 105.67 108.598 105.67 109.034V110.028C105.67 110.612 105.772 111.108 105.977 111.517C106.185 111.926 106.475 112.239 106.846 112.455C107.217 112.667 107.651 112.773 108.147 112.773C108.469 112.773 108.763 112.727 109.028 112.636C109.293 112.542 109.522 112.402 109.716 112.216C109.909 112.03 110.056 111.801 110.159 111.528L111.767 111.818C111.638 112.292 111.407 112.706 111.073 113.062C110.744 113.415 110.329 113.689 109.829 113.886C109.333 114.08 108.767 114.176 108.13 114.176ZM120.655 105.273L117.491 114H115.673L112.502 105.273H114.326L116.536 111.989H116.627L118.832 105.273H120.655ZM125.397 114.176C124.537 114.176 123.796 113.992 123.175 113.625C122.558 113.254 122.08 112.733 121.743 112.062C121.41 111.388 121.243 110.598 121.243 109.693C121.243 108.799 121.41 108.011 121.743 107.33C122.08 106.648 122.55 106.116 123.152 105.733C123.758 105.35 124.467 105.159 125.277 105.159C125.77 105.159 126.247 105.241 126.709 105.403C127.171 105.566 127.586 105.822 127.953 106.17C128.321 106.519 128.611 106.972 128.823 107.528C129.035 108.081 129.141 108.754 129.141 109.545V110.148H122.203V108.875H127.476C127.476 108.428 127.385 108.032 127.203 107.688C127.022 107.339 126.766 107.064 126.436 106.864C126.111 106.663 125.728 106.562 125.289 106.562C124.811 106.562 124.395 106.68 124.039 106.915C123.686 107.146 123.414 107.449 123.22 107.824C123.031 108.195 122.936 108.598 122.936 109.034V110.028C122.936 110.612 123.039 111.108 123.243 111.517C123.451 111.926 123.741 112.239 124.112 112.455C124.484 112.667 124.917 112.773 125.414 112.773C125.736 112.773 126.029 112.727 126.294 112.636C126.559 112.542 126.789 112.402 126.982 112.216C127.175 112.03 127.323 111.801 127.425 111.528L129.033 111.818C128.904 112.292 128.673 112.706 128.34 113.062C128.01 113.415 127.595 113.689 127.095 113.886C126.599 114.08 126.033 114.176 125.397 114.176ZM132.405 102.364V114H130.706V102.364H132.405ZM138.046 114.176C137.228 114.176 136.514 113.989 135.904 113.614C135.294 113.239 134.821 112.714 134.484 112.04C134.147 111.366 133.978 110.578 133.978 109.676C133.978 108.771 134.147 107.979 134.484 107.301C134.821 106.623 135.294 106.097 135.904 105.722C136.514 105.347 137.228 105.159 138.046 105.159C138.864 105.159 139.579 105.347 140.188 105.722C140.798 106.097 141.272 106.623 141.609 107.301C141.946 107.979 142.114 108.771 142.114 109.676C142.114 110.578 141.946 111.366 141.609 112.04C141.272 112.714 140.798 113.239 140.188 113.614C139.579 113.989 138.864 114.176 138.046 114.176ZM138.052 112.75C138.582 112.75 139.022 112.61 139.37 112.33C139.719 112.049 139.976 111.676 140.143 111.21C140.313 110.744 140.399 110.231 140.399 109.67C140.399 109.114 140.313 108.602 140.143 108.136C139.976 107.667 139.719 107.29 139.37 107.006C139.022 106.722 138.582 106.58 138.052 106.58C137.518 106.58 137.075 106.722 136.722 107.006C136.374 107.29 136.114 107.667 135.944 108.136C135.777 108.602 135.694 109.114 135.694 109.67C135.694 110.231 135.777 110.744 135.944 111.21C136.114 111.676 136.374 112.049 136.722 112.33C137.075 112.61 137.518 112.75 138.052 112.75ZM143.691 117.273V105.273H145.35V106.688H145.492C145.59 106.506 145.732 106.295 145.918 106.057C146.104 105.818 146.361 105.61 146.691 105.432C147.02 105.25 147.456 105.159 147.998 105.159C148.702 105.159 149.331 105.337 149.884 105.693C150.437 106.049 150.871 106.562 151.185 107.233C151.503 107.903 151.662 108.71 151.662 109.653C151.662 110.597 151.505 111.405 151.191 112.08C150.876 112.75 150.445 113.267 149.895 113.631C149.346 113.991 148.719 114.17 148.015 114.17C147.484 114.17 147.051 114.081 146.714 113.903C146.38 113.725 146.119 113.517 145.929 113.278C145.74 113.04 145.594 112.828 145.492 112.642H145.39V117.273H143.691ZM145.356 109.636C145.356 110.25 145.445 110.788 145.623 111.25C145.801 111.712 146.058 112.074 146.395 112.335C146.732 112.593 147.145 112.722 147.634 112.722C148.142 112.722 148.566 112.587 148.907 112.318C149.248 112.045 149.505 111.676 149.679 111.21C149.857 110.744 149.946 110.22 149.946 109.636C149.946 109.061 149.859 108.544 149.685 108.085C149.515 107.627 149.257 107.265 148.912 107C148.571 106.735 148.145 106.602 147.634 106.602C147.142 106.602 146.725 106.729 146.384 106.983C146.047 107.237 145.791 107.591 145.617 108.045C145.443 108.5 145.356 109.03 145.356 109.636ZM157.007 114.176C156.147 114.176 155.407 113.992 154.786 113.625C154.168 113.254 153.691 112.733 153.354 112.062C153.02 111.388 152.854 110.598 152.854 109.693C152.854 108.799 153.02 108.011 153.354 107.33C153.691 106.648 154.161 106.116 154.763 105.733C155.369 105.35 156.077 105.159 156.888 105.159C157.38 105.159 157.858 105.241 158.32 105.403C158.782 105.566 159.197 105.822 159.564 106.17C159.931 106.519 160.221 106.972 160.433 107.528C160.645 108.081 160.751 108.754 160.751 109.545V110.148H153.814V108.875H159.087C159.087 108.428 158.996 108.032 158.814 107.688C158.632 107.339 158.376 107.064 158.047 106.864C157.721 106.663 157.339 106.562 156.899 106.562C156.422 106.562 156.005 106.68 155.649 106.915C155.297 107.146 155.024 107.449 154.831 107.824C154.642 108.195 154.547 108.598 154.547 109.034V110.028C154.547 110.612 154.649 111.108 154.854 111.517C155.062 111.926 155.352 112.239 155.723 112.455C156.094 112.667 156.528 112.773 157.024 112.773C157.346 112.773 157.64 112.727 157.905 112.636C158.17 112.542 158.399 112.402 158.592 112.216C158.786 112.03 158.933 111.801 159.036 111.528L160.644 111.818C160.515 112.292 160.284 112.706 159.95 113.062C159.621 113.415 159.206 113.689 158.706 113.886C158.21 114.08 157.644 114.176 157.007 114.176ZM165.583 114.17C164.879 114.17 164.25 113.991 163.697 113.631C163.148 113.267 162.716 112.75 162.402 112.08C162.091 111.405 161.936 110.597 161.936 109.653C161.936 108.71 162.093 107.903 162.407 107.233C162.726 106.562 163.161 106.049 163.714 105.693C164.267 105.337 164.894 105.159 165.595 105.159C166.136 105.159 166.572 105.25 166.902 105.432C167.235 105.61 167.493 105.818 167.674 106.057C167.86 106.295 168.004 106.506 168.106 106.688H168.208V102.364H169.907V114H168.248V112.642H168.106C168.004 112.828 167.856 113.04 167.663 113.278C167.474 113.517 167.212 113.725 166.879 113.903C166.546 114.081 166.114 114.17 165.583 114.17ZM165.958 112.722C166.447 112.722 166.86 112.593 167.197 112.335C167.538 112.074 167.796 111.712 167.97 111.25C168.148 110.788 168.237 110.25 168.237 109.636C168.237 109.03 168.15 108.5 167.976 108.045C167.801 107.591 167.546 107.237 167.208 106.983C166.871 106.729 166.455 106.602 165.958 106.602C165.447 106.602 165.021 106.735 164.68 107C164.339 107.265 164.082 107.627 163.907 108.085C163.737 108.544 163.652 109.061 163.652 109.636C163.652 110.22 163.739 110.744 163.913 111.21C164.087 111.676 164.345 112.045 164.686 112.318C165.03 112.587 165.455 112.722 165.958 112.722ZM176.063 114V102.364H177.762V106.688H177.864C177.962 106.506 178.104 106.295 178.29 106.057C178.476 105.818 178.733 105.61 179.063 105.432C179.392 105.25 179.828 105.159 180.37 105.159C181.074 105.159 181.703 105.337 182.256 105.693C182.809 106.049 183.243 106.562 183.557 107.233C183.875 107.903 184.034 108.71 184.034 109.653C184.034 110.597 183.877 111.405 183.563 112.08C183.248 112.75 182.817 113.267 182.267 113.631C181.718 113.991 181.091 114.17 180.387 114.17C179.856 114.17 179.423 114.081 179.086 113.903C178.752 113.725 178.491 113.517 178.301 113.278C178.112 113.04 177.966 112.828 177.864 112.642H177.722V114H176.063ZM177.728 109.636C177.728 110.25 177.817 110.788 177.995 111.25C178.173 111.712 178.43 112.074 178.767 112.335C179.104 112.593 179.517 112.722 180.006 112.722C180.514 112.722 180.938 112.587 181.279 112.318C181.62 112.045 181.877 111.676 182.051 111.21C182.229 110.744 182.318 110.22 182.318 109.636C182.318 109.061 182.231 108.544 182.057 108.085C181.887 107.627 181.629 107.265 181.284 107C180.943 106.735 180.517 106.602 180.006 106.602C179.514 106.602 179.097 106.729 178.756 106.983C178.419 107.237 178.163 107.591 177.989 108.045C177.815 108.5 177.728 109.03 177.728 109.636ZM186.399 117.273C186.145 117.273 185.914 117.252 185.706 117.21C185.498 117.172 185.342 117.131 185.24 117.085L185.649 115.693C185.96 115.777 186.236 115.813 186.479 115.801C186.721 115.79 186.935 115.699 187.121 115.528C187.31 115.358 187.477 115.08 187.621 114.693L187.831 114.114L184.638 105.273H186.456L188.666 112.045H188.757L190.967 105.273H192.791L189.194 115.165C189.028 115.619 188.816 116.004 188.558 116.318C188.301 116.636 187.994 116.875 187.638 117.034C187.282 117.193 186.869 117.273 186.399 117.273Z" fill="black" fill-opacity="0.7"/>
<path d="M197.221 102.364H199.215L202.255 107.653H202.38L205.42 102.364H207.414L203.192 109.432V114H201.442V109.432L197.221 102.364ZM210.854 114.176C210.036 114.176 209.322 113.989 208.712 113.614C208.102 113.239 207.628 112.714 207.291 112.04C206.954 111.366 206.786 110.578 206.786 109.676C206.786 108.771 206.954 107.979 207.291 107.301C207.628 106.623 208.102 106.097 208.712 105.722C209.322 105.347 210.036 105.159 210.854 105.159C211.672 105.159 212.386 105.347 212.996 105.722C213.606 106.097 214.079 106.623 214.416 107.301C214.753 107.979 214.922 108.771 214.922 109.676C214.922 110.578 214.753 111.366 214.416 112.04C214.079 112.714 213.606 113.239 212.996 113.614C212.386 113.989 211.672 114.176 210.854 114.176ZM210.859 112.75C211.39 112.75 211.829 112.61 212.178 112.33C212.526 112.049 212.784 111.676 212.95 111.21C213.121 110.744 213.206 110.231 213.206 109.67C213.206 109.114 213.121 108.602 212.95 108.136C212.784 107.667 212.526 107.29 212.178 107.006C211.829 106.722 211.39 106.58 210.859 106.58C210.325 106.58 209.882 106.722 209.53 107.006C209.181 107.29 208.922 107.667 208.752 108.136C208.585 108.602 208.502 109.114 208.502 109.67C208.502 110.231 208.585 110.744 208.752 111.21C208.922 111.676 209.181 112.049 209.53 112.33C209.882 112.61 210.325 112.75 210.859 112.75ZM222.027 110.381V105.273H223.731V114H222.061V112.489H221.97C221.769 112.955 221.447 113.343 221.004 113.653C220.565 113.96 220.017 114.114 219.362 114.114C218.801 114.114 218.305 113.991 217.873 113.744C217.445 113.494 217.108 113.125 216.862 112.636C216.62 112.148 216.498 111.544 216.498 110.824V105.273H218.197V110.619C218.197 111.214 218.362 111.687 218.691 112.04C219.021 112.392 219.449 112.568 219.976 112.568C220.294 112.568 220.61 112.489 220.924 112.33C221.243 112.17 221.506 111.93 221.714 111.608C221.926 111.286 222.03 110.877 222.027 110.381ZM225.694 114V105.273H227.336V106.659H227.427C227.586 106.189 227.866 105.82 228.268 105.551C228.673 105.278 229.131 105.142 229.643 105.142C229.749 105.142 229.874 105.146 230.018 105.153C230.166 105.161 230.281 105.17 230.364 105.182V106.807C230.296 106.788 230.175 106.767 230.001 106.744C229.827 106.718 229.652 106.705 229.478 106.705C229.077 106.705 228.719 106.79 228.404 106.96C228.094 107.127 227.847 107.36 227.666 107.659C227.484 107.955 227.393 108.292 227.393 108.67V114H225.694ZM237.128 108.818V114H235.429V105.273H237.06V106.693H237.168C237.368 106.231 237.683 105.86 238.111 105.58C238.543 105.299 239.086 105.159 239.741 105.159C240.336 105.159 240.857 105.284 241.304 105.534C241.751 105.78 242.097 106.148 242.344 106.636C242.59 107.125 242.713 107.729 242.713 108.449V114H241.014V108.653C241.014 108.021 240.849 107.527 240.52 107.17C240.19 106.811 239.738 106.631 239.162 106.631C238.768 106.631 238.418 106.716 238.111 106.886C237.808 107.057 237.567 107.307 237.389 107.636C237.215 107.962 237.128 108.356 237.128 108.818ZM247.211 114.193C246.658 114.193 246.158 114.091 245.711 113.886C245.264 113.678 244.91 113.377 244.649 112.983C244.391 112.589 244.262 112.106 244.262 111.534C244.262 111.042 244.357 110.636 244.546 110.318C244.736 110 244.991 109.748 245.313 109.562C245.635 109.377 245.995 109.237 246.393 109.142C246.791 109.047 247.196 108.975 247.609 108.926C248.132 108.866 248.556 108.816 248.882 108.778C249.207 108.737 249.444 108.67 249.592 108.58C249.74 108.489 249.813 108.341 249.813 108.136V108.097C249.813 107.6 249.673 107.216 249.393 106.943C249.116 106.67 248.704 106.534 248.154 106.534C247.582 106.534 247.132 106.661 246.802 106.915C246.476 107.165 246.251 107.443 246.126 107.75L244.529 107.386C244.719 106.856 244.995 106.428 245.359 106.102C245.726 105.773 246.149 105.534 246.626 105.386C247.103 105.235 247.605 105.159 248.132 105.159C248.48 105.159 248.849 105.201 249.24 105.284C249.634 105.364 250.001 105.511 250.342 105.727C250.687 105.943 250.969 106.252 251.188 106.653C251.408 107.051 251.518 107.568 251.518 108.205V114H249.859V112.807H249.791C249.681 113.027 249.516 113.242 249.296 113.455C249.077 113.667 248.795 113.843 248.45 113.983C248.105 114.123 247.692 114.193 247.211 114.193ZM247.581 112.83C248.05 112.83 248.452 112.737 248.785 112.551C249.122 112.366 249.378 112.123 249.552 111.824C249.73 111.521 249.819 111.197 249.819 110.852V109.727C249.759 109.788 249.641 109.845 249.467 109.898C249.296 109.947 249.101 109.991 248.882 110.028C248.662 110.062 248.448 110.095 248.24 110.125C248.031 110.152 247.857 110.174 247.717 110.193C247.387 110.235 247.086 110.305 246.813 110.403C246.545 110.502 246.329 110.644 246.166 110.83C246.007 111.011 245.927 111.254 245.927 111.557C245.927 111.977 246.082 112.295 246.393 112.511C246.704 112.723 247.099 112.83 247.581 112.83ZM253.461 114V105.273H255.091V106.693H255.199C255.381 106.212 255.679 105.837 256.091 105.568C256.504 105.295 256.999 105.159 257.574 105.159C258.158 105.159 258.646 105.295 259.04 105.568C259.438 105.841 259.732 106.216 259.921 106.693H260.012C260.22 106.227 260.552 105.856 261.006 105.58C261.461 105.299 262.002 105.159 262.631 105.159C263.423 105.159 264.069 105.407 264.569 105.903C265.073 106.4 265.324 107.148 265.324 108.148V114H263.626V108.307C263.626 107.716 263.465 107.288 263.143 107.023C262.821 106.758 262.436 106.625 261.989 106.625C261.436 106.625 261.006 106.795 260.699 107.136C260.393 107.473 260.239 107.907 260.239 108.438V114H258.546V108.199C258.546 107.725 258.398 107.345 258.103 107.057C257.807 106.769 257.423 106.625 256.949 106.625C256.627 106.625 256.33 106.71 256.057 106.881C255.788 107.047 255.571 107.28 255.404 107.58C255.241 107.879 255.16 108.225 255.16 108.619V114H253.461ZM271.043 114.176C270.183 114.176 269.442 113.992 268.821 113.625C268.204 113.254 267.726 112.733 267.389 112.062C267.056 111.388 266.889 110.598 266.889 109.693C266.889 108.799 267.056 108.011 267.389 107.33C267.726 106.648 268.196 106.116 268.798 105.733C269.405 105.35 270.113 105.159 270.923 105.159C271.416 105.159 271.893 105.241 272.355 105.403C272.817 105.566 273.232 105.822 273.6 106.17C273.967 106.519 274.257 106.972 274.469 107.528C274.681 108.081 274.787 108.754 274.787 109.545V110.148H267.85V108.875H273.122C273.122 108.428 273.031 108.032 272.85 107.688C272.668 107.339 272.412 107.064 272.083 106.864C271.757 106.663 271.374 106.562 270.935 106.562C270.458 106.562 270.041 106.68 269.685 106.915C269.333 107.146 269.06 107.449 268.867 107.824C268.677 108.195 268.583 108.598 268.583 109.034V110.028C268.583 110.612 268.685 111.108 268.889 111.517C269.098 111.926 269.387 112.239 269.759 112.455C270.13 112.667 270.564 112.773 271.06 112.773C271.382 112.773 271.675 112.727 271.941 112.636C272.206 112.542 272.435 112.402 272.628 112.216C272.821 112.03 272.969 111.801 273.071 111.528L274.679 111.818C274.55 112.292 274.319 112.706 273.986 113.062C273.656 113.415 273.242 113.689 272.742 113.886C272.245 114.08 271.679 114.176 271.043 114.176Z" fill="#5498EE"/>
<path d="M455 0.5H10C4.75329 0.5 0.5 4.75329 0.5 10V126C0.5 131.247 4.75329 135.5 10 135.5H455C460.247 135.5 464.5 131.247 464.5 126V10C464.5 4.75329 460.247 0.5 455 0.5Z" stroke="black" stroke-opacity="0.1"/>
<g clip-path="url(#clip1_2288_10935)">
<path fill-rule="evenodd" clip-rule="evenodd" d="M44.6261 28.8577L45.2162 30.6882C44.7173 30.8487 44.2293 31.041 43.7549 31.2639L42.9629 29.5049C43.5044 29.2573 44.0598 29.0412 44.6261 28.8577Z" fill="#34DBDB"/>
<path fill-rule="evenodd" clip-rule="evenodd" d="M65.3726 43.9265V43.9742L63.4084 43.9662V43.9265H65.3726Z" fill="#3EA91C"/>
<path fill-rule="evenodd" clip-rule="evenodd" d="M65.3689 44.2798C65.3689 44.5061 65.3689 44.7324 65.3372 44.9587L63.3572 44.8317C63.3572 44.6332 63.3809 44.4346 63.3849 44.2361L65.3689 44.2798Z" fill="#58E761" fill-opacity="0.99"/>
<path fill-rule="evenodd" clip-rule="evenodd" d="M65.3294 45.074V45.0978L65.1314 45.0819L63.3691 44.9509V44.931L65.3294 45.074Z" fill="#3EA91C"/>
<path fill-rule="evenodd" clip-rule="evenodd" d="M65.1314 45.0739C65.1314 45.1335 65.1314 45.193 65.1314 45.2526L63.3691 45.1017C63.3691 45.0501 63.3691 44.9945 63.3691 44.9429L65.1314 45.0739Z" fill="#3EA91C"/>
<path fill-rule="evenodd" clip-rule="evenodd" d="M65.1154 45.2606C65.0876 45.5823 65.052 45.8999 65.0045 46.2176L63.2542 45.9595C63.2977 45.6776 63.3294 45.3956 63.3532 45.1097L65.1154 45.2606Z" fill="#3EA91C"/>
<path fill-rule="evenodd" clip-rule="evenodd" d="M65.0163 46.2175L64.9331 46.6622L63.1868 46.3525C63.2145 46.2215 63.2343 46.0904 63.2541 45.9554L65.0163 46.2175Z" fill="#3EA91C"/>
<path fill-rule="evenodd" clip-rule="evenodd" d="M65.1272 46.698C65.1272 46.698 65.1272 46.698 65.1272 46.7218L63.1868 46.3724C63.1892 46.366 63.1892 46.3589 63.1868 46.3525L64.9331 46.6623L65.1272 46.698Z" fill="#3EA91C"/>
<path fill-rule="evenodd" clip-rule="evenodd" d="M65.0399 47.1506C65.0399 47.1942 65.0399 47.2419 65.0083 47.2856L64.8182 47.2458L63.0876 46.8686L63.1114 46.7495L65.0399 47.1506Z" fill="#00BCBC"/>
<path fill-rule="evenodd" clip-rule="evenodd" d="M64.8182 47.246C64.7786 47.4207 64.739 47.5954 64.6915 47.7741L62.9768 47.3373C63.0164 47.1825 63.052 47.0276 63.0837 46.8688L64.8182 47.246Z" fill="#00BCBC"/>
<path fill-rule="evenodd" clip-rule="evenodd" d="M64.8857 47.8216C64.8875 47.8295 64.8875 47.8376 64.8857 47.8455L62.981 47.3571L64.6957 47.7938L64.8857 47.8216Z" fill="#00BCBC"/>
<path fill-rule="evenodd" clip-rule="evenodd" d="M64.6679 48.5841V48.6278L62.7869 48.0441V48.0044L64.6679 48.5841Z" fill="#3EA91C"/>
<path fill-rule="evenodd" clip-rule="evenodd" d="M64.5886 48.8422L64.553 48.9534L62.6838 48.326C62.6838 48.2942 62.6838 48.2625 62.7155 48.2307L64.5886 48.8422Z" fill="#58E761" fill-opacity="0.99"/>
<path fill-rule="evenodd" clip-rule="evenodd" d="M64.474 49.1797L64.4503 49.2472L62.593 48.5841L62.6168 48.5245L64.474 49.1797Z" fill="#58E761" fill-opacity="0.99"/>
<path fill-rule="evenodd" clip-rule="evenodd" d="M64.4223 49.3227C64.4223 49.3227 64.4223 49.3584 64.4223 49.3743L62.573 48.6953V48.6516L64.4223 49.3227Z" fill="#3EA91C"/>
<path fill-rule="evenodd" clip-rule="evenodd" d="M64.0341 49.7792C63.9826 49.9142 63.9272 50.0452 63.8678 50.1763L62.2441 49.4695C62.2956 49.3543 62.3471 49.2352 62.3946 49.1161L64.0341 49.7792Z" fill="#3EA91C"/>
<path fill-rule="evenodd" clip-rule="evenodd" d="M64.0499 50.2598V50.2876L62.2441 49.4934C62.2459 49.4856 62.2459 49.4775 62.2441 49.4696L63.8717 50.1804L64.0499 50.2598Z" fill="#3EA91C"/>
<path fill-rule="evenodd" clip-rule="evenodd" d="M63.9946 50.3867V50.4264L62.1968 49.6323V49.5966L63.9946 50.3867Z" fill="#3EA91C"/>
<path fill-rule="evenodd" clip-rule="evenodd" d="M63.9431 50.5019C63.8085 50.7957 63.6619 51.0856 63.5115 51.3714L61.769 50.4423C61.9037 50.1922 62.0304 49.938 62.165 49.6799L63.9431 50.5019Z" fill="#00D77A"/>
<path fill-rule="evenodd" clip-rule="evenodd" d="M63.4956 51.4032L63.3689 51.6295L63.1986 51.5342L61.6423 50.6686L61.7532 50.4701L63.4956 51.4032Z" fill="#00D77A"/>
<path fill-rule="evenodd" clip-rule="evenodd" d="M63.1988 51.5343C63.1275 51.6614 63.0522 51.7884 62.977 51.9314L61.4524 51.0062C61.5197 50.895 61.587 50.7839 61.6464 50.6687L63.1988 51.5343Z" fill="#00D77A"/>
<path fill-rule="evenodd" clip-rule="evenodd" d="M63.1471 52.0148L63.0996 52.0942L61.4087 51.0737L61.4483 51.0062L62.9769 51.9155L63.1471 52.0148Z" fill="#00D77A"/>
<path fill-rule="evenodd" clip-rule="evenodd" d="M62.9691 52.3125C62.9414 52.3562 62.9136 52.4039 62.882 52.4475L61.2188 51.3834L61.29 51.2643L62.9691 52.3125Z" fill="#00D77A"/>
<path opacity="0.5" fill-rule="evenodd" clip-rule="evenodd" d="M62.7196 52.6976L62.5335 52.9716L60.9099 51.8241L61.0723 51.5858L62.7196 52.6976Z" fill="#1CA948"/>
<path fill-rule="evenodd" clip-rule="evenodd" d="M62.4701 53.059C62.379 53.19 62.2879 53.317 62.1929 53.456L60.6089 52.2648C60.692 52.1576 60.7752 52.0464 60.8544 51.9313L62.4701 53.059Z" fill="#00D77A"/>
<path fill-rule="evenodd" clip-rule="evenodd" d="M62.1057 53.5594L61.8246 53.9167L60.2881 52.666C60.3712 52.5627 60.4544 52.4595 60.5336 52.3523L62.1057 53.5594Z" fill="#00BCBC"/>
<path fill-rule="evenodd" clip-rule="evenodd" d="M61.7335 54.0239C61.1669 54.7099 60.5429 55.3462 59.8684 55.9259L58.5774 54.425C59.1672 53.9176 59.713 53.3611 60.2089 52.7612L61.7335 54.0239Z" fill="#5498EE"/>
<path fill-rule="evenodd" clip-rule="evenodd" d="M59.7971 55.9893C59.5331 56.2117 59.2691 56.4261 59.0051 56.6326L58.8863 56.4738L57.8052 55.0403C58.0467 54.8617 58.2843 54.675 58.514 54.4805L59.7971 55.9893Z" fill="#5498EE"/>
<path fill-rule="evenodd" clip-rule="evenodd" d="M58.8705 56.4739L58.4745 56.7439L57.4924 55.2827C57.6033 55.2072 57.7182 55.1278 57.8251 55.0444L58.8705 56.4739Z" fill="#5498EE"/>
<path fill-rule="evenodd" clip-rule="evenodd" d="M58.6088 56.9066L58.3712 57.0694L57.2664 55.4255L57.4723 55.2826L58.494 56.7438L58.6088 56.9066Z" fill="#5498EE"/>
<path fill-rule="evenodd" clip-rule="evenodd" d="M58.3676 57.0735C57.7999 57.4537 57.2087 57.7972 56.5974 58.1019L55.7144 56.331C56.2493 56.0627 56.7665 55.7603 57.2627 55.4257L58.3676 57.0735Z" fill="#5498EE"/>
<path fill-rule="evenodd" clip-rule="evenodd" d="M55.8568 58.4474H55.8132L55.0212 56.6288H55.0569L55.8568 58.4474Z" fill="#3EA91C"/>
<path opacity="0.5" fill-rule="evenodd" clip-rule="evenodd" d="M55.4171 58.63L55.3656 58.6538L54.637 56.8114H54.6805L55.4171 58.63Z" fill="#1CA948"/>
<path fill-rule="evenodd" clip-rule="evenodd" d="M54.6887 58.904H54.6254L53.9878 57.0298H54.0432L54.6887 58.904Z" fill="#58E661"/>
<path fill-rule="evenodd" clip-rule="evenodd" d="M53.9719 59.1302H53.9284L53.3779 57.2242H53.4175L53.9719 59.1302Z" fill="#3EA91C"/>
<path fill-rule="evenodd" clip-rule="evenodd" d="M53.8607 59.162H53.8093L53.2747 57.2521H53.3182L53.8607 59.162Z" fill="#3EA91C"/>
<path fill-rule="evenodd" clip-rule="evenodd" d="M53.7737 59.1898H53.7261L53.1995 57.2759H53.243L53.7737 59.1898Z" fill="#3EA91C"/>
<path fill-rule="evenodd" clip-rule="evenodd" d="M53.2036 59.3327H53.16L52.7046 57.403H52.7442L53.2036 59.3327Z" fill="#3EA91C"/>
<path fill-rule="evenodd" clip-rule="evenodd" d="M51.7303 59.6147L51.4531 57.6294C51.6472 57.6016 51.8491 57.5738 52.0273 57.5341L52.3877 59.4876C52.1739 59.5472 51.9481 59.5829 51.7303 59.6147Z" fill="#58E661"/>
<path fill-rule="evenodd" clip-rule="evenodd" d="M51.7382 59.6106C51.4491 59.6503 51.1561 59.686 50.867 59.7098L50.7007 57.7245C50.9647 57.7033 51.2181 57.6755 51.461 57.6411L51.7382 59.6106Z" fill="#58E661"/>
<path fill-rule="evenodd" clip-rule="evenodd" d="M50.7087 59.7218H50.6493L50.5107 57.7365H50.5622L50.7087 59.7218Z" fill="#3EA91C"/>
<path opacity="0.5" fill-rule="evenodd" clip-rule="evenodd" d="M50.6413 59.7258H50.4393L50.3245 57.7405H50.5027L50.6413 59.7258Z" fill="#1CA948"/>
<path opacity="0.5" fill-rule="evenodd" clip-rule="evenodd" d="M50.4197 59.7417H50.3009L50.2058 57.7563H50.3088L50.4197 59.7417Z" fill="#1CA948"/>
<path fill-rule="evenodd" clip-rule="evenodd" d="M50.1226 59.7655H50.079L50.0117 57.7802H50.0474L50.1226 59.7655Z" fill="#3EA91C"/>
<path fill-rule="evenodd" clip-rule="evenodd" d="M49.9326 59.7615H49.8851L49.8416 57.7722H49.8812L49.9326 59.7615Z" fill="#3EA91C"/>
<path fill-rule="evenodd" clip-rule="evenodd" d="M49.79 59.7655H49.5959V57.7802H49.7662L49.79 59.7655Z" fill="#00BCBC"/>
<path fill-rule="evenodd" clip-rule="evenodd" d="M48.2932 57.7206C48.6892 57.7563 49.109 57.7762 49.5208 57.7762V59.7615C49.0496 59.7615 48.5823 59.7615 48.115 59.698L48.2932 57.7206Z" fill="#58E661"/>
<path fill-rule="evenodd" clip-rule="evenodd" d="M47.0337 57.546C47.4297 57.6215 47.8574 57.681 48.2811 57.7168L48.099 59.7021C47.6198 59.6584 47.1446 59.5949 46.6733 59.5075L47.0337 57.546Z" fill="#58E661"/>
<path fill-rule="evenodd" clip-rule="evenodd" d="M46.6259 57.4625L46.2061 59.4121H46.1111L46.5427 57.4665L46.6259 57.4625Z" fill="#58E661"/>
<path fill-rule="evenodd" clip-rule="evenodd" d="M46.5388 57.4427L46.1428 59.1977C45.9804 59.162 45.822 59.1262 45.6597 59.0825L46.1032 57.3434C46.2497 57.3831 46.4042 57.4149 46.5388 57.4427Z" fill="#58E661"/>
<path fill-rule="evenodd" clip-rule="evenodd" d="M46.1111 57.3434L45.6676 59.0826L45.6201 59.2771L45.4775 59.2374L45.529 59.0468L46.0082 57.3116L46.1111 57.3434Z" fill="#58E661"/>
<path fill-rule="evenodd" clip-rule="evenodd" d="M46.0081 57.3117L45.5329 59.0469L45.0894 58.9238L45.6121 57.2006L46.0081 57.3117Z" fill="#58E661"/>
<path fill-rule="evenodd" clip-rule="evenodd" d="M45.6121 57.2006L45.0458 59.1105H44.9824L45.5606 57.2006H45.6121Z" fill="#58E661"/>
<path opacity="0.5" fill-rule="evenodd" clip-rule="evenodd" d="M45.5368 57.1845L44.9626 59.0944L44.8201 59.0508L45.4141 57.1488L45.525 57.1806L45.5368 57.1845Z" fill="#1CA948"/>
<path fill-rule="evenodd" clip-rule="evenodd" d="M45.0737 57.0337L44.4243 58.9237H44.3728L45.0222 57.0377L45.0737 57.0337Z" fill="#3EA91C"/>
<path fill-rule="evenodd" clip-rule="evenodd" d="M44.8519 56.9582L44.1787 58.8364L43.8184 58.7014L44.5391 56.8391L44.8519 56.9582Z" fill="#00BCBC"/>
<path fill-rule="evenodd" clip-rule="evenodd" d="M44.345 56.7598L43.5965 58.6141H43.553L44.3054 56.7637L44.345 56.7598Z" fill="#3EA91C"/>
<path opacity="0.5" fill-rule="evenodd" clip-rule="evenodd" d="M44.1271 56.6684L43.3351 58.5068L43.2361 58.4552L44.0281 56.6207L44.1271 56.6684Z" fill="#1CA948"/>
<path fill-rule="evenodd" clip-rule="evenodd" d="M43.9451 56.589L43.1531 58.4195L43.2323 58.2408L43.9253 56.589H43.9451Z" fill="#3EA91C"/>
<path fill-rule="evenodd" clip-rule="evenodd" d="M43.9251 56.5889L43.1965 58.2288L42.9114 58.0978L43.6717 56.4658L43.9251 56.5889Z" fill="#3EA91C"/>
<path fill-rule="evenodd" clip-rule="evenodd" d="M43.6718 56.4659L42.8402 58.2765H42.8125L43.6322 56.454L43.6718 56.4659Z" fill="#3EA91C"/>
<path fill-rule="evenodd" clip-rule="evenodd" d="M43.4658 56.3666L42.5906 58.1772H42.551L43.4341 56.3507L43.4658 56.3666Z" fill="#3EA91C"/>
<path fill-rule="evenodd" clip-rule="evenodd" d="M43.0974 56.1919L42.1667 57.9509L41.8975 57.804L42.8637 56.049C42.9429 56.0966 43.0182 56.1363 43.0974 56.1919Z" fill="#4AB64B" fill-opacity="0.9"/>
<path fill-rule="evenodd" clip-rule="evenodd" d="M42.8123 56.0211L41.8381 57.7801C41.7034 57.7047 41.5648 57.6293 41.4421 57.5459L41.3748 57.5062L42.4004 55.7948L42.4598 55.8266C42.5746 55.8901 42.6934 55.9576 42.8123 56.0211Z" fill="#4AB64B" fill-opacity="0.9"/>
<path fill-rule="evenodd" clip-rule="evenodd" d="M42.4441 55.8148L41.4185 57.5381L41.3511 57.4984L41.2205 57.4189L42.2699 55.7115L42.3847 55.783L42.4441 55.8148Z" fill="#4AB64B" fill-opacity="0.9"/>
<path fill-rule="evenodd" clip-rule="evenodd" d="M41.775 55.3819L40.6504 57.0417L40.6345 57.0297L40.7454 56.8669L41.7631 55.37L41.775 55.3819Z" fill="#3EA91C"/>
<path fill-rule="evenodd" clip-rule="evenodd" d="M41.763 55.3699L40.7453 56.8669L40.4641 56.6604L41.5135 55.1873C41.5936 55.2523 41.6768 55.3133 41.763 55.3699Z" fill="#3EA91C"/>
<path fill-rule="evenodd" clip-rule="evenodd" d="M41.4978 55.1873L40.4642 56.6604L40.3494 56.8232H40.3296L41.5176 55.1912L41.4978 55.1873Z" fill="#3EA91C"/>
<path fill-rule="evenodd" clip-rule="evenodd" d="M41.3946 55.1118L40.2066 56.7359L40.167 56.7081L41.355 55.088L41.3946 55.1118Z" fill="#3EA91C"/>
<path fill-rule="evenodd" clip-rule="evenodd" d="M41.2562 55.0007L40.0682 56.589L39.8662 56.4381L41.0938 54.8499L41.2562 55.0007Z" fill="#00D77A"/>
<path fill-rule="evenodd" clip-rule="evenodd" d="M41.0897 54.8816L39.8621 56.4699C39.6086 56.2753 39.3671 56.0728 39.1255 55.8663L40.4442 54.3535C40.6541 54.5322 40.8679 54.7109 41.0897 54.8776C41.0857 54.8816 41.0857 54.8816 41.0897 54.8816Z" fill="#00D77A"/>
<path fill-rule="evenodd" clip-rule="evenodd" d="M39.5373 53.4839C39.7195 53.6745 39.9096 53.8611 40.1036 54.0438L38.7334 55.5169C38.5117 55.3104 38.2939 55.096 38.084 54.8736L39.5373 53.4839Z" fill="#1CA983"/>
<path fill-rule="evenodd" clip-rule="evenodd" d="M39.2487 53.1703L37.7518 54.5164C37.534 54.2742 37.3241 54.024 37.1182 53.7659L38.7022 52.5151C38.8804 52.7375 39.0586 52.9559 39.2487 53.1703Z" fill="#93E293"/>
<path fill-rule="evenodd" clip-rule="evenodd" d="M38.4405 52.1816L36.8248 53.3728L36.7852 53.3172L38.4048 52.126L38.4405 52.1816Z" fill="#58E661"/>
<path opacity="0.5" fill-rule="evenodd" clip-rule="evenodd" d="M38.2624 51.9312L36.619 53.0986L36.417 52.8088L38.0881 51.6771C38.1396 51.7645 38.199 51.8479 38.2624 51.9312Z" fill="#1CA948"/>
<path opacity="0.5" fill-rule="evenodd" clip-rule="evenodd" d="M38.013 51.5741L36.3379 52.6898L36.1003 52.3206L37.8071 51.2524C37.8744 51.3597 37.9418 51.4669 38.013 51.5741Z" fill="#1CA948"/>
<path fill-rule="evenodd" clip-rule="evenodd" d="M37.7397 51.1452L36.021 52.1975C35.9141 52.0188 35.8112 51.8441 35.7122 51.6654L37.4665 50.6807C37.5536 50.8355 37.6447 50.9943 37.7397 51.1452Z" fill="#1CA95B"/>
<path opacity="0.5" fill-rule="evenodd" clip-rule="evenodd" d="M37.2367 50.2358L35.4467 51.157C35.4467 51.1213 35.4071 51.0856 35.3913 51.0498C35.3755 51.0141 35.3715 51.0062 35.3596 50.9863L37.1614 50.085C37.1691 50.1043 37.1783 50.1229 37.1892 50.1406C37.201 50.1882 37.2208 50.2358 37.2367 50.2358Z" fill="#1CA948"/>
<path fill-rule="evenodd" clip-rule="evenodd" d="M37.1893 50.1565L35.3915 51.0658C35.3915 51.0459 35.3717 51.0221 35.3598 51.0022L37.1616 50.1049C37.1694 50.1228 37.1787 50.1401 37.1893 50.1565Z" fill="#58E661"/>
<path fill-rule="evenodd" clip-rule="evenodd" d="M37.1258 50.0333L35.3161 50.9228C35.3161 50.9228 35.2963 50.8791 35.2844 50.8552L37.0942 49.9738C37.103 49.9945 37.1136 50.0144 37.1258 50.0333Z" fill="#58E661"/>
<path fill-rule="evenodd" clip-rule="evenodd" d="M37.0902 49.9659L35.2844 50.8435L35.2488 50.776L37.0625 49.9064C37.0733 49.9254 37.0826 49.9453 37.0902 49.9659Z" fill="#0ECA36"/>
<path fill-rule="evenodd" clip-rule="evenodd" d="M37.0622 49.9023L35.2485 50.7719L35.1772 50.6329L36.9989 49.7832L37.0622 49.9023Z" fill="#0ECA36"/>
<path opacity="0.5" fill-rule="evenodd" clip-rule="evenodd" d="M36.9674 49.6998L35.1378 50.5416L35.0547 50.359L36.9001 49.541C36.9199 49.5926 36.9436 49.6482 36.9674 49.6998Z" fill="#1CA948"/>
<path fill-rule="evenodd" clip-rule="evenodd" d="M36.7417 49.1796L34.8804 49.9459L34.8567 49.8904L36.7219 49.132C36.7268 49.1485 36.7334 49.1645 36.7417 49.1796Z" fill="#1CA95B"/>
<path fill-rule="evenodd" clip-rule="evenodd" d="M36.6823 49.0447L34.8131 49.7872L34.7854 49.7197L36.6585 48.9851L36.6823 49.0447Z" fill="#1CA95B"/>
<path fill-rule="evenodd" clip-rule="evenodd" d="M36.6349 48.9096L34.7578 49.6363C34.752 49.6214 34.7454 49.6068 34.738 49.5926L36.6191 48.8739C36.6227 48.8865 36.628 48.8985 36.6349 48.9096Z" fill="#3EA91C"/>
<path fill-rule="evenodd" clip-rule="evenodd" d="M36.5832 48.7865L34.7021 49.4933V49.4496L36.5871 48.7468L36.5832 48.7865Z" fill="#3EA91C"/>
<path fill-rule="evenodd" clip-rule="evenodd" d="M36.5042 48.5205L34.6073 49.1876C34.5963 49.1604 34.587 49.1326 34.5796 49.1042L36.4764 48.4451C36.4685 48.4729 36.4804 48.4967 36.5042 48.5205Z" fill="#58E661"/>
<path fill-rule="evenodd" clip-rule="evenodd" d="M36.3852 48.2188L34.4725 48.8422C34.4725 48.8025 34.4487 48.7628 34.4329 48.7231L36.3495 48.1116L36.3852 48.2188Z" fill="#00BCBC"/>
<path fill-rule="evenodd" clip-rule="evenodd" d="M36.3179 48.0122L34.4012 48.6078L34.3418 48.4212L36.2703 47.8534L36.3179 48.0122Z" fill="#00BCBC"/>
<path opacity="0.97" fill-rule="evenodd" clip-rule="evenodd" d="M36.2388 47.7422L34.3063 48.2981C34.2825 48.2187 34.2627 48.1393 34.2429 48.0599L36.1833 47.5358C36.1992 47.6033 36.219 47.6747 36.2388 47.7422Z" fill="#00BCBC"/>
<path fill-rule="evenodd" clip-rule="evenodd" d="M36.2466 40.0034C36.1912 40.186 36.1436 40.3687 36.0961 40.5553L34.3577 40.1185C34.4131 39.9081 34.4685 39.7016 34.5279 39.4951L36.2466 40.0034Z" fill="#00BCBC"/>
<path fill-rule="evenodd" clip-rule="evenodd" d="M36.3774 39.5705C36.3378 39.6817 36.3022 39.7969 36.2705 39.912L34.3657 39.3442L34.4885 38.9471L36.3774 39.5705Z" fill="#00BCBC"/>
<path fill-rule="evenodd" clip-rule="evenodd" d="M36.4564 39.3325C36.4287 39.4119 36.4049 39.4913 36.3772 39.5707L34.4883 38.9473C34.516 38.856 34.5477 38.7647 34.5794 38.6733L36.4564 39.3325Z" fill="#00BCBC"/>
<path fill-rule="evenodd" clip-rule="evenodd" d="M36.5042 39.1577C36.4844 39.2053 36.4686 39.257 36.4527 39.3046L34.5955 38.6415C34.6153 38.5859 34.6351 38.5303 34.6588 38.4747L36.5042 39.1577Z" fill="#00BCBC"/>
<path fill-rule="evenodd" clip-rule="evenodd" d="M36.615 38.8957L36.5319 39.122L34.6707 38.4351C34.7023 38.3517 34.734 38.2644 34.7697 38.177L34.9518 38.2485L36.615 38.8957Z" fill="#00BCBC"/>
<path fill-rule="evenodd" clip-rule="evenodd" d="M36.7534 38.5502C36.7059 38.6653 36.6623 38.7805 36.6188 38.8956L34.9556 38.2484C35.007 38.1174 35.0585 37.9903 35.114 37.8513L36.7534 38.5502Z" fill="#00BCBC"/>
<path fill-rule="evenodd" clip-rule="evenodd" d="M36.8405 38.3476L36.7534 38.5501L35.11 37.8592L34.9199 37.7838L35.0189 37.5535L36.8405 38.3476Z" fill="#00BCBC"/>
<path fill-rule="evenodd" clip-rule="evenodd" d="M36.9 38.1967C36.8762 38.2443 36.8564 38.2959 36.8366 38.3436L35.0229 37.5495L35.0942 37.3827L36.9 38.1967Z" fill="#00BCBC"/>
<path fill-rule="evenodd" clip-rule="evenodd" d="M36.9637 38.0737C36.9579 38.0873 36.9512 38.1006 36.9439 38.1134L35.146 37.2835C35.1542 37.2698 35.1608 37.2551 35.1658 37.2399L36.9637 38.0737Z" fill="#3EA91C"/>
<path opacity="0.5" fill-rule="evenodd" clip-rule="evenodd" d="M39.0543 34.8177C38.2219 35.7842 37.5263 36.8611 36.9872 38.0181L35.1973 37.1763C35.8162 35.8551 36.6159 34.6269 37.5733 33.5272L39.0543 34.8177Z" fill="#1CA948"/>
<path opacity="0.5" fill-rule="evenodd" clip-rule="evenodd" d="M39.1889 34.6668L39.0978 34.7701L37.6128 33.4836C37.6445 33.4478 37.6762 33.4081 37.7158 33.3684L39.1889 34.6668Z" fill="#1CA948"/>
<path opacity="0.5" fill-rule="evenodd" clip-rule="evenodd" d="M39.3037 34.5357L39.2008 34.6508L37.7395 33.3405L37.8583 33.2095L39.3037 34.5357Z" fill="#1CA948"/>
<path opacity="0.5" fill-rule="evenodd" clip-rule="evenodd" d="M39.3077 34.5317L39.2047 34.6469L37.7395 33.3405C37.7395 33.3405 37.8187 33.2532 37.8623 33.2134L39.3077 34.5317Z" fill="#1CA948"/>
<path fill-rule="evenodd" clip-rule="evenodd" d="M39.3474 34.4881C39.3389 34.5006 39.3282 34.5114 39.3157 34.5198L37.8743 33.1936L37.9099 33.1539L39.3474 34.4881Z" fill="#3EA91C"/>
<path opacity="0.5" fill-rule="evenodd" clip-rule="evenodd" d="M39.4543 34.373L39.3672 34.4683L37.9297 33.1341L38.0326 33.0229L39.4543 34.373Z" fill="#1CA948"/>
<path opacity="0.99" fill-rule="evenodd" clip-rule="evenodd" d="M38.6266 32.7013L39.8542 33.956L39.5572 34.2578L38.1475 32.8959C38.2623 32.7767 38.3732 32.6656 38.492 32.5504L38.6266 32.7013Z" fill="#4AB64B" fill-opacity="0.9"/>
<path opacity="0.99" fill-rule="evenodd" clip-rule="evenodd" d="M40.1273 33.7059C40.0376 33.7906 39.9465 33.8779 39.8541 33.9679L38.6265 32.7053C38.7294 32.606 38.8284 32.5107 38.9353 32.4154L40.1273 33.7059Z" fill="#4AB64B" fill-opacity="0.9"/>
<path opacity="0.99" fill-rule="evenodd" clip-rule="evenodd" d="M40.4642 33.412C40.3573 33.5073 40.2504 33.6026 40.1435 33.7059L38.9554 32.4114L38.8208 32.2645C38.9396 32.1533 39.0663 32.0421 39.1891 31.9349L40.4642 33.412Z" fill="#4AB64B" fill-opacity="0.9"/>
<path fill-rule="evenodd" clip-rule="evenodd" d="M40.7689 33.1618L40.563 33.3326L39.3037 31.8197L39.5374 31.6292L40.7689 33.1618Z" fill="#00BCBC"/>
<path fill-rule="evenodd" clip-rule="evenodd" d="M40.8009 33.1142L39.5732 31.5974L39.696 31.7523L40.8009 33.1142Z" fill="#00BCBC"/>
<path fill-rule="evenodd" clip-rule="evenodd" d="M41.0342 32.9276L40.8006 33.1143L39.6997 31.7523C39.7868 31.6808 39.8739 31.6094 39.965 31.5419L41.0342 32.9276Z" fill="#00BCBC"/>
<path fill-rule="evenodd" clip-rule="evenodd" d="M41.1372 32.8482L41.0343 32.9276L39.965 31.5418L39.8423 31.387L39.9611 31.2957L41.1372 32.8482Z" fill="#00BCBC"/>
<path opacity="0.5" fill-rule="evenodd" clip-rule="evenodd" d="M41.7987 32.3678L41.6997 32.4353L40.6067 30.847L40.7176 30.7716L41.7987 32.3678Z" fill="#1CA948"/>
<path opacity="0.5" fill-rule="evenodd" clip-rule="evenodd" d="M41.8146 32.3678L41.7156 32.4353L41.6522 32.4869L40.5474 30.8986L40.6266 30.843L40.7374 30.7676L41.8146 32.3678Z" fill="#1CA948"/>
<path fill-rule="evenodd" clip-rule="evenodd" d="M41.9015 32.3002L41.8658 32.324L40.7966 30.7039L40.8362 30.6761L41.9015 32.3002Z" fill="#3EA91C"/>
<path fill-rule="evenodd" clip-rule="evenodd" d="M41.771 30.1084L42.7175 31.7959C42.4759 31.9349 42.2423 32.0779 42.0086 32.2287L40.9592 30.5968C41.2246 30.4261 41.4978 30.2633 41.771 30.1084Z" fill="#34DBDB"/>
<path fill-rule="evenodd" clip-rule="evenodd" d="M42.8837 31.7047L42.8402 31.7246L41.9175 30.0291L41.961 30.0052L42.0561 30.18L42.8837 31.7047Z" fill="#3EA91C"/>
<path fill-rule="evenodd" clip-rule="evenodd" d="M43.2361 31.518L43.0143 31.6332L42.9747 31.657L42.8837 31.7047L42.0481 30.1799L42.1471 30.1283C42.1621 30.1188 42.178 30.1108 42.1946 30.1045L42.4441 29.9854L43.2361 31.518Z" fill="#3EA91C"/>
<path fill-rule="evenodd" clip-rule="evenodd" d="M43.2361 31.5101L42.4441 29.9853L42.353 29.8066H42.3728L43.2361 31.5101Z" fill="#3EA91C"/>
<path opacity="0.57" fill-rule="evenodd" clip-rule="evenodd" d="M43.0143 31.633L42.9747 31.6569L42.1549 30.1281L41.8738 29.5881H41.9213L42.2025 30.1162L43.0143 31.633Z" fill="white" stroke="white" stroke-opacity="0.69" stroke-width="0.0789787"/>
<path fill-rule="evenodd" clip-rule="evenodd" d="M43.3033 31.4823H43.2835L42.4163 29.767L43.3033 31.4823Z" fill="#3EA91C"/>
<path fill-rule="evenodd" clip-rule="evenodd" d="M43.6599 31.3076L43.3035 31.4823L42.5115 29.9298L42.9075 29.7352L43.6599 31.3076Z" fill="#3EA91C"/>
<path fill-rule="evenodd" clip-rule="evenodd" d="M43.6759 31.2997L42.9433 29.7114L42.8403 29.5565H42.8601L43.6759 31.2997Z" fill="#3EA91C"/>
<path fill-rule="evenodd" clip-rule="evenodd" d="M45.331 30.6524H45.2756L44.6855 28.8378H44.7489L45.331 30.6524Z" fill="#34DBDB"/>
<path fill-rule="evenodd" clip-rule="evenodd" d="M44.9788 28.7465L45.5332 30.5889L45.4659 30.6087L44.9036 28.7663L44.9788 28.7465Z" fill="#34DBDB"/>
<path fill-rule="evenodd" clip-rule="evenodd" d="M45.7075 30.5373H45.6718L45.1372 28.6989H45.1808L45.7075 30.5373Z" fill="#3EA91C"/>
<path opacity="0.5" fill-rule="evenodd" clip-rule="evenodd" d="M45.6557 28.5599L46.1269 30.4222H46.0636H46.024L45.5171 28.5957H45.5409H45.5844L45.6557 28.5599Z" fill="#1CA948"/>
<path fill-rule="evenodd" clip-rule="evenodd" d="M45.5846 28.5798L46.0637 30.4381H46.0241L45.541 28.5878H45.5846V28.5798Z" fill="#3EA91C"/>
<path opacity="0.5" fill-rule="evenodd" clip-rule="evenodd" d="M46.4397 28.3971L46.8001 30.2633L46.6615 30.2911C46.5229 30.3189 46.3882 30.3507 46.2655 30.3864L45.8101 28.5202C45.9645 28.4805 46.1229 28.4447 46.2773 28.413L46.4041 28.3971H46.4318H46.4397Z" fill="#1CA948"/>
<path opacity="0.5" fill-rule="evenodd" clip-rule="evenodd" d="M46.4041 28.3971L46.8001 30.2792L46.6615 30.307L46.2655 28.4288L46.1824 28.0318L46.3249 28L46.4041 28.3971Z" fill="#008DFF" fill-opacity="0.83"/>
<path fill-rule="evenodd" clip-rule="evenodd" d="M47.8377 28.1667L48.0436 30.0767C47.8417 30.0767 47.6476 30.1243 47.4417 30.1521C47.3783 30.1521 47.311 30.1521 47.2477 30.1878C47.1011 30.1878 46.9586 30.2355 46.816 30.2633L46.4319 28.397C46.5942 28.3653 46.7606 28.3335 46.9229 28.3097L47.0378 28.2898H47.1447C47.3823 28.2223 47.5922 28.1906 47.8377 28.1667Z" fill="#49B64B" fill-opacity="0.9"/>
<path opacity="0.5" fill-rule="evenodd" clip-rule="evenodd" d="M47.4415 30.1522C47.3781 30.1522 47.3108 30.1522 47.2475 30.188L46.9307 28.2939H47.0455H47.1524L47.4415 30.1522Z" fill="#1CA948"/>
<path fill-rule="evenodd" clip-rule="evenodd" d="M48.5626 30.0291H48.4676L48.321 28.1232H48.428L48.5626 30.0291Z" fill="#00BCBC"/>
<path fill-rule="evenodd" clip-rule="evenodd" d="M48.7207 30.0211H48.5979L48.4712 28.1112H48.6098L48.7207 30.0211Z" fill="#2BCEB4"/>
<path fill-rule="evenodd" clip-rule="evenodd" d="M49.1326 30.0013H49.089L49.0256 28.0835H49.0771L49.1326 30.0013Z" fill="#3EA91C"/>
<path opacity="0.5" fill-rule="evenodd" clip-rule="evenodd" d="M49.7426 28.0754L49.7188 29.9853H49.1763L49.1406 28.0794L49.7426 28.0754Z" fill="#1CA948"/>
<path fill-rule="evenodd" clip-rule="evenodd" d="M50.8515 28.1311L50.6931 30.041C50.4159 30.0172 50.1347 30.0013 49.8496 29.9973L49.8932 28.0795C50.2139 28.0874 50.5347 28.1033 50.8515 28.1311Z" fill="#49B64B" fill-opacity="0.9"/>
<path fill-rule="evenodd" clip-rule="evenodd" d="M51.0848 28.1548L50.8987 30.0568H50.7561L50.9264 28.1509L51.0848 28.1548Z" fill="#58E661"/>
<path fill-rule="evenodd" clip-rule="evenodd" d="M51.4415 28.1906L51.2118 30.0926H51.0415L51.2474 28.1708L51.4415 28.1906Z" fill="#49B64B" fill-opacity="0.9"/>
<path fill-rule="evenodd" clip-rule="evenodd" d="M51.9203 28.2581L51.6312 30.1481L51.3342 30.1084L51.5837 28.2104L51.9203 28.2581Z" fill="#49B64B" fill-opacity="0.9"/>
<path fill-rule="evenodd" clip-rule="evenodd" d="M52.4866 28.3533L52.1302 30.2354L51.853 30.1838L52.1698 28.2977L52.4866 28.3533Z" fill="#49B64B" fill-opacity="0.9"/>
<path fill-rule="evenodd" clip-rule="evenodd" d="M52.8748 28.4329L52.8312 28.6274L52.4708 30.3031C52.3732 30.2792 52.2741 30.2594 52.1738 30.2435L52.5382 28.3654L52.8748 28.4329Z" fill="#49B64B" fill-opacity="0.9"/>
<path fill-rule="evenodd" clip-rule="evenodd" d="M53.5322 28.7941L53.0966 30.4538C52.8907 30.3982 52.6808 30.3466 52.4709 30.303L52.8313 28.6273C53.0689 28.6789 53.3026 28.7345 53.5322 28.7941Z" fill="#49B64B" fill-opacity="0.9"/>
<path fill-rule="evenodd" clip-rule="evenodd" d="M53.928 28.6989L53.3974 30.5373C53.2984 30.5055 53.1994 30.4777 53.0964 30.4539L53.532 28.7942L53.5835 28.5996L53.928 28.6989Z" fill="#49B64B" fill-opacity="0.9"/>
<path fill-rule="evenodd" clip-rule="evenodd" d="M54.6491 28.9252L54.0313 30.7358C53.8214 30.6643 53.6115 30.5968 53.3977 30.5373L53.9283 28.6989C54.1699 28.7703 54.4075 28.8458 54.6491 28.9252Z" fill="#49B64B" fill-opacity="0.9"/>
<path fill-rule="evenodd" clip-rule="evenodd" d="M54.8705 29.0046L54.225 30.8033L54.0864 30.7556L54.72 28.949L54.8705 29.0046Z" fill="#00BCBC"/>
<path opacity="0.5" fill-rule="evenodd" clip-rule="evenodd" d="M58.3436 30.7558L57.2784 32.344L56.9259 32.1177L56.8111 32.0462C56.0584 31.5813 55.2627 31.1904 54.4351 30.8789L55.1162 29.092C56.0542 29.4464 56.9559 29.8905 57.809 30.4183C57.8543 30.4418 57.8979 30.4683 57.9397 30.4977L58.3436 30.7558Z" fill="#1CA948"/>
<path opacity="0.5" fill-rule="evenodd" clip-rule="evenodd" d="M58.1535 30.16L57.9396 30.4976L56.9259 32.1216L56.811 32.0501L57.809 30.4181L58.0188 30.0767L58.1535 30.16Z" fill="#008EFF" fill-opacity="0.42"/>
<path opacity="0.5" fill-rule="evenodd" clip-rule="evenodd" d="M58.5693 30.9106L57.4922 32.4869L57.4566 32.4631L57.4011 32.4274L58.4822 30.8391L58.5456 30.8828L58.5852 30.9106H58.5693Z" fill="#1CA948"/>
<path fill-rule="evenodd" clip-rule="evenodd" d="M58.5537 30.8986L57.4607 32.4869L57.425 32.463L58.5141 30.8748L58.5537 30.8986Z" fill="#3EA91C"/>
<path fill-rule="evenodd" clip-rule="evenodd" d="M58.8941 31.1408L57.7576 32.6934L57.7219 32.6656L58.8545 31.113L58.8941 31.1408Z" fill="#3EA91C"/>
<path fill-rule="evenodd" clip-rule="evenodd" d="M59.0764 31.2839L57.928 32.8205L57.8884 32.7649L59.0408 31.2283L59.0764 31.2839Z" fill="#34DBDB"/>
<path fill-rule="evenodd" clip-rule="evenodd" d="M59.2704 31.4226L58.0824 32.9394L58.0388 32.9077L59.2268 31.3829L59.2704 31.4226Z" fill="#34DBDB"/>
<path fill-rule="evenodd" clip-rule="evenodd" d="M60.6603 32.6496L59.3059 34.0235C58.9289 33.653 58.5323 33.3031 58.1179 32.9752L59.3059 31.4624C59.7785 31.8333 60.2306 32.2296 60.6603 32.6496Z" fill="#34DBDB"/>
<path fill-rule="evenodd" clip-rule="evenodd" d="M60.7475 32.7371L60.6089 32.876L59.3852 34.099L59.3694 34.0831L60.7316 32.7212L60.7475 32.7371Z" fill="#3EA91C"/>
<path fill-rule="evenodd" clip-rule="evenodd" d="M60.9217 33.1976L59.6624 34.3888L59.3892 34.1069L60.6128 32.8839C60.7197 32.9871 60.8187 33.0904 60.9217 33.2016V33.1976Z" fill="#3EA91C"/>
<path fill-rule="evenodd" clip-rule="evenodd" d="M61.0799 33.0786L59.6741 34.4008L60.9334 33.2096L61.0799 33.0746V33.0786Z" fill="#3EA91C"/>
<path fill-rule="evenodd" clip-rule="evenodd" d="M61.1237 33.1222L60.9772 33.2572L59.71 34.4484L61.1197 33.1301L61.1237 33.1222Z" fill="#3EA91C"/>
<path fill-rule="evenodd" clip-rule="evenodd" d="M61.2783 33.5907L59.9794 34.7502L59.9081 34.6747L59.8685 34.6231C59.8131 34.5636 59.7576 34.5 59.6982 34.4405L60.9655 33.2493L61.1555 33.4597L61.1872 33.4955L61.2783 33.5907Z" fill="#3EA91C"/>
<path fill-rule="evenodd" clip-rule="evenodd" d="M61.6465 33.1063L61.199 33.5034L59.908 34.6588L59.8684 34.6231L61.1554 33.4676L61.5989 33.0706L61.6465 33.1063Z" fill="#5498EE" stroke="white" stroke-opacity="0.5" stroke-width="0.0789787"/>
<path fill-rule="evenodd" clip-rule="evenodd" d="M61.4522 33.4755L59.991 34.7501L61.2899 33.6065L61.4403 33.4755H61.4522Z" fill="#3EA91C"/>
<path fill-rule="evenodd" clip-rule="evenodd" d="M61.6465 33.1063L61.199 33.5034L59.908 34.6588L59.8684 34.6231L61.1554 33.4676L61.5989 33.0706L61.6465 33.1063Z" fill="#008EFF" fill-opacity="0.42"/>
<path fill-rule="evenodd" clip-rule="evenodd" d="M62.1652 34.3532L60.6208 35.5444C60.4545 35.322 60.2803 35.1036 60.1021 34.8932L61.5673 33.6384C61.7732 33.8608 61.9712 34.1109 62.1652 34.3532Z" fill="#34DBDB"/>
<path fill-rule="evenodd" clip-rule="evenodd" d="M62.276 34.5159L60.7237 35.6634L60.7 35.6317L62.2444 34.4762L62.276 34.5159Z" fill="#3EA91C"/>
<path opacity="0.5" fill-rule="evenodd" clip-rule="evenodd" d="M62.4702 34.782L60.8861 35.8977L60.8347 35.8263L60.7673 35.731L62.3513 34.5874C62.38 34.6228 62.4064 34.6599 62.4306 34.6986C62.4345 34.7502 62.4504 34.7502 62.4702 34.782Z" fill="#1CA948"/>
<path opacity="0.5" fill-rule="evenodd" clip-rule="evenodd" d="M62.4106 34.7025L60.8266 35.8262L60.7593 35.7309L62.3195 34.5913C62.3522 34.6264 62.3827 34.6635 62.4106 34.7025Z" fill="#1CA948"/>
<path fill-rule="evenodd" clip-rule="evenodd" d="M62.9372 35.4847L62.7709 35.5919L61.3017 36.517C61.2816 36.4786 61.2591 36.4415 61.2344 36.4059L62.862 35.3616C62.8893 35.4012 62.9144 35.4423 62.9372 35.4847Z" fill="#00BCBC"/>
<path fill-rule="evenodd" clip-rule="evenodd" d="M62.9492 35.8778L61.4523 36.7712L61.2979 36.5171L62.767 35.5919L62.9492 35.8778Z" fill="#00BCBC"/>
<path fill-rule="evenodd" clip-rule="evenodd" d="M63.1275 35.7905L61.4524 36.7872L62.9453 35.8938L63.1156 35.7905C63.1195 35.7917 63.1236 35.7917 63.1275 35.7905Z" fill="#00BCBC"/>
<path fill-rule="evenodd" clip-rule="evenodd" d="M63.2937 36.0763L61.6068 37.0372C61.5672 36.9605 61.5236 36.885 61.4761 36.8109L63.1433 35.8182L63.2937 36.0763Z" fill="#00BCBC"/>
<path fill-rule="evenodd" clip-rule="evenodd" d="M63.6146 36.6721L63.4404 36.7594L61.892 37.5536C61.8247 37.4265 61.7574 37.2955 61.6821 37.1565L63.381 36.2155C63.4602 36.3783 63.5394 36.5212 63.6146 36.6721Z" fill="#4AB64A" fill-opacity="0.89"/>
<path fill-rule="evenodd" clip-rule="evenodd" d="M63.6303 37.1325L62.0463 37.887C61.9908 37.7718 61.9354 37.6606 61.876 37.5455L63.4244 36.7513L63.6303 37.1325Z" fill="#4AB64A" fill-opacity="0.89"/>
<path fill-rule="evenodd" clip-rule="evenodd" d="M64.0107 37.4979L62.2446 38.2841C62.1891 38.1571 62.1297 38.026 62.0703 37.8871L63.6543 37.1326L63.8325 37.0453C63.8761 37.2041 63.9474 37.351 64.0107 37.4979Z" fill="#4AB64A" fill-opacity="0.89"/>
<path opacity="0.5" fill-rule="evenodd" clip-rule="evenodd" d="M64.1374 37.7839L62.3435 38.5383C62.3435 38.4986 62.3118 38.4549 62.292 38.4152L64.074 37.6449C64.0978 37.6925 64.1136 37.7402 64.1374 37.7839Z" fill="#1CA948"/>
<path fill-rule="evenodd" clip-rule="evenodd" d="M64.165 37.8593L62.3711 38.6018V38.5621L64.161 37.8116C64.1639 37.8274 64.1652 37.8433 64.165 37.8593Z" fill="#3EA91C"/>
<path opacity="0.5" fill-rule="evenodd" clip-rule="evenodd" d="M64.256 38.0777L62.4542 38.7964C62.4521 38.79 62.4521 38.783 62.4542 38.7766L62.3948 38.6336L64.1887 37.8911C64.2124 37.9467 64.2362 38.0023 64.256 38.0579C64.2565 38.0645 64.2565 38.0711 64.256 38.0777Z" fill="#1CA948"/>
<path opacity="0.5" fill-rule="evenodd" clip-rule="evenodd" d="M64.2243 38.0459L62.4224 38.7646L62.363 38.6216L64.1569 37.8831C64.1965 37.9267 64.2243 37.9903 64.2243 38.0459Z" fill="#1CA948"/>
<path opacity="0.5" fill-rule="evenodd" clip-rule="evenodd" d="M64.3114 38.2246L62.4977 38.9234L62.4502 38.7963L64.252 38.0776C64.2758 38.1253 64.2877 38.1729 64.3114 38.2246Z" fill="#1CA948"/>
<path opacity="0.5" fill-rule="evenodd" clip-rule="evenodd" d="M65.3094 42.5209L63.3571 42.6916C63.2524 41.4155 62.9698 40.1605 62.5176 38.9631L64.3313 38.2722C64.8503 39.6367 65.1795 41.0663 65.3094 42.5209Z" fill="#1CA948"/>
<path fill-rule="evenodd" clip-rule="evenodd" d="M65.3212 42.6399L63.3689 42.7988C63.3669 42.7843 63.3669 42.7696 63.3689 42.7551L65.3212 42.5923C65.3193 42.6081 65.3193 42.6241 65.3212 42.6399Z" fill="#3EA91C"/>
<path fill-rule="evenodd" clip-rule="evenodd" d="M65.3411 42.9218L63.3809 43.0449C63.3809 42.9933 63.3809 42.9417 63.3809 42.8901L65.3371 42.7432L65.3411 42.9218Z" fill="#00BCBC"/>
<path fill-rule="evenodd" clip-rule="evenodd" d="M65.353 43.1839H65.155L63.3928 43.2673C63.3969 43.1945 63.3969 43.1216 63.3928 43.0489L65.353 42.9258V43.1839Z" fill="#00BCBC"/>
<path fill-rule="evenodd" clip-rule="evenodd" d="M65.1707 43.6128L63.4045 43.6485C63.4045 43.5215 63.4045 43.3984 63.4045 43.2753L65.1668 43.1919C65.1628 43.3348 65.1668 43.4857 65.1707 43.6128Z" fill="#00BCBC"/>
<path fill-rule="evenodd" clip-rule="evenodd" d="M65.3689 43.6088V43.8827H63.3889C63.3889 43.8033 63.3889 43.7239 63.3889 43.6485L65.1551 43.6127L65.3689 43.6088Z" fill="#00BCBC"/>
<path opacity="0.5" fill-rule="evenodd" clip-rule="evenodd" d="M43.0143 31.633L42.9747 31.6569L42.1549 30.1281L41.8738 29.5881H41.9213L42.2025 30.1162L43.0143 31.633Z" fill="#008DFF" fill-opacity="0.83"/>
<path d="M32.1718 41.2185V45.7927C32.1841 46.1146 32.1235 46.4351 31.9946 46.7301C31.8656 47.0252 31.6717 47.2871 31.4274 47.4962C30.8755 47.9422 30.1789 48.1684 29.4711 48.1315C28.6872 48.1349 27.9208 47.8995 27.2733 47.4565L27.792 46.4558C28.2529 46.7889 28.8079 46.9656 29.3761 46.9601C29.7308 46.9812 30.0815 46.8757 30.3661 46.6623C30.4862 46.5639 30.5818 46.4387 30.645 46.2967C30.7083 46.1547 30.7375 45.9997 30.7304 45.8444V45.2646C30.5588 45.505 30.3294 45.6979 30.0636 45.8257C29.7978 45.9534 29.5041 46.0117 29.2097 45.9952C28.9138 46.0047 28.6192 45.9504 28.346 45.836C28.0727 45.7216 27.8271 45.5498 27.6257 45.3321C27.1981 44.8443 26.9741 44.2102 27 43.5612C26.9717 42.9305 27.1874 42.3131 27.602 41.8379C27.8007 41.6169 28.0458 41.4427 28.3197 41.3281C28.5936 41.2134 28.8895 41.1611 29.186 41.1748C29.4829 41.1578 29.7795 41.2149 30.049 41.341C30.3185 41.4671 30.5527 41.6583 30.7304 41.8975V41.2185H32.1718ZM29.5463 44.8993C29.7059 44.9059 29.865 44.8777 30.0127 44.8167C30.1604 44.7557 30.2931 44.6633 30.4017 44.5459C30.6147 44.2765 30.7306 43.9427 30.7306 43.5989C30.7306 43.2551 30.6147 42.9214 30.4017 42.6519C30.2938 42.5334 30.1613 42.44 30.0135 42.3782C29.8657 42.3165 29.7063 42.2879 29.5463 42.2946C29.3859 42.2897 29.2263 42.3199 29.0786 42.383C28.9309 42.446 28.7987 42.5405 28.691 42.6599C28.476 42.9284 28.3588 43.2625 28.3588 43.6069C28.3588 43.9512 28.476 44.2853 28.691 44.5539C28.8006 44.6694 28.9337 44.76 29.0813 44.8196C29.2288 44.8792 29.3874 44.9064 29.5463 44.8993Z" fill="#77D4FD"/>
<path d="M35.1934 41.1748C35.5557 41.1449 35.92 41.2013 36.2565 41.3393C36.593 41.4773 36.8922 41.693 37.1298 41.9689C37.5935 42.6064 37.7948 43.3983 37.6922 44.1806H34.045C34.109 44.4766 34.2753 44.7405 34.5143 44.9257C34.7534 45.1109 35.0499 45.2056 35.3518 45.1931C35.5888 45.1986 35.8244 45.1557 36.0443 45.0669C36.2642 44.9782 36.4638 44.8455 36.6309 44.6769L37.3952 45.4472C37.1211 45.7444 36.7856 45.978 36.4121 46.1316C36.0387 46.2852 35.6362 46.3552 35.233 46.3367C34.8811 46.3538 34.5293 46.3004 34.1982 46.1798C33.8671 46.0591 33.5633 45.8735 33.3044 45.6339C33.0643 45.3908 32.8767 45.1006 32.7534 44.7816C32.6301 44.4625 32.5736 44.1214 32.5877 43.7795C32.5715 43.4326 32.6276 43.086 32.7524 42.762C32.8772 42.4379 33.0679 42.1435 33.3124 41.8974C33.5609 41.6558 33.8558 41.4672 34.1791 41.343C34.5024 41.2188 34.8474 41.1615 35.1934 41.1748ZM34.0054 43.3269H36.3101C36.312 43.0301 36.1967 42.7446 35.9893 42.5327C35.8847 42.4312 35.7605 42.3521 35.6243 42.3002C35.4881 42.2483 35.3429 42.2247 35.1973 42.231C35.052 42.2263 34.9072 42.2506 34.7712 42.3024C34.6353 42.3542 34.5109 42.4325 34.4053 42.5327C34.1917 42.747 34.0552 43.0263 34.0172 43.3269H34.0054Z" fill="#77D4FD"/>
<path d="M41.3589 41.1628C41.6068 41.151 41.8544 41.1915 42.0857 41.2818C42.317 41.3721 42.5267 41.5101 42.7013 41.687C42.8747 41.875 43.0088 42.0958 43.0959 42.3365C43.1829 42.5772 43.2211 42.8329 43.2082 43.0886V46.2652H41.7628V43.5135C41.7708 43.3769 41.7507 43.2402 41.7037 43.1117C41.6566 42.9833 41.5838 42.866 41.4896 42.767C41.3962 42.6704 41.2831 42.5952 41.158 42.5465C41.0329 42.4979 40.8988 42.4769 40.7649 42.4851C40.6049 42.4808 40.446 42.512 40.2995 42.5766C40.153 42.6411 40.0225 42.7373 39.9174 42.8583C39.7049 43.1153 39.5949 43.442 39.6086 43.7756V46.2652H38.1592V41.2184H39.6086V42.0999C39.7856 41.7969 40.0428 41.549 40.3518 41.3836C40.6607 41.2182 41.0093 41.1418 41.3589 41.1628Z" fill="#77D4FD"/>
<path d="M46.1626 41.1748C46.525 41.1449 46.8892 41.2013 47.2257 41.3393C47.5622 41.4773 47.8615 41.693 48.0991 41.9689C48.5523 42.6078 48.7462 43.3957 48.6416 44.1726H45.0142C45.0801 44.4688 45.2467 44.7327 45.4855 44.9191C45.7259 45.1002 46.0205 45.194 46.321 45.1852C46.5561 45.1906 46.7899 45.1484 47.0083 45.0611C47.2268 44.9738 47.4254 44.8431 47.5922 44.6769L48.3525 45.4472C48.0785 45.7444 47.743 45.978 47.3695 46.1316C46.996 46.2852 46.5936 46.3552 46.1903 46.3367C45.8385 46.3538 45.4867 46.3004 45.1556 46.1798C44.8245 46.0591 44.5206 45.8735 44.2618 45.6339C44.0222 45.3906 43.8352 45.1003 43.7125 44.7812C43.5899 44.4622 43.5342 44.1212 43.549 43.7795C43.5339 43.432 43.5912 43.0851 43.7174 42.761C43.8435 42.437 44.0357 42.1428 44.2816 41.8974C44.5302 41.6558 44.825 41.4672 45.1483 41.343C45.4716 41.2188 45.8167 41.1615 46.1626 41.1748ZM44.9746 43.3269H47.2754C47.2766 43.031 47.163 42.7462 46.9586 42.5327C46.8538 42.4314 46.7296 42.3524 46.5934 42.3005C46.4573 42.2486 46.3121 42.225 46.1666 42.231C45.8732 42.2225 45.5883 42.331 45.3746 42.5327C45.1592 42.7457 45.0224 43.0257 44.9865 43.3269H44.9746Z" fill="#77D4FD"/>
<path d="M51.9481 44.9192L52.2451 45.9794C51.8452 46.2095 51.3914 46.3287 50.9304 46.3248C50.5112 46.3432 50.1008 46.2013 49.782 45.9278C49.6304 45.778 49.5127 45.5973 49.4369 45.398C49.3611 45.1986 49.3288 44.9852 49.3424 44.7723V42.4375H48.6494V41.4449H49.3543V40.0591H50.7918V41.4449H52.1659V42.4455H50.7918V44.5261C50.777 44.6857 50.8206 44.8452 50.9146 44.9748C50.9619 45.0234 51.0197 45.0605 51.0835 45.0832C51.1474 45.1059 51.2155 45.1136 51.2828 45.1058C51.5151 45.0904 51.7416 45.0269 51.9481 44.9192Z" fill="#77D4FD"/>
<path d="M54.1105 46.2653H52.6611V41.2185H54.1105V46.2653Z" fill="#77D4FD"/>
<path d="M61.4525 46.0904L62.003 47.0592C61.7459 47.2905 61.4458 47.4686 61.1199 47.5834C60.8093 47.7108 60.4774 47.7782 60.1418 47.7819C59.7065 47.779 59.283 47.6402 58.93 47.3848C58.5455 47.1092 58.2353 46.7422 58.0271 46.3167C57.1103 46.3183 56.2281 45.9657 55.564 45.332C55.2458 45.029 54.9945 44.6627 54.826 44.2565C54.6576 43.8503 54.5757 43.4132 54.5858 42.9734C54.5739 42.5273 54.6575 42.0837 54.831 41.6728C55.0045 41.2618 55.2639 40.8929 55.5917 40.591C56.2783 39.9539 57.1871 39.6131 58.1222 39.642C58.5882 39.6269 59.0525 39.7047 59.4883 39.8711C59.924 40.0374 60.3225 40.2888 60.6605 40.6108C60.9908 40.9112 61.2524 41.2796 61.4274 41.6908C61.6024 42.102 61.6866 42.5463 61.6743 42.9932C61.6797 43.6826 61.4631 44.3552 61.0565 44.9111C60.6463 45.4637 60.0789 45.8789 59.429 46.1023C59.5319 46.2466 59.6656 46.3661 59.8205 46.452C59.9753 46.5378 60.1473 46.588 60.3239 46.5986C60.7436 46.5505 61.1379 46.3729 61.4525 46.0904ZM56.1105 42.9813C56.1057 43.2507 56.1549 43.5183 56.2551 43.7683C56.3553 44.0182 56.5046 44.2455 56.6941 44.4366C56.8835 44.6276 57.1093 44.7786 57.358 44.8806C57.6067 44.9826 57.8733 45.0334 58.142 45.0302C58.4046 45.0343 58.6652 44.9843 58.9077 44.8832C59.1502 44.7821 59.3694 44.6321 59.5517 44.4425C59.7413 44.2504 59.8904 44.0221 59.9904 43.7711C60.0904 43.5201 60.1392 43.2515 60.1339 42.9813C60.1409 42.7139 60.0928 42.4478 59.9927 42.1998C59.8925 41.9518 59.7424 41.7272 59.5517 41.54C59.3702 41.3491 59.1512 41.198 58.9086 41.0962C58.666 40.9943 58.4049 40.944 58.142 40.9483C57.8743 40.9441 57.6085 40.9944 57.3608 41.0961C57.113 41.1978 56.8884 41.3488 56.7005 41.54C56.5092 41.7271 56.3581 41.9515 56.2566 42.1994C56.1551 42.4473 56.1054 42.7134 56.1105 42.9813Z" fill="#77D4FD"/>
<path d="M53.354 39.2092C53.2497 39.2053 53.1457 39.2235 53.0488 39.2624C52.9519 39.3014 52.8643 39.3604 52.7917 39.4356C52.651 39.5958 52.5735 39.8019 52.5735 40.0153C52.5735 40.2287 52.651 40.4348 52.7917 40.595C52.8643 40.6702 52.9519 40.7291 53.0488 40.7681C53.1457 40.8071 53.2497 40.8253 53.354 40.8213C53.4602 40.8264 53.5663 40.8089 53.6653 40.7699C53.7643 40.7309 53.8539 40.6713 53.9282 40.595C54.0665 40.4337 54.1425 40.228 54.1425 40.0153C54.1425 39.8026 54.0665 39.5969 53.9282 39.4356C53.8539 39.3593 53.7643 39.2997 53.6653 39.2607C53.5663 39.2217 53.4602 39.2041 53.354 39.2092Z" fill="#34C347"/>
</g>
</g>
<defs>
<filter id="filter0_d_2288_10935" x="7" y="4" width="82" height="82" filterUnits="userSpaceOnUse" color-interpolation-filters="sRGB">
<feFlood flood-opacity="0" result="BackgroundImageFix"/>
<feColorMatrix in="SourceAlpha" type="matrix" values="0 0 0 0 0 0 0 0 0 0 0 0 0 0 0 0 0 0 127 0" result="hardAlpha"/>
<feOffset dy="1"/>
<feGaussianBlur stdDeviation="6"/>
<feComposite in2="hardAlpha" operator="out"/>
<feColorMatrix type="matrix" values="0 0 0 0 0 0 0 0 0 0 0 0 0 0 0 0 0 0 0.12 0"/>
<feBlend mode="normal" in2="BackgroundImageFix" result="effect1_dropShadow_2288_10935"/>
<feBlend mode="normal" in="SourceGraphic" in2="effect1_dropShadow_2288_10935" result="shape"/>
</filter>
<clipPath id="clip0_2288_10935">
<rect width="465" height="136" fill="white"/>
</clipPath>
<clipPath id="clip1_2288_10935">
<rect width="38.4124" height="34.8224" fill="white" transform="translate(27 28)"/>
</clipPath>
</defs>
</svg>
