<svg width="64" height="64" viewBox="0 0 64 64" fill="none" xmlns="http://www.w3.org/2000/svg">
<path d="M64 64V0H0L64 64Z" fill="#72C420"/>
<path d="M42.8778 12.5061L36.7067 18.6772L35.5797 17.5503L36.779 10.9814L36.7338 10.9362L32.8497 14.8203L31.545 13.5155L37.7161 7.34442L38.8611 8.48945L37.6438 15.0342L37.698 15.0884L41.5791 11.2074L42.8778 12.5061ZM37.7846 19.7552L43.9558 13.5841L48.114 17.7424L47.0383 18.8181L44.1848 15.9645L42.7143 17.435L45.3539 20.0746L44.2782 21.1503L41.6386 18.5107L40.1651 19.9842L43.0307 22.8498L41.955 23.9255L37.7846 19.7552ZM44.3693 26.3399L48.7747 18.403L50.1999 19.8283L46.9336 25.1376L46.9848 25.1888L52.3996 22.0279L53.62 23.2483L50.447 28.6691L50.5013 28.7234L55.8196 25.448L57.2449 26.8732L49.308 31.2786L48.0364 30.007L50.896 24.7971L50.8478 24.7489L45.6409 27.6115L44.3693 26.3399Z" fill="white"/>
</svg>
