<svg width="80" height="80" viewBox="0 0 80 80" fill="none" xmlns="http://www.w3.org/2000/svg">
<g clip-path="url(#clip0_1917_26597)">
<rect width="80" height="80" fill="white"/>
<circle cx="40" cy="40" r="35" stroke="black" stroke-width="2" stroke-linecap="round" stroke-dasharray="0.1 8"/>
<path d="M28 55.1746H33.2206C33.9013 55.1746 34.5778 55.2556 35.2376 55.4176L40.7538 56.758C41.9507 57.0496 43.1976 57.078 44.4069 56.8431L50.5059 55.6565C52.1171 55.3426 53.5992 54.5712 54.7607 53.4413L59.0758 49.2437C60.3081 48.047 60.3081 46.1051 59.0758 44.9064C57.9663 43.8271 56.2095 43.7057 54.9543 44.6209L49.9252 48.29C49.205 48.8165 48.3286 49.0999 47.4273 49.0999H42.571L45.6621 49.0998C47.4044 49.0998 48.8157 47.7269 48.8157 46.0321V45.4186C48.8157 44.0113 47.8311 42.7842 46.4282 42.444L41.6572 41.2838C40.8808 41.0954 40.0856 41.0003 39.2863 41.0003C37.3567 41.0003 33.8638 42.5979 33.8638 42.5979L28 45.05M20 44.2003L20 55.8003C20 56.9204 20 57.4804 20.218 57.9083C20.4097 58.2846 20.7157 58.5905 21.092 58.7823C21.5198 59.0003 22.0799 59.0003 23.2 59.0003H24.8C25.9201 59.0003 26.4802 59.0003 26.908 58.7823C27.2843 58.5905 27.5903 58.2846 27.782 57.9083C28 57.4804 28 56.9204 28 55.8003V44.2003C28 43.0802 28 42.5201 27.782 42.0923C27.5903 41.716 27.2843 41.41 26.908 41.2183C26.4802 41.0003 25.9201 41.0003 24.8 41.0003H23.2C22.0799 41.0003 21.5198 41.0003 21.092 41.2183C20.7157 41.41 20.4097 41.716 20.218 42.0923C20 42.5201 20 43.0802 20 44.2003ZM50.3827 22.1848C49.1891 19.6871 46.4372 18.3638 43.7609 19.641C41.0846 20.9182 39.9444 23.947 41.0649 26.6059C41.7574 28.2492 43.7415 31.4403 45.1562 33.6383C45.6789 34.4505 45.9402 34.8566 46.322 35.0941C46.6494 35.2979 47.0593 35.4077 47.4448 35.395C47.8942 35.3801 48.3235 35.1591 49.1823 34.7171C51.5065 33.5209 54.8203 31.7494 56.2416 30.6725C58.5415 28.9301 59.1112 25.7274 57.3893 23.2928C55.6675 20.8581 52.6653 20.6185 50.3827 22.1848Z" stroke="black" stroke-width="2" stroke-linecap="round" stroke-linejoin="round"/>
<circle cx="5" cy="39" r="4" fill="white" stroke="#5498EE" stroke-width="2"/>
<circle cx="40" cy="75" r="4" fill="white" stroke="#5498EE" stroke-width="2"/>
<circle cx="40" cy="5" r="4" fill="white" stroke="#5498EE" stroke-width="2"/>
<circle cx="75" cy="40" r="4" fill="white" stroke="#5498EE" stroke-width="2"/>
</g>
<defs>
<clipPath id="clip0_1917_26597">
<rect width="80" height="80" fill="white"/>
</clipPath>
</defs>
</svg>
