<svg xmlns="http://www.w3.org/2000/svg" width="32" height="32" viewBox="0 0 32 32" fill="none">
  <path d="M18.5249 16.7745L22.0453 18.2832C22.2186 18.3574 22.4187 18.4431 22.5859 18.5326C22.7741 18.6335 23.0485 18.8034 23.2716 19.1031C23.5537 19.4822 23.6924 19.949 23.6632 20.4206C23.6402 20.7935 23.5031 21.0857 23.4005 21.273C23.3094 21.4394 23.1886 21.6205 23.084 21.7773C22.4296 22.7589 21.841 24.1155 20.9128 24.8785C20.7097 25.0454 20.4756 25.1707 20.224 25.2471C19.0611 25.6002 16.9432 25.6646 15.7482 25.1946C15.4366 25.072 15.1607 24.8732 14.9459 24.6164C14.1399 23.6525 13.926 21.9959 13.5411 20.8408L13.5309 20.8105C13.493 20.6996 13.4149 20.4703 13.3935 20.2232C13.3755 20.0141 13.3904 19.8035 13.4379 19.5991C13.6345 18.7516 14.182 17.8669 14.6215 17.1338C14.7132 16.9808 14.855 16.7747 15.0822 16.5916C15.3808 16.3508 15.7425 16.201 16.1239 16.1601C16.4141 16.1289 16.6601 16.1744 16.833 16.2177C17.401 16.3599 17.9884 16.5446 18.5249 16.7745Z" fill="#5498EE"/>
  <path fill-rule="evenodd" clip-rule="evenodd" d="M15.9997 1.33337C7.8995 1.33337 1.33301 7.89986 1.33301 16C1.33301 24.1002 7.8995 30.6667 15.9997 30.6667C24.0999 30.6667 30.6663 24.1002 30.6663 16C30.6663 7.89986 24.0999 1.33337 15.9997 1.33337ZM4.67372 12.025C4.23711 13.269 3.99967 14.6068 3.99967 16C3.99967 22.6275 9.37226 28 15.9997 28C22.6271 28 27.9997 22.6275 27.9997 16C27.9997 10.89 24.8057 6.52605 20.3052 4.79556C20.1946 6.45626 20.7746 9.07778 19.3824 10.3593C17.9224 11.7032 15.3092 12.2848 13.5249 13.0778L12.3402 14.6574C12.247 14.7817 12.1352 14.9309 12.026 15.0544C11.8989 15.198 11.7039 15.3921 11.4172 15.5352C11.045 15.721 10.6241 15.7861 10.2132 15.7215C9.89669 15.6717 9.65205 15.5457 9.48758 15.4472C9.34606 15.3625 9.19449 15.2541 9.06806 15.1637L4.67372 12.025Z" fill="#5498EE"/>
</svg>