<svg xmlns="http://www.w3.org/2000/svg" width="184" height="184" viewBox="0 0 184 184" fill="none">
  <g filter="url(#filter0_dd_1921_30271)">
    <rect x="47" y="37" width="100" height="100" rx="50" fill="#5498EE"/>
    <rect x="47.6494" y="37.6494" width="98.7013" height="98.7013" rx="49.3507" stroke="url(#paint0_linear_1921_30271)" stroke-width="1.2987"/>
    <g filter="url(#filter1_ddd_1921_30271)">
      <path d="M119.704 73.4986C119.581 70.9319 118.444 68.519 116.542 66.7909C114.641 65.0628 112.131 64.161 109.564 64.2838C102.647 64.6152 103.07 70.2775 96.1525 70.609C89.2347 70.9405 89.1146 65.2638 82.1973 65.5952C80.9267 65.6561 79.6803 65.9666 78.5299 66.5092C77.3791 67.0518 76.3466 67.8157 75.4911 68.7574C74.6358 69.6991 73.974 70.8001 73.5439 71.9976C73.1141 73.1951 72.9239 74.4656 72.9847 75.7365C73.0455 77.0074 73.356 78.254 73.8985 79.4049C74.441 80.5558 75.2045 81.5886 76.1462 82.4443C77.0875 83.3 78.1884 83.9618 79.3854 84.392C80.5827 84.8221 81.8527 85.0122 83.1234 84.9514C90.0412 84.6206 89.6191 78.9583 96.5361 78.6268C99.1024 78.504 101.612 79.4058 103.514 81.1339C105.415 82.862 106.553 85.2749 106.676 87.8417C107.007 94.7606 101.332 94.8808 101.663 101.8C101.724 103.071 102.034 104.318 102.577 105.469C103.119 106.62 103.883 107.652 104.825 108.508C105.766 109.364 106.867 110.025 108.064 110.456C109.261 110.886 110.531 111.076 111.802 111.015C113.073 110.954 114.319 110.643 115.47 110.101C116.62 109.558 117.653 108.794 118.508 107.852C119.364 106.911 120.025 105.81 120.455 104.612C120.885 103.415 121.075 102.144 121.014 100.873C120.683 93.9538 115.023 94.3769 114.691 87.4573C114.36 80.5385 120.035 80.4182 119.704 73.4986Z" fill="url(#paint1_linear_1921_30271)"/>
      <path d="M78.5853 66.6267L78.5853 66.6267C79.7203 66.0914 80.9499 65.785 82.2035 65.725L82.1973 65.5952L82.2035 65.725C83.9135 65.643 85.1979 65.9323 86.2709 66.4043C87.3469 66.8776 88.2151 67.5363 89.0962 68.2055L89.1009 68.2092C89.9777 68.8751 90.8678 69.5511 91.974 70.0377C93.0853 70.5265 94.41 70.8225 96.1588 70.7387C97.9074 70.6549 99.1977 70.2336 100.257 69.6408C101.312 69.0507 102.133 68.2926 102.942 67.5459L102.947 67.5418C103.76 66.7914 104.561 66.0527 105.587 65.4787C106.61 64.9062 107.861 64.4954 109.571 64.4135C112.103 64.2924 114.579 65.1821 116.455 66.8871C118.331 68.592 119.453 70.9725 119.574 73.5049C119.656 75.2154 119.367 76.5003 118.895 77.5736C118.422 78.65 117.763 79.5184 117.094 80.3997L117.09 80.4047C116.425 81.2816 115.749 82.1718 115.263 83.2782C114.774 84.3896 114.478 85.7145 114.562 87.4635C114.646 89.2127 115.067 90.5034 115.659 91.5631C116.249 92.618 117.007 93.4396 117.753 94.2489L117.757 94.2534C118.508 95.0667 119.246 95.8682 119.82 96.8943C120.392 97.9176 120.803 99.1689 120.885 100.879L121.014 100.873L120.885 100.879C120.945 102.133 120.757 103.387 120.333 104.568L120.333 104.568C119.909 105.75 119.256 106.836 118.412 107.765C117.568 108.694 116.549 109.448 115.414 109.983C114.279 110.519 113.049 110.825 111.796 110.885C110.542 110.945 109.289 110.758 108.108 110.334C106.927 109.909 105.841 109.256 104.912 108.412C103.983 107.568 103.23 106.549 102.694 105.413L102.577 105.469L102.694 105.413C102.159 104.278 101.853 103.048 101.793 101.794L101.663 101.8L101.793 101.794C101.711 100.083 102 98.7987 102.472 97.7253C102.945 96.649 103.604 95.7806 104.273 94.8993L104.277 94.8943C104.942 94.0174 105.618 93.1272 106.105 92.0209C106.593 90.9094 106.889 89.5845 106.805 87.8355C106.681 85.2343 105.528 82.7891 103.601 81.0378C101.674 79.2865 99.1306 78.3726 96.5299 78.4971C94.7813 78.5809 93.4911 79.0022 92.4317 79.595C91.3772 80.1851 90.5559 80.9429 89.7468 81.6895L89.742 81.6939C88.9288 82.4443 88.1274 83.1829 87.1015 83.7569C86.0783 84.3293 84.8273 84.7399 83.1172 84.8217L83.1234 84.9514L83.1171 84.8217C81.8636 84.8817 80.6106 84.6941 79.4293 84.2697C78.2484 83.8453 77.1623 83.1924 76.2335 82.3482L76.2335 82.3482C75.3045 81.504 74.5512 80.485 74.016 79.3495C73.4808 78.214 73.1744 76.9842 73.1144 75.7303C73.0545 74.4764 73.242 73.2229 73.6661 72.0415C74.0905 70.8601 74.7434 69.7738 75.5872 68.8447C76.4313 67.9157 77.45 67.162 78.5853 66.6267Z" stroke="white" stroke-width="0.25974"/>
    </g>
  </g>
  <defs>
    <filter id="filter0_dd_1921_30271" x="0.246754" y="0.636364" width="183.117" height="183.117" filterUnits="userSpaceOnUse" color-interpolation-filters="sRGB">
      <feFlood flood-opacity="0" result="BackgroundImageFix"/>
      <feColorMatrix in="SourceAlpha" type="matrix" values="0 0 0 0 0 0 0 0 0 0 0 0 0 0 0 0 0 0 127 0" result="hardAlpha"/>
      <feOffset dx="-1.2987" dy="1.2987"/>
      <feGaussianBlur stdDeviation="2.5974"/>
      <feComposite in2="hardAlpha" operator="out"/>
      <feColorMatrix type="matrix" values="0 0 0 0 0 0 0 0 0 0 0 0 0 0 0 0 0 0 0.32 0"/>
      <feBlend mode="normal" in2="BackgroundImageFix" result="effect1_dropShadow_1921_30271"/>
      <feColorMatrix in="SourceAlpha" type="matrix" values="0 0 0 0 0 0 0 0 0 0 0 0 0 0 0 0 0 0 127 0" result="hardAlpha"/>
      <feOffset dx="-5.19481" dy="5.19481"/>
      <feGaussianBlur stdDeviation="20.7792"/>
      <feComposite in2="hardAlpha" operator="out"/>
      <feColorMatrix type="matrix" values="0 0 0 0 0 0 0 0 0 0 0 0 0 0 0 0 0 0 0.16 0"/>
      <feBlend mode="normal" in2="effect1_dropShadow_1921_30271" result="effect2_dropShadow_1921_30271"/>
      <feBlend mode="normal" in="SourceGraphic" in2="effect2_dropShadow_1921_30271" result="shape"/>
    </filter>
    <filter id="filter1_ddd_1921_30271" x="52.1944" y="53.8831" width="79.2206" height="77.9221" filterUnits="userSpaceOnUse" color-interpolation-filters="sRGB">
      <feFlood flood-opacity="0" result="BackgroundImageFix"/>
      <feColorMatrix in="SourceAlpha" type="matrix" values="0 0 0 0 0 0 0 0 0 0 0 0 0 0 0 0 0 0 127 0" result="hardAlpha"/>
      <feOffset dx="-0.649351" dy="0.649351"/>
      <feComposite in2="hardAlpha" operator="out"/>
      <feColorMatrix type="matrix" values="0 0 0 0 0 0 0 0 0 0 0 0 0 0 0 0 0 0 0.1 0"/>
      <feBlend mode="normal" in2="BackgroundImageFix" result="effect1_dropShadow_1921_30271"/>
      <feColorMatrix in="SourceAlpha" type="matrix" values="0 0 0 0 0 0 0 0 0 0 0 0 0 0 0 0 0 0 127 0" result="hardAlpha"/>
      <feOffset dx="-5.19481" dy="5.19481"/>
      <feGaussianBlur stdDeviation="7.79221"/>
      <feComposite in2="hardAlpha" operator="out"/>
      <feColorMatrix type="matrix" values="0 0 0 0 0 0 0 0 0 0 0 0 0 0 0 0 0 0 0.28 0"/>
      <feBlend mode="normal" in2="effect1_dropShadow_1921_30271" result="effect2_dropShadow_1921_30271"/>
      <feColorMatrix in="SourceAlpha" type="matrix" values="0 0 0 0 0 0 0 0 0 0 0 0 0 0 0 0 0 0 127 0" result="hardAlpha"/>
      <feOffset dy="1.2987"/>
      <feGaussianBlur stdDeviation="2.5974"/>
      <feComposite in2="hardAlpha" operator="out"/>
      <feColorMatrix type="matrix" values="0 0 0 0 0 0 0 0 0 0 0 0 0 0 0 0 0 0 0.4 0"/>
      <feBlend mode="normal" in2="effect2_dropShadow_1921_30271" result="effect3_dropShadow_1921_30271"/>
      <feBlend mode="normal" in="SourceGraphic" in2="effect3_dropShadow_1921_30271" result="shape"/>
    </filter>
    <linearGradient id="paint0_linear_1921_30271" x1="140.506" y1="38.9481" x2="89.8571" y2="118.169" gradientUnits="userSpaceOnUse">
      <stop stop-color="white"/>
      <stop offset="1" stop-color="#3775C4"/>
    </linearGradient>
    <linearGradient id="paint1_linear_1921_30271" x1="114.619" y1="67.5346" x2="84.0661" y2="104.506" gradientUnits="userSpaceOnUse">
      <stop stop-color="white"/>
      <stop offset="1" stop-color="#EAEAEA"/>
    </linearGradient>
  </defs>
</svg>