<svg width="1708" height="660" viewBox="0 0 1708 660" fill="none" xmlns="http://www.w3.org/2000/svg">
<rect x="28" y="17.75" width="0.5" height="12" transform="rotate(90 28 17.75)" fill="#CBCBCB"/>
<rect x="22.25" y="24" width="0.5" height="12" transform="rotate(-180 22.25 24)" fill="#CBCBCB"/>
<rect x="80" y="17.75" width="0.5" height="12" transform="rotate(90 80 17.75)" fill="#CBCBCB"/>
<rect x="74.25" y="24" width="0.5" height="12" transform="rotate(-180 74.25 24)" fill="#CBCBCB"/>
<rect x="132" y="17.75" width="0.5" height="12" transform="rotate(90 132 17.75)" fill="#CBCBCB"/>
<rect x="126.25" y="24" width="0.5" height="12" transform="rotate(-180 126.25 24)" fill="#CBCBCB"/>
<rect x="184" y="17.75" width="0.5" height="12" transform="rotate(90 184 17.75)" fill="#CBCBCB"/>
<rect x="178.25" y="24" width="0.5" height="12" transform="rotate(-180 178.25 24)" fill="#CBCBCB"/>
<rect x="236" y="17.75" width="0.5" height="12" transform="rotate(90 236 17.75)" fill="#CBCBCB"/>
<rect x="230.25" y="24" width="0.5" height="12" transform="rotate(-180 230.25 24)" fill="#CBCBCB"/>
<rect x="288" y="17.75" width="0.5" height="12" transform="rotate(90 288 17.75)" fill="#CBCBCB"/>
<rect x="282.25" y="24" width="0.5" height="12" transform="rotate(-180 282.25 24)" fill="#CBCBCB"/>
<rect x="340" y="17.75" width="0.5" height="12" transform="rotate(90 340 17.75)" fill="#CBCBCB"/>
<rect x="334.25" y="24" width="0.5" height="12" transform="rotate(-180 334.25 24)" fill="#CBCBCB"/>
<rect x="392" y="17.75" width="0.5" height="12" transform="rotate(90 392 17.75)" fill="#CBCBCB"/>
<rect x="386.25" y="24" width="0.5" height="12" transform="rotate(-180 386.25 24)" fill="#CBCBCB"/>
<rect x="444" y="17.75" width="0.5" height="12" transform="rotate(90 444 17.75)" fill="#CBCBCB"/>
<rect x="438.25" y="24" width="0.5" height="12" transform="rotate(-180 438.25 24)" fill="#CBCBCB"/>
<rect x="496" y="17.75" width="0.5" height="12" transform="rotate(90 496 17.75)" fill="#CBCBCB"/>
<rect x="490.25" y="24" width="0.5" height="12" transform="rotate(-180 490.25 24)" fill="#CBCBCB"/>
<rect x="548" y="17.75" width="0.5" height="12" transform="rotate(90 548 17.75)" fill="#CBCBCB"/>
<rect x="542.25" y="24" width="0.5" height="12" transform="rotate(-180 542.25 24)" fill="#CBCBCB"/>
<rect x="600" y="17.75" width="0.5" height="12" transform="rotate(90 600 17.75)" fill="#CBCBCB"/>
<rect x="594.25" y="24" width="0.5" height="12" transform="rotate(-180 594.25 24)" fill="#CBCBCB"/>
<rect x="652" y="17.75" width="0.5" height="12" transform="rotate(90 652 17.75)" fill="#CBCBCB"/>
<rect x="646.25" y="24" width="0.5" height="12" transform="rotate(-180 646.25 24)" fill="#CBCBCB"/>
<rect x="704" y="17.75" width="0.5" height="12" transform="rotate(90 704 17.75)" fill="#CBCBCB"/>
<rect x="698.25" y="24" width="0.5" height="12" transform="rotate(-180 698.25 24)" fill="#CBCBCB"/>
<rect x="756" y="17.75" width="0.5" height="12" transform="rotate(90 756 17.75)" fill="#CBCBCB"/>
<rect x="750.25" y="24" width="0.5" height="12" transform="rotate(-180 750.25 24)" fill="#CBCBCB"/>
<rect x="808" y="17.75" width="0.5" height="12" transform="rotate(90 808 17.75)" fill="#CBCBCB"/>
<rect x="802.25" y="24" width="0.5" height="12" transform="rotate(-180 802.25 24)" fill="#CBCBCB"/>
<rect x="860" y="17.75" width="0.5" height="12" transform="rotate(90 860 17.75)" fill="#CBCBCB"/>
<rect x="854.25" y="24" width="0.5" height="12" transform="rotate(-180 854.25 24)" fill="#CBCBCB"/>
<rect x="912" y="17.75" width="0.5" height="12" transform="rotate(90 912 17.75)" fill="#CBCBCB"/>
<rect x="906.25" y="24" width="0.5" height="12" transform="rotate(-180 906.25 24)" fill="#CBCBCB"/>
<rect x="964" y="17.75" width="0.5" height="12" transform="rotate(90 964 17.75)" fill="#CBCBCB"/>
<rect x="958.25" y="24" width="0.5" height="12" transform="rotate(-180 958.25 24)" fill="#CBCBCB"/>
<rect x="1016" y="17.75" width="0.5" height="12" transform="rotate(90 1016 17.75)" fill="#CBCBCB"/>
<rect x="1010.25" y="24" width="0.5" height="12" transform="rotate(-180 1010.25 24)" fill="#CBCBCB"/>
<rect x="1068" y="17.75" width="0.5" height="12" transform="rotate(90 1068 17.75)" fill="#CBCBCB"/>
<rect x="1062.25" y="24" width="0.5" height="12" transform="rotate(-180 1062.25 24)" fill="#CBCBCB"/>
<rect x="1120" y="17.75" width="0.5" height="12" transform="rotate(90 1120 17.75)" fill="#CBCBCB"/>
<rect x="1114.25" y="24" width="0.5" height="12" transform="rotate(-180 1114.25 24)" fill="#CBCBCB"/>
<rect x="1172" y="17.75" width="0.5" height="12" transform="rotate(90 1172 17.75)" fill="#CBCBCB"/>
<rect x="1166.25" y="24" width="0.5" height="12" transform="rotate(-180 1166.25 24)" fill="#CBCBCB"/>
<rect x="1224" y="17.75" width="0.5" height="12" transform="rotate(90 1224 17.75)" fill="#CBCBCB"/>
<rect x="1218.25" y="24" width="0.5" height="12" transform="rotate(-180 1218.25 24)" fill="#CBCBCB"/>
<rect x="1276" y="17.75" width="0.5" height="12" transform="rotate(90 1276 17.75)" fill="#CBCBCB"/>
<rect x="1270.25" y="24" width="0.5" height="12" transform="rotate(-180 1270.25 24)" fill="#CBCBCB"/>
<rect x="1328" y="17.75" width="0.5" height="12" transform="rotate(90 1328 17.75)" fill="#CBCBCB"/>
<rect x="1322.25" y="24" width="0.5" height="12" transform="rotate(-180 1322.25 24)" fill="#CBCBCB"/>
<rect x="1380" y="17.75" width="0.5" height="12" transform="rotate(90 1380 17.75)" fill="#CBCBCB"/>
<rect x="1374.25" y="24" width="0.5" height="12" transform="rotate(-180 1374.25 24)" fill="#CBCBCB"/>
<rect x="1432" y="17.75" width="0.5" height="12" transform="rotate(90 1432 17.75)" fill="#CBCBCB"/>
<rect x="1426.25" y="24" width="0.5" height="12" transform="rotate(-180 1426.25 24)" fill="#CBCBCB"/>
<rect x="1484" y="17.75" width="0.5" height="12" transform="rotate(90 1484 17.75)" fill="#CBCBCB"/>
<rect x="1478.25" y="24" width="0.5" height="12" transform="rotate(-180 1478.25 24)" fill="#CBCBCB"/>
<rect x="1536" y="17.75" width="0.5" height="12" transform="rotate(90 1536 17.75)" fill="#CBCBCB"/>
<rect x="1530.25" y="24" width="0.5" height="12" transform="rotate(-180 1530.25 24)" fill="#CBCBCB"/>
<rect x="1588" y="17.75" width="0.5" height="12" transform="rotate(90 1588 17.75)" fill="#CBCBCB"/>
<rect x="1582.25" y="24" width="0.5" height="12" transform="rotate(-180 1582.25 24)" fill="#CBCBCB"/>
<rect x="1640" y="17.75" width="0.5" height="12" transform="rotate(90 1640 17.75)" fill="#CBCBCB"/>
<rect x="1634.25" y="24" width="0.5" height="12" transform="rotate(-180 1634.25 24)" fill="#CBCBCB"/>
<rect x="1692" y="17.75" width="0.5" height="12" transform="rotate(90 1692 17.75)" fill="#CBCBCB"/>
<rect x="1686.25" y="24" width="0.5" height="12" transform="rotate(-180 1686.25 24)" fill="#CBCBCB"/>
<rect x="28" y="69.75" width="0.5" height="12" transform="rotate(90 28 69.75)" fill="#CBCBCB"/>
<rect x="22.25" y="76" width="0.5" height="12" transform="rotate(-180 22.25 76)" fill="#CBCBCB"/>
<rect x="80" y="69.75" width="0.5" height="12" transform="rotate(90 80 69.75)" fill="#CBCBCB"/>
<rect x="74.25" y="76" width="0.5" height="12" transform="rotate(-180 74.25 76)" fill="#CBCBCB"/>
<rect x="132" y="69.75" width="0.5" height="12" transform="rotate(90 132 69.75)" fill="#CBCBCB"/>
<rect x="126.25" y="76" width="0.5" height="12" transform="rotate(-180 126.25 76)" fill="#CBCBCB"/>
<rect x="184" y="69.75" width="0.5" height="12" transform="rotate(90 184 69.75)" fill="#CBCBCB"/>
<rect x="178.25" y="76" width="0.5" height="12" transform="rotate(-180 178.25 76)" fill="#CBCBCB"/>
<rect x="236" y="69.75" width="0.5" height="12" transform="rotate(90 236 69.75)" fill="#CBCBCB"/>
<rect x="230.25" y="76" width="0.5" height="12" transform="rotate(-180 230.25 76)" fill="#CBCBCB"/>
<rect x="288" y="69.75" width="0.5" height="12" transform="rotate(90 288 69.75)" fill="#CBCBCB"/>
<rect x="282.25" y="76" width="0.5" height="12" transform="rotate(-180 282.25 76)" fill="#CBCBCB"/>
<rect x="340" y="69.75" width="0.5" height="12" transform="rotate(90 340 69.75)" fill="#CBCBCB"/>
<rect x="334.25" y="76" width="0.5" height="12" transform="rotate(-180 334.25 76)" fill="#CBCBCB"/>
<rect x="392" y="69.75" width="0.5" height="12" transform="rotate(90 392 69.75)" fill="#CBCBCB"/>
<rect x="386.25" y="76" width="0.5" height="12" transform="rotate(-180 386.25 76)" fill="#CBCBCB"/>
<rect x="444" y="69.75" width="0.5" height="12" transform="rotate(90 444 69.75)" fill="#CBCBCB"/>
<rect x="438.25" y="76" width="0.5" height="12" transform="rotate(-180 438.25 76)" fill="#CBCBCB"/>
<rect x="496" y="69.75" width="0.5" height="12" transform="rotate(90 496 69.75)" fill="#CBCBCB"/>
<rect x="490.25" y="76" width="0.5" height="12" transform="rotate(-180 490.25 76)" fill="#CBCBCB"/>
<rect x="548" y="69.75" width="0.5" height="12" transform="rotate(90 548 69.75)" fill="#CBCBCB"/>
<rect x="542.25" y="76" width="0.5" height="12" transform="rotate(-180 542.25 76)" fill="#CBCBCB"/>
<rect x="600" y="69.75" width="0.5" height="12" transform="rotate(90 600 69.75)" fill="#CBCBCB"/>
<rect x="594.25" y="76" width="0.5" height="12" transform="rotate(-180 594.25 76)" fill="#CBCBCB"/>
<rect x="652" y="69.75" width="0.5" height="12" transform="rotate(90 652 69.75)" fill="#CBCBCB"/>
<rect x="646.25" y="76" width="0.5" height="12" transform="rotate(-180 646.25 76)" fill="#CBCBCB"/>
<rect x="704" y="69.75" width="0.5" height="12" transform="rotate(90 704 69.75)" fill="#CBCBCB"/>
<rect x="698.25" y="76" width="0.5" height="12" transform="rotate(-180 698.25 76)" fill="#CBCBCB"/>
<rect x="756" y="69.75" width="0.5" height="12" transform="rotate(90 756 69.75)" fill="#CBCBCB"/>
<rect x="750.25" y="76" width="0.5" height="12" transform="rotate(-180 750.25 76)" fill="#CBCBCB"/>
<rect x="808" y="69.75" width="0.5" height="12" transform="rotate(90 808 69.75)" fill="#CBCBCB"/>
<rect x="802.25" y="76" width="0.5" height="12" transform="rotate(-180 802.25 76)" fill="#CBCBCB"/>
<rect x="860" y="69.75" width="0.5" height="12" transform="rotate(90 860 69.75)" fill="#CBCBCB"/>
<rect x="854.25" y="76" width="0.5" height="12" transform="rotate(-180 854.25 76)" fill="#CBCBCB"/>
<rect x="912" y="69.75" width="0.5" height="12" transform="rotate(90 912 69.75)" fill="#CBCBCB"/>
<rect x="906.25" y="76" width="0.5" height="12" transform="rotate(-180 906.25 76)" fill="#CBCBCB"/>
<rect x="964" y="69.75" width="0.5" height="12" transform="rotate(90 964 69.75)" fill="#CBCBCB"/>
<rect x="958.25" y="76" width="0.5" height="12" transform="rotate(-180 958.25 76)" fill="#CBCBCB"/>
<rect x="1016" y="69.75" width="0.5" height="12" transform="rotate(90 1016 69.75)" fill="#CBCBCB"/>
<rect x="1010.25" y="76" width="0.5" height="12" transform="rotate(-180 1010.25 76)" fill="#CBCBCB"/>
<rect x="1068" y="69.75" width="0.5" height="12" transform="rotate(90 1068 69.75)" fill="#CBCBCB"/>
<rect x="1062.25" y="76" width="0.5" height="12" transform="rotate(-180 1062.25 76)" fill="#CBCBCB"/>
<rect x="1120" y="69.75" width="0.5" height="12" transform="rotate(90 1120 69.75)" fill="#CBCBCB"/>
<rect x="1114.25" y="76" width="0.5" height="12" transform="rotate(-180 1114.25 76)" fill="#CBCBCB"/>
<rect x="1172" y="69.75" width="0.5" height="12" transform="rotate(90 1172 69.75)" fill="#CBCBCB"/>
<rect x="1166.25" y="76" width="0.5" height="12" transform="rotate(-180 1166.25 76)" fill="#CBCBCB"/>
<rect x="1224" y="69.75" width="0.5" height="12" transform="rotate(90 1224 69.75)" fill="#CBCBCB"/>
<rect x="1218.25" y="76" width="0.5" height="12" transform="rotate(-180 1218.25 76)" fill="#CBCBCB"/>
<rect x="1276" y="69.75" width="0.5" height="12" transform="rotate(90 1276 69.75)" fill="#CBCBCB"/>
<rect x="1270.25" y="76" width="0.5" height="12" transform="rotate(-180 1270.25 76)" fill="#CBCBCB"/>
<rect x="1328" y="69.75" width="0.5" height="12" transform="rotate(90 1328 69.75)" fill="#CBCBCB"/>
<rect x="1322.25" y="76" width="0.5" height="12" transform="rotate(-180 1322.25 76)" fill="#CBCBCB"/>
<rect x="1380" y="69.75" width="0.5" height="12" transform="rotate(90 1380 69.75)" fill="#CBCBCB"/>
<rect x="1374.25" y="76" width="0.5" height="12" transform="rotate(-180 1374.25 76)" fill="#CBCBCB"/>
<rect x="1432" y="69.75" width="0.5" height="12" transform="rotate(90 1432 69.75)" fill="#CBCBCB"/>
<rect x="1426.25" y="76" width="0.5" height="12" transform="rotate(-180 1426.25 76)" fill="#CBCBCB"/>
<rect x="1484" y="69.75" width="0.5" height="12" transform="rotate(90 1484 69.75)" fill="#CBCBCB"/>
<rect x="1478.25" y="76" width="0.5" height="12" transform="rotate(-180 1478.25 76)" fill="#CBCBCB"/>
<rect x="1536" y="69.75" width="0.5" height="12" transform="rotate(90 1536 69.75)" fill="#CBCBCB"/>
<rect x="1530.25" y="76" width="0.5" height="12" transform="rotate(-180 1530.25 76)" fill="#CBCBCB"/>
<rect x="1588" y="69.75" width="0.5" height="12" transform="rotate(90 1588 69.75)" fill="#CBCBCB"/>
<rect x="1582.25" y="76" width="0.5" height="12" transform="rotate(-180 1582.25 76)" fill="#CBCBCB"/>
<rect x="1640" y="69.75" width="0.5" height="12" transform="rotate(90 1640 69.75)" fill="#CBCBCB"/>
<rect x="1634.25" y="76" width="0.5" height="12" transform="rotate(-180 1634.25 76)" fill="#CBCBCB"/>
<rect x="1692" y="69.75" width="0.5" height="12" transform="rotate(90 1692 69.75)" fill="#CBCBCB"/>
<rect x="1686.25" y="76" width="0.5" height="12" transform="rotate(-180 1686.25 76)" fill="#CBCBCB"/>
<rect x="28" y="121.75" width="0.5" height="12" transform="rotate(90 28 121.75)" fill="#CBCBCB"/>
<rect x="22.25" y="128" width="0.5" height="12" transform="rotate(-180 22.25 128)" fill="#CBCBCB"/>
<rect x="80" y="121.75" width="0.5" height="12" transform="rotate(90 80 121.75)" fill="#CBCBCB"/>
<rect x="74.25" y="128" width="0.5" height="12" transform="rotate(-180 74.25 128)" fill="#CBCBCB"/>
<rect x="132" y="121.75" width="0.5" height="12" transform="rotate(90 132 121.75)" fill="#CBCBCB"/>
<rect x="126.25" y="128" width="0.5" height="12" transform="rotate(-180 126.25 128)" fill="#CBCBCB"/>
<rect x="184" y="121.75" width="0.5" height="12" transform="rotate(90 184 121.75)" fill="#CBCBCB"/>
<rect x="178.25" y="128" width="0.5" height="12" transform="rotate(-180 178.25 128)" fill="#CBCBCB"/>
<rect x="236" y="121.75" width="0.5" height="12" transform="rotate(90 236 121.75)" fill="#CBCBCB"/>
<rect x="230.25" y="128" width="0.5" height="12" transform="rotate(-180 230.25 128)" fill="#CBCBCB"/>
<rect x="288" y="121.75" width="0.5" height="12" transform="rotate(90 288 121.75)" fill="#CBCBCB"/>
<rect x="282.25" y="128" width="0.5" height="12" transform="rotate(-180 282.25 128)" fill="#CBCBCB"/>
<rect x="340" y="121.75" width="0.5" height="12" transform="rotate(90 340 121.75)" fill="#CBCBCB"/>
<rect x="334.25" y="128" width="0.5" height="12" transform="rotate(-180 334.25 128)" fill="#CBCBCB"/>
<rect x="392" y="121.75" width="0.5" height="12" transform="rotate(90 392 121.75)" fill="#CBCBCB"/>
<rect x="386.25" y="128" width="0.5" height="12" transform="rotate(-180 386.25 128)" fill="#CBCBCB"/>
<rect x="444" y="121.75" width="0.5" height="12" transform="rotate(90 444 121.75)" fill="#CBCBCB"/>
<rect x="438.25" y="128" width="0.5" height="12" transform="rotate(-180 438.25 128)" fill="#CBCBCB"/>
<rect x="496" y="121.75" width="0.5" height="12" transform="rotate(90 496 121.75)" fill="#CBCBCB"/>
<rect x="490.25" y="128" width="0.5" height="12" transform="rotate(-180 490.25 128)" fill="#CBCBCB"/>
<rect x="548" y="121.75" width="0.5" height="12" transform="rotate(90 548 121.75)" fill="#CBCBCB"/>
<rect x="542.25" y="128" width="0.5" height="12" transform="rotate(-180 542.25 128)" fill="#CBCBCB"/>
<rect x="600" y="121.75" width="0.5" height="12" transform="rotate(90 600 121.75)" fill="#CBCBCB"/>
<rect x="594.25" y="128" width="0.5" height="12" transform="rotate(-180 594.25 128)" fill="#CBCBCB"/>
<rect x="652" y="121.75" width="0.5" height="12" transform="rotate(90 652 121.75)" fill="#CBCBCB"/>
<rect x="646.25" y="128" width="0.5" height="12" transform="rotate(-180 646.25 128)" fill="#CBCBCB"/>
<rect x="704" y="121.75" width="0.5" height="12" transform="rotate(90 704 121.75)" fill="#CBCBCB"/>
<rect x="698.25" y="128" width="0.5" height="12" transform="rotate(-180 698.25 128)" fill="#CBCBCB"/>
<rect x="756" y="121.75" width="0.5" height="12" transform="rotate(90 756 121.75)" fill="#CBCBCB"/>
<rect x="750.25" y="128" width="0.5" height="12" transform="rotate(-180 750.25 128)" fill="#CBCBCB"/>
<rect x="808" y="121.75" width="0.5" height="12" transform="rotate(90 808 121.75)" fill="#CBCBCB"/>
<rect x="802.25" y="128" width="0.5" height="12" transform="rotate(-180 802.25 128)" fill="#CBCBCB"/>
<rect x="860" y="121.75" width="0.5" height="12" transform="rotate(90 860 121.75)" fill="#CBCBCB"/>
<rect x="854.25" y="128" width="0.5" height="12" transform="rotate(-180 854.25 128)" fill="#CBCBCB"/>
<rect x="912" y="121.75" width="0.5" height="12" transform="rotate(90 912 121.75)" fill="#CBCBCB"/>
<rect x="906.25" y="128" width="0.5" height="12" transform="rotate(-180 906.25 128)" fill="#CBCBCB"/>
<rect x="964" y="121.75" width="0.5" height="12" transform="rotate(90 964 121.75)" fill="#CBCBCB"/>
<rect x="958.25" y="128" width="0.5" height="12" transform="rotate(-180 958.25 128)" fill="#CBCBCB"/>
<rect x="1016" y="121.75" width="0.5" height="12" transform="rotate(90 1016 121.75)" fill="#CBCBCB"/>
<rect x="1010.25" y="128" width="0.5" height="12" transform="rotate(-180 1010.25 128)" fill="#CBCBCB"/>
<rect x="1068" y="121.75" width="0.5" height="12" transform="rotate(90 1068 121.75)" fill="#CBCBCB"/>
<rect x="1062.25" y="128" width="0.5" height="12" transform="rotate(-180 1062.25 128)" fill="#CBCBCB"/>
<rect x="1120" y="121.75" width="0.5" height="12" transform="rotate(90 1120 121.75)" fill="#CBCBCB"/>
<rect x="1114.25" y="128" width="0.5" height="12" transform="rotate(-180 1114.25 128)" fill="#CBCBCB"/>
<rect x="1172" y="121.75" width="0.5" height="12" transform="rotate(90 1172 121.75)" fill="#CBCBCB"/>
<rect x="1166.25" y="128" width="0.5" height="12" transform="rotate(-180 1166.25 128)" fill="#CBCBCB"/>
<rect x="1224" y="121.75" width="0.5" height="12" transform="rotate(90 1224 121.75)" fill="#CBCBCB"/>
<rect x="1218.25" y="128" width="0.5" height="12" transform="rotate(-180 1218.25 128)" fill="#CBCBCB"/>
<rect x="1276" y="121.75" width="0.5" height="12" transform="rotate(90 1276 121.75)" fill="#CBCBCB"/>
<rect x="1270.25" y="128" width="0.5" height="12" transform="rotate(-180 1270.25 128)" fill="#CBCBCB"/>
<rect x="1328" y="121.75" width="0.5" height="12" transform="rotate(90 1328 121.75)" fill="#CBCBCB"/>
<rect x="1322.25" y="128" width="0.5" height="12" transform="rotate(-180 1322.25 128)" fill="#CBCBCB"/>
<rect x="1380" y="121.75" width="0.5" height="12" transform="rotate(90 1380 121.75)" fill="#CBCBCB"/>
<rect x="1374.25" y="128" width="0.5" height="12" transform="rotate(-180 1374.25 128)" fill="#CBCBCB"/>
<rect x="1432" y="121.75" width="0.5" height="12" transform="rotate(90 1432 121.75)" fill="#CBCBCB"/>
<rect x="1426.25" y="128" width="0.5" height="12" transform="rotate(-180 1426.25 128)" fill="#CBCBCB"/>
<rect x="1484" y="121.75" width="0.5" height="12" transform="rotate(90 1484 121.75)" fill="#CBCBCB"/>
<rect x="1478.25" y="128" width="0.5" height="12" transform="rotate(-180 1478.25 128)" fill="#CBCBCB"/>
<rect x="1536" y="121.75" width="0.5" height="12" transform="rotate(90 1536 121.75)" fill="#CBCBCB"/>
<rect x="1530.25" y="128" width="0.5" height="12" transform="rotate(-180 1530.25 128)" fill="#CBCBCB"/>
<rect x="1588" y="121.75" width="0.5" height="12" transform="rotate(90 1588 121.75)" fill="#CBCBCB"/>
<rect x="1582.25" y="128" width="0.5" height="12" transform="rotate(-180 1582.25 128)" fill="#CBCBCB"/>
<rect x="1640" y="121.75" width="0.5" height="12" transform="rotate(90 1640 121.75)" fill="#CBCBCB"/>
<rect x="1634.25" y="128" width="0.5" height="12" transform="rotate(-180 1634.25 128)" fill="#CBCBCB"/>
<rect x="1692" y="121.75" width="0.5" height="12" transform="rotate(90 1692 121.75)" fill="#CBCBCB"/>
<rect x="1686.25" y="128" width="0.5" height="12" transform="rotate(-180 1686.25 128)" fill="#CBCBCB"/>
<rect x="28" y="173.75" width="0.5" height="12" transform="rotate(90 28 173.75)" fill="#CBCBCB"/>
<rect x="22.25" y="180" width="0.5" height="12" transform="rotate(-180 22.25 180)" fill="#CBCBCB"/>
<rect x="80" y="173.75" width="0.5" height="12" transform="rotate(90 80 173.75)" fill="#CBCBCB"/>
<rect x="74.25" y="180" width="0.5" height="12" transform="rotate(-180 74.25 180)" fill="#CBCBCB"/>
<rect x="132" y="173.75" width="0.5" height="12" transform="rotate(90 132 173.75)" fill="#CBCBCB"/>
<rect x="126.25" y="180" width="0.5" height="12" transform="rotate(-180 126.25 180)" fill="#CBCBCB"/>
<rect x="184" y="173.75" width="0.5" height="12" transform="rotate(90 184 173.75)" fill="#CBCBCB"/>
<rect x="178.25" y="180" width="0.5" height="12" transform="rotate(-180 178.25 180)" fill="#CBCBCB"/>
<rect x="236" y="173.75" width="0.5" height="12" transform="rotate(90 236 173.75)" fill="#CBCBCB"/>
<rect x="230.25" y="180" width="0.5" height="12" transform="rotate(-180 230.25 180)" fill="#CBCBCB"/>
<rect x="288" y="173.75" width="0.5" height="12" transform="rotate(90 288 173.75)" fill="#CBCBCB"/>
<rect x="282.25" y="180" width="0.5" height="12" transform="rotate(-180 282.25 180)" fill="#CBCBCB"/>
<rect x="340" y="173.75" width="0.5" height="12" transform="rotate(90 340 173.75)" fill="#CBCBCB"/>
<rect x="334.25" y="180" width="0.5" height="12" transform="rotate(-180 334.25 180)" fill="#CBCBCB"/>
<rect x="392" y="173.75" width="0.5" height="12" transform="rotate(90 392 173.75)" fill="#CBCBCB"/>
<rect x="386.25" y="180" width="0.5" height="12" transform="rotate(-180 386.25 180)" fill="#CBCBCB"/>
<rect x="444" y="173.75" width="0.5" height="12" transform="rotate(90 444 173.75)" fill="#CBCBCB"/>
<rect x="438.25" y="180" width="0.5" height="12" transform="rotate(-180 438.25 180)" fill="#CBCBCB"/>
<rect x="496" y="173.75" width="0.5" height="12" transform="rotate(90 496 173.75)" fill="#CBCBCB"/>
<rect x="490.25" y="180" width="0.5" height="12" transform="rotate(-180 490.25 180)" fill="#CBCBCB"/>
<rect x="548" y="173.75" width="0.5" height="12" transform="rotate(90 548 173.75)" fill="#CBCBCB"/>
<rect x="542.25" y="180" width="0.5" height="12" transform="rotate(-180 542.25 180)" fill="#CBCBCB"/>
<rect x="600" y="173.75" width="0.5" height="12" transform="rotate(90 600 173.75)" fill="#CBCBCB"/>
<rect x="594.25" y="180" width="0.5" height="12" transform="rotate(-180 594.25 180)" fill="#CBCBCB"/>
<rect x="652" y="173.75" width="0.5" height="12" transform="rotate(90 652 173.75)" fill="#CBCBCB"/>
<rect x="646.25" y="180" width="0.5" height="12" transform="rotate(-180 646.25 180)" fill="#CBCBCB"/>
<rect x="704" y="173.75" width="0.5" height="12" transform="rotate(90 704 173.75)" fill="#CBCBCB"/>
<rect x="698.25" y="180" width="0.5" height="12" transform="rotate(-180 698.25 180)" fill="#CBCBCB"/>
<rect x="756" y="173.75" width="0.5" height="12" transform="rotate(90 756 173.75)" fill="#CBCBCB"/>
<rect x="750.25" y="180" width="0.5" height="12" transform="rotate(-180 750.25 180)" fill="#CBCBCB"/>
<rect x="808" y="173.75" width="0.5" height="12" transform="rotate(90 808 173.75)" fill="#CBCBCB"/>
<rect x="802.25" y="180" width="0.5" height="12" transform="rotate(-180 802.25 180)" fill="#CBCBCB"/>
<rect x="860" y="173.75" width="0.5" height="12" transform="rotate(90 860 173.75)" fill="#CBCBCB"/>
<rect x="854.25" y="180" width="0.5" height="12" transform="rotate(-180 854.25 180)" fill="#CBCBCB"/>
<rect x="912" y="173.75" width="0.5" height="12" transform="rotate(90 912 173.75)" fill="#CBCBCB"/>
<rect x="906.25" y="180" width="0.5" height="12" transform="rotate(-180 906.25 180)" fill="#CBCBCB"/>
<rect x="964" y="173.75" width="0.5" height="12" transform="rotate(90 964 173.75)" fill="#CBCBCB"/>
<rect x="958.25" y="180" width="0.5" height="12" transform="rotate(-180 958.25 180)" fill="#CBCBCB"/>
<rect x="1016" y="173.75" width="0.5" height="12" transform="rotate(90 1016 173.75)" fill="#CBCBCB"/>
<rect x="1010.25" y="180" width="0.5" height="12" transform="rotate(-180 1010.25 180)" fill="#CBCBCB"/>
<rect x="1068" y="173.75" width="0.5" height="12" transform="rotate(90 1068 173.75)" fill="#CBCBCB"/>
<rect x="1062.25" y="180" width="0.5" height="12" transform="rotate(-180 1062.25 180)" fill="#CBCBCB"/>
<rect x="1120" y="173.75" width="0.5" height="12" transform="rotate(90 1120 173.75)" fill="#CBCBCB"/>
<rect x="1114.25" y="180" width="0.5" height="12" transform="rotate(-180 1114.25 180)" fill="#CBCBCB"/>
<rect x="1172" y="173.75" width="0.5" height="12" transform="rotate(90 1172 173.75)" fill="#CBCBCB"/>
<rect x="1166.25" y="180" width="0.5" height="12" transform="rotate(-180 1166.25 180)" fill="#CBCBCB"/>
<rect x="1224" y="173.75" width="0.5" height="12" transform="rotate(90 1224 173.75)" fill="#CBCBCB"/>
<rect x="1218.25" y="180" width="0.5" height="12" transform="rotate(-180 1218.25 180)" fill="#CBCBCB"/>
<rect x="1276" y="173.75" width="0.5" height="12" transform="rotate(90 1276 173.75)" fill="#CBCBCB"/>
<rect x="1270.25" y="180" width="0.5" height="12" transform="rotate(-180 1270.25 180)" fill="#CBCBCB"/>
<rect x="1328" y="173.75" width="0.5" height="12" transform="rotate(90 1328 173.75)" fill="#CBCBCB"/>
<rect x="1322.25" y="180" width="0.5" height="12" transform="rotate(-180 1322.25 180)" fill="#CBCBCB"/>
<rect x="1380" y="173.75" width="0.5" height="12" transform="rotate(90 1380 173.75)" fill="#CBCBCB"/>
<rect x="1374.25" y="180" width="0.5" height="12" transform="rotate(-180 1374.25 180)" fill="#CBCBCB"/>
<rect x="1432" y="173.75" width="0.5" height="12" transform="rotate(90 1432 173.75)" fill="#CBCBCB"/>
<rect x="1426.25" y="180" width="0.5" height="12" transform="rotate(-180 1426.25 180)" fill="#CBCBCB"/>
<rect x="1484" y="173.75" width="0.5" height="12" transform="rotate(90 1484 173.75)" fill="#CBCBCB"/>
<rect x="1478.25" y="180" width="0.5" height="12" transform="rotate(-180 1478.25 180)" fill="#CBCBCB"/>
<rect x="1536" y="173.75" width="0.5" height="12" transform="rotate(90 1536 173.75)" fill="#CBCBCB"/>
<rect x="1530.25" y="180" width="0.5" height="12" transform="rotate(-180 1530.25 180)" fill="#CBCBCB"/>
<rect x="1588" y="173.75" width="0.5" height="12" transform="rotate(90 1588 173.75)" fill="#CBCBCB"/>
<rect x="1582.25" y="180" width="0.5" height="12" transform="rotate(-180 1582.25 180)" fill="#CBCBCB"/>
<rect x="1640" y="173.75" width="0.5" height="12" transform="rotate(90 1640 173.75)" fill="#CBCBCB"/>
<rect x="1634.25" y="180" width="0.5" height="12" transform="rotate(-180 1634.25 180)" fill="#CBCBCB"/>
<rect x="1692" y="173.75" width="0.5" height="12" transform="rotate(90 1692 173.75)" fill="#CBCBCB"/>
<rect x="1686.25" y="180" width="0.5" height="12" transform="rotate(-180 1686.25 180)" fill="#CBCBCB"/>
<rect x="28" y="225.75" width="0.5" height="12" transform="rotate(90 28 225.75)" fill="#CBCBCB"/>
<rect x="22.25" y="232" width="0.5" height="12" transform="rotate(-180 22.25 232)" fill="#CBCBCB"/>
<rect x="80" y="225.75" width="0.5" height="12" transform="rotate(90 80 225.75)" fill="#CBCBCB"/>
<rect x="74.25" y="232" width="0.5" height="12" transform="rotate(-180 74.25 232)" fill="#CBCBCB"/>
<rect x="132" y="225.75" width="0.5" height="12" transform="rotate(90 132 225.75)" fill="#CBCBCB"/>
<rect x="126.25" y="232" width="0.5" height="12" transform="rotate(-180 126.25 232)" fill="#CBCBCB"/>
<rect x="184" y="225.75" width="0.5" height="12" transform="rotate(90 184 225.75)" fill="#CBCBCB"/>
<rect x="178.25" y="232" width="0.5" height="12" transform="rotate(-180 178.25 232)" fill="#CBCBCB"/>
<rect x="236" y="225.75" width="0.5" height="12" transform="rotate(90 236 225.75)" fill="#CBCBCB"/>
<rect x="230.25" y="232" width="0.5" height="12" transform="rotate(-180 230.25 232)" fill="#CBCBCB"/>
<rect x="288" y="225.75" width="0.5" height="12" transform="rotate(90 288 225.75)" fill="#CBCBCB"/>
<rect x="282.25" y="232" width="0.5" height="12" transform="rotate(-180 282.25 232)" fill="#CBCBCB"/>
<rect x="340" y="225.75" width="0.5" height="12" transform="rotate(90 340 225.75)" fill="#CBCBCB"/>
<rect x="334.25" y="232" width="0.5" height="12" transform="rotate(-180 334.25 232)" fill="#CBCBCB"/>
<rect x="392" y="225.75" width="0.5" height="12" transform="rotate(90 392 225.75)" fill="#CBCBCB"/>
<rect x="386.25" y="232" width="0.5" height="12" transform="rotate(-180 386.25 232)" fill="#CBCBCB"/>
<rect x="444" y="225.75" width="0.5" height="12" transform="rotate(90 444 225.75)" fill="#CBCBCB"/>
<rect x="438.25" y="232" width="0.5" height="12" transform="rotate(-180 438.25 232)" fill="#CBCBCB"/>
<rect x="496" y="225.75" width="0.5" height="12" transform="rotate(90 496 225.75)" fill="#CBCBCB"/>
<rect x="490.25" y="232" width="0.5" height="12" transform="rotate(-180 490.25 232)" fill="#CBCBCB"/>
<rect x="548" y="225.75" width="0.5" height="12" transform="rotate(90 548 225.75)" fill="#CBCBCB"/>
<rect x="542.25" y="232" width="0.5" height="12" transform="rotate(-180 542.25 232)" fill="#CBCBCB"/>
<rect x="600" y="225.75" width="0.5" height="12" transform="rotate(90 600 225.75)" fill="#CBCBCB"/>
<rect x="594.25" y="232" width="0.5" height="12" transform="rotate(-180 594.25 232)" fill="#CBCBCB"/>
<rect x="652" y="225.75" width="0.5" height="12" transform="rotate(90 652 225.75)" fill="#CBCBCB"/>
<rect x="646.25" y="232" width="0.5" height="12" transform="rotate(-180 646.25 232)" fill="#CBCBCB"/>
<rect x="704" y="225.75" width="0.5" height="12" transform="rotate(90 704 225.75)" fill="#CBCBCB"/>
<rect x="698.25" y="232" width="0.5" height="12" transform="rotate(-180 698.25 232)" fill="#CBCBCB"/>
<rect x="756" y="225.75" width="0.5" height="12" transform="rotate(90 756 225.75)" fill="#CBCBCB"/>
<rect x="750.25" y="232" width="0.5" height="12" transform="rotate(-180 750.25 232)" fill="#CBCBCB"/>
<rect x="808" y="225.75" width="0.5" height="12" transform="rotate(90 808 225.75)" fill="#CBCBCB"/>
<rect x="802.25" y="232" width="0.5" height="12" transform="rotate(-180 802.25 232)" fill="#CBCBCB"/>
<rect x="860" y="225.75" width="0.5" height="12" transform="rotate(90 860 225.75)" fill="#CBCBCB"/>
<rect x="854.25" y="232" width="0.5" height="12" transform="rotate(-180 854.25 232)" fill="#CBCBCB"/>
<rect x="912" y="225.75" width="0.5" height="12" transform="rotate(90 912 225.75)" fill="#CBCBCB"/>
<rect x="906.25" y="232" width="0.5" height="12" transform="rotate(-180 906.25 232)" fill="#CBCBCB"/>
<rect x="964" y="225.75" width="0.5" height="12" transform="rotate(90 964 225.75)" fill="#CBCBCB"/>
<rect x="958.25" y="232" width="0.5" height="12" transform="rotate(-180 958.25 232)" fill="#CBCBCB"/>
<rect x="1016" y="225.75" width="0.5" height="12" transform="rotate(90 1016 225.75)" fill="#CBCBCB"/>
<rect x="1010.25" y="232" width="0.5" height="12" transform="rotate(-180 1010.25 232)" fill="#CBCBCB"/>
<rect x="1068" y="225.75" width="0.5" height="12" transform="rotate(90 1068 225.75)" fill="#CBCBCB"/>
<rect x="1062.25" y="232" width="0.5" height="12" transform="rotate(-180 1062.25 232)" fill="#CBCBCB"/>
<rect x="1120" y="225.75" width="0.5" height="12" transform="rotate(90 1120 225.75)" fill="#CBCBCB"/>
<rect x="1114.25" y="232" width="0.5" height="12" transform="rotate(-180 1114.25 232)" fill="#CBCBCB"/>
<rect x="1172" y="225.75" width="0.5" height="12" transform="rotate(90 1172 225.75)" fill="#CBCBCB"/>
<rect x="1166.25" y="232" width="0.5" height="12" transform="rotate(-180 1166.25 232)" fill="#CBCBCB"/>
<rect x="1224" y="225.75" width="0.5" height="12" transform="rotate(90 1224 225.75)" fill="#CBCBCB"/>
<rect x="1218.25" y="232" width="0.5" height="12" transform="rotate(-180 1218.25 232)" fill="#CBCBCB"/>
<rect x="1276" y="225.75" width="0.5" height="12" transform="rotate(90 1276 225.75)" fill="#CBCBCB"/>
<rect x="1270.25" y="232" width="0.5" height="12" transform="rotate(-180 1270.25 232)" fill="#CBCBCB"/>
<rect x="1328" y="225.75" width="0.5" height="12" transform="rotate(90 1328 225.75)" fill="#CBCBCB"/>
<rect x="1322.25" y="232" width="0.5" height="12" transform="rotate(-180 1322.25 232)" fill="#CBCBCB"/>
<rect x="1380" y="225.75" width="0.5" height="12" transform="rotate(90 1380 225.75)" fill="#CBCBCB"/>
<rect x="1374.25" y="232" width="0.5" height="12" transform="rotate(-180 1374.25 232)" fill="#CBCBCB"/>
<rect x="1432" y="225.75" width="0.5" height="12" transform="rotate(90 1432 225.75)" fill="#CBCBCB"/>
<rect x="1426.25" y="232" width="0.5" height="12" transform="rotate(-180 1426.25 232)" fill="#CBCBCB"/>
<rect x="1484" y="225.75" width="0.5" height="12" transform="rotate(90 1484 225.75)" fill="#CBCBCB"/>
<rect x="1478.25" y="232" width="0.5" height="12" transform="rotate(-180 1478.25 232)" fill="#CBCBCB"/>
<rect x="1536" y="225.75" width="0.5" height="12" transform="rotate(90 1536 225.75)" fill="#CBCBCB"/>
<rect x="1530.25" y="232" width="0.5" height="12" transform="rotate(-180 1530.25 232)" fill="#CBCBCB"/>
<rect x="1588" y="225.75" width="0.5" height="12" transform="rotate(90 1588 225.75)" fill="#CBCBCB"/>
<rect x="1582.25" y="232" width="0.5" height="12" transform="rotate(-180 1582.25 232)" fill="#CBCBCB"/>
<rect x="1640" y="225.75" width="0.5" height="12" transform="rotate(90 1640 225.75)" fill="#CBCBCB"/>
<rect x="1634.25" y="232" width="0.5" height="12" transform="rotate(-180 1634.25 232)" fill="#CBCBCB"/>
<rect x="1692" y="225.75" width="0.5" height="12" transform="rotate(90 1692 225.75)" fill="#CBCBCB"/>
<rect x="1686.25" y="232" width="0.5" height="12" transform="rotate(-180 1686.25 232)" fill="#CBCBCB"/>
<rect x="28" y="277.75" width="0.5" height="12" transform="rotate(90 28 277.75)" fill="#CBCBCB"/>
<rect x="22.25" y="284" width="0.5" height="12" transform="rotate(-180 22.25 284)" fill="#CBCBCB"/>
<rect x="80" y="277.75" width="0.5" height="12" transform="rotate(90 80 277.75)" fill="#CBCBCB"/>
<rect x="74.25" y="284" width="0.5" height="12" transform="rotate(-180 74.25 284)" fill="#CBCBCB"/>
<rect x="132" y="277.75" width="0.5" height="12" transform="rotate(90 132 277.75)" fill="#CBCBCB"/>
<rect x="126.25" y="284" width="0.5" height="12" transform="rotate(-180 126.25 284)" fill="#CBCBCB"/>
<rect x="184" y="277.75" width="0.5" height="12" transform="rotate(90 184 277.75)" fill="#CBCBCB"/>
<rect x="178.25" y="284" width="0.5" height="12" transform="rotate(-180 178.25 284)" fill="#CBCBCB"/>
<rect x="236" y="277.75" width="0.5" height="12" transform="rotate(90 236 277.75)" fill="#CBCBCB"/>
<rect x="230.25" y="284" width="0.5" height="12" transform="rotate(-180 230.25 284)" fill="#CBCBCB"/>
<rect x="288" y="277.75" width="0.5" height="12" transform="rotate(90 288 277.75)" fill="#CBCBCB"/>
<rect x="282.25" y="284" width="0.5" height="12" transform="rotate(-180 282.25 284)" fill="#CBCBCB"/>
<rect x="340" y="277.75" width="0.5" height="12" transform="rotate(90 340 277.75)" fill="#CBCBCB"/>
<rect x="334.25" y="284" width="0.5" height="12" transform="rotate(-180 334.25 284)" fill="#CBCBCB"/>
<rect x="392" y="277.75" width="0.5" height="12" transform="rotate(90 392 277.75)" fill="#CBCBCB"/>
<rect x="386.25" y="284" width="0.5" height="12" transform="rotate(-180 386.25 284)" fill="#CBCBCB"/>
<rect x="444" y="277.75" width="0.5" height="12" transform="rotate(90 444 277.75)" fill="#CBCBCB"/>
<rect x="438.25" y="284" width="0.5" height="12" transform="rotate(-180 438.25 284)" fill="#CBCBCB"/>
<rect x="496" y="277.75" width="0.5" height="12" transform="rotate(90 496 277.75)" fill="#CBCBCB"/>
<rect x="490.25" y="284" width="0.5" height="12" transform="rotate(-180 490.25 284)" fill="#CBCBCB"/>
<rect x="548" y="277.75" width="0.5" height="12" transform="rotate(90 548 277.75)" fill="#CBCBCB"/>
<rect x="542.25" y="284" width="0.5" height="12" transform="rotate(-180 542.25 284)" fill="#CBCBCB"/>
<rect x="600" y="277.75" width="0.5" height="12" transform="rotate(90 600 277.75)" fill="#CBCBCB"/>
<rect x="594.25" y="284" width="0.5" height="12" transform="rotate(-180 594.25 284)" fill="#CBCBCB"/>
<rect x="652" y="277.75" width="0.5" height="12" transform="rotate(90 652 277.75)" fill="#CBCBCB"/>
<rect x="646.25" y="284" width="0.5" height="12" transform="rotate(-180 646.25 284)" fill="#CBCBCB"/>
<rect x="704" y="277.75" width="0.5" height="12" transform="rotate(90 704 277.75)" fill="#CBCBCB"/>
<rect x="698.25" y="284" width="0.5" height="12" transform="rotate(-180 698.25 284)" fill="#CBCBCB"/>
<rect x="756" y="277.75" width="0.5" height="12" transform="rotate(90 756 277.75)" fill="#CBCBCB"/>
<rect x="750.25" y="284" width="0.5" height="12" transform="rotate(-180 750.25 284)" fill="#CBCBCB"/>
<rect x="808" y="277.75" width="0.5" height="12" transform="rotate(90 808 277.75)" fill="#CBCBCB"/>
<rect x="802.25" y="284" width="0.5" height="12" transform="rotate(-180 802.25 284)" fill="#CBCBCB"/>
<rect x="860" y="277.75" width="0.5" height="12" transform="rotate(90 860 277.75)" fill="#CBCBCB"/>
<rect x="854.25" y="284" width="0.5" height="12" transform="rotate(-180 854.25 284)" fill="#CBCBCB"/>
<rect x="912" y="277.75" width="0.5" height="12" transform="rotate(90 912 277.75)" fill="#CBCBCB"/>
<rect x="906.25" y="284" width="0.5" height="12" transform="rotate(-180 906.25 284)" fill="#CBCBCB"/>
<rect x="964" y="277.75" width="0.5" height="12" transform="rotate(90 964 277.75)" fill="#CBCBCB"/>
<rect x="958.25" y="284" width="0.5" height="12" transform="rotate(-180 958.25 284)" fill="#CBCBCB"/>
<rect x="1016" y="277.75" width="0.5" height="12" transform="rotate(90 1016 277.75)" fill="#CBCBCB"/>
<rect x="1010.25" y="284" width="0.5" height="12" transform="rotate(-180 1010.25 284)" fill="#CBCBCB"/>
<rect x="1068" y="277.75" width="0.5" height="12" transform="rotate(90 1068 277.75)" fill="#CBCBCB"/>
<rect x="1062.25" y="284" width="0.5" height="12" transform="rotate(-180 1062.25 284)" fill="#CBCBCB"/>
<rect x="1120" y="277.75" width="0.5" height="12" transform="rotate(90 1120 277.75)" fill="#CBCBCB"/>
<rect x="1114.25" y="284" width="0.5" height="12" transform="rotate(-180 1114.25 284)" fill="#CBCBCB"/>
<rect x="1172" y="277.75" width="0.5" height="12" transform="rotate(90 1172 277.75)" fill="#CBCBCB"/>
<rect x="1166.25" y="284" width="0.5" height="12" transform="rotate(-180 1166.25 284)" fill="#CBCBCB"/>
<rect x="1224" y="277.75" width="0.5" height="12" transform="rotate(90 1224 277.75)" fill="#CBCBCB"/>
<rect x="1218.25" y="284" width="0.5" height="12" transform="rotate(-180 1218.25 284)" fill="#CBCBCB"/>
<rect x="1276" y="277.75" width="0.5" height="12" transform="rotate(90 1276 277.75)" fill="#CBCBCB"/>
<rect x="1270.25" y="284" width="0.5" height="12" transform="rotate(-180 1270.25 284)" fill="#CBCBCB"/>
<rect x="1328" y="277.75" width="0.5" height="12" transform="rotate(90 1328 277.75)" fill="#CBCBCB"/>
<rect x="1322.25" y="284" width="0.5" height="12" transform="rotate(-180 1322.25 284)" fill="#CBCBCB"/>
<rect x="1380" y="277.75" width="0.5" height="12" transform="rotate(90 1380 277.75)" fill="#CBCBCB"/>
<rect x="1374.25" y="284" width="0.5" height="12" transform="rotate(-180 1374.25 284)" fill="#CBCBCB"/>
<rect x="1432" y="277.75" width="0.5" height="12" transform="rotate(90 1432 277.75)" fill="#CBCBCB"/>
<rect x="1426.25" y="284" width="0.5" height="12" transform="rotate(-180 1426.25 284)" fill="#CBCBCB"/>
<rect x="1484" y="277.75" width="0.5" height="12" transform="rotate(90 1484 277.75)" fill="#CBCBCB"/>
<rect x="1478.25" y="284" width="0.5" height="12" transform="rotate(-180 1478.25 284)" fill="#CBCBCB"/>
<rect x="1536" y="277.75" width="0.5" height="12" transform="rotate(90 1536 277.75)" fill="#CBCBCB"/>
<rect x="1530.25" y="284" width="0.5" height="12" transform="rotate(-180 1530.25 284)" fill="#CBCBCB"/>
<rect x="1588" y="277.75" width="0.5" height="12" transform="rotate(90 1588 277.75)" fill="#CBCBCB"/>
<rect x="1582.25" y="284" width="0.5" height="12" transform="rotate(-180 1582.25 284)" fill="#CBCBCB"/>
<rect x="1640" y="277.75" width="0.5" height="12" transform="rotate(90 1640 277.75)" fill="#CBCBCB"/>
<rect x="1634.25" y="284" width="0.5" height="12" transform="rotate(-180 1634.25 284)" fill="#CBCBCB"/>
<rect x="1692" y="277.75" width="0.5" height="12" transform="rotate(90 1692 277.75)" fill="#CBCBCB"/>
<rect x="1686.25" y="284" width="0.5" height="12" transform="rotate(-180 1686.25 284)" fill="#CBCBCB"/>
<rect x="28" y="329.75" width="0.5" height="12" transform="rotate(90 28 329.75)" fill="#CBCBCB"/>
<rect x="22.25" y="336" width="0.5" height="12" transform="rotate(-180 22.25 336)" fill="#CBCBCB"/>
<rect x="80" y="329.75" width="0.5" height="12" transform="rotate(90 80 329.75)" fill="#CBCBCB"/>
<rect x="74.25" y="336" width="0.5" height="12" transform="rotate(-180 74.25 336)" fill="#CBCBCB"/>
<rect x="132" y="329.75" width="0.5" height="12" transform="rotate(90 132 329.75)" fill="#CBCBCB"/>
<rect x="126.25" y="336" width="0.5" height="12" transform="rotate(-180 126.25 336)" fill="#CBCBCB"/>
<rect x="184" y="329.75" width="0.5" height="12" transform="rotate(90 184 329.75)" fill="#CBCBCB"/>
<rect x="178.25" y="336" width="0.5" height="12" transform="rotate(-180 178.25 336)" fill="#CBCBCB"/>
<rect x="236" y="329.75" width="0.5" height="12" transform="rotate(90 236 329.75)" fill="#CBCBCB"/>
<rect x="230.25" y="336" width="0.5" height="12" transform="rotate(-180 230.25 336)" fill="#CBCBCB"/>
<rect x="288" y="329.75" width="0.5" height="12" transform="rotate(90 288 329.75)" fill="#CBCBCB"/>
<rect x="282.25" y="336" width="0.5" height="12" transform="rotate(-180 282.25 336)" fill="#CBCBCB"/>
<rect x="340" y="329.75" width="0.5" height="12" transform="rotate(90 340 329.75)" fill="#CBCBCB"/>
<rect x="334.25" y="336" width="0.5" height="12" transform="rotate(-180 334.25 336)" fill="#CBCBCB"/>
<rect x="392" y="329.75" width="0.5" height="12" transform="rotate(90 392 329.75)" fill="#CBCBCB"/>
<rect x="386.25" y="336" width="0.5" height="12" transform="rotate(-180 386.25 336)" fill="#CBCBCB"/>
<rect x="444" y="329.75" width="0.5" height="12" transform="rotate(90 444 329.75)" fill="#CBCBCB"/>
<rect x="438.25" y="336" width="0.5" height="12" transform="rotate(-180 438.25 336)" fill="#CBCBCB"/>
<rect x="496" y="329.75" width="0.5" height="12" transform="rotate(90 496 329.75)" fill="#CBCBCB"/>
<rect x="490.25" y="336" width="0.5" height="12" transform="rotate(-180 490.25 336)" fill="#CBCBCB"/>
<rect x="548" y="329.75" width="0.5" height="12" transform="rotate(90 548 329.75)" fill="#CBCBCB"/>
<rect x="542.25" y="336" width="0.5" height="12" transform="rotate(-180 542.25 336)" fill="#CBCBCB"/>
<rect x="600" y="329.75" width="0.5" height="12" transform="rotate(90 600 329.75)" fill="#CBCBCB"/>
<rect x="594.25" y="336" width="0.5" height="12" transform="rotate(-180 594.25 336)" fill="#CBCBCB"/>
<rect x="652" y="329.75" width="0.5" height="12" transform="rotate(90 652 329.75)" fill="#CBCBCB"/>
<rect x="646.25" y="336" width="0.5" height="12" transform="rotate(-180 646.25 336)" fill="#CBCBCB"/>
<rect x="704" y="329.75" width="0.5" height="12" transform="rotate(90 704 329.75)" fill="#CBCBCB"/>
<rect x="698.25" y="336" width="0.5" height="12" transform="rotate(-180 698.25 336)" fill="#CBCBCB"/>
<rect x="756" y="329.75" width="0.5" height="12" transform="rotate(90 756 329.75)" fill="#CBCBCB"/>
<rect x="750.25" y="336" width="0.5" height="12" transform="rotate(-180 750.25 336)" fill="#CBCBCB"/>
<rect x="808" y="329.75" width="0.5" height="12" transform="rotate(90 808 329.75)" fill="#CBCBCB"/>
<rect x="802.25" y="336" width="0.5" height="12" transform="rotate(-180 802.25 336)" fill="#CBCBCB"/>
<rect x="860" y="329.75" width="0.5" height="12" transform="rotate(90 860 329.75)" fill="#CBCBCB"/>
<rect x="854.25" y="336" width="0.5" height="12" transform="rotate(-180 854.25 336)" fill="#CBCBCB"/>
<rect x="912" y="329.75" width="0.5" height="12" transform="rotate(90 912 329.75)" fill="#CBCBCB"/>
<rect x="906.25" y="336" width="0.5" height="12" transform="rotate(-180 906.25 336)" fill="#CBCBCB"/>
<rect x="964" y="329.75" width="0.5" height="12" transform="rotate(90 964 329.75)" fill="#CBCBCB"/>
<rect x="958.25" y="336" width="0.5" height="12" transform="rotate(-180 958.25 336)" fill="#CBCBCB"/>
<rect x="1016" y="329.75" width="0.5" height="12" transform="rotate(90 1016 329.75)" fill="#CBCBCB"/>
<rect x="1010.25" y="336" width="0.5" height="12" transform="rotate(-180 1010.25 336)" fill="#CBCBCB"/>
<rect x="1068" y="329.75" width="0.5" height="12" transform="rotate(90 1068 329.75)" fill="#CBCBCB"/>
<rect x="1062.25" y="336" width="0.5" height="12" transform="rotate(-180 1062.25 336)" fill="#CBCBCB"/>
<rect x="1120" y="329.75" width="0.5" height="12" transform="rotate(90 1120 329.75)" fill="#CBCBCB"/>
<rect x="1114.25" y="336" width="0.5" height="12" transform="rotate(-180 1114.25 336)" fill="#CBCBCB"/>
<rect x="1172" y="329.75" width="0.5" height="12" transform="rotate(90 1172 329.75)" fill="#CBCBCB"/>
<rect x="1166.25" y="336" width="0.5" height="12" transform="rotate(-180 1166.25 336)" fill="#CBCBCB"/>
<rect x="1224" y="329.75" width="0.5" height="12" transform="rotate(90 1224 329.75)" fill="#CBCBCB"/>
<rect x="1218.25" y="336" width="0.5" height="12" transform="rotate(-180 1218.25 336)" fill="#CBCBCB"/>
<rect x="1276" y="329.75" width="0.5" height="12" transform="rotate(90 1276 329.75)" fill="#CBCBCB"/>
<rect x="1270.25" y="336" width="0.5" height="12" transform="rotate(-180 1270.25 336)" fill="#CBCBCB"/>
<rect x="1328" y="329.75" width="0.5" height="12" transform="rotate(90 1328 329.75)" fill="#CBCBCB"/>
<rect x="1322.25" y="336" width="0.5" height="12" transform="rotate(-180 1322.25 336)" fill="#CBCBCB"/>
<rect x="1380" y="329.75" width="0.5" height="12" transform="rotate(90 1380 329.75)" fill="#CBCBCB"/>
<rect x="1374.25" y="336" width="0.5" height="12" transform="rotate(-180 1374.25 336)" fill="#CBCBCB"/>
<rect x="1432" y="329.75" width="0.5" height="12" transform="rotate(90 1432 329.75)" fill="#CBCBCB"/>
<rect x="1426.25" y="336" width="0.5" height="12" transform="rotate(-180 1426.25 336)" fill="#CBCBCB"/>
<rect x="1484" y="329.75" width="0.5" height="12" transform="rotate(90 1484 329.75)" fill="#CBCBCB"/>
<rect x="1478.25" y="336" width="0.5" height="12" transform="rotate(-180 1478.25 336)" fill="#CBCBCB"/>
<rect x="1536" y="329.75" width="0.5" height="12" transform="rotate(90 1536 329.75)" fill="#CBCBCB"/>
<rect x="1530.25" y="336" width="0.5" height="12" transform="rotate(-180 1530.25 336)" fill="#CBCBCB"/>
<rect x="1588" y="329.75" width="0.5" height="12" transform="rotate(90 1588 329.75)" fill="#CBCBCB"/>
<rect x="1582.25" y="336" width="0.5" height="12" transform="rotate(-180 1582.25 336)" fill="#CBCBCB"/>
<rect x="1640" y="329.75" width="0.5" height="12" transform="rotate(90 1640 329.75)" fill="#CBCBCB"/>
<rect x="1634.25" y="336" width="0.5" height="12" transform="rotate(-180 1634.25 336)" fill="#CBCBCB"/>
<rect x="1692" y="329.75" width="0.5" height="12" transform="rotate(90 1692 329.75)" fill="#CBCBCB"/>
<rect x="1686.25" y="336" width="0.5" height="12" transform="rotate(-180 1686.25 336)" fill="#CBCBCB"/>
<rect x="28" y="381.75" width="0.5" height="12" transform="rotate(90 28 381.75)" fill="#CBCBCB"/>
<rect x="22.25" y="388" width="0.5" height="12" transform="rotate(-180 22.25 388)" fill="#CBCBCB"/>
<rect x="80" y="381.75" width="0.5" height="12" transform="rotate(90 80 381.75)" fill="#CBCBCB"/>
<rect x="74.25" y="388" width="0.5" height="12" transform="rotate(-180 74.25 388)" fill="#CBCBCB"/>
<rect x="132" y="381.75" width="0.5" height="12" transform="rotate(90 132 381.75)" fill="#CBCBCB"/>
<rect x="126.25" y="388" width="0.5" height="12" transform="rotate(-180 126.25 388)" fill="#CBCBCB"/>
<rect x="184" y="381.75" width="0.5" height="12" transform="rotate(90 184 381.75)" fill="#CBCBCB"/>
<rect x="178.25" y="388" width="0.5" height="12" transform="rotate(-180 178.25 388)" fill="#CBCBCB"/>
<rect x="236" y="381.75" width="0.5" height="12" transform="rotate(90 236 381.75)" fill="#CBCBCB"/>
<rect x="230.25" y="388" width="0.5" height="12" transform="rotate(-180 230.25 388)" fill="#CBCBCB"/>
<rect x="288" y="381.75" width="0.5" height="12" transform="rotate(90 288 381.75)" fill="#CBCBCB"/>
<rect x="282.25" y="388" width="0.5" height="12" transform="rotate(-180 282.25 388)" fill="#CBCBCB"/>
<rect x="340" y="381.75" width="0.5" height="12" transform="rotate(90 340 381.75)" fill="#CBCBCB"/>
<rect x="334.25" y="388" width="0.5" height="12" transform="rotate(-180 334.25 388)" fill="#CBCBCB"/>
<rect x="392" y="381.75" width="0.5" height="12" transform="rotate(90 392 381.75)" fill="#CBCBCB"/>
<rect x="386.25" y="388" width="0.5" height="12" transform="rotate(-180 386.25 388)" fill="#CBCBCB"/>
<rect x="444" y="381.75" width="0.5" height="12" transform="rotate(90 444 381.75)" fill="#CBCBCB"/>
<rect x="438.25" y="388" width="0.5" height="12" transform="rotate(-180 438.25 388)" fill="#CBCBCB"/>
<rect x="496" y="381.75" width="0.5" height="12" transform="rotate(90 496 381.75)" fill="#CBCBCB"/>
<rect x="490.25" y="388" width="0.5" height="12" transform="rotate(-180 490.25 388)" fill="#CBCBCB"/>
<rect x="548" y="381.75" width="0.5" height="12" transform="rotate(90 548 381.75)" fill="#CBCBCB"/>
<rect x="542.25" y="388" width="0.5" height="12" transform="rotate(-180 542.25 388)" fill="#CBCBCB"/>
<rect x="600" y="381.75" width="0.5" height="12" transform="rotate(90 600 381.75)" fill="#CBCBCB"/>
<rect x="594.25" y="388" width="0.5" height="12" transform="rotate(-180 594.25 388)" fill="#CBCBCB"/>
<rect x="652" y="381.75" width="0.5" height="12" transform="rotate(90 652 381.75)" fill="#CBCBCB"/>
<rect x="646.25" y="388" width="0.5" height="12" transform="rotate(-180 646.25 388)" fill="#CBCBCB"/>
<rect x="704" y="381.75" width="0.5" height="12" transform="rotate(90 704 381.75)" fill="#CBCBCB"/>
<rect x="698.25" y="388" width="0.5" height="12" transform="rotate(-180 698.25 388)" fill="#CBCBCB"/>
<rect x="756" y="381.75" width="0.5" height="12" transform="rotate(90 756 381.75)" fill="#CBCBCB"/>
<rect x="750.25" y="388" width="0.5" height="12" transform="rotate(-180 750.25 388)" fill="#CBCBCB"/>
<rect x="808" y="381.75" width="0.5" height="12" transform="rotate(90 808 381.75)" fill="#CBCBCB"/>
<rect x="802.25" y="388" width="0.5" height="12" transform="rotate(-180 802.25 388)" fill="#CBCBCB"/>
<rect x="860" y="381.75" width="0.5" height="12" transform="rotate(90 860 381.75)" fill="#CBCBCB"/>
<rect x="854.25" y="388" width="0.5" height="12" transform="rotate(-180 854.25 388)" fill="#CBCBCB"/>
<rect x="912" y="381.75" width="0.5" height="12" transform="rotate(90 912 381.75)" fill="#CBCBCB"/>
<rect x="906.25" y="388" width="0.5" height="12" transform="rotate(-180 906.25 388)" fill="#CBCBCB"/>
<rect x="964" y="381.75" width="0.5" height="12" transform="rotate(90 964 381.75)" fill="#CBCBCB"/>
<rect x="958.25" y="388" width="0.5" height="12" transform="rotate(-180 958.25 388)" fill="#CBCBCB"/>
<rect x="1016" y="381.75" width="0.5" height="12" transform="rotate(90 1016 381.75)" fill="#CBCBCB"/>
<rect x="1010.25" y="388" width="0.5" height="12" transform="rotate(-180 1010.25 388)" fill="#CBCBCB"/>
<rect x="1068" y="381.75" width="0.5" height="12" transform="rotate(90 1068 381.75)" fill="#CBCBCB"/>
<rect x="1062.25" y="388" width="0.5" height="12" transform="rotate(-180 1062.25 388)" fill="#CBCBCB"/>
<rect x="1120" y="381.75" width="0.5" height="12" transform="rotate(90 1120 381.75)" fill="#CBCBCB"/>
<rect x="1114.25" y="388" width="0.5" height="12" transform="rotate(-180 1114.25 388)" fill="#CBCBCB"/>
<rect x="1172" y="381.75" width="0.5" height="12" transform="rotate(90 1172 381.75)" fill="#CBCBCB"/>
<rect x="1166.25" y="388" width="0.5" height="12" transform="rotate(-180 1166.25 388)" fill="#CBCBCB"/>
<rect x="1224" y="381.75" width="0.5" height="12" transform="rotate(90 1224 381.75)" fill="#CBCBCB"/>
<rect x="1218.25" y="388" width="0.5" height="12" transform="rotate(-180 1218.25 388)" fill="#CBCBCB"/>
<rect x="1276" y="381.75" width="0.5" height="12" transform="rotate(90 1276 381.75)" fill="#CBCBCB"/>
<rect x="1270.25" y="388" width="0.5" height="12" transform="rotate(-180 1270.25 388)" fill="#CBCBCB"/>
<rect x="1328" y="381.75" width="0.5" height="12" transform="rotate(90 1328 381.75)" fill="#CBCBCB"/>
<rect x="1322.25" y="388" width="0.5" height="12" transform="rotate(-180 1322.25 388)" fill="#CBCBCB"/>
<rect x="1380" y="381.75" width="0.5" height="12" transform="rotate(90 1380 381.75)" fill="#CBCBCB"/>
<rect x="1374.25" y="388" width="0.5" height="12" transform="rotate(-180 1374.25 388)" fill="#CBCBCB"/>
<rect x="1432" y="381.75" width="0.5" height="12" transform="rotate(90 1432 381.75)" fill="#CBCBCB"/>
<rect x="1426.25" y="388" width="0.5" height="12" transform="rotate(-180 1426.25 388)" fill="#CBCBCB"/>
<rect x="1484" y="381.75" width="0.5" height="12" transform="rotate(90 1484 381.75)" fill="#CBCBCB"/>
<rect x="1478.25" y="388" width="0.5" height="12" transform="rotate(-180 1478.25 388)" fill="#CBCBCB"/>
<rect x="1536" y="381.75" width="0.5" height="12" transform="rotate(90 1536 381.75)" fill="#CBCBCB"/>
<rect x="1530.25" y="388" width="0.5" height="12" transform="rotate(-180 1530.25 388)" fill="#CBCBCB"/>
<rect x="1588" y="381.75" width="0.5" height="12" transform="rotate(90 1588 381.75)" fill="#CBCBCB"/>
<rect x="1582.25" y="388" width="0.5" height="12" transform="rotate(-180 1582.25 388)" fill="#CBCBCB"/>
<rect x="1640" y="381.75" width="0.5" height="12" transform="rotate(90 1640 381.75)" fill="#CBCBCB"/>
<rect x="1634.25" y="388" width="0.5" height="12" transform="rotate(-180 1634.25 388)" fill="#CBCBCB"/>
<rect x="1692" y="381.75" width="0.5" height="12" transform="rotate(90 1692 381.75)" fill="#CBCBCB"/>
<rect x="1686.25" y="388" width="0.5" height="12" transform="rotate(-180 1686.25 388)" fill="#CBCBCB"/>
<rect x="28" y="433.75" width="0.5" height="12" transform="rotate(90 28 433.75)" fill="#CBCBCB"/>
<rect x="22.25" y="440" width="0.5" height="12" transform="rotate(-180 22.25 440)" fill="#CBCBCB"/>
<rect x="80" y="433.75" width="0.5" height="12" transform="rotate(90 80 433.75)" fill="#CBCBCB"/>
<rect x="74.25" y="440" width="0.5" height="12" transform="rotate(-180 74.25 440)" fill="#CBCBCB"/>
<rect x="132" y="433.75" width="0.5" height="12" transform="rotate(90 132 433.75)" fill="#CBCBCB"/>
<rect x="126.25" y="440" width="0.5" height="12" transform="rotate(-180 126.25 440)" fill="#CBCBCB"/>
<rect x="184" y="433.75" width="0.5" height="12" transform="rotate(90 184 433.75)" fill="#CBCBCB"/>
<rect x="178.25" y="440" width="0.5" height="12" transform="rotate(-180 178.25 440)" fill="#CBCBCB"/>
<rect x="236" y="433.75" width="0.5" height="12" transform="rotate(90 236 433.75)" fill="#CBCBCB"/>
<rect x="230.25" y="440" width="0.5" height="12" transform="rotate(-180 230.25 440)" fill="#CBCBCB"/>
<rect x="288" y="433.75" width="0.5" height="12" transform="rotate(90 288 433.75)" fill="#CBCBCB"/>
<rect x="282.25" y="440" width="0.5" height="12" transform="rotate(-180 282.25 440)" fill="#CBCBCB"/>
<rect x="340" y="433.75" width="0.5" height="12" transform="rotate(90 340 433.75)" fill="#CBCBCB"/>
<rect x="334.25" y="440" width="0.5" height="12" transform="rotate(-180 334.25 440)" fill="#CBCBCB"/>
<rect x="392" y="433.75" width="0.5" height="12" transform="rotate(90 392 433.75)" fill="#CBCBCB"/>
<rect x="386.25" y="440" width="0.5" height="12" transform="rotate(-180 386.25 440)" fill="#CBCBCB"/>
<rect x="444" y="433.75" width="0.5" height="12" transform="rotate(90 444 433.75)" fill="#CBCBCB"/>
<rect x="438.25" y="440" width="0.5" height="12" transform="rotate(-180 438.25 440)" fill="#CBCBCB"/>
<rect x="496" y="433.75" width="0.5" height="12" transform="rotate(90 496 433.75)" fill="#CBCBCB"/>
<rect x="490.25" y="440" width="0.5" height="12" transform="rotate(-180 490.25 440)" fill="#CBCBCB"/>
<rect x="548" y="433.75" width="0.5" height="12" transform="rotate(90 548 433.75)" fill="#CBCBCB"/>
<rect x="542.25" y="440" width="0.5" height="12" transform="rotate(-180 542.25 440)" fill="#CBCBCB"/>
<rect x="600" y="433.75" width="0.5" height="12" transform="rotate(90 600 433.75)" fill="#CBCBCB"/>
<rect x="594.25" y="440" width="0.5" height="12" transform="rotate(-180 594.25 440)" fill="#CBCBCB"/>
<rect x="652" y="433.75" width="0.5" height="12" transform="rotate(90 652 433.75)" fill="#CBCBCB"/>
<rect x="646.25" y="440" width="0.5" height="12" transform="rotate(-180 646.25 440)" fill="#CBCBCB"/>
<rect x="704" y="433.75" width="0.5" height="12" transform="rotate(90 704 433.75)" fill="#CBCBCB"/>
<rect x="698.25" y="440" width="0.5" height="12" transform="rotate(-180 698.25 440)" fill="#CBCBCB"/>
<rect x="756" y="433.75" width="0.5" height="12" transform="rotate(90 756 433.75)" fill="#CBCBCB"/>
<rect x="750.25" y="440" width="0.5" height="12" transform="rotate(-180 750.25 440)" fill="#CBCBCB"/>
<rect x="808" y="433.75" width="0.5" height="12" transform="rotate(90 808 433.75)" fill="#CBCBCB"/>
<rect x="802.25" y="440" width="0.5" height="12" transform="rotate(-180 802.25 440)" fill="#CBCBCB"/>
<rect x="860" y="433.75" width="0.5" height="12" transform="rotate(90 860 433.75)" fill="#CBCBCB"/>
<rect x="854.25" y="440" width="0.5" height="12" transform="rotate(-180 854.25 440)" fill="#CBCBCB"/>
<rect x="912" y="433.75" width="0.5" height="12" transform="rotate(90 912 433.75)" fill="#CBCBCB"/>
<rect x="906.25" y="440" width="0.5" height="12" transform="rotate(-180 906.25 440)" fill="#CBCBCB"/>
<rect x="964" y="433.75" width="0.5" height="12" transform="rotate(90 964 433.75)" fill="#CBCBCB"/>
<rect x="958.25" y="440" width="0.5" height="12" transform="rotate(-180 958.25 440)" fill="#CBCBCB"/>
<rect x="1016" y="433.75" width="0.5" height="12" transform="rotate(90 1016 433.75)" fill="#CBCBCB"/>
<rect x="1010.25" y="440" width="0.5" height="12" transform="rotate(-180 1010.25 440)" fill="#CBCBCB"/>
<rect x="1068" y="433.75" width="0.5" height="12" transform="rotate(90 1068 433.75)" fill="#CBCBCB"/>
<rect x="1062.25" y="440" width="0.5" height="12" transform="rotate(-180 1062.25 440)" fill="#CBCBCB"/>
<rect x="1120" y="433.75" width="0.5" height="12" transform="rotate(90 1120 433.75)" fill="#CBCBCB"/>
<rect x="1114.25" y="440" width="0.5" height="12" transform="rotate(-180 1114.25 440)" fill="#CBCBCB"/>
<rect x="1172" y="433.75" width="0.5" height="12" transform="rotate(90 1172 433.75)" fill="#CBCBCB"/>
<rect x="1166.25" y="440" width="0.5" height="12" transform="rotate(-180 1166.25 440)" fill="#CBCBCB"/>
<rect x="1224" y="433.75" width="0.5" height="12" transform="rotate(90 1224 433.75)" fill="#CBCBCB"/>
<rect x="1218.25" y="440" width="0.5" height="12" transform="rotate(-180 1218.25 440)" fill="#CBCBCB"/>
<rect x="1276" y="433.75" width="0.5" height="12" transform="rotate(90 1276 433.75)" fill="#CBCBCB"/>
<rect x="1270.25" y="440" width="0.5" height="12" transform="rotate(-180 1270.25 440)" fill="#CBCBCB"/>
<rect x="1328" y="433.75" width="0.5" height="12" transform="rotate(90 1328 433.75)" fill="#CBCBCB"/>
<rect x="1322.25" y="440" width="0.5" height="12" transform="rotate(-180 1322.25 440)" fill="#CBCBCB"/>
<rect x="1380" y="433.75" width="0.5" height="12" transform="rotate(90 1380 433.75)" fill="#CBCBCB"/>
<rect x="1374.25" y="440" width="0.5" height="12" transform="rotate(-180 1374.25 440)" fill="#CBCBCB"/>
<rect x="1432" y="433.75" width="0.5" height="12" transform="rotate(90 1432 433.75)" fill="#CBCBCB"/>
<rect x="1426.25" y="440" width="0.5" height="12" transform="rotate(-180 1426.25 440)" fill="#CBCBCB"/>
<rect x="1484" y="433.75" width="0.5" height="12" transform="rotate(90 1484 433.75)" fill="#CBCBCB"/>
<rect x="1478.25" y="440" width="0.5" height="12" transform="rotate(-180 1478.25 440)" fill="#CBCBCB"/>
<rect x="1536" y="433.75" width="0.5" height="12" transform="rotate(90 1536 433.75)" fill="#CBCBCB"/>
<rect x="1530.25" y="440" width="0.5" height="12" transform="rotate(-180 1530.25 440)" fill="#CBCBCB"/>
<rect x="1588" y="433.75" width="0.5" height="12" transform="rotate(90 1588 433.75)" fill="#CBCBCB"/>
<rect x="1582.25" y="440" width="0.5" height="12" transform="rotate(-180 1582.25 440)" fill="#CBCBCB"/>
<rect x="1640" y="433.75" width="0.5" height="12" transform="rotate(90 1640 433.75)" fill="#CBCBCB"/>
<rect x="1634.25" y="440" width="0.5" height="12" transform="rotate(-180 1634.25 440)" fill="#CBCBCB"/>
<rect x="1692" y="433.75" width="0.5" height="12" transform="rotate(90 1692 433.75)" fill="#CBCBCB"/>
<rect x="1686.25" y="440" width="0.5" height="12" transform="rotate(-180 1686.25 440)" fill="#CBCBCB"/>
<rect x="28" y="485.75" width="0.5" height="12" transform="rotate(90 28 485.75)" fill="#CBCBCB"/>
<rect x="22.25" y="492" width="0.5" height="12" transform="rotate(-180 22.25 492)" fill="#CBCBCB"/>
<rect x="80" y="485.75" width="0.5" height="12" transform="rotate(90 80 485.75)" fill="#CBCBCB"/>
<rect x="74.25" y="492" width="0.5" height="12" transform="rotate(-180 74.25 492)" fill="#CBCBCB"/>
<rect x="132" y="485.75" width="0.5" height="12" transform="rotate(90 132 485.75)" fill="#CBCBCB"/>
<rect x="126.25" y="492" width="0.5" height="12" transform="rotate(-180 126.25 492)" fill="#CBCBCB"/>
<rect x="184" y="485.75" width="0.5" height="12" transform="rotate(90 184 485.75)" fill="#CBCBCB"/>
<rect x="178.25" y="492" width="0.5" height="12" transform="rotate(-180 178.25 492)" fill="#CBCBCB"/>
<rect x="236" y="485.75" width="0.5" height="12" transform="rotate(90 236 485.75)" fill="#CBCBCB"/>
<rect x="230.25" y="492" width="0.5" height="12" transform="rotate(-180 230.25 492)" fill="#CBCBCB"/>
<rect x="288" y="485.75" width="0.5" height="12" transform="rotate(90 288 485.75)" fill="#CBCBCB"/>
<rect x="282.25" y="492" width="0.5" height="12" transform="rotate(-180 282.25 492)" fill="#CBCBCB"/>
<rect x="340" y="485.75" width="0.5" height="12" transform="rotate(90 340 485.75)" fill="#CBCBCB"/>
<rect x="334.25" y="492" width="0.5" height="12" transform="rotate(-180 334.25 492)" fill="#CBCBCB"/>
<rect x="392" y="485.75" width="0.5" height="12" transform="rotate(90 392 485.75)" fill="#CBCBCB"/>
<rect x="386.25" y="492" width="0.5" height="12" transform="rotate(-180 386.25 492)" fill="#CBCBCB"/>
<rect x="444" y="485.75" width="0.5" height="12" transform="rotate(90 444 485.75)" fill="#CBCBCB"/>
<rect x="438.25" y="492" width="0.5" height="12" transform="rotate(-180 438.25 492)" fill="#CBCBCB"/>
<rect x="496" y="485.75" width="0.5" height="12" transform="rotate(90 496 485.75)" fill="#CBCBCB"/>
<rect x="490.25" y="492" width="0.5" height="12" transform="rotate(-180 490.25 492)" fill="#CBCBCB"/>
<rect x="548" y="485.75" width="0.5" height="12" transform="rotate(90 548 485.75)" fill="#CBCBCB"/>
<rect x="542.25" y="492" width="0.5" height="12" transform="rotate(-180 542.25 492)" fill="#CBCBCB"/>
<rect x="600" y="485.75" width="0.5" height="12" transform="rotate(90 600 485.75)" fill="#CBCBCB"/>
<rect x="594.25" y="492" width="0.5" height="12" transform="rotate(-180 594.25 492)" fill="#CBCBCB"/>
<rect x="652" y="485.75" width="0.5" height="12" transform="rotate(90 652 485.75)" fill="#CBCBCB"/>
<rect x="646.25" y="492" width="0.5" height="12" transform="rotate(-180 646.25 492)" fill="#CBCBCB"/>
<rect x="704" y="485.75" width="0.5" height="12" transform="rotate(90 704 485.75)" fill="#CBCBCB"/>
<rect x="698.25" y="492" width="0.5" height="12" transform="rotate(-180 698.25 492)" fill="#CBCBCB"/>
<rect x="756" y="485.75" width="0.5" height="12" transform="rotate(90 756 485.75)" fill="#CBCBCB"/>
<rect x="750.25" y="492" width="0.5" height="12" transform="rotate(-180 750.25 492)" fill="#CBCBCB"/>
<rect x="808" y="485.75" width="0.5" height="12" transform="rotate(90 808 485.75)" fill="#CBCBCB"/>
<rect x="802.25" y="492" width="0.5" height="12" transform="rotate(-180 802.25 492)" fill="#CBCBCB"/>
<rect x="860" y="485.75" width="0.5" height="12" transform="rotate(90 860 485.75)" fill="#CBCBCB"/>
<rect x="854.25" y="492" width="0.5" height="12" transform="rotate(-180 854.25 492)" fill="#CBCBCB"/>
<rect x="912" y="485.75" width="0.5" height="12" transform="rotate(90 912 485.75)" fill="#CBCBCB"/>
<rect x="906.25" y="492" width="0.5" height="12" transform="rotate(-180 906.25 492)" fill="#CBCBCB"/>
<rect x="964" y="485.75" width="0.5" height="12" transform="rotate(90 964 485.75)" fill="#CBCBCB"/>
<rect x="958.25" y="492" width="0.5" height="12" transform="rotate(-180 958.25 492)" fill="#CBCBCB"/>
<rect x="1016" y="485.75" width="0.5" height="12" transform="rotate(90 1016 485.75)" fill="#CBCBCB"/>
<rect x="1010.25" y="492" width="0.5" height="12" transform="rotate(-180 1010.25 492)" fill="#CBCBCB"/>
<rect x="1068" y="485.75" width="0.5" height="12" transform="rotate(90 1068 485.75)" fill="#CBCBCB"/>
<rect x="1062.25" y="492" width="0.5" height="12" transform="rotate(-180 1062.25 492)" fill="#CBCBCB"/>
<rect x="1120" y="485.75" width="0.5" height="12" transform="rotate(90 1120 485.75)" fill="#CBCBCB"/>
<rect x="1114.25" y="492" width="0.5" height="12" transform="rotate(-180 1114.25 492)" fill="#CBCBCB"/>
<rect x="1172" y="485.75" width="0.5" height="12" transform="rotate(90 1172 485.75)" fill="#CBCBCB"/>
<rect x="1166.25" y="492" width="0.5" height="12" transform="rotate(-180 1166.25 492)" fill="#CBCBCB"/>
<rect x="1224" y="485.75" width="0.5" height="12" transform="rotate(90 1224 485.75)" fill="#CBCBCB"/>
<rect x="1218.25" y="492" width="0.5" height="12" transform="rotate(-180 1218.25 492)" fill="#CBCBCB"/>
<rect x="1276" y="485.75" width="0.5" height="12" transform="rotate(90 1276 485.75)" fill="#CBCBCB"/>
<rect x="1270.25" y="492" width="0.5" height="12" transform="rotate(-180 1270.25 492)" fill="#CBCBCB"/>
<rect x="1328" y="485.75" width="0.5" height="12" transform="rotate(90 1328 485.75)" fill="#CBCBCB"/>
<rect x="1322.25" y="492" width="0.5" height="12" transform="rotate(-180 1322.25 492)" fill="#CBCBCB"/>
<rect x="1380" y="485.75" width="0.5" height="12" transform="rotate(90 1380 485.75)" fill="#CBCBCB"/>
<rect x="1374.25" y="492" width="0.5" height="12" transform="rotate(-180 1374.25 492)" fill="#CBCBCB"/>
<rect x="1432" y="485.75" width="0.5" height="12" transform="rotate(90 1432 485.75)" fill="#CBCBCB"/>
<rect x="1426.25" y="492" width="0.5" height="12" transform="rotate(-180 1426.25 492)" fill="#CBCBCB"/>
<rect x="1484" y="485.75" width="0.5" height="12" transform="rotate(90 1484 485.75)" fill="#CBCBCB"/>
<rect x="1478.25" y="492" width="0.5" height="12" transform="rotate(-180 1478.25 492)" fill="#CBCBCB"/>
<rect x="1536" y="485.75" width="0.5" height="12" transform="rotate(90 1536 485.75)" fill="#CBCBCB"/>
<rect x="1530.25" y="492" width="0.5" height="12" transform="rotate(-180 1530.25 492)" fill="#CBCBCB"/>
<rect x="1588" y="485.75" width="0.5" height="12" transform="rotate(90 1588 485.75)" fill="#CBCBCB"/>
<rect x="1582.25" y="492" width="0.5" height="12" transform="rotate(-180 1582.25 492)" fill="#CBCBCB"/>
<rect x="1640" y="485.75" width="0.5" height="12" transform="rotate(90 1640 485.75)" fill="#CBCBCB"/>
<rect x="1634.25" y="492" width="0.5" height="12" transform="rotate(-180 1634.25 492)" fill="#CBCBCB"/>
<rect x="1692" y="485.75" width="0.5" height="12" transform="rotate(90 1692 485.75)" fill="#CBCBCB"/>
<rect x="1686.25" y="492" width="0.5" height="12" transform="rotate(-180 1686.25 492)" fill="#CBCBCB"/>
<rect x="28" y="537.75" width="0.5" height="12" transform="rotate(90 28 537.75)" fill="#CBCBCB"/>
<rect x="22.25" y="544" width="0.5" height="12" transform="rotate(-180 22.25 544)" fill="#CBCBCB"/>
<rect x="80" y="537.75" width="0.5" height="12" transform="rotate(90 80 537.75)" fill="#CBCBCB"/>
<rect x="74.25" y="544" width="0.5" height="12" transform="rotate(-180 74.25 544)" fill="#CBCBCB"/>
<rect x="132" y="537.75" width="0.5" height="12" transform="rotate(90 132 537.75)" fill="#CBCBCB"/>
<rect x="126.25" y="544" width="0.5" height="12" transform="rotate(-180 126.25 544)" fill="#CBCBCB"/>
<rect x="184" y="537.75" width="0.5" height="12" transform="rotate(90 184 537.75)" fill="#CBCBCB"/>
<rect x="178.25" y="544" width="0.5" height="12" transform="rotate(-180 178.25 544)" fill="#CBCBCB"/>
<rect x="236" y="537.75" width="0.5" height="12" transform="rotate(90 236 537.75)" fill="#CBCBCB"/>
<rect x="230.25" y="544" width="0.5" height="12" transform="rotate(-180 230.25 544)" fill="#CBCBCB"/>
<rect x="288" y="537.75" width="0.5" height="12" transform="rotate(90 288 537.75)" fill="#CBCBCB"/>
<rect x="282.25" y="544" width="0.5" height="12" transform="rotate(-180 282.25 544)" fill="#CBCBCB"/>
<rect x="340" y="537.75" width="0.5" height="12" transform="rotate(90 340 537.75)" fill="#CBCBCB"/>
<rect x="334.25" y="544" width="0.5" height="12" transform="rotate(-180 334.25 544)" fill="#CBCBCB"/>
<rect x="392" y="537.75" width="0.5" height="12" transform="rotate(90 392 537.75)" fill="#CBCBCB"/>
<rect x="386.25" y="544" width="0.5" height="12" transform="rotate(-180 386.25 544)" fill="#CBCBCB"/>
<rect x="444" y="537.75" width="0.5" height="12" transform="rotate(90 444 537.75)" fill="#CBCBCB"/>
<rect x="438.25" y="544" width="0.5" height="12" transform="rotate(-180 438.25 544)" fill="#CBCBCB"/>
<rect x="496" y="537.75" width="0.5" height="12" transform="rotate(90 496 537.75)" fill="#CBCBCB"/>
<rect x="490.25" y="544" width="0.5" height="12" transform="rotate(-180 490.25 544)" fill="#CBCBCB"/>
<rect x="548" y="537.75" width="0.5" height="12" transform="rotate(90 548 537.75)" fill="#CBCBCB"/>
<rect x="542.25" y="544" width="0.5" height="12" transform="rotate(-180 542.25 544)" fill="#CBCBCB"/>
<rect x="600" y="537.75" width="0.5" height="12" transform="rotate(90 600 537.75)" fill="#CBCBCB"/>
<rect x="594.25" y="544" width="0.5" height="12" transform="rotate(-180 594.25 544)" fill="#CBCBCB"/>
<rect x="652" y="537.75" width="0.5" height="12" transform="rotate(90 652 537.75)" fill="#CBCBCB"/>
<rect x="646.25" y="544" width="0.5" height="12" transform="rotate(-180 646.25 544)" fill="#CBCBCB"/>
<rect x="704" y="537.75" width="0.5" height="12" transform="rotate(90 704 537.75)" fill="#CBCBCB"/>
<rect x="698.25" y="544" width="0.5" height="12" transform="rotate(-180 698.25 544)" fill="#CBCBCB"/>
<rect x="756" y="537.75" width="0.5" height="12" transform="rotate(90 756 537.75)" fill="#CBCBCB"/>
<rect x="750.25" y="544" width="0.5" height="12" transform="rotate(-180 750.25 544)" fill="#CBCBCB"/>
<rect x="808" y="537.75" width="0.5" height="12" transform="rotate(90 808 537.75)" fill="#CBCBCB"/>
<rect x="802.25" y="544" width="0.5" height="12" transform="rotate(-180 802.25 544)" fill="#CBCBCB"/>
<rect x="860" y="537.75" width="0.5" height="12" transform="rotate(90 860 537.75)" fill="#CBCBCB"/>
<rect x="854.25" y="544" width="0.5" height="12" transform="rotate(-180 854.25 544)" fill="#CBCBCB"/>
<rect x="912" y="537.75" width="0.5" height="12" transform="rotate(90 912 537.75)" fill="#CBCBCB"/>
<rect x="906.25" y="544" width="0.5" height="12" transform="rotate(-180 906.25 544)" fill="#CBCBCB"/>
<rect x="964" y="537.75" width="0.5" height="12" transform="rotate(90 964 537.75)" fill="#CBCBCB"/>
<rect x="958.25" y="544" width="0.5" height="12" transform="rotate(-180 958.25 544)" fill="#CBCBCB"/>
<rect x="1016" y="537.75" width="0.5" height="12" transform="rotate(90 1016 537.75)" fill="#CBCBCB"/>
<rect x="1010.25" y="544" width="0.5" height="12" transform="rotate(-180 1010.25 544)" fill="#CBCBCB"/>
<rect x="1068" y="537.75" width="0.5" height="12" transform="rotate(90 1068 537.75)" fill="#CBCBCB"/>
<rect x="1062.25" y="544" width="0.5" height="12" transform="rotate(-180 1062.25 544)" fill="#CBCBCB"/>
<rect x="1120" y="537.75" width="0.5" height="12" transform="rotate(90 1120 537.75)" fill="#CBCBCB"/>
<rect x="1114.25" y="544" width="0.5" height="12" transform="rotate(-180 1114.25 544)" fill="#CBCBCB"/>
<rect x="1172" y="537.75" width="0.5" height="12" transform="rotate(90 1172 537.75)" fill="#CBCBCB"/>
<rect x="1166.25" y="544" width="0.5" height="12" transform="rotate(-180 1166.25 544)" fill="#CBCBCB"/>
<rect x="1224" y="537.75" width="0.5" height="12" transform="rotate(90 1224 537.75)" fill="#CBCBCB"/>
<rect x="1218.25" y="544" width="0.5" height="12" transform="rotate(-180 1218.25 544)" fill="#CBCBCB"/>
<rect x="1276" y="537.75" width="0.5" height="12" transform="rotate(90 1276 537.75)" fill="#CBCBCB"/>
<rect x="1270.25" y="544" width="0.5" height="12" transform="rotate(-180 1270.25 544)" fill="#CBCBCB"/>
<rect x="1328" y="537.75" width="0.5" height="12" transform="rotate(90 1328 537.75)" fill="#CBCBCB"/>
<rect x="1322.25" y="544" width="0.5" height="12" transform="rotate(-180 1322.25 544)" fill="#CBCBCB"/>
<rect x="1380" y="537.75" width="0.5" height="12" transform="rotate(90 1380 537.75)" fill="#CBCBCB"/>
<rect x="1374.25" y="544" width="0.5" height="12" transform="rotate(-180 1374.25 544)" fill="#CBCBCB"/>
<rect x="1432" y="537.75" width="0.5" height="12" transform="rotate(90 1432 537.75)" fill="#CBCBCB"/>
<rect x="1426.25" y="544" width="0.5" height="12" transform="rotate(-180 1426.25 544)" fill="#CBCBCB"/>
<rect x="1484" y="537.75" width="0.5" height="12" transform="rotate(90 1484 537.75)" fill="#CBCBCB"/>
<rect x="1478.25" y="544" width="0.5" height="12" transform="rotate(-180 1478.25 544)" fill="#CBCBCB"/>
<rect x="1536" y="537.75" width="0.5" height="12" transform="rotate(90 1536 537.75)" fill="#CBCBCB"/>
<rect x="1530.25" y="544" width="0.5" height="12" transform="rotate(-180 1530.25 544)" fill="#CBCBCB"/>
<rect x="1588" y="537.75" width="0.5" height="12" transform="rotate(90 1588 537.75)" fill="#CBCBCB"/>
<rect x="1582.25" y="544" width="0.5" height="12" transform="rotate(-180 1582.25 544)" fill="#CBCBCB"/>
<rect x="1640" y="537.75" width="0.5" height="12" transform="rotate(90 1640 537.75)" fill="#CBCBCB"/>
<rect x="1634.25" y="544" width="0.5" height="12" transform="rotate(-180 1634.25 544)" fill="#CBCBCB"/>
<rect x="1692" y="537.75" width="0.5" height="12" transform="rotate(90 1692 537.75)" fill="#CBCBCB"/>
<rect x="1686.25" y="544" width="0.5" height="12" transform="rotate(-180 1686.25 544)" fill="#CBCBCB"/>
<rect x="28" y="589.75" width="0.5" height="12" transform="rotate(90 28 589.75)" fill="#CBCBCB"/>
<rect x="22.25" y="596" width="0.5" height="12" transform="rotate(-180 22.25 596)" fill="#CBCBCB"/>
<rect x="80" y="589.75" width="0.5" height="12" transform="rotate(90 80 589.75)" fill="#CBCBCB"/>
<rect x="74.25" y="596" width="0.5" height="12" transform="rotate(-180 74.25 596)" fill="#CBCBCB"/>
<rect x="132" y="589.75" width="0.5" height="12" transform="rotate(90 132 589.75)" fill="#CBCBCB"/>
<rect x="126.25" y="596" width="0.5" height="12" transform="rotate(-180 126.25 596)" fill="#CBCBCB"/>
<rect x="184" y="589.75" width="0.5" height="12" transform="rotate(90 184 589.75)" fill="#CBCBCB"/>
<rect x="178.25" y="596" width="0.5" height="12" transform="rotate(-180 178.25 596)" fill="#CBCBCB"/>
<rect x="236" y="589.75" width="0.5" height="12" transform="rotate(90 236 589.75)" fill="#CBCBCB"/>
<rect x="230.25" y="596" width="0.5" height="12" transform="rotate(-180 230.25 596)" fill="#CBCBCB"/>
<rect x="288" y="589.75" width="0.5" height="12" transform="rotate(90 288 589.75)" fill="#CBCBCB"/>
<rect x="282.25" y="596" width="0.5" height="12" transform="rotate(-180 282.25 596)" fill="#CBCBCB"/>
<rect x="340" y="589.75" width="0.5" height="12" transform="rotate(90 340 589.75)" fill="#CBCBCB"/>
<rect x="334.25" y="596" width="0.5" height="12" transform="rotate(-180 334.25 596)" fill="#CBCBCB"/>
<rect x="392" y="589.75" width="0.5" height="12" transform="rotate(90 392 589.75)" fill="#CBCBCB"/>
<rect x="386.25" y="596" width="0.5" height="12" transform="rotate(-180 386.25 596)" fill="#CBCBCB"/>
<rect x="444" y="589.75" width="0.5" height="12" transform="rotate(90 444 589.75)" fill="#CBCBCB"/>
<rect x="438.25" y="596" width="0.5" height="12" transform="rotate(-180 438.25 596)" fill="#CBCBCB"/>
<rect x="496" y="589.75" width="0.5" height="12" transform="rotate(90 496 589.75)" fill="#CBCBCB"/>
<rect x="490.25" y="596" width="0.5" height="12" transform="rotate(-180 490.25 596)" fill="#CBCBCB"/>
<rect x="548" y="589.75" width="0.5" height="12" transform="rotate(90 548 589.75)" fill="#CBCBCB"/>
<rect x="542.25" y="596" width="0.5" height="12" transform="rotate(-180 542.25 596)" fill="#CBCBCB"/>
<rect x="600" y="589.75" width="0.5" height="12" transform="rotate(90 600 589.75)" fill="#CBCBCB"/>
<rect x="594.25" y="596" width="0.5" height="12" transform="rotate(-180 594.25 596)" fill="#CBCBCB"/>
<rect x="652" y="589.75" width="0.5" height="12" transform="rotate(90 652 589.75)" fill="#CBCBCB"/>
<rect x="646.25" y="596" width="0.5" height="12" transform="rotate(-180 646.25 596)" fill="#CBCBCB"/>
<rect x="704" y="589.75" width="0.5" height="12" transform="rotate(90 704 589.75)" fill="#CBCBCB"/>
<rect x="698.25" y="596" width="0.5" height="12" transform="rotate(-180 698.25 596)" fill="#CBCBCB"/>
<rect x="756" y="589.75" width="0.5" height="12" transform="rotate(90 756 589.75)" fill="#CBCBCB"/>
<rect x="750.25" y="596" width="0.5" height="12" transform="rotate(-180 750.25 596)" fill="#CBCBCB"/>
<rect x="808" y="589.75" width="0.5" height="12" transform="rotate(90 808 589.75)" fill="#CBCBCB"/>
<rect x="802.25" y="596" width="0.5" height="12" transform="rotate(-180 802.25 596)" fill="#CBCBCB"/>
<rect x="860" y="589.75" width="0.5" height="12" transform="rotate(90 860 589.75)" fill="#CBCBCB"/>
<rect x="854.25" y="596" width="0.5" height="12" transform="rotate(-180 854.25 596)" fill="#CBCBCB"/>
<rect x="912" y="589.75" width="0.5" height="12" transform="rotate(90 912 589.75)" fill="#CBCBCB"/>
<rect x="906.25" y="596" width="0.5" height="12" transform="rotate(-180 906.25 596)" fill="#CBCBCB"/>
<rect x="964" y="589.75" width="0.5" height="12" transform="rotate(90 964 589.75)" fill="#CBCBCB"/>
<rect x="958.25" y="596" width="0.5" height="12" transform="rotate(-180 958.25 596)" fill="#CBCBCB"/>
<rect x="1016" y="589.75" width="0.5" height="12" transform="rotate(90 1016 589.75)" fill="#CBCBCB"/>
<rect x="1010.25" y="596" width="0.5" height="12" transform="rotate(-180 1010.25 596)" fill="#CBCBCB"/>
<rect x="1068" y="589.75" width="0.5" height="12" transform="rotate(90 1068 589.75)" fill="#CBCBCB"/>
<rect x="1062.25" y="596" width="0.5" height="12" transform="rotate(-180 1062.25 596)" fill="#CBCBCB"/>
<rect x="1120" y="589.75" width="0.5" height="12" transform="rotate(90 1120 589.75)" fill="#CBCBCB"/>
<rect x="1114.25" y="596" width="0.5" height="12" transform="rotate(-180 1114.25 596)" fill="#CBCBCB"/>
<rect x="1172" y="589.75" width="0.5" height="12" transform="rotate(90 1172 589.75)" fill="#CBCBCB"/>
<rect x="1166.25" y="596" width="0.5" height="12" transform="rotate(-180 1166.25 596)" fill="#CBCBCB"/>
<rect x="1224" y="589.75" width="0.5" height="12" transform="rotate(90 1224 589.75)" fill="#CBCBCB"/>
<rect x="1218.25" y="596" width="0.5" height="12" transform="rotate(-180 1218.25 596)" fill="#CBCBCB"/>
<rect x="1276" y="589.75" width="0.5" height="12" transform="rotate(90 1276 589.75)" fill="#CBCBCB"/>
<rect x="1270.25" y="596" width="0.5" height="12" transform="rotate(-180 1270.25 596)" fill="#CBCBCB"/>
<rect x="1328" y="589.75" width="0.5" height="12" transform="rotate(90 1328 589.75)" fill="#CBCBCB"/>
<rect x="1322.25" y="596" width="0.5" height="12" transform="rotate(-180 1322.25 596)" fill="#CBCBCB"/>
<rect x="1380" y="589.75" width="0.5" height="12" transform="rotate(90 1380 589.75)" fill="#CBCBCB"/>
<rect x="1374.25" y="596" width="0.5" height="12" transform="rotate(-180 1374.25 596)" fill="#CBCBCB"/>
<rect x="1432" y="589.75" width="0.5" height="12" transform="rotate(90 1432 589.75)" fill="#CBCBCB"/>
<rect x="1426.25" y="596" width="0.5" height="12" transform="rotate(-180 1426.25 596)" fill="#CBCBCB"/>
<rect x="1484" y="589.75" width="0.5" height="12" transform="rotate(90 1484 589.75)" fill="#CBCBCB"/>
<rect x="1478.25" y="596" width="0.5" height="12" transform="rotate(-180 1478.25 596)" fill="#CBCBCB"/>
<rect x="1536" y="589.75" width="0.5" height="12" transform="rotate(90 1536 589.75)" fill="#CBCBCB"/>
<rect x="1530.25" y="596" width="0.5" height="12" transform="rotate(-180 1530.25 596)" fill="#CBCBCB"/>
<rect x="1588" y="589.75" width="0.5" height="12" transform="rotate(90 1588 589.75)" fill="#CBCBCB"/>
<rect x="1582.25" y="596" width="0.5" height="12" transform="rotate(-180 1582.25 596)" fill="#CBCBCB"/>
<rect x="1640" y="589.75" width="0.5" height="12" transform="rotate(90 1640 589.75)" fill="#CBCBCB"/>
<rect x="1634.25" y="596" width="0.5" height="12" transform="rotate(-180 1634.25 596)" fill="#CBCBCB"/>
<rect x="1692" y="589.75" width="0.5" height="12" transform="rotate(90 1692 589.75)" fill="#CBCBCB"/>
<rect x="1686.25" y="596" width="0.5" height="12" transform="rotate(-180 1686.25 596)" fill="#CBCBCB"/>
<rect x="28" y="641.75" width="0.5" height="12" transform="rotate(90 28 641.75)" fill="#CBCBCB"/>
<rect x="22.25" y="648" width="0.5" height="12" transform="rotate(-180 22.25 648)" fill="#CBCBCB"/>
<rect x="80" y="641.75" width="0.5" height="12" transform="rotate(90 80 641.75)" fill="#CBCBCB"/>
<rect x="74.25" y="648" width="0.5" height="12" transform="rotate(-180 74.25 648)" fill="#CBCBCB"/>
<rect x="132" y="641.75" width="0.5" height="12" transform="rotate(90 132 641.75)" fill="#CBCBCB"/>
<rect x="126.25" y="648" width="0.5" height="12" transform="rotate(-180 126.25 648)" fill="#CBCBCB"/>
<rect x="184" y="641.75" width="0.5" height="12" transform="rotate(90 184 641.75)" fill="#CBCBCB"/>
<rect x="178.25" y="648" width="0.5" height="12" transform="rotate(-180 178.25 648)" fill="#CBCBCB"/>
<rect x="236" y="641.75" width="0.5" height="12" transform="rotate(90 236 641.75)" fill="#CBCBCB"/>
<rect x="230.25" y="648" width="0.5" height="12" transform="rotate(-180 230.25 648)" fill="#CBCBCB"/>
<rect x="288" y="641.75" width="0.5" height="12" transform="rotate(90 288 641.75)" fill="#CBCBCB"/>
<rect x="282.25" y="648" width="0.5" height="12" transform="rotate(-180 282.25 648)" fill="#CBCBCB"/>
<rect x="340" y="641.75" width="0.5" height="12" transform="rotate(90 340 641.75)" fill="#CBCBCB"/>
<rect x="334.25" y="648" width="0.5" height="12" transform="rotate(-180 334.25 648)" fill="#CBCBCB"/>
<rect x="392" y="641.75" width="0.5" height="12" transform="rotate(90 392 641.75)" fill="#CBCBCB"/>
<rect x="386.25" y="648" width="0.5" height="12" transform="rotate(-180 386.25 648)" fill="#CBCBCB"/>
<rect x="444" y="641.75" width="0.5" height="12" transform="rotate(90 444 641.75)" fill="#CBCBCB"/>
<rect x="438.25" y="648" width="0.5" height="12" transform="rotate(-180 438.25 648)" fill="#CBCBCB"/>
<rect x="496" y="641.75" width="0.5" height="12" transform="rotate(90 496 641.75)" fill="#CBCBCB"/>
<rect x="490.25" y="648" width="0.5" height="12" transform="rotate(-180 490.25 648)" fill="#CBCBCB"/>
<rect x="548" y="641.75" width="0.5" height="12" transform="rotate(90 548 641.75)" fill="#CBCBCB"/>
<rect x="542.25" y="648" width="0.5" height="12" transform="rotate(-180 542.25 648)" fill="#CBCBCB"/>
<rect x="600" y="641.75" width="0.5" height="12" transform="rotate(90 600 641.75)" fill="#CBCBCB"/>
<rect x="594.25" y="648" width="0.5" height="12" transform="rotate(-180 594.25 648)" fill="#CBCBCB"/>
<rect x="652" y="641.75" width="0.5" height="12" transform="rotate(90 652 641.75)" fill="#CBCBCB"/>
<rect x="646.25" y="648" width="0.5" height="12" transform="rotate(-180 646.25 648)" fill="#CBCBCB"/>
<rect x="704" y="641.75" width="0.5" height="12" transform="rotate(90 704 641.75)" fill="#CBCBCB"/>
<rect x="698.25" y="648" width="0.5" height="12" transform="rotate(-180 698.25 648)" fill="#CBCBCB"/>
<rect x="756" y="641.75" width="0.5" height="12" transform="rotate(90 756 641.75)" fill="#CBCBCB"/>
<rect x="750.25" y="648" width="0.5" height="12" transform="rotate(-180 750.25 648)" fill="#CBCBCB"/>
<rect x="808" y="641.75" width="0.5" height="12" transform="rotate(90 808 641.75)" fill="#CBCBCB"/>
<rect x="802.25" y="648" width="0.5" height="12" transform="rotate(-180 802.25 648)" fill="#CBCBCB"/>
<rect x="860" y="641.75" width="0.5" height="12" transform="rotate(90 860 641.75)" fill="#CBCBCB"/>
<rect x="854.25" y="648" width="0.5" height="12" transform="rotate(-180 854.25 648)" fill="#CBCBCB"/>
<rect x="912" y="641.75" width="0.5" height="12" transform="rotate(90 912 641.75)" fill="#CBCBCB"/>
<rect x="906.25" y="648" width="0.5" height="12" transform="rotate(-180 906.25 648)" fill="#CBCBCB"/>
<rect x="964" y="641.75" width="0.5" height="12" transform="rotate(90 964 641.75)" fill="#CBCBCB"/>
<rect x="958.25" y="648" width="0.5" height="12" transform="rotate(-180 958.25 648)" fill="#CBCBCB"/>
<rect x="1016" y="641.75" width="0.5" height="12" transform="rotate(90 1016 641.75)" fill="#CBCBCB"/>
<rect x="1010.25" y="648" width="0.5" height="12" transform="rotate(-180 1010.25 648)" fill="#CBCBCB"/>
<rect x="1068" y="641.75" width="0.5" height="12" transform="rotate(90 1068 641.75)" fill="#CBCBCB"/>
<rect x="1062.25" y="648" width="0.5" height="12" transform="rotate(-180 1062.25 648)" fill="#CBCBCB"/>
<rect x="1120" y="641.75" width="0.5" height="12" transform="rotate(90 1120 641.75)" fill="#CBCBCB"/>
<rect x="1114.25" y="648" width="0.5" height="12" transform="rotate(-180 1114.25 648)" fill="#CBCBCB"/>
<rect x="1172" y="641.75" width="0.5" height="12" transform="rotate(90 1172 641.75)" fill="#CBCBCB"/>
<rect x="1166.25" y="648" width="0.5" height="12" transform="rotate(-180 1166.25 648)" fill="#CBCBCB"/>
<rect x="1224" y="641.75" width="0.5" height="12" transform="rotate(90 1224 641.75)" fill="#CBCBCB"/>
<rect x="1218.25" y="648" width="0.5" height="12" transform="rotate(-180 1218.25 648)" fill="#CBCBCB"/>
<rect x="1276" y="641.75" width="0.5" height="12" transform="rotate(90 1276 641.75)" fill="#CBCBCB"/>
<rect x="1270.25" y="648" width="0.5" height="12" transform="rotate(-180 1270.25 648)" fill="#CBCBCB"/>
<rect x="1328" y="641.75" width="0.5" height="12" transform="rotate(90 1328 641.75)" fill="#CBCBCB"/>
<rect x="1322.25" y="648" width="0.5" height="12" transform="rotate(-180 1322.25 648)" fill="#CBCBCB"/>
<rect x="1380" y="641.75" width="0.5" height="12" transform="rotate(90 1380 641.75)" fill="#CBCBCB"/>
<rect x="1374.25" y="648" width="0.5" height="12" transform="rotate(-180 1374.25 648)" fill="#CBCBCB"/>
<rect x="1432" y="641.75" width="0.5" height="12" transform="rotate(90 1432 641.75)" fill="#CBCBCB"/>
<rect x="1426.25" y="648" width="0.5" height="12" transform="rotate(-180 1426.25 648)" fill="#CBCBCB"/>
<rect x="1484" y="641.75" width="0.5" height="12" transform="rotate(90 1484 641.75)" fill="#CBCBCB"/>
<rect x="1478.25" y="648" width="0.5" height="12" transform="rotate(-180 1478.25 648)" fill="#CBCBCB"/>
<rect x="1536" y="641.75" width="0.5" height="12" transform="rotate(90 1536 641.75)" fill="#CBCBCB"/>
<rect x="1530.25" y="648" width="0.5" height="12" transform="rotate(-180 1530.25 648)" fill="#CBCBCB"/>
<rect x="1588" y="641.75" width="0.5" height="12" transform="rotate(90 1588 641.75)" fill="#CBCBCB"/>
<rect x="1582.25" y="648" width="0.5" height="12" transform="rotate(-180 1582.25 648)" fill="#CBCBCB"/>
<rect x="1640" y="641.75" width="0.5" height="12" transform="rotate(90 1640 641.75)" fill="#CBCBCB"/>
<rect x="1634.25" y="648" width="0.5" height="12" transform="rotate(-180 1634.25 648)" fill="#CBCBCB"/>
<rect x="1692" y="641.75" width="0.5" height="12" transform="rotate(90 1692 641.75)" fill="#CBCBCB"/>
<rect x="1686.25" y="648" width="0.5" height="12" transform="rotate(-180 1686.25 648)" fill="#CBCBCB"/>
</svg>
